<?xml version="1.0" encoding="utf-8"?>
<!-- Generator: Adobe Illustrator 23.1.0, SVG Export Plug-In . SVG Version: 6.00 Build 0)  -->
<svg version="1.1" xmlns="http://www.w3.org/2000/svg" xmlns:xlink="http://www.w3.org/1999/xlink" x="0px" y="0px"
	 viewBox="0 0 161.5 283.2" style="enable-background:new 0 0 161.5 283.2;" xml:space="preserve">
<style type="text/css">
	.st0{fill:#043D25;}
	.st1{fill:#D7EFD9;}
	.st2{fill:#EBFDEC;}
	.st3{fill:#026E32;}
	.st4{fill:#025532;}
	.st5{fill:#FBFCFC;}
	.st6{fill:#7BB580;}
	.st7{fill:#044A2C;}
	.st8{fill:#065735;}
	.st9{fill:#074128;}
	.st10{fill:#FAFBFA;}
	.st11{fill:#036E33;}
	.st12{fill:#6EA773;}
	.st13{fill:#498A4C;}
	.st14{fill:#BDE4C1;}
	.st15{fill:#99D19F;}
	.st16{fill:#7AB57F;}
	.st17{fill:#FCFDFC;}
	.st18{fill:#FEFEFE;}
	.st19{opacity:0.58;fill:#3D925C;}
	.st20{opacity:0.72;fill:#3D925C;}
	.st21{fill:#6ACD73;}
	.st22{fill:#4DB857;}
	.st23{fill:#88E891;}
	.st24{fill:#053E26;}
	.st25{fill:#26912B;}
	.st26{fill:#67AC6C;}
	.st27{fill:#9FD4A5;}
	.st28{fill:#3D925C;}
	.st29{fill:#005431;}
	.st30{fill:#4A9E69;}
	.st31{fill:#ECFEED;}
	.st32{fill:#4CB856;}
	.st33{fill:#BEE5C2;}
	.st34{fill:#016D31;}
	.st35{fill:#6EA673;}
	.st36{fill:#48894B;}
	.st37{fill:#6DA672;}
	.st38{fill:#016D32;}
	.st39{fill:#014A2B;}
	.st40{fill:#026E33;}
	.st41{fill:#024B2B;}
	.st42{fill:#044D2D;}
	.st43{fill:#428345;}
	.st44{fill:#F7FAF8;}
</style>
<g id="Слой_16_xA0_Изображение_1_">
</g>
<g id="Слой_6_xA0_Изображение_1_">
</g>
<g id="Слой_10_xA0_Изображение_1_">
	<g>
		<polygon class="st21" points="82.9,57.8 82.9,278.4 98.1,272.4 98.1,252.7 143.4,235.1 143.4,254.5 153.8,250.3 153.8,29.7 		"/>
		<polygon class="st22" points="41.2,41.2 41.2,238.5 68.6,249.4 68.6,272.7 82.9,278.4 82.9,57.7 		"/>
		<polygon class="st22" points="136.8,29.4 82.9,6.9 25,27.8 6.8,27.6 6.8,34.4 82.9,64.6 153.8,36.6 153.8,29.7 		"/>
		<polygon class="st23" points="82.9,0 6.8,27.6 82.9,57.7 153.8,29.7 		"/>
		<polygon class="st25" points="143.4,235.1 143.4,254.5 129,248.7 129,240.7 		"/>
		<path class="st24" d="M41.2,78.1v15.7c2,0,3.6-3.5,3.6-7.8S43.1,78.1,41.2,78.1z"/>
		<path class="st24" d="M41.2,185.1v15.7c2,0,3.6-3.5,3.6-7.8S43.1,185.1,41.2,185.1z"/>
		<path class="st24" d="M41.2,131.6v15.7c2,0,3.6-3.5,3.6-7.8S43.1,131.6,41.2,131.6z"/>
	</g>
</g>
<g id="Новая_группа_3_">
	<g id="Слой_11_xA0_Изображение_1_">
	</g>
</g>
<g id="Слой_11">
	<g id="Слой_12_xA0_Изображение_1_">
	</g>
</g>
<g id="Слой_13_xA0_Изображение_1_">
</g>
<g id="Слой_14_xA0_Изображение_1_">
</g>
<g id="Слой_15_xA0_Изображение_1_">
</g>
</svg>
