<?xml version="1.0" encoding="utf-8"?>
<!-- Generator: Adobe Illustrator 23.1.0, SVG Export Plug-In . SVG Version: 6.00 Build 0)  -->
<svg version="1.1" xmlns="http://www.w3.org/2000/svg" xmlns:xlink="http://www.w3.org/1999/xlink" x="0px" y="0px"
	 viewBox="0 0 314.1 308.7" style="enable-background:new 0 0 314.1 308.7;" xml:space="preserve">
<style type="text/css">
	.st0{fill:#043D25;}
	.st1{fill:#D7EFD9;}
	.st2{fill:#EBFDEC;}
	.st3{fill:#026E32;}
	.st4{fill:#025532;}
	.st5{fill:#FBFCFC;}
	.st6{fill:#7BB580;}
	.st7{fill:#044A2C;}
	.st8{fill:#065735;}
	.st9{fill:#074128;}
	.st10{fill:#FAFBFA;}
	.st11{fill:#036E33;}
	.st12{fill:#6EA773;}
	.st13{fill:#498A4C;}
	.st14{fill:#BDE4C1;}
	.st15{fill:#99D19F;}
	.st16{fill:#7AB57F;}
	.st17{fill:#FCFDFC;}
	.st18{fill:#FEFEFE;}
	.st19{opacity:0.58;fill:#3D925C;}
	.st20{opacity:0.72;fill:#3D925C;}
	.st21{fill:#6ACD73;}
	.st22{fill:#4DB857;}
	.st23{fill:#88E891;}
	.st24{fill:#053E26;}
	.st25{fill:#26912B;}
	.st26{fill:#67AC6C;}
	.st27{fill:#9FD4A5;}
	.st28{fill:#3D925C;}
	.st29{fill:#005431;}
	.st30{fill:#4A9E69;}
	.st31{fill:#ECFEED;}
	.st32{fill:#4CB856;}
	.st33{fill:#BEE5C2;}
	.st34{fill:#016D31;}
	.st35{fill:#6EA673;}
	.st36{fill:#48894B;}
	.st37{fill:#6DA672;}
	.st38{fill:#016D32;}
	.st39{fill:#014A2B;}
	.st40{fill:#026E33;}
	.st41{fill:#024B2B;}
	.st42{fill:#044D2D;}
	.st43{fill:#428345;}
	.st44{fill:#F7FAF8;}
</style>
<g id="Слой_16_xA0_Изображение_1_">
</g>
<g id="Слой_6_xA0_Изображение_1_">
</g>
<g id="Слой_10_xA0_Изображение_1_">
	<ellipse class="st19" cx="155.2" cy="262.6" rx="145.6" ry="29.9"/>
	<ellipse class="st20" cx="155.2" cy="262.6" rx="62.6" ry="29.9"/>
	<g>
		<polygon class="st21" points="157.7,69.9 157.7,290.6 173,284.5 173,264.9 218.2,247.2 218.2,266.6 228.7,262.5 228.7,41.8 		"/>
		<polygon class="st22" points="81.7,39.7 81.7,260.4 93.5,265.1 93.5,241.7 143.4,261.5 143.4,284.9 157.7,290.6 157.7,69.9 		"/>
		<polygon class="st22" points="211.7,41.6 157.7,19 99.9,40 81.7,39.7 81.7,46.6 157.7,76.7 228.7,48.7 228.7,41.8 		"/>
		<polygon class="st23" points="157.7,12.2 81.7,39.7 157.7,69.9 228.7,41.8 		"/>
		<ellipse class="st24" cx="116" cy="98.1" rx="3.6" ry="7.8"/>
		<ellipse class="st24" cx="116" cy="151.6" rx="3.6" ry="7.8"/>
		<ellipse class="st24" cx="116" cy="205.1" rx="3.6" ry="7.8"/>
		<polygon class="st25" points="93.7,264.9 109,258.9 109,247.8 93.5,241.7 		"/>
		<polygon class="st25" points="218.2,247.2 218.3,266.6 203.9,260.9 203.9,252.8 		"/>
	</g>
</g>
<g id="Новая_группа_3_">
	<g id="Слой_11_xA0_Изображение_1_">
	</g>
</g>
<g id="Слой_11">
	<g id="Слой_12_xA0_Изображение_1_">
	</g>
</g>
<g id="Слой_13_xA0_Изображение_1_">
</g>
<g id="Слой_14_xA0_Изображение_1_">
</g>
<g id="Слой_15_xA0_Изображение_1_">
</g>
</svg>
