<svg enable-background="new 0 0 480 480" viewBox="0 0 480 480" xmlns="http://www.w3.org/2000/svg"><g stroke-linecap="round" stroke-linejoin="round" stroke-miterlimit="10"><ellipse cx="371.2" cy="290.9" fill="none" rx="15.9" ry="12.2" stroke="#3aaa35" stroke-width="2" transform="matrix(.7264 -.6873 .6873 .7264 -98.3709 334.6752)"/><path d="m319.4 282.2c-.1-4.9 1.7-9.3 5.4-11.7 6.5-4.2 16.2-.7 21.7 7.8s4.7 18.7-1.8 22.9c-1.1.7-2.2 1.2-3.4 1.5" fill="#fff" stroke="#3aaa35" stroke-width="2"/><ellipse cx="364.7" cy="285.9" fill="#fff" rx="18.3" ry="14" stroke="#3aaa35" stroke-width="2" transform="matrix(.5434 -.8395 .8395 .5434 -73.423 436.7154)"/><path d="m362.8 284.8c0 12.9-6.3 18.2-14.1 18.2s-14.1-5.3-14.1-18.2 6.3-23.4 14.1-23.4 14.1 10.5 14.1 23.4z" fill="#fff" stroke="#3aaa35" stroke-width="2"/><path d="m397 440.9-40.4-15.1c-3.3-1.2-5.5-4.4-5.5-8v-15.3c0-7.7-1.4-30.4 14-30.6 29.4 0 46.7-9.2 46.7-38.6h-15.2c-25.5 0-40.3 19.9-45.4 43.9v-69.6c.7 2.1 2.9 3.5 5.3 3.3 2.5-.3 4.4-2.6 4.4-5.1v-4.8h-5c-.7 0-1.4.2-2 .4-.1-1.2-.5-2.4-1.4-3.3l-3.5-3.5-3.5 3.5c-.9.9-1.4 2.1-1.4 3.3-.6-.3-1.4-.5-2.1-.5h-2.9" fill="#fff" stroke="#3aaa35" stroke-width="2"/><ellipse cx="238" cy="256.6" fill="none" rx="15.2" ry="20" stroke="#3aaa35" stroke-width="2" transform="matrix(.6873 -.7264 .7264 .6873 -112.0095 253.1256)"/><ellipse cx="291.6" cy="256.6" fill="none" rx="20" ry="15.2" stroke="#3aaa35" stroke-width="2" transform="matrix(.7264 -.6873 .6873 .7264 -96.6119 270.6068)"/><ellipse cx="246" cy="250.3" fill="#fff" rx="17.5" ry="22.9" stroke="#3aaa35" stroke-width="2" transform="matrix(.8395 -.5434 .5434 .8395 -96.5437 173.867)"/><ellipse cx="283.5" cy="250.3" fill="#fff" rx="22.9" ry="17.5" stroke="#3aaa35" stroke-width="2" transform="matrix(.5434 -.8395 .8395 .5434 -80.6899 352.3267)"/><path d="m281.1 249c0 16.2-7.9 22.8-17.7 22.8s-17.7-6.6-17.7-22.8 7.9-29.3 17.7-29.3 17.7 13.1 17.7 29.3z" fill="#fff" stroke="#3aaa35" stroke-width="2"/><path d="m266.3 293.4v-15.8c.9 2.6 3.6 4.4 6.6 4.1 3.2-.4 5.5-3.2 5.5-6.4v-6h-6.2c-.9 0-1.8.2-2.5.5-.1-1.5-.7-3-1.8-4.1l-4.4-4.4-4.4 4.4c-1.2 1.2-1.8 2.7-1.8 4.2-.8-.4-1.7-.6-2.6-.6h-6.2v4.7" fill="#fff" stroke="#3aaa35" stroke-width="2"/><path d="m323.9 444.5-50.6-18.9c-4.2-1.6-6.9-5.5-6.9-10v-19.1c0-9.7-1.8-38 17.5-38.3 36.9 0 53.8-11.1 53.8-47.9l-14.4-.4c-32 0-50.4 24.9-56.9 54.9v-71.4" fill="none" stroke="#3aaa35" stroke-width="2"/><ellipse cx="122.6" cy="219.3" fill="none" rx="18.6" ry="24.4" stroke="#3aaa35" stroke-width="2" transform="matrix(.6873 -.7264 .7264 .6873 -120.9803 157.614)"/><ellipse cx="188.1" cy="219.3" fill="none" rx="24.4" ry="18.6" stroke="#3aaa35" stroke-width="2" transform="matrix(.7264 -.6873 .6873 .7264 -99.2636 189.2713)"/><ellipse cx="132.4" cy="211.6" fill="#fff" rx="21.4" ry="28" stroke="#3aaa35" stroke-width="2" transform="matrix(.8395 -.5434 .5434 .8395 -93.7311 105.9058)"/><ellipse cx="178.3" cy="211.6" fill="#fff" rx="28" ry="21.4" stroke="#3aaa35" stroke-width="2" transform="matrix(.5434 -.8395 .8395 .5434 -96.2347 246.2649)"/><path d="m175.3 210c0 19.8-9.7 27.8-21.6 27.8s-21.6-8-21.6-27.8 9.7-35.8 21.6-35.8c11.9-.1 21.6 16 21.6 35.8z" fill="#fff" stroke="#3aaa35" stroke-width="2"/><path d="m227.6 448.9-61.9-23.1c-5.1-1.9-8.5-6.8-8.5-12.2v-23.4c0-11.8-2.2-46.5 21.4-46.8 45.1 0 71.4-14 71.4-59.1h-23.2c-39.1 0-61.6 30.4-69.6 67.1v-106.4c1.1 3.2 4.4 5.4 8.1 5 3.9-.4 6.7-3.9 6.7-7.8v-7.3h-7.6c-1.1 0-2.2.2-3.1.7-.1-1.8-.8-3.6-2.2-5l-5.4-5.4-5.4 5.4c-1.4 1.4-2.1 3.2-2.2 5.1-1-.5-2.1-.7-3.2-.7h-7.6v7.3c0 4.1 3.1 7.6 7.2 7.9 3.6.2 6.7-2.2 7.7-5.4v77.8c-7.9-36.7-22.8-54.6-61.9-54.6h-23.3c0 45.1 18.7 59.8 63.8 59.8 24.9 1.6 21.4 21.7 21.4 33.5v52.8c0 5.4-3.3 10.2-8.2 12.1l-57.9 23" fill="#fff" stroke="#3aaa35" stroke-width="2"/><path d="m369.6 215.7.8 17" fill="none" stroke="#063" stroke-width="4"/><path d="m375.5 225 8.2 16.2" fill="none" stroke="#063" stroke-width="4"/><g stroke-width="2"><circle cx="374.7" cy="201.4" fill="#063" r="12.5" stroke="#063"/><path d="m415.1 161.7c3.1 3.9 1 16.1-9 18.9-11.9 3.3-17.3 8.8-20.4 4.9s.9-12.3 9-18.9 17.3-8.8 20.4-4.9z" fill="#fff" stroke="#063"/><path d="m373.5 190.2c-1.9 3.3-6.2 4.7-20.4 5.7-10.4.7-17.6-12.9-14.6-20.1s13.2-9.8 22.9-5.8c9.6 4 16.1 13.5 12.1 20.2z" fill="#fff" stroke="#063"/><circle cx="387.2" cy="203.7" fill="#063" r="21.2" stroke="#063"/><circle cx="393.3" cy="208.3" fill="#fff" r="24.4" stroke="#063"/><circle cx="399.6" cy="212.8" fill="#063" r="22.5" stroke="#063"/><path d="m363.5 200.1-5.5 2.3" fill="#3aaa35" stroke="#063"/><path d="m366.8 211.1-1.8 7.7-1.8 2.1.5 4.1" fill="none" stroke="#063"/><path d="m370.4 232.7 5.9 7.7.8 4.9" fill="none" stroke="#063"/><path d="m383.7 241.2 16.8 8.5 5.3 6.7" fill="none" stroke="#063"/><path d="m416.8 227.7 5.3 6.6 3.6 8.6" fill="none" stroke="#063"/><circle cx="402.9" cy="215.7" fill="#fff" r="18.3" stroke="#063"/><path d="m294.4 142c-.1 0-.2 0-.3 0-11.1 0-20.1-9-20.1-20.1h-19.5c0 21.9 17.7 39.6 39.6 39.6h.1c0-6.5 0-13 .2-19.5z" fill="#fff" stroke="#3aaa35"/><path d="m333.7 121.9c0-21.9-17.7-39.6-39.6-39.6v19.5c11.1 0 20.1 9 20.1 20.1v.4c6.5 0 13 0 19.5.1 0-.2 0-.4 0-.5z" fill="#fff" stroke="#3aaa35"/><path d="m314.2 122.3c-.2 10.8-9 19.5-19.8 19.7-.2 6.5-.2 13-.2 19.5 21.6 0 39.2-17.5 39.5-39.1-6.5-.1-13-.1-19.5-.1z" fill="#fff" stroke="#3aaa35"/><path d="m102 117.2c-3.1 5.4-8.1 8.5-11.1 6.6-.3-.2-.4-6.6 0-12.9.4-6.2 8-8.4 11.1-6.6s3.1 7.5 0 12.9z" fill="#fff" stroke="#063"/><circle cx="96.3" cy="134.4" fill="#fff" r="12.3" stroke="#063"/><path d="m97.4 122.2c-.4 0-.7-.1-1.1-.1-.5 0-1.1 0-1.6.1-6 .4-10.6 3.1-10.6 12.2 0 6.8 5.5 12.3 12.3 12.3h.9c0-.1 0-.2 0-.2.6-8-.3-16.1.1-24.3z" fill="#063" stroke="#063"/><path d="m88.9 150.9-5.2 3.9c-6.3 4.8-15.2 3.6-20-2.7s-3.6-15.2 2.7-20l5.2-3.9c6.3-4.8 15.2-3.6 20 2.7 4.7 6.3 3.5 15.2-2.7 20z" fill="#fff" stroke="#063"/><path d="m115 135.6c0 3.6-2.9 6.5-6.5 6.5s-2.4-2.9-2.4-6.5-1.2-6.5 2.4-6.5 6.5 2.9 6.5 6.5z" fill="#063" stroke="#063"/><path d="m91.6 130.9c-4.3-5.7-12.1-7.2-18.1-3.9 5.6 7.3 12 14.3 17.5 21.9 4.3-4.9 4.8-12.5.6-18z" fill="#063" stroke="#063"/></g><path d="m66.1 135.3 16.2 18" fill="none" stroke="#063" stroke-width="6"/><path d="m115 133.3 6.3-2.5" fill="none" stroke="#063" stroke-width="2"/><path d="m114.4 134.7 6.6 1.7" fill="none" stroke="#063" stroke-width="2"/><path d="m102.7 157.5-1.8-3.5 2.6-5.6-1.3-3.3" fill="none" stroke="#063" stroke-width="2"/><path d="m94.5 156.2-2.6 7" fill="none" stroke="#063" stroke-width="2"/><path d="m93.9 144.9.6 11.3" fill="none" stroke="#063" stroke-width="3"/><path d="m84.6 159.3v6.2l-4 4.5" fill="none" stroke="#063" stroke-width="2"/><path d="m90.2 149.8-5.6 9.5" fill="none" stroke="#063" stroke-width="3"/><g stroke-width="2"><path d="m93.2 113.9c1.1 7.7-1.6 14.8-6 15.1-.4 0-5.5-6.2-9.9-12.9-4.3-6.5 1.6-14.5 6-15.1 4.3-.6 8.8 5.2 9.9 12.9z" fill="#fff" stroke="#063"/><circle cx="223.3" cy="164.4" fill="#063" r="10.9" stroke="#063"/><circle cx="226" cy="167.7" fill="#fff" r="12.4" stroke="#063"/><circle cx="228.1" cy="169.8" fill="#063" r="10.3" stroke="#063"/><g fill="#fff"><circle cx="229.8" cy="171" r="8.2" stroke="#063"/><path d="m208.9 153.7c4.4 2.2 7 6.1 5.6 8.5-.1.2-5.2.6-10.2.5-4.9-.1-6.9-6-5.6-8.5s5.8-2.7 10.2-.5z" stroke="#063"/><path d="m219.9 146.1c-.3 4.9 1.7 9.1 4.4 9.2.3 0 3.1-4.1 5.6-8.5 2.4-4.3-1.7-9-4.4-9.2s-5.2 3.6-5.6 8.5z" stroke="#063"/><path d="m219.9 178.5 2.8 5.1.6 3.4" stroke="#063"/><path d="m238.4 168.8 2.7 3.7 3 .9" stroke="#063"/><path d="m213.6 170.6v5.3l-1.3 2.5" stroke="#063"/><path d="m236.7 161.4 2.5 1.4h3.4" stroke="#063"/><circle cx="330.3" cy="212.8" r="2.9" stroke="#3aaa35"/><circle cx="413.8" cy="265.2" r="2" stroke="#3aaa35"/><circle cx="394.7" cy="141.9" r="2.3" stroke="#3aaa35"/><circle cx="266.3" cy="188.9" r="2.8" stroke="#3aaa35"/><circle cx="110.4" cy="149" r="1.6" stroke="#3aaa35"/><circle cx="137.8" cy="161.4" r="3.2" stroke="#3aaa35"/><circle cx="122.6" cy="105.6" r="2" stroke="#3aaa35"/><circle cx="185.2" cy="265.2" r="2.5" stroke="#3aaa35"/></g><path d="m146.1 52.6h30.7l-23.9 52.2" fill="none" stroke="#063"/><path d="m188.4 88.3c0 9.2 7.4 16.6 16.6 16.6s16.6-7.4 16.6-16.6-7.4-16.6-16.6-16.6h-13.1v-19.1h26.5" fill="none" stroke="#063"/><path d="m278.4 52.8-41.4 52" fill="none" stroke="#063"/><circle cx="272.3" cy="93.1" fill="none" r="12" stroke="#063"/><circle cx="243.4" cy="64.3" fill="none" r="12" stroke="#063"/><path d="m307.1 72.9v-30.5h14.4l-25.4-25.5-25.8 25.5h14.9" fill="#fff" stroke="#3aaa35"/></g></g></svg>