<svg enable-background="new 0 0 480 480" viewBox="0 0 480 480" xmlns="http://www.w3.org/2000/svg"><g stroke-width="2"><path d="m218.1 123.3-186.8 12.7c-7.4.5-13.1 6.6-13.1 14v138.7c0 8.8 8 15.5 16.7 13.8l186.8-35.5c6.6-1.3 11.4-7.1 11.4-13.8v-115.8c0-8.2-6.9-14.6-15-14.1z" fill="none" stroke="#3aaa35" stroke-linecap="round" stroke-linejoin="round" stroke-miterlimit="10"/><path d="m246.9 137.4v115.8c0 6.8 4.8 12.6 11.4 13.8l186.8 35.5c8.7 1.7 16.7-5 16.7-13.8v-138.7c0-7.4-5.7-13.5-13.1-14l-186.8-12.6c-8.1-.6-15 5.8-15 14z" fill="none" stroke="#3aaa35" stroke-linecap="round" stroke-linejoin="round" stroke-miterlimit="10"/><path d="m268.1 90.4h-56.3c-9.2 0-16.7-7.5-16.7-16.7v-4.9c0-9.2 7.5-16.7 16.7-16.7h56.3c9.2 0 16.7 7.5 16.7 16.7v4.9c0 9.3-7.4 16.7-16.7 16.7z" fill="none" stroke="#063" stroke-linecap="round" stroke-linejoin="round" stroke-miterlimit="10"/><path d="m295.8 61.2 30.8-12.5" style="fill:none;stroke:#3aaa35;stroke-linecap:round;stroke-linejoin:round;stroke-miterlimit:10;stroke-dasharray:4 6"/><path d="m295.8 77.5 30.8 9.3" style="fill:none;stroke:#3aaa35;stroke-linecap:round;stroke-linejoin:round;stroke-miterlimit:10;stroke-dasharray:4 6"/><path d="m295.8 68.3h30.8" style="fill:none;stroke:#3aaa35;stroke-linecap:round;stroke-linejoin:round;stroke-miterlimit:10;stroke-dasharray:4 6"/><path d="m182.6 61.2-30.8-12.5" style="fill:none;stroke:#3aaa35;stroke-linecap:round;stroke-linejoin:round;stroke-miterlimit:10;stroke-dasharray:4 6"/><path d="m182.6 77.5-30.8 9.3" style="fill:none;stroke:#3aaa35;stroke-linecap:round;stroke-linejoin:round;stroke-miterlimit:10;stroke-dasharray:4 6"/><path d="m182.6 68.3h-30.8" style="fill:none;stroke:#3aaa35;stroke-linecap:round;stroke-linejoin:round;stroke-miterlimit:10;stroke-dasharray:4 6"/><circle cx="87.4" cy="337.4" fill="none" r="25" stroke="#3aaa35" stroke-linecap="round" stroke-linejoin="round" stroke-miterlimit="10"/><circle cx="146.8" cy="393.6" fill="none" r="25" stroke="#3aaa35" stroke-linecap="round" stroke-linejoin="round" stroke-miterlimit="10"/><circle cx="391.2" cy="337.4" fill="none" r="25" stroke="#3aaa35" stroke-linecap="round" stroke-linejoin="round" stroke-miterlimit="10"/><circle cx="331.8" cy="393.6" fill="none" r="25" stroke="#3aaa35" stroke-linecap="round" stroke-linejoin="round" stroke-miterlimit="10"/><path d="m233.1 312.4h13.8v66.2h-13.8z" fill="none" stroke="#063" stroke-linecap="round" stroke-linejoin="round" stroke-miterlimit="10"/><path d="m302.8 329.5-62.8-8.5-62.8 8.5v-13.2l62.8-8.5 62.8 8.5z" fill="none" stroke="#063" stroke-linecap="round" stroke-linejoin="round" stroke-miterlimit="10"/><circle cx="240" cy="314.4" fill="#fff" r="44.3" stroke="#063" stroke-linecap="round" stroke-linejoin="round" stroke-miterlimit="10"/><path d="m288.3 266.1c-3.3 3.3-3.6 8.6-.8 12.3 7.9 10.5 12.5 23.6 12 37.9-1 31.8-27.4 57.4-59.2 57.6-33 .2-59.9-26.6-59.9-59.6 0-13.6 4.5-26.1 12.2-36.1 2.8-3.7 2.4-8.9-.9-12.2-4-4-10.6-3.6-14 .9-10.5 13.8-16.5 31.1-15.9 49.9 1.3 41.5 35.5 75 77 75.7 43.7.6 79.4-34.6 79.4-78.2 0-17.8-5.9-34.1-15.9-47.3-3.4-4.4-10-4.9-14-.9z" fill="#fff" stroke="#063" stroke-linecap="round" stroke-linejoin="round" stroke-miterlimit="10"/><path d="m240 320.9h-10.6c-8.4 0-15.2-6.8-15.2-15.2v-2.2h10.6c8.4 0 15.2 6.8 15.2 15.2z" fill="none" stroke="#3aaa35" stroke-linecap="round" stroke-linejoin="round" stroke-miterlimit="10"/><path d="m261.1 284.9-17.4 14.3v21.7l17.4-14.3z" fill="none" stroke="#3aaa35" stroke-linecap="round" stroke-linejoin="round" stroke-miterlimit="10"/><path d="m240 340.9v-20l-15.8-11" fill="none" stroke="#3aaa35" stroke-linecap="round" stroke-linejoin="round" stroke-miterlimit="10"/><path d="m243.7 320.9v20" fill="none" stroke="#3aaa35" stroke-linecap="round" stroke-linejoin="round" stroke-miterlimit="10"/><path d="m227.1 340.9h28.6" fill="none" stroke="#3aaa35" stroke-linecap="round" stroke-linejoin="round" stroke-miterlimit="10"/><path d="m253.4 301.4-9.5 7.7" fill="none" stroke="#3aaa35" stroke-linecap="round" stroke-linejoin="round" stroke-miterlimit="10"/><circle cx="255.1" cy="299.8" fill="none" r="2.2" stroke="#3aaa35" stroke-linecap="round" stroke-linejoin="round" stroke-miterlimit="10"/><path d="m231.8 310.6-5.3 5.3" fill="none" stroke="#3aaa35" stroke-linecap="round" stroke-linejoin="round" stroke-miterlimit="10"/></g><path d="m207.6 80c-.4 0-.8-.2-1-.6s-.3-.8-.1-1.2l6.4-15.4c.2-.5.6-.8 1.1-.8.6 0 .9.3 1.1.8l6.5 15.4c.2.4.1.8-.1 1.2-.2.3-.6.5-1 .5-.2 0-.4-.1-.7-.2-.2-.1-.4-.3-.4-.5l-5.7-14.1h.6l-5.8 14.1c-.1.2-.3.4-.5.6.1.2-.1.2-.4.2zm1.3-3.9.9-2h9l.9 2z" fill="#063"/><path d="m231.3 80.4c-1.5 0-2.8-.3-3.9-.8s-2-1.3-2.6-2.3-1-2.1-1-3.3v-10.7c0-.4.1-.6.3-.9.2-.2.5-.3.8-.3.4 0 .6.1.9.3.2.2.3.5.3.9v10.7c0 .8.2 1.6.7 2.2.4.6 1 1.1 1.8 1.5s1.7.5 2.6.5c1 0 1.8-.2 2.6-.5.7-.4 1.3-.9 1.7-1.5s.6-1.4.6-2.2v-10.7c0-.4.1-.6.3-.9.2-.2.5-.3.8-.3.4 0 .6.1.8.3s.3.5.3.9v10.7c0 1.2-.3 2.3-.9 3.3s-1.5 1.7-2.6 2.3c-.8.5-2.1.8-3.5.8z" fill="#063"/><path d="m242.3 64.3c-.3 0-.6-.1-.8-.3s-.3-.5-.3-.8.1-.6.3-.8.5-.3.8-.3h12.3c.3 0 .6.1.8.3s.3.5.3.8-.1.6-.3.8-.5.3-.8.3zm6.1 15.7c-.3 0-.6-.1-.8-.3s-.3-.5-.3-.8v-16.8h2.4v16.7c0 .3-.1.6-.3.8-.3.3-.6.4-1 .4z" fill="#063"/><path d="m265.4 80.3c-1.3 0-2.6-.2-3.7-.7s-2.1-1.1-2.9-1.9-1.4-1.8-1.9-2.9c-.4-1.1-.7-2.4-.7-3.7s.2-2.6.7-3.7c.4-1.1 1.1-2.1 1.9-2.9s1.8-1.5 2.9-1.9c1.1-.5 2.3-.7 3.7-.7 1.3 0 2.6.2 3.7.7s2.1 1.1 2.9 1.9 1.4 1.8 1.9 2.9c.4 1.1.7 2.3.7 3.7 0 1.3-.2 2.6-.7 3.7-.4 1.1-1.1 2.1-1.9 2.9s-1.8 1.5-2.9 1.9-2.3.7-3.7.7zm0-2.2c1 0 1.9-.2 2.7-.5.8-.4 1.6-.9 2.2-1.5s1.1-1.4 1.4-2.2c.3-.9.5-1.8.5-2.8s-.2-1.9-.5-2.8-.8-1.6-1.4-2.2-1.3-1.1-2.2-1.5c-.8-.4-1.7-.5-2.7-.5s-1.9.2-2.7.5c-.8.4-1.6.8-2.2 1.5-.6.6-1.1 1.4-1.4 2.2-.3.9-.5 1.8-.5 2.8s.2 1.9.5 2.8.8 1.6 1.4 2.2 1.3 1.1 2.2 1.5c.8.3 1.7.5 2.7.5z" fill="#063"/><path d="m79.9 345.4c-.3 0-.6-.1-.8-.3s-.3-.5-.3-.8v-15.5c0-.4.1-.6.3-.9.2-.2.5-.3.8-.3.5 0 .8.2 1.1.6l7.2 14.4h-.7l7-14.4c.2-.4.6-.6 1.1-.6.3 0 .6.1.8.3s.3.5.3.9v15.5c0 .3-.1.6-.4.8-.2.2-.5.3-.8.3s-.6-.1-.8-.3-.3-.5-.3-.8v-12.3l.5-.1-6 12.2c-.3.4-.6.6-1 .6-.5 0-.9-.2-1.1-.7l-5.9-11.9.5-.1v12.2c0 .3-.1.6-.3.8-.6.3-.9.4-1.2.4z" fill="#3aaa35"/><path d="m383.5 345.4c-.3 0-.6-.1-.8-.3s-.3-.5-.3-.8v-15.5c0-.4.1-.6.3-.9.2-.2.5-.3.8-.3.5 0 .8.2 1.1.6l7.2 14.4h-.8l7-14.4c.2-.4.6-.6 1.1-.6.3 0 .6.1.8.3s.3.5.3.9v15.5c0 .3-.1.6-.4.8-.2.2-.5.3-.8.3s-.6-.1-.8-.3-.3-.5-.3-.8v-12.3l.5-.1-6 12.2c-.3.4-.6.6-1 .6-.5 0-.9-.2-1.1-.7l-5.9-11.9.5-.1v12.2c0 .3-.1.6-.3.8-.5.3-.8.4-1.1.4z" fill="#3aaa35"/><path d="m138.3 391.9c-.3 0-.6-.1-.8-.3s-.3-.4-.3-.7.1-.5.3-.7.5-.3.8-.3h5.3c.3 0 .6.1.8.3s.3.4.3.7-.1.5-.3.7-.5.3-.8.3zm5 10.1c-.8 0-1.5-.2-2.1-.6s-1.1-.9-1.4-1.6c-.4-.7-.5-1.4-.5-2.3v-10.9c0-.3.1-.6.3-.8s.5-.3.8-.3.6.1.8.3.3.5.3.8v10.9c0 .6.2 1.1.5 1.5s.7.6 1.2.6h.8c.3 0 .5.1.7.3s.3.5.3.8-.1.6-.4.8-.6.3-1 .3h-.3z" fill="#3aaa35"/><path d="m151.4 393.1c-.9 0-1.6-.2-2.3-.6s-1.2-.9-1.6-1.6-.6-1.5-.6-2.3c0-.9.2-1.6.6-2.3s.9-1.2 1.6-1.6 1.5-.6 2.3-.6c.9 0 1.6.2 2.3.6s1.2.9 1.6 1.6.6 1.5.6 2.3c0 .9-.2 1.6-.6 2.3s-.9 1.2-1.6 1.6-1.4.6-2.3.6zm0-2.3c.7 0 1.2-.2 1.7-.7.4-.4.7-1 .7-1.7s-.2-1.2-.7-1.7c-.4-.4-1-.7-1.6-.7-.7 0-1.2.2-1.7.7-.4.4-.7 1-.7 1.7s.2 1.2.7 1.7c.4.5.9.7 1.6.7z" fill="#3aaa35"/><path d="m325.4 402c-.4 0-.8-.2-1-.6s-.3-.8-.1-1.2l6.4-15.4c.2-.5.6-.8 1.1-.8.6 0 .9.3 1.1.8l6.5 15.4c.2.4.1.8-.1 1.2-.2.3-.6.5-1 .5-.2 0-.4-.1-.7-.2s-.4-.3-.4-.5l-5.7-14.1h.6l-5.8 14.1c-.1.2-.3.4-.5.5 0 .3-.2.3-.4.3zm1.2-3.9.9-2h9l.9 2z" fill="#3aaa35"/><g stroke-linecap="round" stroke-linejoin="round" stroke-miterlimit="10"><g stroke="#063"><path d="m161.1 221.2-2.8 5.4" fill="none" stroke-width="2"/><path d="m161.1 205.2v16" fill="none" stroke-width="4"/><circle cx="165.3" cy="193.3" fill="#063" r="8.3" stroke-width="2"/><ellipse cx="150.3" cy="189.4" fill="#fff" rx="16" ry="21.1" stroke-width="2" transform="matrix(.3982 -.9173 .9173 .3982 -83.3247 251.8451)"/><path d="m112.2 147.6c-4 4.1-3.2 15.7 5.8 20.1 9.5 4.5 19.1 6.4 20.3 5.2 4-4.1 1.4-13.1-5.8-20.1s-16.3-9.3-20.3-5.2z" fill="#fff" stroke-width="2"/><circle cx="145.6" cy="187.4" fill="#063" r="16" stroke-width="2"/><path d="m125.7 196 31.7-8.1c3.7 14.5-7.6 30.1-24.9 34.5s-34.7-3.9-38.4-18.4 7.6-30.1 24.9-34.5c16.2-4.1 32.5 2.7 37.6 15.8z" fill="#063" stroke-width="2"/><ellipse cx="123" cy="196.7" fill="#fff" rx="29.9" ry="27.3" stroke-width="2" transform="matrix(.9691 -.2467 .2467 .9691 -44.7197 36.4279)"/><ellipse cx="117.2" cy="199.2" fill="#063" rx="22.5" ry="25.2" stroke-width="2" transform="matrix(.859 -.512 .512 .859 -85.4333 88.0994)"/><ellipse cx="109.9" cy="203.5" fill="#fff" rx="14.1" ry="15.7" stroke-width="2" transform="matrix(.859 -.512 .512 .859 -88.6866 84.9786)"/><path d="m150.3 227.2s-10.4 6.3-10.8 6.3-2.9 6.1-2.9 6.1" fill="none" stroke-width="2"/><path d="m154.3 207.2-4 20" fill="none" stroke-width="4"/><path d="m98.9 214.7-4.6 2.4-4.2 6.8" fill="none" stroke-width="2"/><path d="m165.4 204.3.7 9.8 2.5 2.4" fill="none" stroke-width="2"/><path d="m179.1 155c3.7 4.4 2.2 15.9-7.1 19.7-9.7 3.9-19.4 5.1-20.6 3.8-3.7-4.4-.5-13.2 7.1-19.7s16.8-8.2 20.6-3.8z" fill="#fff" stroke-width="2"/><path d="m173.1 190.4 3.4-2.3" fill="none" stroke-width="2"/><path d="m290.5 195.7 3.1 3.6" fill="none" stroke-width="2"/><path d="m287.6 183.5 2.9 12.2" fill="none" stroke-width="4"/><circle cx="283.2" cy="172" fill="#063" r="6.5" stroke-width="2"/><ellipse cx="292.9" cy="169.5" fill="#fff" rx="15.5" ry="12.5" stroke-width="2" transform="matrix(.8954 -.4452 .4452 .8954 -44.8543 148.1271)"/><path d="m315.2 135.3c3.8 2.4 5.3 11.4-.8 16.3-6.4 5.2-13.3 8.3-14.5 7.6-3.8-2.4-3.4-9.7.8-16.3s10.7-10 14.5-7.6z" fill="#fff" stroke-width="2"/><circle cx="295.6" cy="168.2" fill="#063" r="12.5" stroke-width="2"/><ellipse cx="313.7" cy="174.5" fill="#063" rx="21.3" ry="25.5" stroke-width="2" transform="matrix(.01595878 -.9999 .9999 .01595878 134.2496 485.3645)"/><ellipse cx="315.9" cy="174.5" fill="#fff" rx="21.3" ry="23.4" stroke-width="2" transform="matrix(.01595878 -.9999 .9999 .01595878 136.3341 487.5513)"/><ellipse cx="320.7" cy="175.4" fill="#063" rx="19.7" ry="17.6" stroke-width="2" transform="matrix(.2995 -.9541 .9541 .2995 57.3616 428.8266)"/><ellipse cx="327" cy="177.3" fill="#fff" rx="12.3" ry="11" stroke-width="2" transform="matrix(.2995 -.9541 .9541 .2995 59.9004 436.2583)"/><path d="m308.4 201.8s9.1 2.9 9.4 2.8 3.4 4.1 3.4 4.1" fill="none" stroke-width="2"/><path d="m296.5 189.8 11.1 11.4" fill="none" stroke-width="4"/><path d="m282.7 181.8 1.3 7.5-1.5 2.4" fill="none" stroke-width="2"/><path d="m265.7 152.9c-2 4 1.2 12.5 8.9 13.7 8.1 1.2 15.7.4 16.3-.8 2-4-2-10.1-8.9-13.7s-14.2-3.2-16.3.8z" fill="#fff" stroke-width="2"/><path d="m333.8 167.2 11.5 4.3 3.6 5.2" fill="none" stroke-width="2"/></g><circle cx="43.9" cy="280.5" fill="none" r="4.4" stroke="#3aaa35" stroke-width="2"/><circle cx="416.2" cy="167.2" fill="none" r="4.4" stroke="#3aaa35" stroke-width="2"/><circle cx="195.2" cy="223.9" fill="none" r="4.4" stroke="#3aaa35" stroke-width="2"/><circle cx="270.9" cy="229.8" fill="none" r="5.8" stroke="#3aaa35" stroke-width="2"/><circle cx="110" cy="245.5" fill="none" r="2.5" stroke="#3aaa35" stroke-width="2"/><circle cx="440.1" cy="253.9" fill="none" r="2.5" stroke="#3aaa35" stroke-width="2"/><circle cx="97.1" cy="162" fill="none" r="2.5" stroke="#3aaa35" stroke-width="2"/><circle cx="188.5" cy="145.6" fill="none" r="2.5" stroke="#3aaa35" stroke-width="2"/><circle cx="278.3" cy="140.3" fill="none" r="2.5" stroke="#3aaa35" stroke-width="2"/><ellipse cx="377.2" cy="218.8" fill="none" rx="13.2" ry="5.1" stroke="#063" stroke-width="2" transform="matrix(.834 -.5518 .5518 .834 -58.1303 244.4828)"/><ellipse cx="348.4" cy="221.2" fill="none" rx="5.1" ry="13.2" stroke="#063" stroke-width="2" transform="matrix(.5 -.866 .866 .5 -17.394 412.3187)"/><circle cx="365.8" cy="240.3" fill="#fff" r="16.2" stroke="#063" stroke-width="2"/><ellipse cx="366.4" cy="243" fill="#063" rx="16.2" ry="13.4" stroke="#063" stroke-width="2" transform="matrix(.9797 -.2003 .2003 .9797 -41.2523 78.3214)"/><ellipse cx="367.2" cy="247.2" fill="#fff" rx="10.6" ry="9.2" stroke="#063" stroke-width="2" transform="matrix(.9797 -.2003 .2003 .9797 -42.0729 78.5775)"/><path d="m381 235.2 4.3 13.4 2.5 4.4 1.5 6.6" fill="#3aaa35" stroke="#063" stroke-width="2"/><path d="m349.6 238.5-.1 14.1-1.1 4.9.6 6.8" fill="#3aaa35" stroke="#063" stroke-width="2"/></g></svg>