<svg enable-background="new 0 0 77 77" viewBox="0 0 77 77" xmlns="http://www.w3.org/2000/svg"><g fill="#3aaa35"><path d="m61.4 71.9h-17.7c-.3 0-.5-.2-.5-.5s.2-.5.5-.5h17.2v-29.8l-17.3-12.7c-.2-.2-.3-.5-.1-.7s.5-.3.7-.1l17.5 12.9c.1.1.2.2.2.4v30.6c0 .2-.2.4-.5.4z"/><path d="m37.3 71.9c-.1 0-.2 0-.3-.1l-5.4-3.9c-9.9-7.3-15.7-18.1-15.7-29.7v-6.8c0-.1.1-.3.2-.4s.2-.1.4-.1l11 .4c3.5 0 7-1.3 9.5-3.6.2-.2.5-.2.7 0s.2.5 0 .7c-2.7 2.5-6.3 3.9-10.2 3.9l-10.5-.4v6.3c0 11.3 5.6 21.9 15.2 28.9l5.4 3.9c.2.2.3.5.1.7-.1.1-.3.2-.4.2z"/><path d="m40.2 21.2c-3 0-5.4-2.4-5.4-5.4s2.4-5.4 5.4-5.4 5.4 2.4 5.4 5.4-2.4 5.4-5.4 5.4zm0-9.9c-2.4 0-4.4 2-4.4 4.4s2 4.4 4.4 4.4 4.4-2 4.4-4.4-2-4.4-4.4-4.4z"/><path d="m45.1 24.1c-3 0-5.4-2.4-5.4-5.4s2.4-5.4 5.4-5.4 5.4 2.4 5.4 5.4c0 .3-.2.5-.5.5s-.5-.2-.5-.5c0-2.4-2-4.4-4.4-4.4s-4.4 2-4.4 4.4 2 4.4 4.4 4.4c.3 0 .5.2.5.5s-.2.5-.5.5z"/><path d="m40.2 15.5c-1.4 0-2.8-.5-3.8-1.6-2.1-2.1-2.1-5.6 0-7.7.1-.2.4-.2.6 0s.2.5 0 .7c-1.7 1.7-1.7 4.5 0 6.3 1.7 1.7 4.5 1.7 6.3 0 1.7-1.7 1.7-4.5 0-6.3-.2-.2-.2-.5 0-.7s.5-.2.7 0c2.1 2.1 2.1 5.6 0 7.7-1 1-2.4 1.6-3.8 1.6z"/><path d="m35.2 24.1c-.3 0-.5-.2-.5-.5s.2-.5.5-.5c2.4 0 4.4-2 4.4-4.4s-2-4.4-4.4-4.4-4.4 2-4.4 4.4c0 .3-.2.5-.5.5s-.5-.2-.5-.5c0-3 2.4-5.4 5.4-5.4s5.4 2.4 5.4 5.4c.1 2.9-2.4 5.4-5.4 5.4z"/></g><circle cx="40.2" cy="15.8" fill="#fff" r="2.1"/><path d="m40.2 18.4c-1.4 0-2.6-1.2-2.6-2.6s1.2-2.6 2.6-2.6 2.6 1.2 2.6 2.6-1.2 2.6-2.6 2.6zm0-4.2c-.9 0-1.6.7-1.6 1.6s.7 1.6 1.6 1.6 1.6-.7 1.6-1.6-.7-1.6-1.6-1.6z" fill="#3aaa35"/><path clip-rule="evenodd" d="m40.1 40.9c1.2 0 2.3.9 2.5 2.1v.1c.2 1-.6 2-1.6 2h-1.9c-1.1 0-1.9-1-1.6-2v-.1c.3-1.3 1.4-2.1 2.6-2.1z" fill="#3aaa35" fill-rule="evenodd"/><circle clip-rule="evenodd" cx="40.1" cy="53.7" fill="#3aaa35" fill-rule="evenodd" r="4.5"/><path d="m40.1 58.7c-1.3 0-2.5-.5-3.5-1.5-.9-.9-1.5-2.2-1.5-3.5s.5-2.6 1.5-3.5c.9-.9 2.2-1.5 3.5-1.5s2.6.5 3.5 1.5c1.9 1.9 1.9 5.1 0 7-1 1-2.3 1.5-3.5 1.5zm0-8.9c-1 0-2 .4-2.8 1.2-.7.7-1.2 1.7-1.2 2.8s.4 2.1 1.2 2.8c1.5 1.5 4.1 1.5 5.6 0s1.5-4.1 0-5.6c-.8-.9-1.8-1.2-2.8-1.2z" fill="#3aaa35"/><path d="m40.1 57.5c-3.1 0-5.7-2.6-5.7-5.7s2.6-5.7 5.7-5.7 5.7 2.6 5.7 5.7-2.6 5.7-5.7 5.7zm0-10.4c-2.6 0-4.7 2.1-4.7 4.7s2.1 4.7 4.7 4.7 4.7-2.1 4.7-4.7-2.1-4.7-4.7-4.7z" fill="#3aaa35"/><ellipse clip-rule="evenodd" cx="40.1" cy="51.8" fill="#fff" fill-rule="evenodd" rx="5.2" ry="5.2" transform="matrix(.7071 -.7071 .7071 .7071 -24.8586 43.4993)"/><path d="m40.1 57.5c-3.1 0-5.7-2.6-5.7-5.7s2.6-5.7 5.7-5.7 5.7 2.6 5.7 5.7-2.6 5.7-5.7 5.7zm0-10.4c-2.6 0-4.7 2.1-4.7 4.7s2.1 4.7 4.7 4.7 4.7-2.1 4.7-4.7-2.1-4.7-4.7-4.7z" fill="#3aaa35"/><path d="m50.5 50.5c-.1 0-.2 0-.2 0l-2.2-.1c-2-.1-3.8-1.4-4.1-3l-.3-1.7c0-.2 0-.3.1-.5.1-.1.3-.2.5-.1l6.8 1.5c.9.2 1.5.7 1.7 1.4.2.6.1 1.1-.3 1.6-.4.6-1.2.9-2 .9zm-5.7-4.2.2 1c.2 1.1 1.7 2.1 3.2 2.2l2.2.1c.6 0 1.2-.1 1.4-.5.2-.2.2-.4.1-.7s-.5-.6-1-.7z" fill="#3aaa35"/><path clip-rule="evenodd" d="m44 44.3 8.3-3.3c.8-.3 1.7-.2 2.2.3 1.1 1.1.8 2.8-.8 3.8l-2.4 1.5c-1.9 1.2-4.5 1-5.8-.4z" fill="#fff" fill-rule="evenodd"/><path d="m48.6 47.9c-1.3 0-2.6-.5-3.4-1.4l-1.6-1.9c-.1-.1-.1-.3-.1-.4s.2-.3.3-.3l8.3-3.3c1-.4 2.1-.2 2.8.4.6.6.9 1.3.8 2.1-.1 1-.7 1.9-1.7 2.5l-2.4 1.5c-.9.6-1.9.8-3 .8zm-3.7-3.4 1.2 1.4c1.1 1.3 3.4 1.4 5.1.3l2.4-1.5c.7-.4 1.1-1.1 1.2-1.7.1-.5-.1-.9-.5-1.3s-1.1-.5-1.7-.2z" fill="#3aaa35"/><path d="m29.7 50.5c-.9 0-1.6-.3-2.1-.9-.4-.5-.5-1-.3-1.6.2-.7.9-1.2 1.7-1.4l6.8-1.5c.2 0 .3 0 .5.1.1.1.2.3.1.5l-.3 1.7c-.3 1.5-2.1 2.8-4.1 3l-2.2.1s0 0-.1 0zm5.7-4.2-6.1 1.4c-.5.1-.9.5-1 .7-.1.3 0 .5.1.7.3.3.8.5 1.4.5l2.2-.1c1.5-.1 3-1.1 3.2-2.2z" fill="#3aaa35"/><path clip-rule="evenodd" d="m36.1 44.3-8.3-3.3c-.8-.3-1.7-.2-2.2.3-1.1 1.1-.8 2.8.8 3.8l2.4 1.5c1.9 1.2 4.5 1 5.8-.4z" fill="#fff" fill-rule="evenodd"/><path d="m31.5 47.9c-1 0-2.1-.3-3-.9l-2.4-1.5c-1-.6-1.6-1.5-1.7-2.5-.1-.8.2-1.6.8-2.1.7-.6 1.8-.8 2.8-.4l8.3 3.3c.2.1.3.2.3.3s0 .3-.1.4l-1.6 1.9c-.8 1.1-2.1 1.5-3.4 1.5zm-4.6-6.5c-.4 0-.8.1-1 .3-.4.4-.5.8-.5 1.3.1.7.5 1.3 1.2 1.7l2.4 1.5c1.7 1.1 4 .9 5.1-.3l1.2-1.4-7.6-3c-.3-.1-.6-.1-.8-.1z" fill="#3aaa35"/><path clip-rule="evenodd" d="m45.1 50.3c0 1.5-2.2 2.6-5 2.6s-5-1.2-5-2.6c0-1.5 2.2-4.3 5-4.3 2.7 0 5 2.8 5 4.3z" fill="#3aaa35" fill-rule="evenodd"/><path clip-rule="evenodd" d="m40.1 49.9c-1.9 0-3.5-1.3-3.9-3.1v-.2c-.3-1.6.9-3.1 2.5-3.1h2.8c1.6 0 2.8 1.5 2.5 3.1v.2c-.5 1.8-2.1 3.1-3.9 3.1z" fill="#fff" fill-rule="evenodd"/><g fill="#3aaa35"><path d="m40.1 50.4c-2.1 0-3.9-1.5-4.3-3.5v-.2c-.2-.9 0-1.8.6-2.5s1.4-1.1 2.4-1.1h2.8c.9 0 1.8.4 2.4 1.1s.8 1.6.6 2.5v.2c-.6 2-2.4 3.5-4.5 3.5zm-1.4-6.4c-.6 0-1.2.3-1.6.8s-.5 1.1-.4 1.7v.2c.3 1.6 1.8 2.7 3.4 2.7s3-1.1 3.4-2.7v-.2c.1-.6 0-1.2-.4-1.7s-1-.8-1.6-.8z"/><path d="m38.6 41.9c-.1 0-.3 0-.4-.1l-1.6-1.6c-.2-.2-.2-.5 0-.7s.5-.2.7 0l1.6 1.6c.2.2.2.5 0 .7-.1 0-.2.1-.3.1z"/><path d="m36.4 45.4c-.2 0-.3-.1-.4-.2l-1.9-3.2c0-.1-.1-.2-.1-.3v-1.7l-1.3-1.1c-.2-.2-.2-.5-.1-.7s.5-.2.7-.1l1.5 1.2c.1.1.2.2.2.4v1.8l1.8 3c.1.2.1.5-.2.7 0 .1-.1.2-.2.2z"/><path d="m30.8 54.1c-.2 0-.4-.1-.5-.4s.1-.5.3-.6l1.1-.3.9-2.4c0-.1.1-.1.1-.2l3.2-3.2c.2-.2.5-.2.7 0s.2.5 0 .7l-3.2 3.1-.9 2.5c-.1.2-.2.3-.3.3l-1.3.4c0 .1-.1.1-.1.1z"/><path d="m34.5 59.9c-.3 0-.5-.2-.5-.5v-1.9l-1-2.7c0-.1 0-.2 0-.3l1.5-4.4c.1-.3.4-.4.6-.3.3.1.4.4.3.6l-1.5 4.2 1 2.7v.2 2c.1.2-.1.4-.4.4z"/><path d="m41.6 41.9c-.1 0-.3 0-.4-.1-.2-.2-.2-.5 0-.7l1.6-1.6c.2-.2.5-.2.7 0s.2.5 0 .7l-1.5 1.5c-.1.1-.2.2-.4.2z"/><path d="m43.8 45.4c-.1 0-.2 0-.3-.1-.2-.1-.3-.4-.2-.7l1.8-3v-1.8c0-.2.1-.3.2-.4l1.5-1.2c.2-.2.5-.1.7.1s.1.5-.1.7l-1.3 1v1.7c0 .1 0 .2-.1.3l-1.9 3.2c0 .1-.2.2-.3.2z"/><path d="m49.4 54.1h-.1l-1.3-.4c-.2 0-.3-.2-.3-.3l-.9-2.5-3.2-3.1c-.2-.2-.2-.5 0-.7s.5-.2.7 0l3.2 3.2c.1.1.1.1.1.2l.9 2.4 1.1.3c.3.1.4.4.3.6s-.3.3-.5.3z"/><path d="m45.7 59.9c-.3 0-.5-.2-.5-.5v-2c0-.1 0-.1 0-.2l1-2.7-1.5-4.2c-.1-.3 0-.5.3-.6s.5 0 .6.3l1.5 4.4v.3l-1 2.7v1.9c.1.4-.2.6-.4.6z"/></g></svg>