<svg enable-background="new 0 0 78.7 78.7" viewBox="0 0 78.7 78.7" xmlns="http://www.w3.org/2000/svg"><g fill="#3aaa35"><path d="m54.8 70h-26.9c-.3 0-.5-.2-.5-.5s.2-.5.5-.5h26.4v-46.6l-26.3-10.1c-.3-.1-.4-.4-.3-.6.1-.3.4-.4.6-.3l26.7 10.2c.2.1.3.3.3.5v47.5c0 .2-.2.4-.5.4z"/><path clip-rule="evenodd" d="m27.3 36.1c1.1 0 2.1.8 2.4 1.9v.1c.2 1-.5 1.9-1.5 1.9h-1.7c-1 0-1.7-.9-1.5-1.9v-.1c.2-1.1 1.1-1.9 2.3-1.9z" fill-rule="evenodd"/><circle clip-rule="evenodd" cx="27.3" cy="48" fill-rule="evenodd" r="4.1"/><path d="m27.3 52.6c-2.5 0-4.6-2.1-4.6-4.6s2.1-4.6 4.6-4.6 4.6 2.1 4.6 4.6c0 2.6-2.1 4.6-4.6 4.6zm0-8.2c-2 0-3.6 1.6-3.6 3.6s1.6 3.6 3.6 3.6 3.6-1.6 3.6-3.6c0-1.9-1.6-3.6-3.6-3.6z"/><path d="m27.3 51.5c-1.4 0-2.7-.5-3.7-1.5s-1.6-2.3-1.6-3.7.6-2.7 1.6-3.7 2.3-1.6 3.7-1.6 2.7.6 3.7 1.6 1.6 2.3 1.6 3.7-.6 2.7-1.6 3.7-2.4 1.5-3.7 1.5zm0-9.6c-1.1 0-2.2.4-3 1.3-.8.8-1.3 1.9-1.3 3s.4 2.2 1.3 3c1.7 1.7 4.4 1.7 6.1 0 .8-.8 1.3-1.9 1.3-3s-.4-2.2-1.3-3-2-1.3-3.1-1.3z"/></g><ellipse clip-rule="evenodd" cx="27.3" cy="46.2" fill="#fff" fill-rule="evenodd" rx="4.8" ry="4.8"/><path d="m27.3 51.5c-1.4 0-2.7-.5-3.7-1.5s-1.6-2.3-1.6-3.7.6-2.7 1.6-3.7 2.3-1.6 3.7-1.6 2.7.6 3.7 1.6 1.6 2.3 1.6 3.7-.6 2.7-1.6 3.7-2.4 1.5-3.7 1.5zm0-9.6c-1.1 0-2.2.4-3 1.3-.8.8-1.3 1.9-1.3 3s.4 2.2 1.3 3c1.7 1.7 4.4 1.7 6.1 0 .8-.8 1.3-1.9 1.3-3s-.4-2.2-1.3-3-2-1.3-3.1-1.3z" fill="#3aaa35"/><path d="m36.7 45.1-2-.1c-1.9-.1-3.6-1.4-3.9-2.8l-.3-1.6c0-.2 0-.3.1-.5s.3-.2.5-.1l6.3 1.4c.7.1 1.4.6 1.7 1.3.2.6.1 1.1-.2 1.5-.5.6-1.3.9-2.2.9zm-5.1-3.9.2.9c.2 1 1.6 1.9 2.9 2l2 .1c.6 0 1.1-.2 1.3-.5.1-.2.1-.3.1-.6-.1-.3-.5-.6-.9-.7z" fill="#3aaa35"/><path clip-rule="evenodd" d="m30.9 39.3 7.7-3c.8-.3 1.6-.2 2.1.3 1 1 .7 2.6-.7 3.5l-2.2 1.4c-1.8 1.1-4.2.9-5.3-.4z" fill="#fff" fill-rule="evenodd"/><path d="m35.2 42.8c-1.2 0-2.4-.4-3.1-1.3l-1.6-1.8c-.1-.1-.2-.3-.1-.4 0-.2.2-.3.3-.3l7.7-3c1-.4 2-.2 2.6.4.5.5.8 1.3.7 2-.1.9-.6 1.7-1.5 2.3l-2.1 1.3c-.9.5-1.9.8-2.9.8zm-3.4-3.3 1.1 1.3c1 1.1 3.1 1.3 4.7.3l2.2-1.4c.6-.4 1-.9 1-1.5 0-.5-.1-.9-.4-1.2-.4-.4-.9-.4-1.6-.2z" fill="#3aaa35"/><path d="m17.8 45.1c-1 0-1.8-.3-2.2-.9-.3-.4-.4-.9-.2-1.5.3-.7.9-1.2 1.7-1.3l6.3-1.4c.2 0 .3 0 .5.1.1.1.2.3.1.5l-.3 1.6c-.2 1.4-2 2.7-3.9 2.8zm5.1-3.9-5.6 1.2c-.4.1-.8.3-.9.7-.1.2 0 .4.1.5.2.3.7.5 1.3.5l2-.1c1.4-.1 2.8-1 2.9-2z" fill="#3aaa35"/><path clip-rule="evenodd" d="m23.6 39.3-7.7-3c-.8-.3-1.6-.2-2.1.3-1 1-.7 2.6.7 3.5l2.2 1.4c1.8 1.1 4.2.9 5.3-.4z" fill="#fff" fill-rule="evenodd"/><path d="m19.3 42.8c-1 0-1.9-.3-2.8-.8l-2.2-1.4c-.9-.6-1.4-1.4-1.5-2.3-.1-.8.2-1.5.7-2 .6-.6 1.6-.8 2.6-.4l7.7 3c.2.1.3.2.3.3 0 .2 0 .3-.1.4l-1.6 1.8c-.7.9-1.9 1.4-3.1 1.4zm-4.3-6.1c-.3 0-.7.1-.9.3-.3.3-.5.7-.4 1.2.1.6.4 1.1 1.1 1.5l2.2 1.4c1.6 1 3.7.8 4.6-.3l1.1-1.3-7-2.7c-.2-.1-.5-.1-.7-.1z" fill="#3aaa35"/><path clip-rule="evenodd" d="m31.9 44.8c0 1.3-2.1 2.4-4.6 2.4-2.6 0-4.6-1.1-4.6-2.4s2.1-4 4.6-4c2.5.1 4.6 2.7 4.6 4z" fill="#3aaa35" fill-rule="evenodd"/><path clip-rule="evenodd" d="m27.3 44.4c-1.7 0-3.2-1.2-3.6-2.9v-.2c-.3-1.5.8-2.8 2.3-2.8h2.6c1.5 0 2.6 1.4 2.3 2.8v.2c-.4 1.8-1.9 2.9-3.6 2.9z" fill="#fff" fill-rule="evenodd"/><g fill="#3aaa35"><path d="m27.3 44.9c-2 0-3.6-1.4-4.1-3.3v-.1-.2c-.2-.8 0-1.6.6-2.3.5-.7 1.3-1 2.2-1h2.6c.9 0 1.7.4 2.2 1.1s.7 1.5.6 2.3v.1.1c-.4 2-2.1 3.3-4.1 3.3zm-3.1-3.4c.4 1.5 1.6 2.5 3.1 2.5s2.7-1 3.1-2.5v-.1-.1c.1-.5 0-1.1-.4-1.5s-.9-.7-1.4-.7h-2.6c-.6 0-1.1.2-1.4.7-.3.4-.5 1-.4 1.5z"/><path d="m25.9 37.1c-.1 0-.3 0-.4-.1l-1.5-1.5c-.2-.2-.2-.5 0-.7s.5-.2.7 0l1.5 1.5c.2.2.2.5 0 .7 0 .1-.2.1-.3.1z"/><path d="m23.9 40.3c-.2 0-.3-.1-.4-.2l-1.7-2.9c0-.1-.1-.2-.1-.3v-1.6l-1.2-1c-.2-.2-.3-.5-.1-.7s.5-.3.7-.1l1.4 1.1c.1.1.2.2.2.4v1.7l1.6 2.8c.1.2.1.5-.2.7 0 .1-.1.1-.2.1z"/><path d="m18.7 48.4c-.2 0-.4-.2-.5-.4-.1-.3.1-.5.4-.6l.9-.2.8-2.2c0-.1.1-.1.1-.2l3-3c.2-.2.5-.2.7 0s.2.5 0 .7l-2.9 2.9-.9 2.3c-.1.2-.2.3-.3.3l-1.2.3c0 .1-.1.1-.1.1z"/><path d="m22.1 53.8c-.3 0-.5-.3-.5-.5l.1-1.7-1-2.5c0-.1 0-.2 0-.4l1.5-4.1c.1-.3.4-.4.6-.3.3.1.4.4.3.6l-1.4 3.9.9 2.4v.2l-.1 1.8c.1.4-.1.6-.4.6z"/><path d="m28.7 37.1c-.1 0-.3 0-.4-.1-.2-.2-.2-.5 0-.7l1.5-1.5c.2-.2.5-.2.7 0s.2.5 0 .7l-1.4 1.5c-.1.1-.3.1-.4.1z"/><path d="m30.7 40.3c-.1 0-.2 0-.3-.1-.2-.1-.3-.4-.2-.7l1.6-2.8v-1.7c0-.2.1-.3.2-.4l1.4-1.1c.2-.2.5-.1.7.1s.1.5-.1.7l-1.2 1v1.6c0 .1 0 .2-.1.3l-1.7 2.9c0 .2-.1.2-.3.2z"/><path d="m35.9 48.4h-.1l-1.2-.3c-.2 0-.3-.2-.3-.3l-.9-2.3-2.9-2.9c-.2-.2-.2-.5 0-.7s.5-.2.7 0l3 3c.1.1.1.1.1.2l.8 2.2.9.2c.3.1.4.3.4.6-.1.2-.3.3-.5.3z"/><path d="m32.4 53.8c-.3 0-.5-.2-.5-.5v-1.8c0-.1 0-.1 0-.2l.9-2.4-1.4-3.9c-.1-.3 0-.5.3-.6s.5 0 .6.3l1.5 4.1v.4l-1 2.5v1.7c.1.2-.1.4-.4.4z"/><path d="m49.3 63.7h-20.3c-.3 0-.5-.2-.5-.5s.2-.5.5-.5h19.8v-37.4h-20.2c-.3 0-.5-.2-.5-.5s.2-.5.5-.5h20.7c.3 0 .5.2.5.5v38.4c0 .3-.2.5-.5.5z"/><path d="m64.5 38.2h-20.3c-.3 0-.5-.2-.5-.5s.2-.5.5-.5h20.3c.3 0 .5.2.5.5s-.2.5-.5.5z"/><path d="m61.3 48.2h-20.3c-.3 0-.5-.2-.5-.5s.2-.5.5-.5h20.3c.3 0 .5.2.5.5s-.2.5-.5.5z"/><path d="m61.7 41.1c-.1 0-.3 0-.4-.1-.2-.2-.2-.5 0-.7l2.5-2.5-2.5-2.5c-.2-.2-.2-.5 0-.7s.5-.2.7 0l2.9 2.9c.2.2.2.5 0 .7l-2.8 2.8c-.1.1-.3.1-.4.1z"/><path d="m43.5 51.1c-.1 0-.3 0-.4-.1l-2.9-2.9c-.2-.2-.2-.5 0-.7l2.9-2.9c.2-.2.5-.2.7 0s.2.5 0 .7l-2.5 2.5 2.5 2.5c.2.2.2.5 0 .7 0 .2-.2.2-.3.2z"/></g></svg>