<svg enable-background="new 0 0 116 115" viewBox="0 0 116 115" xmlns="http://www.w3.org/2000/svg"><g fill="#3aaa35"><path d="m39.6 95.9h-15.3c-.3 0-.5-.2-.5-.5s.2-.5.5-.5h14.7v-35.7l-14.8-7.7c-.2-.1-.3-.4-.2-.7.1-.2.4-.3.7-.2l15 7.8c.2.1.3.3.3.4v36.5c.1.4-.2.6-.4.6z"/><path d="m69.1 82.7h-22.3c-.3 0-.5-.2-.5-.5s.2-.5.5-.5h22.3c.3 0 .5.2.5.5s-.3.5-.5.5z"/><path d="m66 85.9c-.1 0-.3 0-.4-.1-.2-.2-.2-.5 0-.7l2.8-2.8-2.8-2.8c-.2-.2-.2-.5 0-.7s.5-.2.7 0l3.1 3.1c.2.2.2.5 0 .7l-3.2 3.2s-.1.1-.2.1z"/><path d="m89.6 52.9c-.3 0-.5-.2-.5-.5v-22c0-.3.2-.5.5-.5s.5.2.5.5v21.9c0 .3-.2.6-.5.6z"/><path d="m89.7 53c-.1 0-.3-.1-.4-.1l-5.1-5.1c-.2-.2-.2-.5 0-.7s.5-.2.7 0l4.7 4.7 4.6-4.6c.2-.2.5-.2.7 0s.2.5 0 .7l-5 5s-.1.1-.2.1z"/><path d="m69.3 92.8h-22.3c-.3 0-.5-.2-.5-.5s.2-.5.5-.5h22.3c.3 0 .5.2.5.5s-.2.5-.5.5z"/><path d="m49.7 95.9c-.1 0-.3 0-.4-.1l-3.1-3.1c-.2-.2-.2-.5 0-.7l3.2-3.2c.2-.2.5-.2.7 0s.2.5 0 .7l-2.8 2.8 2.8 2.8c.2.2.2.5 0 .7-.1.1-.2.1-.4.1z"/><path d="m82.6 83.9h-2.7c-4.3 0-7.8-3.5-7.8-7.8 0-.3.2-.5.5-.5h2.7c4.3 0 7.8 3.5 7.8 7.8 0 .2-.2.5-.5.5zm-9.5-7.3c.3 3.5 3.2 6.3 6.8 6.3h2.1c-.3-3.5-3.2-6.3-6.8-6.3z"/><path d="m82.6 83.9c-.3 0-.5-.2-.5-.5v-3.7c0-5.9 4.8-10.7 10.7-10.7.3 0 .5.2.5.5v3.7c-.1 5.9-4.8 10.7-10.7 10.7zm9.6-13.9c-5.1.3-9.2 4.5-9.2 9.7v3.2c5.1-.3 9.2-4.5 9.2-9.7z"/><path d="m82.6 92.8c-.3 0-.5-.2-.5-.5v-8.9c0-.3.2-.5.5-.5s.5.2.5.5v8.9c0 .2-.2.5-.5.5z"/><path d="m87.6 92.8h-10.1c-.3 0-.5-.2-.5-.5s.2-.5.5-.5h10.1c.3 0 .5.2.5.5s-.2.5-.5.5z"/><path d="m34.7 43.3h-8.1c-1.5 0-2.8-1.2-2.8-2.8v-15.1c0-1.5 1.2-2.8 2.8-2.8h8.1c1.5 0 2.8 1.2 2.8 2.8v15.1c0 1.5-1.3 2.8-2.8 2.8zm-8.1-19.7c-1 0-1.8.8-1.8 1.8v15.1c0 1 .8 1.8 1.8 1.8h8.1c1 0 1.8-.8 1.8-1.8v-15.1c0-1-.8-1.8-1.8-1.8z"/><path d="m50.6 43.3h-8.1c-1.5 0-2.8-1.2-2.8-2.8v-15.1c0-1.5 1.2-2.8 2.8-2.8h8.1c1.5 0 2.8 1.2 2.8 2.8v15.1c-.1 1.5-1.3 2.8-2.8 2.8zm-8.2-19.7c-1 0-1.8.8-1.8 1.8v15.1c0 1 .8 1.8 1.8 1.8h8.1c1 0 1.8-.8 1.8-1.8v-15.1c0-1-.8-1.8-1.8-1.8z"/><path d="m66.4 43.3h-8.1c-1.5 0-2.8-1.2-2.8-2.8v-15.1c0-1.5 1.2-2.8 2.8-2.8h8.1c1.5 0 2.8 1.2 2.8 2.8v15.1c0 1.5-1.3 2.8-2.8 2.8zm-8.1-19.7c-1 0-1.8.8-1.8 1.8v15.1c0 1 .8 1.8 1.8 1.8h8.1c1 0 1.8-.8 1.8-1.8v-15.1c0-1-.8-1.8-1.8-1.8z"/><path d="m82.2 43.3h-8.1c-1.5 0-2.8-1.2-2.8-2.8v-15.1c0-1.5 1.2-2.8 2.8-2.8h8.1c1.5 0 2.8 1.2 2.8 2.8v15.1c0 1.5-1.2 2.8-2.8 2.8zm-8.1-19.7c-1 0-1.8.8-1.8 1.8v15.1c0 1 .8 1.8 1.8 1.8h8.1c1 0 1.8-.8 1.8-1.8v-15.1c0-1-.8-1.8-1.8-1.8z"/><path d="m30.6 38.7c-.7 0-1.4-.2-1.9-.7s-.9-1.2-1.2-2c-.3-.9-.4-1.9-.4-3.2 0-1.2.1-2.3.4-3.2s.7-1.6 1.2-2c.5-.5 1.2-.7 1.9-.7.8 0 1.4.2 1.9.7s.9 1.2 1.2 2.1.4 1.9.4 3.2c0 1.2-.1 2.3-.4 3.2s-.7 1.6-1.2 2c-.4.3-1.1.6-1.9.6zm0-1.2c.5 0 1-.2 1.3-.6.4-.4.6-1 .8-1.7s.3-1.5.3-2.5c0-.9-.1-1.7-.3-2.4s-.4-1.3-.8-1.7-.8-.6-1.3-.6-1 .2-1.3.6-.6 1-.8 1.7-.3 1.5-.3 2.4.1 1.7.3 2.5.4 1.3.8 1.7.8.6 1.3.6z"/><path d="m46.5 38.7c-.7 0-1.4-.2-1.9-.7s-.9-1.2-1.2-2c-.3-.9-.4-1.9-.4-3.2 0-1.2.1-2.3.4-3.2s.7-1.6 1.2-2c.5-.5 1.2-.7 1.9-.7.8 0 1.4.2 1.9.7s.9 1.2 1.2 2.1.4 1.9.4 3.2c0 1.2-.1 2.3-.4 3.2s-.7 1.6-1.2 2c-.5.3-1.1.6-1.9.6zm0-1.2c.5 0 1-.2 1.3-.6.4-.4.6-1 .8-1.7s.3-1.5.3-2.5c0-.9-.1-1.7-.3-2.4s-.4-1.3-.8-1.7c-.3-.4-.8-.6-1.3-.6s-1 .2-1.3.6-.6 1-.8 1.7-.3 1.5-.3 2.4.1 1.7.3 2.5.4 1.3.8 1.7c.3.4.8.6 1.3.6z"/><path d="m62.4 38.7c-.7 0-1.4-.2-2-.5s-1-.8-1.4-1.4c-.3-.6-.5-1.2-.5-2 0-.2.1-.3.2-.4s.2-.2.4-.2.3.1.4.2.2.3.2.4c0 .5.1 1 .3 1.4s.5.7.9 1c.4.2.8.3 1.4.3.5 0 1-.1 1.4-.3s.7-.6 1-1c.2-.4.3-.9.3-1.4s-.1-1-.3-1.4-.5-.7-1-1c-.4-.2-.9-.3-1.4-.3h-2.7c-.2 0-.3-.1-.4-.2s-.2-.3-.2-.4v-4.1c0-.2.1-.3.2-.4s.3-.2.4-.2h5.3c.2 0 .3.1.4.2s.2.3.2.4c0 .2-.1.3-.2.4s-.3.2-.4.2h-4.7v3h2.1c.7 0 1.4.2 2 .5s1 .8 1.4 1.4c.3.6.5 1.2.5 2s-.2 1.4-.5 2-.8 1-1.4 1.4c-.5.2-1.2.4-1.9.4z"/><path d="m76.4 38.7c-.2 0-.3-.1-.4-.2s-.2-.3-.2-.4c0 0 0-.1 0-.2s.1-.1.1-.2l4.5-9.7h-5.2c-.2 0-.3-.1-.4-.2s-.2-.3-.2-.4c0-.2.1-.3.2-.4s.3-.2.4-.2h6.2c.2 0 .3.1.4.2s.2.3.2.4 0 .1 0 .2 0 .1-.1.2l-5 10.6c-.1.1-.3.3-.5.3z"/><path d="m59.3 70.9c-.1 0-.3 0-.4-.1l-7.3-7.3c-.2-.2-.2-.5 0-.7s.5-.2.7 0l7.3 7.3c.2.2.2.5 0 .7-.1.1-.2.1-.3.1z"/><path d="m65.9 59.8c-.8 0-1.6.3-2.2.9 1.3 1.2 3.2 3.1 2 4.7h.5c1.2 0 3.1 0 3-2.3 0-1.8-1.5-3.3-3.3-3.3z"/><path d="m61.9 60.4c-.2 0-.4-.1-.6-.2l-4.4-4.4c-.6-.6-.9-1.4-.9-2.2s.3-1.6.9-2.2c1.2-1.2 3.3-1.2 4.5 0l1.1 1.1c2.2 2.2 2.2 5.7 0 7.9-.2-.1-.4 0-.6 0zm-2.8-9.1c-.6 0-1.1.2-1.5.6s-.6 1-.6 1.5.2 1.1.6 1.5l4.3 4.3c1.6-1.8 1.6-4.6-.1-6.3l-1.1-1.1c-.4-.3-1-.5-1.6-.5z"/><path d="m61.7 60.4h-6.2c-1.8 0-3.2-1.4-3.2-3.2s1.4-3.2 3.2-3.2h1.5c3.1 0 5.6 2.5 5.6 5.6-.1.4-.4.8-.9.8zm-6.2-5.4c-1.2 0-2.2 1-2.2 2.2s1 2.2 2.2 2.2h6c-.1-2.4-2.1-4.4-4.5-4.4z"/><path d="m61.5 59.6c-.7 0-1.4.2-2.1.5.4.1.8.4 1.1.7.3-.1.7-.2 1-.2 2.1 0 3.8 1.7 3.8 3.8s-1.6 3.7-3.7 3.8c-.4.5-1 .7-1.6.8.5.2 1 .3 1.5.3 2.6 0 4.8-2.1 4.8-4.8 0-2.8-2.2-4.9-4.8-4.9z"/><path d="m55.6 72.6c-1.3 0-2.5-.5-3.5-1.2-1.9-1.5-3.1-4.3-1.4-7.3.5-.8 1-1.5 1.7-2.1.8-.8 1.7-1.5 2.7-2 2.8-1.5 5.5-.2 6.8 1.7 1.4 1.9 1.8 5-.5 7.3l-1.9 1.9c-1.2 1.2-2.6 1.7-3.9 1.7zm2-12.2c-.6 0-1.3.2-2.1.5-.9.5-1.7 1.1-2.4 1.8-.6.6-1.1 1.2-1.5 2-1.4 2.4-.5 4.7 1.1 6 1.6 1.2 4.1 1.6 6.1-.4l1.9-1.9c1.9-1.9 1.6-4.4.4-6.1-.8-1-2-1.9-3.5-1.9z"/><path d="m52.7 62.3c-.2.2-.5.5-.7.8l7.3 7.3 1.7-1.7c.5-.5.8-1 1.1-1.5-2.3-2.3-4.8-4.4-7.5-6.3-.7.4-1.3.9-1.9 1.4z"/><path d="m59.3 70.9c-.1 0-.3-.1-.4-.1l-7.3-7.3c-.2-.2-.2-.5 0-.7.2-.3.4-.5.7-.8.6-.6 1.2-1.1 1.9-1.5.2-.1.4-.1.5 0 2.5 1.8 5.1 3.9 7.6 6.3.2.1.2.4.1.6-.3.6-.7 1.2-1.2 1.7l-1.7 1.7c.1-0 0 .1-.2.1zm-6.6-7.8 6.6 6.6 1.3-1.3c.3-.3.6-.7.8-1.1-2.3-2.2-4.6-4.2-6.9-5.8-.5.4-1 .8-1.5 1.2 0 .1-.2.2-.3.4z"/><path d="m68.4 70.9c-.1 0-.2 0-.3-.1l-1.9-1.3c-.1-.1-.2-.2-.2-.3l-.9-3.2c-.1-.3.1-.5.3-.6.3-.1.5.1.6.3l.9 3.1 1.7 1.2c.2.2.3.5.1.7 0 .2-.1.2-.3.2z"/><path d="m65 74.3c-.2 0-.4-.1-.5-.4l-.8-2.5v-.1-3.5c0-.3.2-.5.5-.5s.5.2.5.5v3.4l.8 2.5c.1.3-.1.5-.3.6-.1 0-.1 0-.2 0z"/><path d="m56.5 76c-.1 0-.2 0-.3-.1-.2-.2-.2-.5 0-.7l1.5-1.7.1-.1 2.9-1.6 1-3.4c.1-.3.4-.4.6-.3.3.1.4.4.3.6l-1.1 3.6c0 .1-.1.2-.2.3l-3 1.6-1.4 1.6c-.2.1-.3.2-.4.2z"/><path d="m67.6 61.8c-.1 0-.2 0-.3-.1-.2-.2-.2-.5-.1-.7l1.4-1.7c.2-.2.5-.2.7-.1.2.2.2.5.1.7l-1.4 1.7c-.1.1-.2.2-.4.2z"/><path d="m68.3 62.7c-.2 0-.4-.2-.5-.4-.1-.3.1-.5.4-.6l2.2-.5c.3-.1.5.1.6.4s-.1.5-.4.6l-2.3.5c.1 0 .1 0 0 0z"/><path d="m40.2 38.8h-3.2c-.3 0-.5-.2-.5-.5v-9.5c0-.3.2-.5.5-.5h3.2c.3 0 .5.2.5.5v9.5c0 .3-.2.5-.5.5zm-2.7-1h2.2v-8.5h-2.2z"/><path d="m56 38.8h-3.2c-.3 0-.5-.2-.5-.5v-9.5c0-.3.2-.5.5-.5h3.2c.3 0 .5.2.5.5v9.5c0 .3-.2.5-.5.5zm-2.7-1h2.2v-8.5h-2.2z"/><path d="m71.9 38.8h-3.2c-.3 0-.5-.2-.5-.5v-9.5c0-.3.2-.5.5-.5h3.2c.3 0 .5.2.5.5v9.5c0 .3-.3.5-.5.5zm-2.7-1h2.2v-8.5h-2.2z"/><path d="m39.6 67.2h-2.3c-1.5 0-2.8-1.2-2.8-2.8s1.2-2.8 2.8-2.8h2.3c.3 0 .5.2.5.5v4.5c0 .4-.3.6-.5.6zm-2.3-4.5c-1 0-1.8.8-1.8 1.8s.8 1.8 1.8 1.8h1.8v-3.5h-1.8z"/><path d="m39.6 78.8h-2.3c-1.5 0-2.8-1.2-2.8-2.8s1.2-2.8 2.8-2.8h2.3c.3 0 .5.2.5.5v4.5c0 .4-.3.6-.5.6zm-2.3-4.5c-1 0-1.8.8-1.8 1.8s.8 1.8 1.8 1.8h1.8v-3.5h-1.8z"/><path d="m39.6 90.5h-2.3c-1.5 0-2.8-1.2-2.8-2.8s1.2-2.8 2.8-2.8h2.3c.3 0 .5.2.5.5v4.6c0 .3-.3.5-.5.5zm-2.3-4.6c-1 0-1.8.8-1.8 1.8s.8 1.8 1.8 1.8h1.8v-3.5h-1.8z"/></g></svg>