<?xml version="1.0" encoding="utf-8"?>
<!-- Generator: Adobe Illustrator 23.1.0, SVG Export Plug-In . SVG Version: 6.00 Build 0)  -->
<svg version="1.1" xmlns="http://www.w3.org/2000/svg" xmlns:xlink="http://www.w3.org/1999/xlink" x="0px" y="0px"
	 viewBox="0 0 77 77" style="enable-background:new 0 0 77 77;" xml:space="preserve">
<style type="text/css">
	.st0{display:none;}
	.st1{display:inline;fill:none;stroke:#3AAA35;stroke-linecap:round;stroke-linejoin:round;stroke-miterlimit:10;}
	.st2{display:inline;}
	.st3{fill-rule:evenodd;clip-rule:evenodd;fill:#3AAA35;}
	
		.st4{fill-rule:evenodd;clip-rule:evenodd;fill:#3AAA35;stroke:#3AAA35;stroke-linecap:round;stroke-linejoin:round;stroke-miterlimit:10;}
	
		.st5{fill-rule:evenodd;clip-rule:evenodd;fill:none;stroke:#3AAA35;stroke-linecap:round;stroke-linejoin:round;stroke-miterlimit:10;}
	
		.st6{fill-rule:evenodd;clip-rule:evenodd;fill:#FFFFFF;stroke:#3AAA35;stroke-linecap:round;stroke-linejoin:round;stroke-miterlimit:10;}
	.st7{display:inline;fill:#3AAA35;}
	.st8{fill:#FFFFFF;}
	.st9{fill:#3AAA35;}
	.st10{fill:none;stroke:#3AAA35;stroke-linecap:round;stroke-linejoin:round;stroke-miterlimit:10;}
	.st11{fill:#FFFFFF;stroke:#3AAA35;stroke-linecap:round;stroke-linejoin:round;stroke-miterlimit:10;}
</style>
<g id="Слой_1" class="st0">
	<polyline class="st1" points="583.6,140.8 610.5,140.8 610.5,93.2 584,83 	"/>
	<g class="st2">
		<path class="st3" d="M583,107.4L583,107.4c1.1,0,2.1,0.8,2.4,1.9l0,0.1c0.2,1-0.5,1.9-1.5,1.9h-1.7c-1,0-1.7-0.9-1.5-1.9l0-0.1
			C580.9,108.2,581.9,107.4,583,107.4z"/>
		<circle class="st4" cx="583" cy="119.3" r="4.1"/>
		<ellipse transform="matrix(0.7071 -0.7071 0.7071 0.7071 87.7063 446.6473)" class="st5" cx="583" cy="117.5" rx="4.8" ry="4.8"/>
		<ellipse transform="matrix(0.7071 -0.7071 0.7071 0.7071 87.7063 446.6473)" class="st6" cx="583" cy="117.5" rx="4.8" ry="4.8"/>
		<path class="st5" d="M586.7,111.8l6.3,1.4c0.6,0.1,1.1,0.5,1.3,1l0,0c0.3,1-0.6,1.7-1.9,1.7l-2-0.1c-1.6-0.1-3.2-1.2-3.4-2.4
			L586.7,111.8z"/>
		<path class="st6" d="M586.7,110.6l7.7-3c0.8-0.3,1.6-0.2,2.1,0.3l0,0c1,1,0.7,2.6-0.7,3.5l-2.2,1.4c-1.8,1.1-4.2,0.9-5.3-0.4
			L586.7,110.6z"/>
		<path class="st5" d="M579.2,111.8l-6.3,1.4c-0.6,0.1-1.1,0.5-1.3,1l0,0c-0.3,1,0.6,1.7,1.9,1.7l2-0.1c1.6-0.1,3.2-1.2,3.4-2.4
			L579.2,111.8z"/>
		<path class="st6" d="M579.3,110.6l-7.7-3c-0.8-0.3-1.6-0.2-2.1,0.3l0,0c-1,1-0.7,2.6,0.7,3.5l2.2,1.4c1.8,1.1,4.2,0.9,5.3-0.4
			L579.3,110.6z"/>
		<path class="st3" d="M587.6,116.1c0,1.3-2.1,2.4-4.6,2.4c-2.6,0-4.6-1.1-4.6-2.4c0-1.3,2.1-4,4.6-4
			C585.6,112.1,587.6,114.7,587.6,116.1z"/>
		<path class="st6" d="M583,115.7L583,115.7c-1.7,0-3.2-1.2-3.6-2.9l0-0.2c-0.3-1.5,0.8-2.8,2.3-2.8h2.6c1.5,0,2.6,1.4,2.3,2.8
			l0,0.2C586.2,114.5,584.7,115.7,583,115.7z"/>
		<line class="st5" x1="581.6" y1="107.8" x2="580.1" y2="106.3"/>
		<polyline class="st5" points="579.6,111.1 577.9,108.1 577.9,106.3 576.5,105.2 		"/>
		<polyline class="st5" points="579.5,113.4 576.5,116.4 575.6,118.8 574.4,119.2 		"/>
		<polyline class="st5" points="578.4,116.1 576.9,120.1 577.9,122.8 577.9,124.6 		"/>
		<line class="st5" x1="584.4" y1="107.8" x2="585.9" y2="106.3"/>
		<polyline class="st5" points="586.4,111.1 588.1,108.1 588.1,106.3 589.5,105.2 		"/>
		<polyline class="st5" points="586.5,113.4 589.5,116.4 590.4,118.8 591.6,119.2 		"/>
		<polyline class="st5" points="587.6,116.1 589.1,120.1 588.1,122.8 588.2,124.6 		"/>
	</g>
	<polyline class="st1" points="584.3,96 605,96 605,134.4 584.7,134.4 	"/>
	<line class="st1" x1="599.9" y1="109" x2="620.2" y2="109"/>
	<line class="st1" x1="596.7" y1="118.9" x2="617" y2="118.9"/>
	<polyline class="st1" points="617.4,106.1 620.3,108.9 617.4,111.8 	"/>
	<polyline class="st1" points="599.2,121.8 596.3,119 599.2,116.1 	"/>
	<path class="st7" d="M58.8,68.8h-1.6c-1.3,0-2.3-0.9-2.3-2.1v-4c0-0.6-0.6-1.1-1.3-1.1H41.4c-0.7,0-1.3,0.5-1.3,1.1v4
		c0,1.1-1,2.1-2.3,2.1h-1.6c-1.3,0-2.3-0.9-2.3-2.1V24.9c0-1.1,1-2.1,2.3-2.1h22.6c1.3,0,2.3,0.9,2.3,2.1v41.9
		C61.1,67.9,60.1,68.8,58.8,68.8z M41.4,60.6h12.2c1.3,0,2.3,0.9,2.3,2.1v4c0,0.6,0.6,1.1,1.3,1.1h1.6c0.7,0,1.3-0.5,1.3-1.1V24.9
		c0-0.6-0.6-1.1-1.3-1.1H36.2c-0.7,0-1.3,0.5-1.3,1.1v41.9c0,0.6,0.6,1.1,1.3,1.1h1.6c0.7,0,1.3-0.5,1.3-1.1v-4
		C39.1,61.6,40.1,60.6,41.4,60.6z"/>
	<path class="st7" d="M47.5,43.4c-1.1,0-1.9-0.9-1.9-1.9s0.9-1.9,1.9-1.9s1.9,0.9,1.9,1.9S48.6,43.4,47.5,43.4z M47.5,40.5
		c-0.5,0-0.9,0.4-0.9,0.9s0.4,0.9,0.9,0.9s0.9-0.4,0.9-0.9S48,40.5,47.5,40.5z"/>
	<g class="st2">
		<g>
			<path class="st8" d="M37.7,50.8V11.9c0-1.8-1.5-3.3-3.3-3.3s-3.3,1.5-3.3,3.3v38.9c-1,0.9-1.7,2.3-1.7,3.8c0,2.8,2.2,5,5,5
				s5-2.2,5-5C39.4,53,38.8,51.7,37.7,50.8z"/>
			<path class="st9" d="M34.4,60.1c-3,0-5.5-2.5-5.5-5.5c0-1.5,0.6-2.9,1.7-4V11.9c0-2.1,1.7-3.8,3.8-3.8c2.1,0,3.8,1.7,3.8,3.8
				v38.7c1.1,1,1.7,2.5,1.7,4C39.9,57.6,37.4,60.1,34.4,60.1z M34.4,9.1c-1.5,0-2.8,1.3-2.8,2.8v38.9c0,0.1-0.1,0.3-0.2,0.4
				c-1,0.9-1.5,2.1-1.5,3.4c0,2.5,2,4.5,4.5,4.5c2.5,0,4.5-2,4.5-4.5c0-1.3-0.6-2.5-1.5-3.4c-0.1-0.1-0.2-0.2-0.2-0.4V11.9
				C37.2,10.3,36,9.1,34.4,9.1z"/>
		</g>
		<g>
			<path class="st9" d="M35.3,52.6v-17c0-0.5-0.4-0.8-0.8-0.8s-0.8,0.4-0.8,0.8v17c-0.8,0.3-1.4,1.1-1.4,2.1c0,1.2,1,2.3,2.3,2.3
				s2.3-1,2.3-2.3C36.7,53.7,36.1,52.9,35.3,52.6z"/>
			<path class="st9" d="M34.4,57.4c-1.5,0-2.8-1.2-2.8-2.8c0-1,0.5-1.9,1.4-2.4V35.6c0-0.7,0.6-1.3,1.3-1.3s1.3,0.6,1.3,1.3v16.7
				c0.9,0.5,1.4,1.4,1.4,2.4C37.2,56.2,35.9,57.4,34.4,57.4z M34.4,35.2c-0.2,0-0.3,0.2-0.3,0.3v17c0,0.2-0.1,0.4-0.3,0.5
				c-0.7,0.3-1.1,0.9-1.1,1.6c0,1,0.8,1.8,1.8,1.8s1.8-0.8,1.8-1.8c0-0.7-0.4-1.4-1.1-1.6c-0.2-0.1-0.3-0.3-0.3-0.5v-17
				C34.8,35.4,34.6,35.2,34.4,35.2z"/>
		</g>
	</g>
	<g class="st2">
		<path class="st9" d="M17.6,46.3c-0.3,0-0.5-0.2-0.5-0.5v-1.7c0-2.4,0.9-2.9,2.3-3.5c0.7-0.3,1.4-0.6,2.3-1.2
			c1.8-1.3,2.8-3.5,2.8-5.7c-0.1-3.6-3.1-6.6-6.7-6.7c-1.9-0.1-3.7,0.6-5,2c-1.3,1.3-2.1,3.1-2.1,5c0,0.3-0.2,0.5-0.5,0.5
			s-0.5-0.2-0.5-0.5c0-2.2,0.9-4.2,2.4-5.7c1.5-1.5,3.6-2.3,5.7-2.2c4.1,0.1,7.6,3.6,7.7,7.7c0.1,2.6-1.1,5-3.2,6.6
			c-1,0.7-1.9,1.1-2.6,1.4c-1.2,0.5-1.7,0.7-1.7,2.5v1.7C18.1,46.1,17.9,46.3,17.6,46.3z"/>
		<path class="st9" d="M17.6,51.6c-0.6,0-1.1-0.5-1.1-1.1c0-0.6,0.5-1.1,1.1-1.1s1.1,0.5,1.1,1.1C18.7,51.1,18.2,51.6,17.6,51.6z
			 M17.6,50.4c-0.1,0-0.1,0-0.1,0.1c0,0.1,0.2,0.1,0.2,0C17.7,50.5,17.6,50.4,17.6,50.4z"/>
	</g>
</g>
<g id="Слой_2" class="st0">
	<path class="st1" d="M56.8,35.6c0-9.4-8.1-16.8-17.7-15.8c-7.4,0.8-13.3,6.9-14,14.4c-0.4,5.1,1.6,9.8,5,13
		c3.4,3.2,5.5,7.5,5.5,12.2v5.1c0,1.6,1.3,2.8,2.8,2.8h4.9c1.6,0,2.8-1.3,2.8-2.8v-4.9c0-4.7,2-9.1,5.5-12.3
		C54.8,44.4,56.8,40.2,56.8,35.6z"/>
	<line class="st1" x1="35.4" y1="54.9" x2="46.5" y2="54.9"/>
	<line class="st1" x1="35.6" y1="59.3" x2="46.2" y2="59.3"/>
	<line class="st1" x1="35.6" y1="63.7" x2="46.2" y2="63.7"/>
	<line class="st1" x1="40.9" y1="13.6" x2="40.9" y2="6.6"/>
	<line class="st1" x1="18" y1="36.5" x2="11" y2="36.5"/>
	<line class="st1" x1="24.7" y1="20.3" x2="19.7" y2="15.4"/>
	<line class="st1" x1="57.1" y1="20.3" x2="62.1" y2="15.4"/>
	<line class="st1" x1="63.8" y1="36.5" x2="70.9" y2="36.5"/>
	<g class="st2">
		<path class="st9" d="M35.9,42.1c-0.8,0-1.5-0.1-2.1-0.4s-1.1-0.7-1.4-1.2s-0.5-1.1-0.5-1.8v-5.8c0-0.2,0.1-0.3,0.2-0.5
			s0.3-0.2,0.5-0.2c0.2,0,0.3,0.1,0.5,0.2s0.2,0.3,0.2,0.5v5.8c0,0.4,0.1,0.8,0.4,1.2c0.2,0.3,0.6,0.6,1,0.8
			c0.4,0.2,0.9,0.3,1.4,0.3c0.5,0,1-0.1,1.4-0.3c0.4-0.2,0.7-0.5,0.9-0.8c0.2-0.3,0.3-0.7,0.3-1.2v-5.8c0-0.2,0.1-0.3,0.2-0.5
			s0.3-0.2,0.5-0.2c0.2,0,0.3,0.1,0.5,0.2s0.2,0.3,0.2,0.5v5.8c0,0.7-0.2,1.3-0.5,1.8s-0.8,0.9-1.4,1.2S36.6,42.1,35.9,42.1z"/>
		<path class="st9" d="M45.6,41.9c-0.3,0-0.5-0.1-0.6-0.4l-3.6-8.3c-0.1-0.3-0.1-0.5,0-0.7c0.1-0.2,0.3-0.3,0.5-0.3
			c0.3,0,0.5,0.1,0.6,0.4l3.2,7.7h-0.1l3.3-7.7c0.1-0.1,0.1-0.3,0.2-0.3s0.2-0.1,0.4-0.1c0.2,0,0.4,0.1,0.5,0.3
			c0.1,0.2,0.1,0.4,0,0.6l-3.7,8.4c-0.1,0.1-0.1,0.2-0.2,0.3C45.9,41.8,45.8,41.9,45.6,41.9z"/>
	</g>
</g>
<g id="Слой_3">
	<polyline class="st10" points="583.6,140.8 610.5,140.8 610.5,93.2 584,83 	"/>
	<g>
		<path class="st3" d="M583,107.4L583,107.4c1.1,0,2.1,0.8,2.4,1.9l0,0.1c0.2,1-0.5,1.9-1.5,1.9h-1.7c-1,0-1.7-0.9-1.5-1.9l0-0.1
			C580.9,108.2,581.9,107.4,583,107.4z"/>
		<circle class="st4" cx="583" cy="119.3" r="4.1"/>
		<ellipse transform="matrix(0.7071 -0.7071 0.7071 0.7071 87.7063 446.6473)" class="st5" cx="583" cy="117.5" rx="4.8" ry="4.8"/>
		<ellipse transform="matrix(0.7071 -0.7071 0.7071 0.7071 87.7063 446.6473)" class="st6" cx="583" cy="117.5" rx="4.8" ry="4.8"/>
		<path class="st5" d="M586.7,111.8l6.3,1.4c0.6,0.1,1.1,0.5,1.3,1l0,0c0.3,1-0.6,1.7-1.9,1.7l-2-0.1c-1.6-0.1-3.2-1.2-3.4-2.4
			L586.7,111.8z"/>
		<path class="st6" d="M586.7,110.6l7.7-3c0.8-0.3,1.6-0.2,2.1,0.3l0,0c1,1,0.7,2.6-0.7,3.5l-2.2,1.4c-1.8,1.1-4.2,0.9-5.3-0.4
			L586.7,110.6z"/>
		<path class="st5" d="M579.2,111.8l-6.3,1.4c-0.6,0.1-1.1,0.5-1.3,1l0,0c-0.3,1,0.6,1.7,1.9,1.7l2-0.1c1.6-0.1,3.2-1.2,3.4-2.4
			L579.2,111.8z"/>
		<path class="st6" d="M579.3,110.6l-7.7-3c-0.8-0.3-1.6-0.2-2.1,0.3l0,0c-1,1-0.7,2.6,0.7,3.5l2.2,1.4c1.8,1.1,4.2,0.9,5.3-0.4
			L579.3,110.6z"/>
		<path class="st3" d="M587.6,116.1c0,1.3-2.1,2.4-4.6,2.4c-2.6,0-4.6-1.1-4.6-2.4c0-1.3,2.1-4,4.6-4
			C585.6,112.1,587.6,114.7,587.6,116.1z"/>
		<path class="st6" d="M583,115.7L583,115.7c-1.7,0-3.2-1.2-3.6-2.9l0-0.2c-0.3-1.5,0.8-2.8,2.3-2.8h2.6c1.5,0,2.6,1.4,2.3,2.8
			l0,0.2C586.2,114.5,584.7,115.7,583,115.7z"/>
		<line class="st5" x1="581.6" y1="107.8" x2="580.1" y2="106.3"/>
		<polyline class="st5" points="579.6,111.1 577.9,108.1 577.9,106.3 576.5,105.2 		"/>
		<polyline class="st5" points="579.5,113.4 576.5,116.4 575.6,118.8 574.4,119.2 		"/>
		<polyline class="st5" points="578.4,116.1 576.9,120.1 577.9,122.8 577.9,124.6 		"/>
		<line class="st5" x1="584.4" y1="107.8" x2="585.9" y2="106.3"/>
		<polyline class="st5" points="586.4,111.1 588.1,108.1 588.1,106.3 589.5,105.2 		"/>
		<polyline class="st5" points="586.5,113.4 589.5,116.4 590.4,118.8 591.6,119.2 		"/>
		<polyline class="st5" points="587.6,116.1 589.1,120.1 588.1,122.8 588.2,124.6 		"/>
	</g>
	<polyline class="st10" points="584.3,96 605,96 605,134.4 584.7,134.4 	"/>
	<line class="st10" x1="599.9" y1="109" x2="620.2" y2="109"/>
	<line class="st10" x1="596.7" y1="118.9" x2="617" y2="118.9"/>
	<polyline class="st10" points="617.4,106.1 620.3,108.9 617.4,111.8 	"/>
	<polyline class="st10" points="599.2,121.8 596.3,119 599.2,116.1 	"/>
	<path class="st9" d="M67,50.8H48.5c-0.3,0-0.5-0.2-0.5-0.5s0.2-0.5,0.5-0.5h18v-5c0-0.3,0.2-0.5,0.5-0.5s0.5,0.2,0.5,0.5v5.5
		C67.5,50.6,67.3,50.8,67,50.8z"/>
	<path class="st9" d="M61.5,45.9c-0.3,0-0.5-0.2-0.5-0.5V32.1c0-2.9,2.4-5.2,5.2-5.2h8.3c0.3,0,0.5,0.2,0.5,0.5s-0.2,0.5-0.5,0.5
		h-8.3c-2.3,0-4.2,1.9-4.2,4.2v13.3C62,45.6,61.8,45.9,61.5,45.9z"/>
	<path class="st9" d="M50.5,45.9c-0.3,0-0.5-0.2-0.5-0.5V32.1c0-2.3-1.9-4.2-4.2-4.2h-8.3c-0.3,0-0.5-0.2-0.5-0.5s0.2-0.5,0.5-0.5
		h8.3c2.9,0,5.2,2.4,5.2,5.2v13.3C51,45.6,50.8,45.9,50.5,45.9z"/>
	<path class="st9" d="M56,45.9c-0.3,0-0.5-0.2-0.5-0.5v-27c0-0.3,0.2-0.5,0.5-0.5s0.5,0.2,0.5,0.5v27C56.5,45.6,56.3,45.9,56,45.9z"
		/>
	<path class="st9" d="M68.5,33.8c-0.1,0-0.3,0-0.4-0.1c-0.2-0.2-0.2-0.5,0-0.7l5.6-5.6l-5.6-5.6c-0.2-0.2-0.2-0.5,0-0.7
		s0.5-0.2,0.7,0l6,6c0.2,0.2,0.2,0.5,0,0.7l-6,6C68.8,33.8,68.6,33.8,68.5,33.8z"/>
	<path class="st9" d="M43.2,33.8c-0.1,0-0.3,0-0.4-0.1l-6-6c-0.2-0.2-0.2-0.5,0-0.7l6-6c0.2-0.2,0.5-0.2,0.7,0s0.2,0.5,0,0.7
		l-5.6,5.6l5.6,5.6c0.2,0.2,0.2,0.5,0,0.7C43.4,33.8,43.3,33.8,43.2,33.8z"/>
	<path class="st9" d="M62,23.8c-0.1,0-0.3,0-0.4-0.1L56,18l-5.6,5.6c-0.2,0.2-0.5,0.2-0.7,0s-0.2-0.5,0-0.7l6-6
		c0.2-0.2,0.5-0.2,0.7,0l6,6c0.2,0.2,0.2,0.5,0,0.7C62.3,23.8,62.1,23.8,62,23.8z"/>
	<g>
		<path class="st9" d="M25.7,65.3c-4,0-7.8-1.6-10.6-4.4s-4.4-6.6-4.4-10.6c0-4,1.6-7.8,4.4-10.6c5.8-5.8,15.4-5.8,21.2,0l0,0
			c5.8,5.8,5.8,15.4,0,21.2C33.4,63.7,29.7,65.3,25.7,65.3z M25.7,36.3c-3.6,0-7.2,1.4-9.9,4.1c-2.6,2.6-4.1,6.2-4.1,9.9
			c0,3.7,1.5,7.3,4.1,9.9c2.6,2.6,6.2,4.1,9.9,4.1c3.7,0,7.3-1.5,9.9-4.1c5.5-5.5,5.5-14.3,0-19.8C32.8,37.7,29.2,36.3,25.7,36.3z"
			/>
		<path class="st9" d="M25.7,52.8c-0.7,0-1.3-0.3-1.8-0.7c-0.5-0.5-0.7-1.1-0.7-1.8c0-0.7,0.3-1.3,0.7-1.8c0.9-0.9,2.6-0.9,3.5,0
			l0,0l0,0c0.5,0.5,0.7,1.1,0.7,1.8c0,0.7-0.3,1.3-0.7,1.8C26.9,52.5,26.3,52.8,25.7,52.8z M25.7,48.8c-0.4,0-0.8,0.2-1.1,0.4
			s-0.4,0.7-0.4,1.1c0,0.4,0.2,0.8,0.4,1.1c0.6,0.6,1.6,0.6,2.1,0c0.3-0.3,0.4-0.7,0.4-1.1c0-0.4-0.2-0.8-0.4-1.1l0,0
			C26.4,48.9,26.1,48.8,25.7,48.8z"/>
		<path class="st9" d="M25.7,69.7c-5,0-10-1.9-13.8-5.7c-6.3-6.3-7.5-15.9-3.1-23.6l-2.7-2.7c-1.7-1.7-1.7-4.4,0-6.1L7.8,30
			c1.7-1.7,4.4-1.7,6.1,0l2.9,2.9c7.6-3.9,16.6-2.5,22.7,3.6c7.6,7.6,7.6,20,0,27.6C35.6,67.8,30.6,69.7,25.7,69.7z M10.8,29.7
			c-0.8,0-1.7,0.3-2.3,1l-1.7,1.7c-1.3,1.3-1.3,3.4,0,4.7l3,3c0.2,0.2,0.2,0.4,0.1,0.6C5.4,48,6.5,57.3,12.6,63.3
			c7.2,7.2,19,7.2,26.2,0s7.2-19,0-26.2c-5.8-5.8-14.6-7.1-21.8-3.2c-0.2,0.1-0.4,0.1-0.6-0.1l-3.2-3.2C12.5,30,11.7,29.7,10.8,29.7
			z"/>
		<path class="st9" d="M25.7,39.7c-0.3,0-0.5-0.2-0.5-0.5v-3.4c0-0.3,0.2-0.5,0.5-0.5s0.5,0.2,0.5,0.5v3.4
			C26.2,39.5,25.9,39.7,25.7,39.7z"/>
		<path class="st9" d="M40.2,50.8h-3.4c-0.3,0-0.5-0.2-0.5-0.5s0.2-0.5,0.5-0.5h3.4c0.3,0,0.5,0.2,0.5,0.5S40.4,50.8,40.2,50.8z"/>
		<path class="st9" d="M25.7,65.3c-0.3,0-0.5-0.2-0.5-0.5v-3.4c0-0.3,0.2-0.5,0.5-0.5s0.5,0.2,0.5,0.5v3.4
			C26.2,65.1,25.9,65.3,25.7,65.3z"/>
		<path class="st9" d="M14.6,50.8h-3.4c-0.3,0-0.5-0.2-0.5-0.5s0.2-0.5,0.5-0.5h3.4c0.3,0,0.5,0.2,0.5,0.5S14.9,50.8,14.6,50.8z"/>
		<g>
			<line class="st8" x1="27" y1="48.8" x2="33.9" y2="41.6"/>
			<path class="st9" d="M27,49.3c-0.1,0-0.2,0-0.3-0.1c-0.2-0.2-0.2-0.5,0-0.7l6.8-7.2c0.2-0.2,0.5-0.2,0.7,0c0.2,0.2,0.2,0.5,0,0.7
				l-6.8,7.2C27.3,49.3,27.2,49.3,27,49.3z"/>
		</g>
		<g>
			<line class="st8" x1="24.2" y1="48.9" x2="20.1" y2="44.7"/>
			<path class="st9" d="M24.2,49.4c-0.1,0-0.3,0-0.4-0.1l-4.1-4.1c-0.2-0.2-0.2-0.5,0-0.7s0.5-0.2,0.7,0l4.1,4.1
				c0.2,0.2,0.2,0.5,0,0.7C24.5,49.3,24.4,49.4,24.2,49.4z"/>
		</g>
	</g>
</g>
<g id="Слой_4" class="st0">
	<polyline class="st1" points="43.7,71.4 61.4,71.4 61.4,40.9 43.9,28 	"/>
	<path class="st1" d="M37.3,28L37.3,28c-2.6,2.4-6.2,3.7-9.9,3.7l-11-0.4v6.8c0,11.4,5.7,22.2,15.4,29.3l5.4,3.9"/>
	<g class="st2">
		<circle class="st10" cx="40.2" cy="15.8" r="4.9"/>
		<g>
			<path class="st10" d="M45.1,23.6c-2.7,0-4.9-2.2-4.9-4.9s2.2-4.9,4.9-4.9s4.9,2.2,4.9,4.9"/>
			<path class="st10" d="M43.7,6.5c1.9,1.9,1.9,5.1,0,7c-1.9,1.9-5.1,1.9-7,0c-1.9-1.9-1.9-5.1,0-7"/>
			<path class="st10" d="M30.3,18.6c0-2.7,2.2-4.9,4.9-4.9s4.9,2.2,4.9,4.9s-2.2,4.9-4.9,4.9"/>
		</g>
		<circle class="st11" cx="40.2" cy="15.8" r="2.1"/>
	</g>
	<g class="st2">
		<path class="st3" d="M40.1,40.9L40.1,40.9c1.2,0,2.3,0.9,2.5,2.1l0,0.1c0.2,1-0.6,2-1.6,2h-1.9c-1.1,0-1.9-1-1.6-2l0-0.1
			C37.8,41.7,38.9,40.9,40.1,40.9z"/>
		<circle class="st4" cx="40.1" cy="53.7" r="4.5"/>
		<ellipse transform="matrix(0.7071 -0.7071 0.7071 0.7071 -24.8586 43.4993)" class="st5" cx="40.1" cy="51.8" rx="5.2" ry="5.2"/>
		<ellipse transform="matrix(0.7071 -0.7071 0.7071 0.7071 -24.8586 43.4993)" class="st6" cx="40.1" cy="51.8" rx="5.2" ry="5.2"/>
		<path class="st5" d="M44.1,45.6l6.8,1.5c0.7,0.1,1.2,0.6,1.4,1.1l0,0c0.3,1.1-0.6,1.9-2.1,1.8l-2.2-0.1c-1.8-0.1-3.4-1.3-3.7-2.6
			L44.1,45.6z"/>
		<path class="st6" d="M44,44.3l8.3-3.3c0.8-0.3,1.7-0.2,2.2,0.3l0,0c1.1,1.1,0.8,2.8-0.8,3.8l-2.4,1.5c-1.9,1.2-4.5,1-5.8-0.4
			L44,44.3z"/>
		<path class="st5" d="M36,45.6l-6.8,1.5c-0.7,0.1-1.2,0.6-1.4,1.1l0,0c-0.3,1.1,0.6,1.9,2.1,1.8l2.2-0.1c1.8-0.1,3.4-1.3,3.7-2.6
			L36,45.6z"/>
		<path class="st6" d="M36.1,44.3l-8.3-3.3c-0.8-0.3-1.7-0.2-2.2,0.3l0,0c-1.1,1.1-0.8,2.8,0.8,3.8l2.4,1.5c1.9,1.2,4.5,1,5.8-0.4
			L36.1,44.3z"/>
		<path class="st3" d="M45.1,50.3c0,1.5-2.2,2.6-5,2.6c-2.8,0-5-1.2-5-2.6c0-1.5,2.2-4.3,5-4.3C42.8,46,45.1,48.8,45.1,50.3z"/>
		<path class="st6" d="M40.1,49.9L40.1,49.9c-1.9,0-3.5-1.3-3.9-3.1l0-0.2c-0.3-1.6,0.9-3.1,2.5-3.1h2.8c1.6,0,2.8,1.5,2.5,3.1
			l0,0.2C43.5,48.6,41.9,49.9,40.1,49.9z"/>
		<line class="st5" x1="38.6" y1="41.4" x2="36.9" y2="39.8"/>
		<polyline class="st5" points="36.4,44.9 34.6,41.7 34.6,39.8 33.1,38.6 		"/>
		<polyline class="st5" points="36.3,47.4 33.1,50.6 32.1,53.2 30.8,53.6 		"/>
		<polyline class="st5" points="35.1,50.3 33.5,54.7 34.6,57.5 34.5,59.4 		"/>
		<line class="st5" x1="41.6" y1="41.4" x2="43.2" y2="39.8"/>
		<polyline class="st5" points="43.8,44.9 45.6,41.7 45.6,39.8 47.1,38.6 		"/>
		<polyline class="st5" points="43.9,47.4 47.1,50.6 48.1,53.2 49.4,53.6 		"/>
		<polyline class="st5" points="45.1,50.3 46.6,54.7 45.6,57.5 45.7,59.4 		"/>
	</g>
</g>
<g id="Слой_5" class="st0">
	<polyline class="st1" points="27.9,67.8 54.8,67.8 54.8,20.3 28.2,10.1 	"/>
	<g class="st2">
		<path class="st3" d="M27.3,34.4L27.3,34.4c1.1,0,2.1,0.8,2.4,1.9l0,0.1c0.2,1-0.5,1.9-1.5,1.9h-1.7c-1,0-1.7-0.9-1.5-1.9l0-0.1
			C25.2,35.2,26.1,34.4,27.3,34.4z"/>
		<circle class="st4" cx="27.3" cy="46.3" r="4.1"/>
		<ellipse transform="matrix(0.7071 -0.7071 0.7071 0.7071 -23.479 32.3233)" class="st5" cx="27.3" cy="44.5" rx="4.8" ry="4.8"/>
		<ellipse transform="matrix(0.7071 -0.7071 0.7071 0.7071 -23.479 32.3233)" class="st6" cx="27.3" cy="44.5" rx="4.8" ry="4.8"/>
		<path class="st5" d="M31,38.8l6.3,1.4c0.6,0.1,1.1,0.5,1.3,1l0,0c0.3,1-0.6,1.7-1.9,1.7l-2-0.1c-1.6-0.1-3.2-1.2-3.4-2.4L31,38.8z
			"/>
		<path class="st6" d="M30.9,37.6l7.7-3c0.8-0.3,1.6-0.2,2.1,0.3l0,0c1,1,0.7,2.6-0.7,3.5l-2.2,1.4c-1.8,1.1-4.2,0.9-5.3-0.4
			L30.9,37.6z"/>
		<path class="st5" d="M23.5,38.8l-6.3,1.4c-0.6,0.1-1.1,0.5-1.3,1l0,0c-0.3,1,0.6,1.7,1.9,1.7l2-0.1c1.6-0.1,3.2-1.2,3.4-2.4
			L23.5,38.8z"/>
		<path class="st6" d="M23.6,37.6l-7.7-3c-0.8-0.3-1.6-0.2-2.1,0.3l0,0c-1,1-0.7,2.6,0.7,3.5l2.2,1.4c1.8,1.1,4.2,0.9,5.3-0.4
			L23.6,37.6z"/>
		<path class="st3" d="M31.9,43.1c0,1.3-2.1,2.4-4.6,2.4c-2.6,0-4.6-1.1-4.6-2.4c0-1.3,2.1-4,4.6-4C29.8,39.2,31.9,41.8,31.9,43.1z"
			/>
		<path class="st6" d="M27.3,42.7L27.3,42.7c-1.7,0-3.2-1.2-3.6-2.9l0-0.2c-0.3-1.5,0.8-2.8,2.3-2.8h2.6c1.5,0,2.6,1.4,2.3,2.8
			l0,0.2C30.5,41.6,29,42.7,27.3,42.7z"/>
		<line class="st5" x1="25.9" y1="34.9" x2="24.4" y2="33.4"/>
		<polyline class="st5" points="23.9,38.1 22.2,35.2 22.2,33.4 20.8,32.3 		"/>
		<polyline class="st5" points="23.8,40.5 20.8,43.5 19.9,45.9 18.7,46.2 		"/>
		<polyline class="st5" points="22.7,43.1 21.2,47.2 22.2,49.8 22.1,51.6 		"/>
		<line class="st5" x1="28.7" y1="34.9" x2="30.2" y2="33.4"/>
		<polyline class="st5" points="30.7,38.1 32.4,35.2 32.4,33.4 33.8,32.3 		"/>
		<polyline class="st5" points="30.8,40.5 33.8,43.5 34.7,45.9 35.9,46.2 		"/>
		<polyline class="st5" points="31.9,43.1 33.4,47.2 32.4,49.8 32.4,51.6 		"/>
	</g>
	<polyline class="st1" points="28.6,23.1 49.3,23.1 49.3,61.5 29,61.5 	"/>
	<line class="st1" x1="44.2" y1="36" x2="64.5" y2="36"/>
	<line class="st1" x1="41" y1="46" x2="61.3" y2="46"/>
	<polyline class="st1" points="61.7,33.1 64.6,36 61.7,38.9 	"/>
	<polyline class="st1" points="43.5,48.9 40.6,46 43.5,43.1 	"/>
</g>
</svg>
