<svg enable-background="new 0 0 77 77" viewBox="0 0 77 77" xmlns="http://www.w3.org/2000/svg"><path d="m583.6 140.8h26.9v-47.6l-26.5-10.2" fill="none" stroke="#3aaa35" stroke-linecap="round" stroke-linejoin="round" stroke-miterlimit="10"/><g clip-rule="evenodd"><path d="m583 107.4c1.1 0 2.1.8 2.4 1.9v.1c.2 1-.5 1.9-1.5 1.9h-1.7c-1 0-1.7-.9-1.5-1.9v-.1c.2-1.1 1.2-1.9 2.3-1.9z" fill="#3aaa35" fill-rule="evenodd"/><circle cx="583" cy="119.3" r="4.1" style="fill-rule:evenodd;fill:#3aaa35;stroke:#3aaa35;stroke-linecap:round;stroke-linejoin:round;stroke-miterlimit:10"/><ellipse cx="583" cy="117.5" fill="none" rx="4.8" ry="4.8" stroke="#3aaa35" stroke-linecap="round" stroke-linejoin="round" stroke-miterlimit="10" transform="matrix(.7071 -.7071 .7071 .7071 87.7063 446.6473)"/><ellipse cx="583" cy="117.5" rx="4.8" ry="4.8" style="fill-rule:evenodd;fill:#fff;stroke:#3aaa35;stroke-linecap:round;stroke-linejoin:round;stroke-miterlimit:10" transform="matrix(.7071 -.7071 .7071 .7071 87.7063 446.6473)"/><path d="m586.7 111.8 6.3 1.4c.6.1 1.1.5 1.3 1 .3 1-.6 1.7-1.9 1.7l-2-.1c-1.6-.1-3.2-1.2-3.4-2.4z" fill="none" stroke="#3aaa35" stroke-linecap="round" stroke-linejoin="round" stroke-miterlimit="10"/><path d="m586.7 110.6 7.7-3c.8-.3 1.6-.2 2.1.3 1 1 .7 2.6-.7 3.5l-2.2 1.4c-1.8 1.1-4.2.9-5.3-.4z" style="fill-rule:evenodd;fill:#fff;stroke:#3aaa35;stroke-linecap:round;stroke-linejoin:round;stroke-miterlimit:10"/><path d="m579.2 111.8-6.3 1.4c-.6.1-1.1.5-1.3 1-.3 1 .6 1.7 1.9 1.7l2-.1c1.6-.1 3.2-1.2 3.4-2.4z" fill="none" stroke="#3aaa35" stroke-linecap="round" stroke-linejoin="round" stroke-miterlimit="10"/><path d="m579.3 110.6-7.7-3c-.8-.3-1.6-.2-2.1.3-1 1-.7 2.6.7 3.5l2.2 1.4c1.8 1.1 4.2.9 5.3-.4z" style="fill-rule:evenodd;fill:#fff;stroke:#3aaa35;stroke-linecap:round;stroke-linejoin:round;stroke-miterlimit:10"/><path d="m587.6 116.1c0 1.3-2.1 2.4-4.6 2.4-2.6 0-4.6-1.1-4.6-2.4s2.1-4 4.6-4c2.6 0 4.6 2.6 4.6 4z" fill="#3aaa35" fill-rule="evenodd"/><g stroke="#3aaa35" stroke-linecap="round" stroke-linejoin="round" stroke-miterlimit="10"><path d="m583 115.7c-1.7 0-3.2-1.2-3.6-2.9v-.2c-.3-1.5.8-2.8 2.3-2.8h2.6c1.5 0 2.6 1.4 2.3 2.8v.2c-.4 1.7-1.9 2.9-3.6 2.9z" fill="#fff" fill-rule="evenodd"/><path d="m581.6 107.8-1.5-1.5" fill="none"/><path d="m579.6 111.1-1.7-3v-1.8l-1.4-1.1" fill="none"/><path d="m579.5 113.4-3 3-.9 2.4-1.2.4" fill="none"/><path d="m578.4 116.1-1.5 4 1 2.7v1.8" fill="none"/><path d="m584.4 107.8 1.5-1.5" fill="none"/><path d="m586.4 111.1 1.7-3v-1.8l1.4-1.1" fill="none"/><path d="m586.5 113.4 3 3 .9 2.4 1.2.4" fill="none"/><path d="m587.6 116.1 1.5 4-1 2.7.1 1.8" fill="none"/></g></g><path d="m584.3 96h20.7v38.4h-20.3" fill="none" stroke="#3aaa35" stroke-linecap="round" stroke-linejoin="round" stroke-miterlimit="10"/><path d="m599.9 109h20.3" fill="none" stroke="#3aaa35" stroke-linecap="round" stroke-linejoin="round" stroke-miterlimit="10"/><path d="m596.7 118.9h20.3" fill="none" stroke="#3aaa35" stroke-linecap="round" stroke-linejoin="round" stroke-miterlimit="10"/><path d="m617.4 106.1 2.9 2.8-2.9 2.9" fill="none" stroke="#3aaa35" stroke-linecap="round" stroke-linejoin="round" stroke-miterlimit="10"/><path d="m599.2 121.8-2.9-2.8 2.9-2.9" fill="none" stroke="#3aaa35" stroke-linecap="round" stroke-linejoin="round" stroke-miterlimit="10"/><g fill="#3aaa35"><path d="m67 50.8h-18.5c-.3 0-.5-.2-.5-.5s.2-.5.5-.5h18v-5c0-.3.2-.5.5-.5s.5.2.5.5v5.5c0 .3-.2.5-.5.5z"/><path d="m61.5 45.9c-.3 0-.5-.2-.5-.5v-13.3c0-2.9 2.4-5.2 5.2-5.2h8.3c.3 0 .5.2.5.5s-.2.5-.5.5h-8.3c-2.3 0-4.2 1.9-4.2 4.2v13.3c0 .2-.2.5-.5.5z"/><path d="m50.5 45.9c-.3 0-.5-.2-.5-.5v-13.3c0-2.3-1.9-4.2-4.2-4.2h-8.3c-.3 0-.5-.2-.5-.5s.2-.5.5-.5h8.3c2.9 0 5.2 2.4 5.2 5.2v13.3c0 .2-.2.5-.5.5z"/><path d="m56 45.9c-.3 0-.5-.2-.5-.5v-27c0-.3.2-.5.5-.5s.5.2.5.5v27c0 .2-.2.5-.5.5z"/><path d="m68.5 33.8c-.1 0-.3 0-.4-.1-.2-.2-.2-.5 0-.7l5.6-5.6-5.6-5.6c-.2-.2-.2-.5 0-.7s.5-.2.7 0l6 6c.2.2.2.5 0 .7l-6 6s-.2 0-.3 0z"/><path d="m43.2 33.8c-.1 0-.3 0-.4-.1l-6-6c-.2-.2-.2-.5 0-.7l6-6c.2-.2.5-.2.7 0s.2.5 0 .7l-5.6 5.6 5.6 5.6c.2.2.2.5 0 .7-.1.2-.2.2-.3.2z"/><path d="m62 23.8c-.1 0-.3 0-.4-.1l-5.6-5.7-5.6 5.6c-.2.2-.5.2-.7 0s-.2-.5 0-.7l6-6c.2-.2.5-.2.7 0l6 6c.2.2.2.5 0 .7-.1.2-.3.2-.4.2z"/><path d="m25.7 65.3c-4 0-7.8-1.6-10.6-4.4s-4.4-6.6-4.4-10.6 1.6-7.8 4.4-10.6c5.8-5.8 15.4-5.8 21.2 0s5.8 15.4 0 21.2c-2.9 2.8-6.6 4.4-10.6 4.4zm0-29c-3.6 0-7.2 1.4-9.9 4.1-2.6 2.6-4.1 6.2-4.1 9.9s1.5 7.3 4.1 9.9 6.2 4.1 9.9 4.1 7.3-1.5 9.9-4.1c5.5-5.5 5.5-14.3 0-19.8-2.8-2.7-6.4-4.1-9.9-4.1z"/><path d="m25.7 52.8c-.7 0-1.3-.3-1.8-.7-.5-.5-.7-1.1-.7-1.8s.3-1.3.7-1.8c.9-.9 2.6-.9 3.5 0 .5.5.7 1.1.7 1.8s-.3 1.3-.7 1.8c-.5.4-1.1.7-1.7.7zm0-4c-.4 0-.8.2-1.1.4s-.4.7-.4 1.1.2.8.4 1.1c.6.6 1.6.6 2.1 0 .3-.3.4-.7.4-1.1s-.2-.8-.4-1.1c-.3-.3-.6-.4-1-.4z"/><path d="m25.7 69.7c-5 0-10-1.9-13.8-5.7-6.3-6.3-7.5-15.9-3.1-23.6l-2.7-2.7c-1.7-1.7-1.7-4.4 0-6.1l1.7-1.6c1.7-1.7 4.4-1.7 6.1 0l2.9 2.9c7.6-3.9 16.6-2.5 22.7 3.6 7.6 7.6 7.6 20 0 27.6-3.9 3.7-8.9 5.6-13.8 5.6zm-14.9-40c-.8 0-1.7.3-2.3 1l-1.7 1.7c-1.3 1.3-1.3 3.4 0 4.7l3 3c.2.2.2.4.1.6-4.5 7.3-3.4 16.6 2.7 22.6 7.2 7.2 19 7.2 26.2 0s7.2-19 0-26.2c-5.8-5.8-14.6-7.1-21.8-3.2-.2.1-.4.1-.6-.1l-3.2-3.2c-.7-.6-1.5-.9-2.4-.9z"/><path d="m25.7 39.7c-.3 0-.5-.2-.5-.5v-3.4c0-.3.2-.5.5-.5s.5.2.5.5v3.4c0 .3-.3.5-.5.5z"/><path d="m40.2 50.8h-3.4c-.3 0-.5-.2-.5-.5s.2-.5.5-.5h3.4c.3 0 .5.2.5.5s-.3.5-.5.5z"/><path d="m25.7 65.3c-.3 0-.5-.2-.5-.5v-3.4c0-.3.2-.5.5-.5s.5.2.5.5v3.4c0 .3-.3.5-.5.5z"/><path d="m14.6 50.8h-3.4c-.3 0-.5-.2-.5-.5s.2-.5.5-.5h3.4c.3 0 .5.2.5.5s-.2.5-.5.5z"/></g><path d="m27 48.8 6.9-7.2" fill="#fff"/><path d="m27 49.3c-.1 0-.2 0-.3-.1-.2-.2-.2-.5 0-.7l6.8-7.2c.2-.2.5-.2.7 0s.2.5 0 .7l-6.8 7.2c-.1.1-.2.1-.4.1z" fill="#3aaa35"/><path d="m24.2 48.9-4.1-4.2" fill="#fff"/><path d="m24.2 49.4c-.1 0-.3 0-.4-.1l-4.1-4.1c-.2-.2-.2-.5 0-.7s.5-.2.7 0l4.1 4.1c.2.2.2.5 0 .7 0 0-.1.1-.3.1z" fill="#3aaa35"/></svg>