<svg enable-background="new 0 0 480 480" viewBox="0 0 480 480" xmlns="http://www.w3.org/2000/svg"><path d="m315 213.6v152.6" fill="#fff"/><path d="m315 213.6v6" fill="none" stroke="#3aaa35" stroke-linecap="round" stroke-linejoin="round" stroke-width="2"/><path d="m315 232.4v121.4" style="fill:none;stroke:#3aaa35;stroke-width:2;stroke-linecap:round;stroke-linejoin:round;stroke-dasharray:12.7796 12.7796"/><path d="m315 360.2v6" fill="none" stroke="#3aaa35" stroke-linecap="round" stroke-linejoin="round" stroke-width="2"/><path d="m237.9 189.8h35.7v120.6h-35.7z" style="fill:#fff;stroke:#3aaa35;stroke-width:2;stroke-linecap:round;stroke-linejoin:round;stroke-miterlimit:10"/><path d="m255.8 236.6h17.9v40.7h-17.9z" style="fill:#fff;stroke:#3aaa35;stroke-width:2;stroke-linecap:round;stroke-linejoin:round;stroke-miterlimit:10"/><path d="m250.7 296.7h23v40.7h-23z" style="fill:#fff;stroke:#3aaa35;stroke-width:2;stroke-linecap:round;stroke-linejoin:round;stroke-miterlimit:10"/><path d="m361.4 255.7v113" fill="#fff"/><path d="m361.4 255.7v6" fill="none" stroke="#3aaa35" stroke-linecap="round" stroke-linejoin="round" stroke-width="2"/><path d="m361.4 272.9v84.2" style="fill:none;stroke:#3aaa35;stroke-width:2;stroke-linecap:round;stroke-linejoin:round;stroke-dasharray:11.2246 11.2246"/><path d="m361.4 362.7v6" fill="none" stroke="#3aaa35" stroke-linecap="round" stroke-linejoin="round" stroke-width="2"/><path d="m395.6 304.8v63.9" fill="#fff"/><path d="m395.6 304.8v6" fill="none" stroke="#3aaa35" stroke-linecap="round" stroke-linejoin="round" stroke-width="2"/><path d="m395.6 321.2v36.3" style="fill:none;stroke:#3aaa35;stroke-width:2;stroke-linecap:round;stroke-linejoin:round;stroke-dasharray:10.3768 10.3768"/><path d="m395.6 362.7v6" fill="none" stroke="#3aaa35" stroke-linecap="round" stroke-linejoin="round" stroke-width="2"/><path d="m429.9 211v157.7" fill="#fff"/><g stroke-linecap="round" stroke-linejoin="round" stroke-width="2"><path d="m429.9 211v6" fill="none" stroke="#3aaa35"/><path d="m429.9 228.2v128.9" fill="none" stroke="#3aaa35" stroke-dasharray="11.2094 11.2094"/><path d="m429.9 362.7v6" fill="none" stroke="#3aaa35"/><path d="m261.8 368.7h198.8l-17.5-5.1" fill="none" stroke="#063" stroke-miterlimit="10"/><path d="m273.7 381.7v-257.6l-5.1 17.6" fill="none" stroke="#063" stroke-miterlimit="10"/><circle cx="273.7" cy="227.7" fill="#fff" r="4.5" stroke="#3aaa35" stroke-miterlimit="10"/><circle cx="273.7" cy="326.6" fill="#fff" r="4.5" stroke="#3aaa35" stroke-miterlimit="10"/><path d="m278.7 227.7 36.3-14.1 43 47 65.4-50.2" fill="none" stroke="#063" stroke-miterlimit="10"/><path d="m278.7 326.6 38-16.2s10.1 25.2 40.7 25.2 44.2-25.2 44.2-25.2" fill="none" stroke="#063" stroke-miterlimit="10"/><circle cx="314.8" cy="310.4" fill="#fff" r="4.5" stroke="#3aaa35" stroke-miterlimit="10"/><circle cx="320.9" cy="215.5" fill="#fff" r="7.4" stroke="#063" stroke-miterlimit="10"/></g><path d="m320.9 208.1c-4.1 0-7.4 3.3-7.4 7.4s3.3 7.4 7.4 7.4z" fill="#063"/><path d="m325.9 224-.6-.2c-.4-.2-.6-.6-.4-1l3.9-9.3c.2-.4.6-.6 1-.4l.6.2c2.5 1.1 3.7 4 2.7 6.5l-.7 1.6c-1 2.4-4 3.6-6.5 2.6z" fill="#063"/><path d="m332.2 216.8h5" style="fill:none;stroke:#063;stroke-width:2;stroke-linecap:round;stroke-linejoin:round;stroke-miterlimit:10"/><path d="m297.9 225.7-1-1.6c-2.5-4.1-1.3-9.4 2.8-12l5.9-3.7c4.1-2.5 9.4-1.3 12 2.8l1 1.6c2.5 4.1 1.3 9.4-2.8 12l-5.9 3.7c-4.1 2.6-9.5 1.3-12-2.8z" style="fill:#fff;stroke:#063;stroke-width:2;stroke-linecap:round;stroke-linejoin:round;stroke-miterlimit:10"/><path d="m302.5 210.4-2 1.2c-.7.4-1.2.9-1.8 1.4l9.9 15.9c.7-.2 1.4-.5 2.1-1l2-1.2z" fill="#063"/><path d="m317.2 223.4c2.6-3.1 3.1-7.7.8-11.3s-6.6-5.2-10.5-4.2z" fill="#063"/><path d="m320.9 222.9 2.3 4.5-1.2 2.3" style="fill:none;stroke:#063;stroke-width:2;stroke-linecap:round;stroke-linejoin:round;stroke-miterlimit:10"/><path d="m317.8 222.2-.6 8-2 3.4" style="fill:none;stroke:#063;stroke-width:2;stroke-linecap:round;stroke-linejoin:round;stroke-miterlimit:10"/><path d="m315 225.3-7.5 7.6-1.8 3.7" style="fill:none;stroke:#063;stroke-width:2;stroke-linecap:round;stroke-linejoin:round;stroke-miterlimit:10"/><path d="m309 190.4c-2.8 1.4-4.1 7.4-.5 11.6 4 4.6 8.1 7.2 9.7 6.5 2.8-1.4 3-6.6.5-11.6-2.6-5.1-6.9-7.9-9.7-6.5z" style="fill:#fff;stroke:#063;stroke-width:2;stroke-linecap:round;stroke-linejoin:round;stroke-miterlimit:10"/><path d="m300.3 200.1c-1.4 2.8 1.1 8.4 6.6 9.6 6 1.3 10.8.9 11.6-.6 1.4-2.8-1.5-7.1-6.6-9.6-5-2.5-10.2-2.3-11.6.6z" style="fill:#fff;stroke:#063;stroke-width:2;stroke-linecap:round;stroke-linejoin:round;stroke-miterlimit:10"/><circle cx="367" cy="259.1" r="7.4" style="fill:#fff;stroke:#063;stroke-width:2;stroke-linecap:round;stroke-linejoin:round;stroke-miterlimit:10"/><path d="m367 251.7c-4.1 0-7.4 3.3-7.4 7.4s3.3 7.4 7.4 7.4z" fill="#063"/><path d="m372 267.6-.6-.2c-.4-.2-.6-.6-.4-1l3.9-9.3c.2-.4.6-.6 1-.4l.6.2c2.5 1.1 3.7 4 2.7 6.5l-.7 1.6c-1 2.5-4 3.7-6.5 2.6z" fill="#063"/><path d="m378.3 260.4h5" style="fill:none;stroke:#063;stroke-width:2;stroke-linecap:round;stroke-linejoin:round;stroke-miterlimit:10"/><path d="m344 269.4-1-1.6c-2.5-4.1-1.3-9.4 2.8-12l5.9-3.7c4.1-2.5 9.4-1.3 12 2.8l1 1.6c2.5 4.1 1.3 9.4-2.8 12l-5.9 3.7c-4.1 2.5-9.4 1.2-12-2.8z" style="fill:#fff;stroke:#063;stroke-width:2;stroke-linecap:round;stroke-linejoin:round;stroke-miterlimit:10"/><path d="m348.6 254.1-2 1.2c-.7.4-1.2.9-1.8 1.4l9.9 15.9c.7-.2 1.4-.5 2.1-1l2-1.2z" fill="#063"/><path d="m363.3 267c2.6-3.1 3.1-7.7.8-11.3s-6.6-5.2-10.5-4.2z" fill="#063"/><path d="m367 266.5 2.3 4.5-1.1 2.3" style="fill:none;stroke:#063;stroke-width:2;stroke-linecap:round;stroke-linejoin:round;stroke-miterlimit:10"/><path d="m363.9 265.8-.6 8.1-1.9 3.4" style="fill:none;stroke:#063;stroke-width:2;stroke-linecap:round;stroke-linejoin:round;stroke-miterlimit:10"/><path d="m361.1 268.9-7.5 7.7-1.8 3.6" style="fill:none;stroke:#063;stroke-width:2;stroke-linecap:round;stroke-linejoin:round;stroke-miterlimit:10"/><path d="m355.1 234c-2.8 1.4-4.1 7.4-.5 11.6 4 4.6 8.1 7.2 9.7 6.5 2.8-1.4 3-6.6.5-11.6s-6.9-7.9-9.7-6.5z" style="fill:#fff;stroke:#063;stroke-width:2;stroke-linecap:round;stroke-linejoin:round;stroke-miterlimit:10"/><path d="m346.4 243.7c-1.4 2.8 1.1 8.4 6.6 9.6 6 1.3 10.8.9 11.6-.6 1.4-2.8-1.5-7.1-6.6-9.6-5-2.5-10.2-2.2-11.6.6z" style="fill:#fff;stroke:#063;stroke-width:2;stroke-linecap:round;stroke-linejoin:round;stroke-miterlimit:10"/><circle cx="435.6" cy="207.5" r="7.4" style="fill:#fff;stroke:#063;stroke-width:2;stroke-linecap:round;stroke-linejoin:round;stroke-miterlimit:10"/><path d="m435.6 200.1c-4.1 0-7.4 3.3-7.4 7.4s3.3 7.4 7.4 7.4z" fill="#063"/><path d="m440.5 216-.6-.2c-.4-.2-.6-.6-.4-1l3.9-9.3c.2-.4.6-.6 1-.4l.6.2c2.5 1.1 3.7 4 2.7 6.5l-.7 1.6c-1 2.5-3.9 3.7-6.5 2.6z" fill="#063"/><path d="m446.8 208.9h5.1" style="fill:none;stroke:#063;stroke-width:2;stroke-linecap:round;stroke-linejoin:round;stroke-miterlimit:10"/><path d="m412.6 217.8-1-1.6c-2.5-4.1-1.3-9.4 2.8-12l5.9-3.7c4.1-2.5 9.4-1.3 12 2.8l1 1.6c2.5 4.1 1.3 9.4-2.8 12l-5.9 3.7c-4.2 2.5-9.5 1.3-12-2.8z" style="fill:#fff;stroke:#063;stroke-width:2;stroke-linecap:round;stroke-linejoin:round;stroke-miterlimit:10"/><path d="m417.1 202.5-2 1.2c-.7.4-1.2.9-1.8 1.4l9.9 15.9c.7-.2 1.4-.5 2.1-1l2-1.2z" fill="#063"/><path d="m431.9 215.4c2.6-3.1 3.1-7.7.8-11.3s-6.6-5.2-10.5-4.2z" fill="#063"/><path d="m435.6 214.9 2.2 4.6-1.1 2.2" style="fill:none;stroke:#063;stroke-width:2;stroke-linecap:round;stroke-linejoin:round;stroke-miterlimit:10"/><path d="m432.4 214.2-.5 8.1-2 3.4" style="fill:none;stroke:#063;stroke-width:2;stroke-linecap:round;stroke-linejoin:round;stroke-miterlimit:10"/><path d="m429.6 217.4-7.4 7.6-1.9 3.7" style="fill:none;stroke:#063;stroke-width:2;stroke-linecap:round;stroke-linejoin:round;stroke-miterlimit:10"/><path d="m423.6 182.4c-2.8 1.4-4.1 7.4-.5 11.6 4 4.6 8.1 7.2 9.7 6.5 2.8-1.4 3-6.6.5-11.6s-6.9-7.9-9.7-6.5z" style="fill:#fff;stroke:#063;stroke-width:2;stroke-linecap:round;stroke-linejoin:round;stroke-miterlimit:10"/><path d="m415 192.1c-1.4 2.8 1.1 8.4 6.6 9.6 6 1.3 10.8.9 11.6-.6 1.4-2.8-1.5-7.1-6.6-9.6-5-2.5-10.2-2.2-11.6.6z" style="fill:#fff;stroke:#063;stroke-width:2;stroke-linecap:round;stroke-linejoin:round;stroke-miterlimit:10"/><circle cx="404.4" cy="309.1" r="7.4" style="fill:#fff;stroke:#063;stroke-width:2;stroke-linecap:round;stroke-linejoin:round;stroke-miterlimit:10"/><path d="m404.4 301.7c-4.1 0-7.4 3.3-7.4 7.4s3.3 7.4 7.4 7.4z" fill="#063"/><path d="m409.3 317.6-.6-.2c-.4-.2-.6-.6-.4-1l3.9-9.3c.2-.4.6-.6 1-.4l.6.2c2.5 1.1 3.7 4 2.7 6.5l-.7 1.6c-1 2.5-3.9 3.7-6.5 2.6z" fill="#063"/><path d="m415.6 310.5h5.1" style="fill:none;stroke:#063;stroke-width:2;stroke-linecap:round;stroke-linejoin:round;stroke-miterlimit:10"/><path d="m381.4 319.4-1-1.6c-2.5-4.1-1.3-9.4 2.8-12l5.9-3.7c4.1-2.5 9.4-1.3 12 2.8l1 1.6c2.5 4.1 1.3 9.4-2.8 12l-5.9 3.7c-4.2 2.5-9.5 1.3-12-2.8z" style="fill:#fff;stroke:#063;stroke-width:2;stroke-linecap:round;stroke-linejoin:round;stroke-miterlimit:10"/><path d="m385.9 304.1-2 1.2c-.7.4-1.2.9-1.8 1.4l9.9 15.9c.7-.2 1.4-.5 2.1-1l2-1.2z" fill="#063"/><path d="m400.7 317c2.6-3.1 3.1-7.7.8-11.3s-6.6-5.2-10.5-4.2z" fill="#063"/><g stroke-linecap="round" stroke-linejoin="round" stroke-miterlimit="10" stroke-width="2"><path d="m404.4 316.5 2.2 4.6-1.1 2.2" fill="none" stroke="#063"/><path d="m401.2 315.8-.5 8.1-2 3.4" fill="none" stroke="#063"/><path d="m398.4 319-7.4 7.6-1.9 3.7" fill="none" stroke="#063"/><g fill="#fff"><path d="m392.4 284c-2.8 1.4-4.1 7.4-.5 11.6 4 4.6 8.1 7.2 9.7 6.5 2.8-1.4 3-6.6.5-11.6-2.6-5-6.9-7.9-9.7-6.5z" stroke="#063"/><path d="m383.8 293.7c-1.4 2.8 1.1 8.4 6.6 9.6 6 1.3 10.8.9 11.6-.6 1.4-2.8-1.5-7.1-6.6-9.6-5-2.5-10.2-2.2-11.6.6z" stroke="#063"/><path d="m190.4 288.5v31.6" stroke="#3aaa35"/><path d="m134 341.1h11.1" stroke="#3aaa35"/><path d="m134 167.8h64v73h-64z" stroke="#3aaa35"/><path d="m142.3 179.3h5" stroke="#3aaa35"/><path d="m142.3 191h5" stroke="#3aaa35"/><path d="m142.3 202.8h5" stroke="#3aaa35"/><path d="m142.3 214.5h5" stroke="#3aaa35"/><path d="m142.3 226.3h5" stroke="#3aaa35"/><path d="m153.8 179.3h24.2" stroke="#3aaa35"/><path d="m153.8 191h24.2" stroke="#3aaa35"/><path d="m153.8 202.8h24.2" stroke="#3aaa35"/><path d="m153.8 214.5h24.2" stroke="#3aaa35"/><path d="m153.8 226.3h24.2" stroke="#3aaa35"/><path d="m76.8 124.1h13.7v31.7" stroke="#3aaa35"/><path d="m38.4 116.4v12.3c0 3.3 8.6 6 19.2 6s19.2-2.7 19.2-6v-12.3z" stroke="#063"/><ellipse cx="57.6" cy="116.4" rx="19.2" ry="6" stroke="#063"/><path d="m53.6 98v12.3c0 3.3 8.6 6 19.2 6s19.2-2.7 19.2-6v-12.3z" stroke="#063"/><ellipse cx="72.9" cy="98" rx="19.2" ry="6" stroke="#063"/><path d="m68.9 77.1v12.3c0 3.3 8.6 6 19.2 6s19.2-2.7 19.2-6v-12.3z" stroke="#063"/><ellipse cx="88.1" cy="77.1" rx="19.2" ry="6" stroke="#063"/><path d="m29.9 208.9h64v117.8h-64z" stroke="#3aaa35"/><path d="m50.3 223.6h11.6" stroke="#3aaa35"/><path d="m50.3 240.8h18.6" stroke="#3aaa35"/><path d="m50.3 257.9h18.6" stroke="#3aaa35"/><path d="m50.3 275.1h18.6" stroke="#3aaa35"/><path d="m50.3 292.2h18.6" stroke="#3aaa35"/><path d="m50.3 309.4h18.6" stroke="#3aaa35"/><circle cx="42.5" cy="223.6" r="1.6" stroke="#3aaa35"/><circle cx="42.5" cy="240.8" r="1.6" stroke="#3aaa35"/><circle cx="42.5" cy="257.9" r="1.6" stroke="#3aaa35"/><circle cx="42.5" cy="275.1" r="1.6" stroke="#3aaa35"/><circle cx="42.5" cy="292.2" r="1.6" stroke="#3aaa35"/><circle cx="42.5" cy="309.4" r="1.6" stroke="#3aaa35"/><path d="m55.4 167v46.1c0 6.1 14.6 11.1 32.7 11.1 18 0 32.7-5 32.7-11.1v-46.1z" stroke="#3aaa35"/><ellipse cx="88.1" cy="167" rx="32.7" ry="11.1" stroke="#3aaa35"/><path d="m120.8 190c0 6.1-14.6 11.1-32.7 11.1s-32.7-5-32.7-11.1" stroke="#3aaa35"/><path d="m145.1 320.1h90.5v82.1h-90.5z" stroke="#3aaa35"/><path d="m153.2 339.1h4.4v4.4h-4.4z" stroke="#3aaa35"/><path d="m153.2 352h4.4v4.4h-4.4z" stroke="#3aaa35"/><path d="m153.2 364.9h4.4v4.4h-4.4z" stroke="#3aaa35"/><path d="m153.2 377.8h4.4v4.4h-4.4z" stroke="#3aaa35"/><path d="m162.5 341.3h17.6" stroke="#3aaa35"/><path d="m162.5 354.2h17.6" stroke="#3aaa35"/><path d="m162.5 367.1h17.6" stroke="#3aaa35"/><path d="m162.5 380h17.6" stroke="#3aaa35"/><path d="m194.4 339.1h4.4v4.4h-4.4z" stroke="#3aaa35"/><path d="m194.4 352h4.4v4.4h-4.4z" stroke="#3aaa35"/><path d="m194.4 364.9h4.4v4.4h-4.4z" stroke="#3aaa35"/><path d="m194.4 377.8h4.4v4.4h-4.4z" stroke="#3aaa35"/><path d="m203.8 341.3h17.5" stroke="#3aaa35"/><path d="m203.8 354.2h17.5" stroke="#3aaa35"/><path d="m203.8 367.1h17.5" stroke="#3aaa35"/><path d="m203.8 380h17.5" stroke="#3aaa35"/><path d="m68.9 232.7h85.9v98.5h-85.9z" stroke="#3aaa35"/><path d="m77.8 247h4.4v4.4h-4.4z" stroke="#3aaa35"/><path d="m77.8 260.1h4.4v4.4h-4.4z" stroke="#3aaa35"/><path d="m87.1 249.2h17.6" stroke="#3aaa35"/><path d="m87.1 262.3h17.6" stroke="#3aaa35"/><path d="m117.1 247h4.4v4.4h-4.4z" stroke="#3aaa35"/><path d="m117.1 260.1h4.4v4.4h-4.4z" stroke="#3aaa35"/><path d="m126.4 249.2h17.6" stroke="#3aaa35"/><path d="m126.4 262.3h17.6" stroke="#3aaa35"/><path d="m77.8 273.2h4.4v4.4h-4.4z" stroke="#3aaa35"/><path d="m87.1 275.4h17.6" stroke="#3aaa35"/><path d="m117.1 273.2h4.4v4.4h-4.4z" stroke="#3aaa35"/><path d="m126.4 275.4h17.6" stroke="#3aaa35"/><path d="m77.8 286.3h4.4v4.4h-4.4z" stroke="#3aaa35"/><path d="m87.1 288.5h17.6" stroke="#3aaa35"/><path d="m117.1 286.3h4.4v4.4h-4.4z" stroke="#3aaa35"/><path d="m126.4 288.5h17.6" stroke="#3aaa35"/><path d="m134 308.4h-53.4v77.9.1c0 5.3 12 9.6 26.7 9.6 14.8 0 26.7-4.3 26.7-9.6v-.1z" stroke="#063"/><ellipse cx="107.3" cy="308.4" rx="26.7" ry="9.6" stroke="#063"/><path d="m134 327.5c0 5.3-12 9.6-26.7 9.6s-26.7-4.3-26.7-9.6" stroke="#063"/><path d="m134 347.4c0 5.3-12 9.6-26.7 9.6s-26.7-4.3-26.7-9.6" stroke="#063"/><path d="m134 367.2c0 5.3-12 9.6-26.7 9.6s-26.7-4.3-26.7-9.6" stroke="#063"/></g><path d="m260.9 168.9h7.7v7.7h-7.7z" fill="none" stroke="#063"/><path d="m263.2 244.3h6.9v6.9h-6.9z" fill="none" stroke="#063"/><path d="m215 300.8h12.5v12.5h-12.5z" fill="none" stroke="#063"/><path d="m235.6 357.5h20.2v18.3h-20.2z" fill="#fff" stroke="#3aaa35"/><path d="m21.3 170.9h14.4v14.4h-14.4z" fill="none" stroke="#063"/><path d="m103.7 112.3h9.5v9.5h-9.5z" fill="none" stroke="#063"/><path d="m248.6 128h4.3v4.3h-4.3z" fill="#fff" stroke="#3aaa35"/><path d="m159.6 286.4h7.5v7.5h-7.5z" fill="none" stroke="#063"/><path d="m179.1 310h4.3v4.3h-4.3z" fill="none" stroke="#063"/><path d="m168.1 256.9h4.3v4.3h-4.3z" fill="none" stroke="#063"/><path d="m179.4 69.8h5.7v5.7h-5.7z" fill="#fff" stroke="#3aaa35"/><path d="m90.5 142.1h18.4v-7.4h14.5" fill="#fff" stroke="#3aaa35"/><path d="m152.5 143.6v24.2" fill="#fff" stroke="#3aaa35"/><path d="m120.8 183.6h13.2" fill="#fff" stroke="#3aaa35"/><path d="m134 167.8h64v73h-64z" fill="#fff" stroke="#3aaa35"/><path d="m142.3 179.3h5" fill="#fff" stroke="#3aaa35"/><path d="m142.3 191h5" fill="#fff" stroke="#3aaa35"/><path d="m142.3 202.8h5" fill="#fff" stroke="#3aaa35"/><path d="m142.3 214.5h5" fill="#fff" stroke="#3aaa35"/><path d="m142.3 226.3h5" fill="#fff" stroke="#3aaa35"/><path d="m153.8 179.3h24.2" fill="#fff" stroke="#3aaa35"/><path d="m153.8 191h24.2" fill="#fff" stroke="#3aaa35"/><path d="m153.8 202.8h24.2" fill="#fff" stroke="#3aaa35"/><path d="m153.8 214.5h24.2" fill="#fff" stroke="#3aaa35"/><path d="m153.8 226.3h24.2" fill="#fff" stroke="#3aaa35"/><path d="m178.7 138.6h64v149.9h-64z" fill="#fff" stroke="#063"/><path d="m196.6 152.7h32.7" fill="#fff" stroke="#063"/><path d="m196.6 169.9h32.7" fill="#fff" stroke="#063"/><path d="m196.6 187h32.7" fill="#fff" stroke="#063"/><path d="m196.6 204.2h32.7" fill="#fff" stroke="#063"/><path d="m196.6 221.3h32.7" fill="#fff" stroke="#063"/><path d="m196.6 238.5h32.7" fill="#fff" stroke="#063"/><path d="m196.6 255.7h32.7" fill="#fff" stroke="#063"/><path d="m196.6 272.8h32.7" fill="#fff" stroke="#063"/><circle cx="188.8" cy="152.7" fill="#fff" r="1.6" stroke="#063"/><circle cx="188.8" cy="169.9" fill="#fff" r="1.6" stroke="#063"/><circle cx="188.8" cy="187" fill="#fff" r="1.6" stroke="#063"/><circle cx="188.8" cy="204.2" fill="#fff" r="1.6" stroke="#063"/><circle cx="188.8" cy="221.3" fill="#fff" r="1.6" stroke="#063"/><circle cx="188.8" cy="238.5" fill="#fff" r="1.6" stroke="#063"/><circle cx="188.8" cy="255.7" fill="#fff" r="1.6" stroke="#063"/><circle cx="188.8" cy="272.8" fill="#fff" r="1.6" stroke="#063"/><path d="m123.4 79.3h43.5v64.3h-43.5z" fill="#fff" stroke="#3aaa35"/><path d="m130.5 90.3h4.4v4.4h-4.4z" fill="#fff" stroke="#3aaa35"/><path d="m130.5 103.2h4.4v4.4h-4.4z" fill="#fff" stroke="#3aaa35"/><path d="m130.5 116.1h4.4v4.4h-4.4z" fill="#fff" stroke="#3aaa35"/><path d="m130.5 129.1h4.4v4.4h-4.4z" fill="#fff" stroke="#3aaa35"/><path d="m139.9 92.5h17.5" fill="#fff" stroke="#3aaa35"/><path d="m139.9 105.4h17.5" fill="#fff" stroke="#3aaa35"/><path d="m139.9 118.4h17.5" fill="#fff" stroke="#3aaa35"/><path d="m139.9 131.3h17.5" fill="#fff" stroke="#3aaa35"/></g></svg>