<?xml version="1.0" encoding="utf-8"?>
<!-- Generator: Adobe Illustrator 23.1.0, SVG Export Plug-In . SVG Version: 6.00 Build 0)  -->
<svg version="1.1" id="Слой_1" xmlns="http://www.w3.org/2000/svg" xmlns:xlink="http://www.w3.org/1999/xlink" x="0px" y="0px"
	 viewBox="0 0 77 77" style="enable-background:new 0 0 77 77;" xml:space="preserve">
<style type="text/css">
	.st0{fill:#3AAA35;}
	.st1{fill:#FFFFFF;}
	.st2{display:none;}
	.st3{display:inline;fill:none;stroke:#3AAA35;stroke-linecap:round;stroke-linejoin:round;stroke-miterlimit:10;}
	.st4{display:inline;fill:#3AAA35;}
	.st5{font-family:'Comfortaa-Bold';}
	.st6{font-size:12.4144px;}
	.st7{display:inline;}
	.st8{fill:none;stroke:#3AAA35;stroke-linecap:round;stroke-linejoin:round;stroke-miterlimit:10;}
	.st9{fill:#FFFFFF;stroke:#3AAA35;stroke-linecap:round;stroke-linejoin:round;stroke-miterlimit:10;}
	.st10{fill-rule:evenodd;clip-rule:evenodd;fill:#3AAA35;}
	
		.st11{fill-rule:evenodd;clip-rule:evenodd;fill:#3AAA35;stroke:#3AAA35;stroke-linecap:round;stroke-linejoin:round;stroke-miterlimit:10;}
	.st12{fill:none;stroke:#3AAA35;stroke-width:1;stroke-linecap:round;stroke-linejoin:round;stroke-miterlimit:9.9999;}
	
		.st13{fill-rule:evenodd;clip-rule:evenodd;fill:#FFFFFF;stroke:#3AAA35;stroke-width:1;stroke-linecap:round;stroke-linejoin:round;stroke-miterlimit:9.9999;}
	
		.st14{fill-rule:evenodd;clip-rule:evenodd;fill:#FFFFFF;stroke:#3AAA35;stroke-linecap:round;stroke-linejoin:round;stroke-miterlimit:10;}
</style>
<g>
	<path class="st0" d="M58.8,68.8h-1.6c-1.3,0-2.3-0.9-2.3-2.1v-4c0-0.6-0.6-1.1-1.3-1.1H41.4c-0.7,0-1.3,0.5-1.3,1.1v4
		c0,1.1-1,2.1-2.3,2.1h-1.6c-1.3,0-2.3-0.9-2.3-2.1V24.9c0-1.1,1-2.1,2.3-2.1h22.6c1.3,0,2.3,0.9,2.3,2.1v41.9
		C61.1,67.9,60.1,68.8,58.8,68.8z M41.4,60.6h12.2c1.3,0,2.3,0.9,2.3,2.1v4c0,0.6,0.6,1.1,1.3,1.1h1.6c0.7,0,1.3-0.5,1.3-1.1V24.9
		c0-0.6-0.6-1.1-1.3-1.1H36.2c-0.7,0-1.3,0.5-1.3,1.1v41.9c0,0.6,0.6,1.1,1.3,1.1h1.6c0.7,0,1.3-0.5,1.3-1.1v-4
		C39.1,61.6,40.1,60.6,41.4,60.6z"/>
	<path class="st0" d="M47.5,43.4c-1.1,0-1.9-0.9-1.9-1.9s0.9-1.9,1.9-1.9s1.9,0.9,1.9,1.9S48.6,43.4,47.5,43.4z M47.5,40.5
		c-0.5,0-0.9,0.4-0.9,0.9s0.4,0.9,0.9,0.9s0.9-0.4,0.9-0.9S48,40.5,47.5,40.5z"/>
	<g>
		<g>
			<path class="st1" d="M37.7,50.8V11.9c0-1.8-1.5-3.3-3.3-3.3s-3.3,1.5-3.3,3.3v38.9c-1,0.9-1.7,2.3-1.7,3.8c0,2.8,2.2,5,5,5
				s5-2.2,5-5C39.4,53,38.8,51.7,37.7,50.8z"/>
			<path class="st0" d="M34.4,60.1c-3,0-5.5-2.5-5.5-5.5c0-1.5,0.6-2.9,1.7-4V11.9c0-2.1,1.7-3.8,3.8-3.8s3.8,1.7,3.8,3.8v38.7
				c1.1,1,1.7,2.5,1.7,4C39.9,57.6,37.4,60.1,34.4,60.1z M34.4,9.1c-1.5,0-2.8,1.3-2.8,2.8v38.9c0,0.1-0.1,0.3-0.2,0.4
				c-1,0.9-1.5,2.1-1.5,3.4c0,2.5,2,4.5,4.5,4.5s4.5-2,4.5-4.5c0-1.3-0.6-2.5-1.5-3.4c-0.1-0.1-0.2-0.2-0.2-0.4V11.9
				C37.2,10.3,36,9.1,34.4,9.1z"/>
		</g>
		<g>
			<path class="st0" d="M35.3,52.6v-17c0-0.5-0.4-0.8-0.8-0.8s-0.8,0.4-0.8,0.8v17c-0.8,0.3-1.4,1.1-1.4,2.1c0,1.2,1,2.3,2.3,2.3
				s2.3-1,2.3-2.3C36.7,53.7,36.1,52.9,35.3,52.6z"/>
			<path class="st0" d="M34.4,57.4c-1.5,0-2.8-1.2-2.8-2.8c0-1,0.5-1.9,1.4-2.4V35.6c0-0.7,0.6-1.3,1.3-1.3s1.3,0.6,1.3,1.3v16.7
				c0.9,0.5,1.4,1.4,1.4,2.4C37.2,56.2,35.9,57.4,34.4,57.4z M34.4,35.2c-0.2,0-0.3,0.2-0.3,0.3v17c0,0.2-0.1,0.4-0.3,0.5
				c-0.7,0.3-1.1,0.9-1.1,1.6c0,1,0.8,1.8,1.8,1.8s1.8-0.8,1.8-1.8c0-0.7-0.4-1.4-1.1-1.6c-0.2-0.1-0.3-0.3-0.3-0.5v-17
				C34.8,35.4,34.6,35.2,34.4,35.2z"/>
		</g>
	</g>
	<g>
		<path class="st0" d="M17.6,46.3c-0.3,0-0.5-0.2-0.5-0.5v-1.7c0-2.4,0.9-2.9,2.3-3.5c0.7-0.3,1.4-0.6,2.3-1.2
			c1.8-1.3,2.8-3.5,2.8-5.7c-0.1-3.6-3.1-6.6-6.7-6.7c-1.9-0.1-3.7,0.6-5,2c-1.3,1.3-2.1,3.1-2.1,5c0,0.3-0.2,0.5-0.5,0.5
			S9.7,34.3,9.7,34c0-2.2,0.9-4.2,2.4-5.7s3.6-2.3,5.7-2.2c4.1,0.1,7.6,3.6,7.7,7.7c0.1,2.6-1.1,5-3.2,6.6c-1,0.7-1.9,1.1-2.6,1.4
			c-1.2,0.5-1.7,0.7-1.7,2.5V46C18.1,46.1,17.9,46.3,17.6,46.3z"/>
		<path class="st0" d="M17.6,51.6c-0.6,0-1.1-0.5-1.1-1.1s0.5-1.1,1.1-1.1s1.1,0.5,1.1,1.1S18.2,51.6,17.6,51.6z M17.6,50.4
			c-0.1,0-0.1,0-0.1,0.1s0.2,0.1,0.2,0L17.6,50.4z"/>
	</g>
</g>
<g class="st2">
	<path class="st3" d="M56.8,35.6c0-9.4-8.1-16.8-17.7-15.8c-7.4,0.8-13.3,6.9-14,14.4c-0.4,5.1,1.6,9.8,5,13s5.5,7.5,5.5,12.2v5.1
		c0,1.6,1.3,2.8,2.8,2.8h4.9c1.6,0,2.8-1.3,2.8-2.8v-4.9c0-4.7,2-9.1,5.5-12.3C54.8,44.4,56.8,40.2,56.8,35.6z"/>
	<line class="st3" x1="35.4" y1="54.9" x2="46.5" y2="54.9"/>
	<line class="st3" x1="35.6" y1="59.3" x2="46.2" y2="59.3"/>
	<line class="st3" x1="35.6" y1="63.7" x2="46.2" y2="63.7"/>
	<line class="st3" x1="40.9" y1="13.6" x2="40.9" y2="6.6"/>
	<line class="st3" x1="18" y1="36.5" x2="11" y2="36.5"/>
	<line class="st3" x1="24.7" y1="20.3" x2="19.7" y2="15.4"/>
	<line class="st3" x1="57.1" y1="20.3" x2="62.1" y2="15.4"/>
	<line class="st3" x1="63.8" y1="36.5" x2="70.9" y2="36.5"/>
	<text transform="matrix(1 0 0 1 30.5786 41.8817)" class="st4 st5 st6">UV</text>
</g>
<g id="Слой_3" class="st2">
	<polyline class="st3" points="48.5,50.3 67,50.3 67,44.8 	"/>
	<path class="st3" d="M61.5,45.4V32.1c0-2.6,2.1-4.7,4.7-4.7h8.3"/>
	<path class="st3" d="M50.5,45.4V32.1c0-2.6-2.1-4.7-4.7-4.7h-8.3"/>
	<line class="st3" x1="56" y1="45.4" x2="56" y2="18.4"/>
	<polyline class="st3" points="68.5,21.3 74.5,27.3 68.5,33.3 	"/>
	<polyline class="st3" points="43.2,33.3 37.2,27.3 43.2,21.3 	"/>
	<polyline class="st3" points="50,23.3 56,17.3 62,23.3 	"/>
	<g class="st7">
		<circle class="st8" cx="25.7" cy="50.3" r="14.5"/>
		<circle class="st8" cx="25.7" cy="50.3" r="2"/>
		<path class="st8" d="M16.7,33.5l-3.2-3.2c-1.5-1.5-3.9-1.5-5.4,0L6.4,32c-1.5,1.5-1.5,3.9,0,5.4l3,3c-4.5,7.3-3.5,17,2.8,23.3
			c7.4,7.4,19.5,7.4,26.9,0s7.4-19.5,0-26.9C33,30.7,23.9,29.6,16.7,33.5z"/>
		<line class="st8" x1="25.7" y1="35.8" x2="25.7" y2="39.2"/>
		<line class="st8" x1="40.2" y1="50.3" x2="36.7" y2="50.3"/>
		<line class="st8" x1="25.7" y1="64.8" x2="25.7" y2="61.3"/>
		<line class="st8" x1="11.2" y1="50.3" x2="14.6" y2="50.3"/>
		<line class="st8" x1="27" y1="48.8" x2="33.9" y2="41.6"/>
		<line class="st8" x1="24.2" y1="48.9" x2="20.1" y2="44.7"/>
	</g>
</g>
<g id="Слой_4" class="st2">
	<polyline class="st3" points="43.7,71.4 61.4,71.4 61.4,40.9 43.9,28 	"/>
	<path class="st3" d="M37.3,28L37.3,28c-2.6,2.4-6.2,3.7-9.9,3.7l-11-0.4v6.8c0,11.4,5.7,22.2,15.4,29.3l5.4,3.9"/>
	<g class="st7">
		<circle class="st8" cx="40.2" cy="15.8" r="4.9"/>
		<g>
			<path class="st8" d="M45.1,23.6c-2.7,0-4.9-2.2-4.9-4.9s2.2-4.9,4.9-4.9S50,16,50,18.7"/>
			<path class="st8" d="M43.7,6.5c1.9,1.9,1.9,5.1,0,7s-5.1,1.9-7,0s-1.9-5.1,0-7"/>
			<path class="st8" d="M30.3,18.6c0-2.7,2.2-4.9,4.9-4.9s4.9,2.2,4.9,4.9s-2.2,4.9-4.9,4.9"/>
		</g>
		<circle class="st9" cx="40.2" cy="15.8" r="2.1"/>
	</g>
	<g class="st7">
		<path class="st10" d="M40.1,40.9L40.1,40.9c1.2,0,2.3,0.9,2.5,2.1v0.1c0.2,1-0.6,2-1.6,2h-1.9c-1.1,0-1.9-1-1.6-2V43
			C37.8,41.7,38.9,40.9,40.1,40.9z"/>
		<circle class="st11" cx="40.1" cy="53.7" r="4.5"/>
		<ellipse class="st12" cx="40.1" cy="51.8" rx="5.2" ry="5.2"/>
		<ellipse class="st13" cx="40.1" cy="51.8" rx="5.2" ry="5.2"/>
		<path class="st8" d="M44.1,45.6l6.8,1.5c0.7,0.1,1.2,0.6,1.4,1.1l0,0c0.3,1.1-0.6,1.9-2.1,1.8L48,49.9c-1.8-0.1-3.4-1.3-3.7-2.6
			L44.1,45.6z"/>
		<path class="st14" d="M44,44.3l8.3-3.3c0.8-0.3,1.7-0.2,2.2,0.3l0,0c1.1,1.1,0.8,2.8-0.8,3.8l-2.4,1.5c-1.9,1.2-4.5,1-5.8-0.4
			L44,44.3z"/>
		<path class="st8" d="M36,45.6l-6.8,1.5c-0.7,0.1-1.2,0.6-1.4,1.1l0,0c-0.3,1.1,0.6,1.9,2.1,1.8l2.2-0.1c1.8-0.1,3.4-1.3,3.7-2.6
			L36,45.6z"/>
		<path class="st14" d="M36.1,44.3L27.8,41c-0.8-0.3-1.7-0.2-2.2,0.3l0,0c-1.1,1.1-0.8,2.8,0.8,3.8l2.4,1.5c1.9,1.2,4.5,1,5.8-0.4
			L36.1,44.3z"/>
		<path class="st10" d="M45.1,50.3c0,1.5-2.2,2.6-5,2.6s-5-1.2-5-2.6c0-1.5,2.2-4.3,5-4.3C42.8,46,45.1,48.8,45.1,50.3z"/>
		<path class="st14" d="M40.1,49.9L40.1,49.9c-1.9,0-3.5-1.3-3.9-3.1v-0.2c-0.3-1.6,0.9-3.1,2.5-3.1h2.8c1.6,0,2.8,1.5,2.5,3.1v0.2
			C43.5,48.6,41.9,49.9,40.1,49.9z"/>
		<line class="st8" x1="38.6" y1="41.4" x2="36.9" y2="39.8"/>
		<polyline class="st8" points="36.4,44.9 34.6,41.7 34.6,39.8 33.1,38.6 		"/>
		<polyline class="st8" points="36.3,47.4 33.1,50.6 32.1,53.2 30.8,53.6 		"/>
		<polyline class="st8" points="35.1,50.3 33.5,54.7 34.6,57.5 34.5,59.4 		"/>
		<line class="st8" x1="41.6" y1="41.4" x2="43.2" y2="39.8"/>
		<polyline class="st8" points="43.8,44.9 45.6,41.7 45.6,39.8 47.1,38.6 		"/>
		<polyline class="st8" points="43.9,47.4 47.1,50.6 48.1,53.2 49.4,53.6 		"/>
		<polyline class="st8" points="45.1,50.3 46.6,54.7 45.6,57.5 45.7,59.4 		"/>
	</g>
</g>
<g id="Слой_5" class="st2">
	<polyline class="st3" points="27.9,67.8 54.8,67.8 54.8,20.3 28.2,10.1 	"/>
	<g class="st7">
		<path class="st10" d="M27.3,34.4L27.3,34.4c1.1,0,2.1,0.8,2.4,1.9v0.1c0.2,1-0.5,1.9-1.5,1.9h-1.7c-1,0-1.7-0.9-1.5-1.9v-0.1
			C25.2,35.2,26.1,34.4,27.3,34.4z"/>
		<circle class="st11" cx="27.3" cy="46.3" r="4.1"/>
		<ellipse class="st12" cx="27.3" cy="44.5" rx="4.8" ry="4.8"/>
		<ellipse class="st13" cx="27.3" cy="44.5" rx="4.8" ry="4.8"/>
		<path class="st8" d="M31,38.8l6.3,1.4c0.6,0.1,1.1,0.5,1.3,1l0,0c0.3,1-0.6,1.7-1.9,1.7l-2-0.1c-1.6-0.1-3.2-1.2-3.4-2.4L31,38.8z
			"/>
		<path class="st14" d="M30.9,37.6l7.7-3c0.8-0.3,1.6-0.2,2.1,0.3l0,0c1,1,0.7,2.6-0.7,3.5l-2.2,1.4c-1.8,1.1-4.2,0.9-5.3-0.4
			L30.9,37.6z"/>
		<path class="st8" d="M23.5,38.8l-6.3,1.4c-0.6,0.1-1.1,0.5-1.3,1l0,0c-0.3,1,0.6,1.7,1.9,1.7l2-0.1c1.6-0.1,3.2-1.2,3.4-2.4
			L23.5,38.8z"/>
		<path class="st14" d="M23.6,37.6l-7.7-3c-0.8-0.3-1.6-0.2-2.1,0.3l0,0c-1,1-0.7,2.6,0.7,3.5l2.2,1.4c1.8,1.1,4.2,0.9,5.3-0.4
			L23.6,37.6z"/>
		<path class="st10" d="M31.9,43.1c0,1.3-2.1,2.4-4.6,2.4c-2.6,0-4.6-1.1-4.6-2.4c0-1.3,2.1-4,4.6-4C29.8,39.2,31.9,41.8,31.9,43.1z
			"/>
		<path class="st14" d="M27.3,42.7L27.3,42.7c-1.7,0-3.2-1.2-3.6-2.9v-0.2c-0.3-1.5,0.8-2.8,2.3-2.8h2.6c1.5,0,2.6,1.4,2.3,2.8v0.2
			C30.5,41.6,29,42.7,27.3,42.7z"/>
		<line class="st8" x1="25.9" y1="34.9" x2="24.4" y2="33.4"/>
		<polyline class="st8" points="23.9,38.1 22.2,35.2 22.2,33.4 20.8,32.3 		"/>
		<polyline class="st8" points="23.8,40.5 20.8,43.5 19.9,45.9 18.7,46.2 		"/>
		<polyline class="st8" points="22.7,43.1 21.2,47.2 22.2,49.8 22.1,51.6 		"/>
		<line class="st8" x1="28.7" y1="34.9" x2="30.2" y2="33.4"/>
		<polyline class="st8" points="30.7,38.1 32.4,35.2 32.4,33.4 33.8,32.3 		"/>
		<polyline class="st8" points="30.8,40.5 33.8,43.5 34.7,45.9 35.9,46.2 		"/>
		<polyline class="st8" points="31.9,43.1 33.4,47.2 32.4,49.8 32.4,51.6 		"/>
	</g>
	<polyline class="st3" points="28.6,23.1 49.3,23.1 49.3,61.5 29,61.5 	"/>
	<line class="st3" x1="44.2" y1="36" x2="64.5" y2="36"/>
	<line class="st3" x1="41" y1="46" x2="61.3" y2="46"/>
	<polyline class="st3" points="61.7,33.1 64.6,36 61.7,38.9 	"/>
	<polyline class="st3" points="43.5,48.9 40.6,46 43.5,43.1 	"/>
</g>
</svg>
