<svg enable-background="new 0 0 77 77" viewBox="0 0 77 77" xmlns="http://www.w3.org/2000/svg"><path d="m58.8 68.8h-1.6c-1.3 0-2.3-.9-2.3-2.1v-4c0-.6-.6-1.1-1.3-1.1h-12.2c-.7 0-1.3.5-1.3 1.1v4c0 1.1-1 2.1-2.3 2.1h-1.6c-1.3 0-2.3-.9-2.3-2.1v-41.8c0-1.1 1-2.1 2.3-2.1h22.6c1.3 0 2.3.9 2.3 2.1v41.9c0 1.1-1 2-2.3 2zm-17.4-8.2h12.2c1.3 0 2.3.9 2.3 2.1v4c0 .6.6 1.1 1.3 1.1h1.6c.7 0 1.3-.5 1.3-1.1v-41.8c0-.6-.6-1.1-1.3-1.1h-22.6c-.7 0-1.3.5-1.3 1.1v41.9c0 .6.6 1.1 1.3 1.1h1.6c.7 0 1.3-.5 1.3-1.1v-4c0-1.2 1-2.2 2.3-2.2z" fill="#3aaa35"/><path d="m47.5 43.4c-1.1 0-1.9-.9-1.9-1.9s.9-1.9 1.9-1.9 1.9.9 1.9 1.9-.8 1.9-1.9 1.9zm0-2.9c-.5 0-.9.4-.9.9s.4.9.9.9.9-.4.9-.9-.4-.9-.9-.9z" fill="#3aaa35"/><path d="m37.7 50.8v-38.9c0-1.8-1.5-3.3-3.3-3.3s-3.3 1.5-3.3 3.3v38.9c-1 .9-1.7 2.3-1.7 3.8 0 2.8 2.2 5 5 5s5-2.2 5-5c0-1.6-.6-2.9-1.7-3.8z" fill="#fff"/><g fill="#3aaa35"><path d="m34.4 60.1c-3 0-5.5-2.5-5.5-5.5 0-1.5.6-2.9 1.7-4v-38.7c0-2.1 1.7-3.8 3.8-3.8s3.8 1.7 3.8 3.8v38.7c1.1 1 1.7 2.5 1.7 4 0 3-2.5 5.5-5.5 5.5zm0-51c-1.5 0-2.8 1.3-2.8 2.8v38.9c0 .1-.1.3-.2.4-1 .9-1.5 2.1-1.5 3.4 0 2.5 2 4.5 4.5 4.5s4.5-2 4.5-4.5c0-1.3-.6-2.5-1.5-3.4-.1-.1-.2-.2-.2-.4v-38.9c0-1.6-1.2-2.8-2.8-2.8z"/><path d="m35.3 52.6v-17c0-.5-.4-.8-.8-.8s-.8.4-.8.8v17c-.8.3-1.4 1.1-1.4 2.1 0 1.2 1 2.3 2.3 2.3s2.3-1 2.3-2.3c-.2-1-.8-1.8-1.6-2.1z"/><path d="m34.4 57.4c-1.5 0-2.8-1.2-2.8-2.8 0-1 .5-1.9 1.4-2.4v-16.6c0-.7.6-1.3 1.3-1.3s1.3.6 1.3 1.3v16.7c.9.5 1.4 1.4 1.4 2.4.2 1.5-1.1 2.7-2.6 2.7zm0-22.2c-.2 0-.3.2-.3.3v17c0 .2-.1.4-.3.5-.7.3-1.1.9-1.1 1.6 0 1 .8 1.8 1.8 1.8s1.8-.8 1.8-1.8c0-.7-.4-1.4-1.1-1.6-.2-.1-.3-.3-.3-.5v-17c-.1-.1-.3-.3-.5-.3z"/><path d="m17.6 46.3c-.3 0-.5-.2-.5-.5v-1.7c0-2.4.9-2.9 2.3-3.5.7-.3 1.4-.6 2.3-1.2 1.8-1.3 2.8-3.5 2.8-5.7-.1-3.6-3.1-6.6-6.7-6.7-1.9-.1-3.7.6-5 2-1.3 1.3-2.1 3.1-2.1 5 0 .3-.2.5-.5.5s-.5-.2-.5-.5c0-2.2.9-4.2 2.4-5.7s3.6-2.3 5.7-2.2c4.1.1 7.6 3.6 7.7 7.7.1 2.6-1.1 5-3.2 6.6-1 .7-1.9 1.1-2.6 1.4-1.2.5-1.7.7-1.7 2.5v1.7c.1.1-.1.3-.4.3z"/><path d="m17.6 51.6c-.6 0-1.1-.5-1.1-1.1s.5-1.1 1.1-1.1 1.1.5 1.1 1.1-.5 1.1-1.1 1.1zm0-1.2c-.1 0-.1 0-.1.1s.2.1.2 0z"/></g></svg>