<svg viewBox="0 0 36.92 45.45" xmlns="http://www.w3.org/2000/svg"><path d="m23.59 28.98 13.33-11.34v-17.64l-13.33 11.31z" fill="#063"/><path d="m23.61 11.6h2v31.96h-2z" fill="#063"/><path d="m26.57 17.83 6.13-5.19c.27.22.59.37.96.37.8 0 1.45-.65 1.45-1.45s-.65-1.45-1.45-1.45-1.45.65-1.45 1.45c0 .29.08.53.22.78l-5.86 4.94v-4.23l6.13-5.19c.27.22.59.37.96.37.8 0 1.45-.65 1.45-1.45s-.65-1.45-1.45-1.45-1.45.65-1.45 1.45c0 .29.08.53.22.78l-6.29 5.31v10.09l6.53-5.55c.27.25.59.39.98.39.8 0 1.45-.65 1.45-1.45s-.65-1.45-1.45-1.45-1.45.65-1.45 1.45c0 .29.08.53.2.74l-5.86 4.98v-4.23h.02z" fill="#fff"/><g fill="#063"><circle cx="33.67" cy="6.8" r=".96"/><circle cx="33.67" cy="11.58" r=".96"/><circle cx="33.67" cy="16.36" r=".96"/></g><path d="m12.44 42.43c0-.82.65-1.49 1.49-1.49h.18c.37.02.71.06 1.08.08.41.04.82.06 1.23.1.82.08 1.63.16 2.47.29l1.23.18 1.23.2c.2.04.41.06.61.1l.61.12c.41.08.8.16 1.2.27l1.18.29c.39.08.8.2 1.18.31.39.1.8.22 1.18.35l.59.18.59.2.57.2.57.2c.39.12.76.29 1.14.43.2.06.39.16.57.22.18.08.39.16.57.25.37.16.76.35 1.1.53-1.55-.43-3.14-.74-4.74-1-1.59-.25-3.19-.43-4.78-.55-.39-.04-.8-.06-1.18-.08l-.61-.04c-.2-.02-.39-.02-.61-.02l-1.18-.04h-1.18c-.8-.02-1.59.02-2.39.04s-1.55.08-2.33.12h-.02c-.92.02-1.57-.63-1.57-1.45z" fill="#3aaa35"/><path d="m9.56 17.56c5.57.53 10.09 3.68 11.29 7.27s.02.06.06.16c.02.04.02.08.04.1.14.49.43 1.49.51 2.06.06.33.14.67.2 1 .16.86.31 1.67.39 2.51.2 1.65.27 2.55.33 4.21s.08 2.04.12 3.7c.02.82.04 1.65.06 2.49s.06 1.65.14 2.53l-2.51-.31c.25-.76.45-1.57.59-2.35.16-.8.29-1.59.37-2.41.2-1.61.29-1.98.25-3.61-.04-1.61-.2-2.49-.53-4.06-.04-.2-.08-.39-.12-.59l-.08-.33s-.27-.98-1.06-1.61c-.78-.51-2.23-1-4.82-.76-3.63.35-8.78-.1-11.01-2.86-2.63-3.27-3.78-8.39-3.78-8.39s1.43.45 9.56 1.25z" fill="#3aaa35"/><path d="m20.26 27.06-.06-.16-.08-.14c-.06-.1-.1-.2-.16-.29-.12-.18-.25-.37-.39-.53l-.2-.25c-.06-.08-.16-.16-.22-.25-.16-.16-.31-.33-.47-.47l-.25-.22s-.08-.06-.12-.1l-.12-.1c-.18-.14-.35-.27-.53-.41l-.55-.35c-.18-.12-.39-.2-.59-.33l-.2-.1c.02-.06.02-.1.02-.16 0-.12-.02-.25-.06-.37-.08-.25-.2-.47-.31-.69-.25-.43-.53-.84-.88-1.18-.37-.33-.74-.65-1.18-.86l-.16-.08c-.06-.02-.1-.04-.16-.06l-.33-.14c-.22-.08-.47-.14-.69-.2l.31.16.16.08c.06.02.1.06.16.08.2.12.41.25.57.39.1.06.18.14.29.2l.25.25c.08.06.16.16.25.25.06.08.16.16.22.25.29.33.53.74.74 1.12.1.2.18.41.25.61.02.02.02.04.02.06-.35-.14-.69-.29-1.06-.41l-.63-.2c-.2-.06-.43-.1-.65-.16-.2-.04-.43-.1-.65-.14l-.65-.1-.65-.08-.65-.08-.65-.08-.16-.02c.02-.06-.02-.14-.02-.2-.02-.1-.06-.22-.1-.33s-.06-.22-.12-.33l-.06-.16-.08-.16c-.22-.39-.51-.76-.86-1.04-.33-.29-.71-.53-1.12-.74-.1-.06-.2-.08-.31-.12l-.31-.1c-.2-.06-.43-.1-.63-.16.2.1.39.2.57.29l.29.16c.1.06.18.1.27.16.16.12.35.25.51.37.08.06.16.12.25.2l.22.22c.29.31.51.63.69 1l.06.14.06.14c.04.1.06.18.1.29.02.1.06.2.06.29v.02c-.2-.04-.41-.06-.59-.1l-.63-.14-.31-.06-.31-.08-.61-.16c-.82-.27-1.61-.59-2.35-1l-.29-.16-.27-.18c-.18-.1-.35-.25-.51-.37-.16-.14-.33-.29-.47-.45s-.29-.33-.39-.51c.16.41.47.74.76 1.06.16.16.31.31.49.45.08.06.16.14.25.2l.27.18c.74.51 1.53.88 2.35 1.2l.63.2.31.1.33.08.63.16c.2.06.43.1.65.14.2.04.43.1.65.14l.65.1.47.06-.02.02c-.16.12-.35.25-.53.35-.37.22-.74.41-1.12.57l-.29.1c-.1.02-.2.06-.31.08s-.2.06-.31.06c-.1.02-.2.06-.31.06l-.33.04c-.1.02-.2 0-.33.02h-.16c-.06 0-.1-.02-.16-.02l-.33-.02c.1.02.2.06.33.1.06.02.1.02.16.04l.16.02c.1.02.22.04.33.04l.33.02c.45-.02.9-.06 1.33-.2s.84-.33 1.23-.53c.2-.1.39-.22.57-.37.1-.06.18-.12.27-.2.04-.02.06-.06.1-.1l.22.04.63.1c.2.04.43.1.61.14.2.06.43.1.61.16l.59.18c.41.1.8.29 1.18.43l.16.06.14.06.29.14c.18.1.39.16.55.29l.55.33c.06.04.1.08.18.12-.08.02-.18.06-.27.08-.27.06-.51.14-.78.2-.53.12-1.06.25-1.59.33-.27.04-.55.06-.82.08s-.55.02-.82.02c-.55-.02-1.08-.08-1.61-.29.47.29 1.02.45 1.57.53.29.04.55.06.84.06s.55 0 .84-.02c.55-.04 1.12-.12 1.65-.22.29-.06.55-.12.82-.2.14-.02.27-.06.41-.1.06-.02.14-.02.2-.06l.04-.04s.06.04.08.06l.25.2c.16.12.33.27.47.43.61.57 1.18 1.23 1.61 1.96l.1-.04c-.04-.27-.12-.47-.25-.65z" fill="#063"/></svg>