<?xml version="1.0" encoding="utf-8"?>
<!-- Generator: Adobe Illustrator 23.1.0, SVG Export Plug-In . SVG Version: 6.00 Build 0)  -->
<svg version="1.1" xmlns="http://www.w3.org/2000/svg" xmlns:xlink="http://www.w3.org/1999/xlink" x="0px" y="0px"
	 viewBox="0 0 116 115" style="enable-background:new 0 0 116 115;" xml:space="preserve">
<style type="text/css">
	.st0{display:none;}
	.st1{display:inline;}
	.st2{fill:#FFFFFF;stroke:#3AAA35;stroke-linecap:round;stroke-linejoin:round;stroke-miterlimit:10;}
	.st3{fill:#3AAA35;stroke:#3AAA35;stroke-linecap:round;stroke-linejoin:round;stroke-miterlimit:10;}
	.st4{fill:none;stroke:#3AAA35;stroke-linecap:round;stroke-linejoin:round;stroke-miterlimit:10;}
	.st5{display:inline;fill:#FFFFFF;stroke:#3AAA35;stroke-linecap:round;stroke-linejoin:round;stroke-miterlimit:10;}
	.st6{display:inline;fill:none;stroke:#3AAA35;stroke-linecap:round;stroke-linejoin:round;stroke-miterlimit:10;}
	.st7{display:inline;fill:#3AAA35;}
	.st8{font-family:'Comfortaa-Regular';}
	.st9{font-size:20.5468px;}
	.st10{fill:none;stroke:#3AAA35;stroke-linecap:round;stroke-linejoin:round;}
	.st11{fill:none;stroke:#3AAA35;stroke-linecap:round;stroke-linejoin:round;stroke-dasharray:3.9392,3.9392;}
	.st12{fill:none;stroke:#3AAA35;stroke-linecap:round;stroke-linejoin:round;stroke-dasharray:3.8975,3.8975;}
	.st13{fill:none;stroke:#3AAA35;stroke-linecap:round;stroke-linejoin:round;stroke-dasharray:4.0032,4.0032;}
	.st14{display:inline;fill:none;}
	.st15{font-size:15.1446px;}
	.st16{fill:#3AAA35;}
	.st17{fill:#FFFFFF;}
</style>
<g id="Слой_1" class="st0">
	<g class="st1">
		<path class="st2" d="M47.9,85.6V26c0-3.1-2.5-5.6-5.6-5.6s-5.6,2.5-5.6,5.6v59.6c-1.8,1.5-2.9,3.8-2.9,6.3c0,4.7,3.8,8.5,8.5,8.5
			s8.5-3.8,8.5-8.5C50.8,89.4,49.6,87.2,47.9,85.6z"/>
		<path class="st3" d="M43.7,88.6V59.9c0-0.8-0.6-1.4-1.4-1.4s-1.4,0.6-1.4,1.4v28.7c-1.4,0.6-2.4,1.9-2.4,3.5
			c0,2.1,1.7,3.8,3.8,3.8c2.1,0,3.8-1.7,3.8-3.8C46.1,90.6,45.1,89.2,43.7,88.6z"/>
	</g>
	<g class="st1">
		<circle class="st4" cx="72.5" cy="44" r="11.8"/>
		<circle class="st4" cx="72.5" cy="44" r="1.6"/>
		<path class="st4" d="M77.1,29.2v-3.7c0-1.7-1.4-3.1-3.1-3.1h-2c-1.7,0-3.1,1.4-3.1,3.1V29c-6.8,1.6-11.8,7.7-11.8,15
			c0,8.6,6.9,15.5,15.5,15.5S88.1,52.6,88.1,44C88.1,37,83.4,31.1,77.1,29.2z"/>
		<line class="st4" x1="84.4" y1="44" x2="81.6" y2="44"/>
		<line class="st4" x1="72.5" y1="55.8" x2="72.5" y2="53"/>
		<line class="st4" x1="60.7" y1="44" x2="63.5" y2="44"/>
		<line class="st4" x1="72.5" y1="32.2" x2="72.5" y2="35"/>
		<line class="st2" x1="74.1" y1="43.6" x2="81.9" y2="41.3"/>
		<line class="st2" x1="72.5" y1="42.4" x2="72.5" y2="37.6"/>
	</g>
	<path class="st5" d="M49.9,64.4H34.7c-1.2,0-2.2-1-2.2-2.2v-7.4c0-1.2,1-2.2,2.2-2.2h15.3c1.2,0,2.2,1,2.2,2.2v7.4
		C52.1,63.4,51.1,64.4,49.9,64.4z"/>
	<line class="st5" x1="36.7" y1="55.1" x2="36.7" y2="61.6"/>
	<line class="st5" x1="47.9" y1="55.2" x2="47.9" y2="61.7"/>
	<line class="st5" x1="42.3" y1="55.2" x2="42.3" y2="61.7"/>
	<line class="st6" x1="25.2" y1="74.9" x2="25.2" y2="45.7"/>
	<polyline class="st6" points="21,49.7 25.1,45.6 29.3,49.8 	"/>
	<polyline class="st6" points="29.3,71.3 25.2,75.4 21,71.2 	"/>
	<g class="st1">
		<path class="st4" d="M80,92.3V80.4c0-2.3,1.9-4.2,4.2-4.2h7.4"/>
		<path class="st4" d="M70.1,92.3V80.4c0-2.3-1.9-4.2-4.2-4.2h-7.4"/>
		<line class="st4" x1="75.1" y1="92.3" x2="75.1" y2="68.2"/>
		<polyline class="st4" points="86.2,70.8 91.6,76.2 86.2,81.6 		"/>
		<polyline class="st4" points="63.6,81.6 58.2,76.2 63.6,70.8 		"/>
		<polyline class="st4" points="69.7,72.6 75.1,67.2 80.4,72.6 		"/>
		<polyline class="st4" points="64.3,90.3 64.3,95.8 85.8,95.8 85.8,90.3 		"/>
	</g>
</g>
<g id="Слой_2" class="st0">
	<polygon class="st6" points="77.8,79.8 96,61.7 87,61.7 87,26.1 68.7,26.1 68.7,61.7 59.8,61.7 	"/>
	<g class="st1">
		<path class="st2" d="M71.2,55.3v36.9c0,3.3-9.1,5.9-20.3,5.9s-20.3-2.6-20.3-5.9V55.3"/>
		<path class="st4" d="M71.2,79.9c0,3.3-9.1,5.9-20.3,5.9s-20.3-2.6-20.3-5.9"/>
		<path class="st4" d="M71.2,67.6c0,3.3-9.1,5.9-20.3,5.9s-20.3-2.6-20.3-5.9"/>
		<ellipse class="st2" cx="50.9" cy="55.3" rx="20.3" ry="5.9"/>
	</g>
	<text transform="matrix(1 0 0 1 25.8791 43.767)" class="st7 st8 st9">.csv</text>
</g>
<g id="Слой_3" class="st0">
	<line class="st6" x1="23.3" y1="32" x2="23.3" y2="98.5"/>
	<line class="st6" x1="80" y1="89.5" x2="13.6" y2="89.5"/>
	<polyline class="st6" points="23.3,66.4 32.7,61.5 41.5,36.1 48.6,76.9 68.6,55.9 	"/>
	<g class="st1">
		<g>
			<line class="st10" x1="23.3" y1="36.1" x2="25.3" y2="36.1"/>
			<line class="st11" x1="29.2" y1="36.1" x2="50.9" y2="36.1"/>
			<line class="st10" x1="52.9" y1="36.1" x2="54.9" y2="36.1"/>
		</g>
	</g>
	<g class="st1">
		<g>
			<line class="st10" x1="23.3" y1="69.8" x2="25.3" y2="69.8"/>
			<line class="st12" x1="29.2" y1="69.8" x2="42.8" y2="69.8"/>
			<line class="st10" x1="44.8" y1="69.8" x2="46.8" y2="69.8"/>
		</g>
	</g>
	<g class="st1">
		<g>
			<line class="st10" x1="50" y1="69.8" x2="52" y2="69.8"/>
			<line class="st13" x1="56" y1="69.8" x2="70" y2="69.8"/>
			<line class="st10" x1="72" y1="69.8" x2="74" y2="69.8"/>
		</g>
	</g>
	<circle class="st5" cx="32.7" cy="61.5" r="4.4"/>
	<circle class="st5" cx="41.4" cy="36.1" r="4.4"/>
	<circle class="st5" cx="48.6" cy="76.9" r="4.4"/>
	<circle class="st5" cx="78.7" cy="49.8" r="27.1"/>
	<g class="st1">
		<circle class="st2" cx="78.7" cy="34.3" r="2.4"/>
		<circle class="st2" cx="78.7" cy="61.5" r="6.3"/>
		<path class="st2" d="M90.8,58.5l-1.3-12c-0.6-5.6-5.3-9.8-10.9-9.8h0c-5.6,0-10.3,4.2-10.9,9.8l-1.3,12c-1.3,0.1-2.3,1.2-2.3,2.5
			c0,1.4,1.1,2.5,2.5,2.5h23.9c1.4,0,2.5-1.1,2.5-2.5C93.1,59.7,92.1,58.6,90.8,58.5z"/>
		<line class="st2" x1="90.8" y1="58.5" x2="87.7" y2="58.5"/>
	</g>
</g>
<g id="Слой_4" class="st0">
	<polyline class="st6" points="24.3,95.4 39.6,95.4 39.6,58.9 24.5,51.1 	"/>
	<g class="st1">
		<line class="st4" x1="46.8" y1="82.2" x2="69.1" y2="82.2"/>
		<polyline class="st4" points="66,79 69.2,82.2 66,85.4 		"/>
	</g>
	<g class="st1">
		<line class="st4" x1="89.6" y1="30.4" x2="89.6" y2="52.4"/>
		<polyline class="st4" points="94.7,47.5 89.7,52.5 84.6,47.4 		"/>
	</g>
	<g class="st1">
		<line class="st4" x1="47" y1="92.3" x2="69.3" y2="92.3"/>
		<polyline class="st4" points="49.7,95.4 46.6,92.3 49.8,89.1 		"/>
	</g>
	<g class="st1">
		<path class="st4" d="M82.6,83.4h-2.7c-4,0-7.3-3.3-7.3-7.3v0h2.7C79.3,76.1,82.6,79.3,82.6,83.4L82.6,83.4z"/>
		<path class="st4" d="M82.6,83.4v-3.7c0-5.6,4.6-10.2,10.2-10.2h0v3.7C92.7,78.8,88.2,83.4,82.6,83.4L82.6,83.4z"/>
		<line class="st4" x1="82.6" y1="83.4" x2="82.6" y2="92.3"/>
		<line class="st4" x1="77.5" y1="92.3" x2="87.6" y2="92.3"/>
	</g>
	<path class="st6" d="M34.7,42.8h-8.1c-1.3,0-2.3-1-2.3-2.3V25.4c0-1.3,1-2.3,2.3-2.3h8.1c1.3,0,2.3,1,2.3,2.3v15.1
		C37,41.7,36,42.8,34.7,42.8z"/>
	<path class="st6" d="M50.6,42.8h-8.1c-1.3,0-2.3-1-2.3-2.3V25.4c0-1.3,1-2.3,2.3-2.3h8.1c1.3,0,2.3,1,2.3,2.3v15.1
		C52.8,41.7,51.8,42.8,50.6,42.8z"/>
	<path class="st6" d="M66.4,42.8h-8.1c-1.3,0-2.3-1-2.3-2.3V25.4c0-1.3,1-2.3,2.3-2.3h8.1c1.3,0,2.3,1,2.3,2.3v15.1
		C68.7,41.7,67.7,42.8,66.4,42.8z"/>
	<path class="st6" d="M82.2,42.8h-8.1c-1.3,0-2.3-1-2.3-2.3V25.4c0-1.3,1-2.3,2.3-2.3h8.1c1.3,0,2.3,1,2.3,2.3v15.1
		C84.5,41.7,83.5,42.8,82.2,42.8z"/>
	<rect x="26.2" y="26.8" class="st14" width="9" height="12.8"/>
	<text transform="matrix(1 0 0 1 26.3251 38.6544)" class="st7 st8 st15">0</text>
	<rect x="42" y="26.8" class="st14" width="9" height="12.8"/>
	<text transform="matrix(1 0 0 1 42.1718 38.6544)" class="st7 st8 st15">0</text>
	<rect x="56.3" y="26.8" class="st14" width="12" height="12.8"/>
	<text transform="matrix(1 0 0 1 57.5946 38.6544)" class="st7 st8 st15">5</text>
	<rect x="73.7" y="26.8" class="st14" width="9" height="12.8"/>
	<text transform="matrix(1 0 0 1 73.8827 38.6544)" class="st7 st8 st15">7</text>
	<g class="st1">
		<line class="st4" x1="52" y1="63.2" x2="59.3" y2="70.4"/>
		<path class="st3" d="M68.8,63.2c0,1.6-1.1,1.8-2.6,1.8c-1.6,0-3.1-0.2-3.1-1.8s1.3-2.8,2.8-2.8S68.8,61.6,68.8,63.2z"/>
		<path class="st4" d="M62.1,59.8L62.1,59.8c2-2,2-5.2,0-7.1L61,51.6c-1-1-2.7-1-3.8,0l0,0c-1,1-1,2.7,0,3.8l4.4,4.4
			C61.8,59.9,62,59.9,62.1,59.8z"/>
		<path class="st4" d="M62,59.6L62,59.6c0-2.8-2.3-5.1-5.1-5.1h-1.5c-1.5,0-2.7,1.2-2.7,2.7v0c0,1.5,1.2,2.7,2.7,2.7h6.2
			C61.9,59.9,62,59.7,62,59.6z"/>
		<circle class="st2" cx="61.5" cy="64.4" r="4.3"/>
		<path class="st2" d="M52.7,62.3c-0.6,0.6-1.2,1.3-1.6,2.1c-3,5.1,3.8,10.4,8,6.2l1.9-1.9c4-4-0.7-10.8-5.7-8.2
			C54.4,60.9,53.5,61.6,52.7,62.3z"/>
		<path class="st3" d="M52.7,62.3c-0.2,0.2-0.5,0.5-0.7,0.8l7.3,7.3l1.7-1.7c0.5-0.5,0.8-1,1.1-1.5c-2.3-2.3-4.8-4.4-7.5-6.3
			C53.9,61.3,53.3,61.8,52.7,62.3z"/>
		<polyline class="st4" points="65.6,65.8 66.5,69.1 68.4,70.4 		"/>
		<polyline class="st4" points="64.3,67.8 64.3,71.2 65,73.8 		"/>
		<polyline class="st2" points="62.1,68.5 61,72.1 57.9,73.8 56.5,75.5 		"/>
		<line class="st4" x1="67.6" y1="61.3" x2="69" y2="59.6"/>
		<path class="st4" d="M68.7,62.2"/>
		<line class="st4" x1="68.3" y1="62.2" x2="70.5" y2="61.7"/>
	</g>
	<rect x="37" y="28.8" class="st6" width="3.2" height="9.5"/>
	<rect x="52.8" y="28.8" class="st6" width="3.2" height="9.5"/>
	<rect x="68.7" y="28.8" class="st6" width="3.2" height="9.5"/>
	<path class="st6" d="M37.3,66.7h2.3v-4.5h-2.3c-1.3,0-2.3,1-2.3,2.3v0C35,65.7,36,66.7,37.3,66.7z"/>
	<path class="st6" d="M37.3,78.3h2.3v-4.5h-2.3c-1.3,0-2.3,1-2.3,2.3v0C35,77.3,36,78.3,37.3,78.3z"/>
	<path class="st6" d="M37.3,90h2.3v-4.5h-2.3c-1.3,0-2.3,1-2.3,2.3v0C35,89,36,90,37.3,90z"/>
</g>
<g id="Слой_5" class="st0">
	<g class="st1">
		<path class="st4" d="M49.8,89.6H48c-2.7,0-4.9-2.2-4.9-4.9v0h1.8C47.6,84.8,49.8,86.9,49.8,89.6L49.8,89.6z"/>
		<path class="st4" d="M49.8,89.6v-2.5c0-3.7,3-6.8,6.8-6.8h0v2.5C56.5,86.6,53.5,89.6,49.8,89.6L49.8,89.6z"/>
		<line class="st4" x1="49.8" y1="89.6" x2="49.8" y2="95.6"/>
		<line class="st4" x1="46.4" y1="95.6" x2="53.1" y2="95.6"/>
	</g>
	<polygon class="st6" points="61.7,78.5 49.8,72.5 37.9,78.5 37.9,95.6 61.7,95.6 	"/>
	<path class="st6" d="M25.6,83.3c-6.8,0-12.3,5.5-12.3,12.3h24.5C37.9,88.8,32.4,83.3,25.6,83.3z"/>
	<path class="st6" d="M25.6,81L25.6,81c-2.8,0-5.1-2.3-5.1-5.1v-2.1c0-2.8,2.3-5.1,5.1-5.1h0c2.8,0,5.1,2.3,5.1,5.1v2.1
		C30.7,78.7,28.4,81,25.6,81z"/>
	<g class="st1">
		<path class="st4" d="M96.8,91h-1.4c-2.1,0-3.8-1.7-3.8-3.8l0,0H93C95.1,87.2,96.8,88.9,96.8,91L96.8,91z"/>
		<path class="st4" d="M96.8,91V89c0-2.9,2.4-5.3,5.3-5.3h0v1.9C102.1,88.6,99.7,91,96.8,91L96.8,91z"/>
		<line class="st4" x1="96.8" y1="91" x2="96.8" y2="95.6"/>
		<line class="st4" x1="94.2" y1="95.6" x2="99.4" y2="95.6"/>
	</g>
	<polygon class="st6" points="106,82.3 96.8,77.6 87.5,82.3 87.5,95.6 106,95.6 	"/>
	<path class="st6" d="M77.9,86c-5.3,0-9.6,4.3-9.6,9.6h19.1C87.5,90.3,83.2,86,77.9,86z"/>
	<path class="st6" d="M77.9,84.2L77.9,84.2c-2.2,0-4-1.8-4-4v-1.6c0-2.2,1.8-4,4-4h0c2.2,0,4,1.8,4,4v1.6
		C81.9,82.4,80.1,84.2,77.9,84.2z"/>
	<g class="st1">
		<polygon class="st2" points="96.8,34 60.1,34 60.1,62.5 70.7,62.5 77.9,69.6 77.9,62.5 96.8,62.5 		"/>
		<polyline class="st4" points="60.1,50.9 73.9,42.8 79.9,55.3 85.7,46.5 96.8,47.9 		"/>
		<circle class="st2" cx="73.9" cy="42.8" r="2.9"/>
		<circle class="st2" cx="79.9" cy="55.3" r="2.9"/>
		<circle class="st2" cx="85.7" cy="46.5" r="2.9"/>
	</g>
	<g class="st1">
		<polygon class="st2" points="66.7,23.5 20.5,23.5 20.5,57.4 34.9,57.4 34.9,67.6 45.1,57.4 66.7,57.4 		"/>
		<polyline class="st4" points="20.5,43.9 33.9,36.5 43.6,43.9 53.3,40.2 66.7,43.9 		"/>
		<circle class="st2" cx="34.3" cy="36.8" r="2.9"/>
		<circle class="st2" cx="43.6" cy="43.9" r="2.9"/>
		<circle class="st2" cx="53.3" cy="40.2" r="2.9"/>
	</g>
</g>
<g id="Слой_6">
	<path class="st16" d="M81.4,34.8h-8.2c-0.3,0-0.5-0.2-0.5-0.5v-5.9c0-0.2,0.1-0.4,0.3-0.4l4.1-2c0.1-0.1,0.3-0.1,0.4,0l4.1,2
		c0.2,0.1,0.3,0.3,0.3,0.4v5.9C81.9,34.5,81.7,34.8,81.4,34.8z M73.7,33.8h7.2v-5.1l-3.6-1.8l-3.6,1.8V33.8z"/>
	<path class="st16" d="M81.4,45.2h-8.2c-0.3,0-0.5-0.2-0.5-0.5v-5.9c0-0.2,0.1-0.4,0.3-0.4l4.1-2c0.1-0.1,0.3-0.1,0.4,0l4.1,2
		c0.2,0.1,0.3,0.3,0.3,0.4v5.9C81.9,44.9,81.7,45.2,81.4,45.2z M73.7,44.2h7.2v-5.1l-3.6-1.8l-3.6,1.8V44.2z"/>
	<path class="st16" d="M91.6,40h-8.2c-0.3,0-0.5-0.2-0.5-0.5v-5.9c0-0.2,0.1-0.4,0.3-0.4l4.1-2c0.1-0.1,0.3-0.1,0.4,0l4.1,2
		c0.2,0.1,0.3,0.3,0.3,0.4v5.9C92.1,39.7,91.9,40,91.6,40z M83.9,39h7.2v-5.1l-3.6-1.8l-3.6,1.8V39z"/>
	<path class="st16" d="M33.4,97c-0.4,0-0.8,0-1.3-0.1c-0.3,0-0.5-0.3-0.5-0.5c0-0.3,0.3-0.5,0.5-0.5c4.3,0.4,8.2-1.5,10.2-4.9
		l12.5-22c0.3-0.6,0.4-1.3,0.2-1.9c-0.2-0.7-0.7-1.3-1.4-1.7c-1.4-0.8-3.1-0.4-3.7,0.8c-0.1,0.2-0.4,0.3-0.7,0.2s-0.3-0.4-0.2-0.7
		l0,0c0,0,0,0,0,0l3.9-6.8c0.7-1.2,0.1-2.8-1.3-3.6c-1.4-0.8-3.1-0.4-3.7,0.8h0l0,0c-0.1,0.2-0.4,0.3-0.7,0.2
		c-0.2-0.1-0.3-0.4-0.2-0.7l1.5-2.6c0.3-0.6,0.4-1.3,0.2-1.9c-0.2-0.7-0.7-1.3-1.4-1.7C46.5,49,45.7,48.8,45,49
		c-0.7,0.2-1.3,0.6-1.6,1.1l-2.1,3.8l0,0c-0.1,0.2-0.4,0.3-0.7,0.2c-0.2-0.1-0.3-0.4-0.2-0.7l0,0c0.3-0.6,0.4-1.3,0.2-1.9
		c-0.2-0.7-0.7-1.3-1.4-1.7c-1.4-0.8-3.1-0.4-3.7,0.8L19.8,78.3c-2,3.4-1.6,7.8,1,11.3c0.2,0.2,0.1,0.5-0.1,0.7
		c-0.2,0.2-0.5,0.1-0.7-0.1c-2.8-3.8-3.2-8.6-1.1-12.3l15.7-27.7c1-1.7,3.2-2.2,5.1-1.2c0.9,0.5,1.6,1.3,1.9,2.2
		c0,0.1,0,0.1,0.1,0.2l1-1.7c0.5-0.8,1.3-1.4,2.2-1.6c1-0.2,2,0,2.9,0.5c0.9,0.5,1.6,1.3,1.9,2.2c0.3,0.9,0.2,1.9-0.2,2.8L49,54
		c1-0.3,2.1-0.2,3.1,0.4c1.9,1,2.6,3.3,1.6,5L51,64.1c1-0.3,2.1-0.2,3.1,0.4c0.9,0.5,1.6,1.3,1.9,2.2c0.3,0.9,0.2,1.9-0.2,2.8
		l-12.5,22C41.3,95,37.6,97,33.4,97z"/>
	<g>
		<g>
			<path class="st17" d="M36.3,28h17.1c2.2,0,3.9,1.8,3.9,3.9v38.3c0,2.2-1.8,3.9-3.9,3.9H36.3c-2.2,0-3.9-1.8-3.9-3.9V31.9
				C32.3,29.7,34.1,28,36.3,28z"/>
			<path class="st16" d="M53.4,74.6H36.3c-2.4,0-4.4-2-4.4-4.4V31.9c0-2.4,2-4.4,4.4-4.4h17.1c2.4,0,4.4,2,4.4,4.4v38.3
				C57.8,72.7,55.8,74.6,53.4,74.6z M36.3,28.5c-1.9,0-3.4,1.5-3.4,3.4v38.3c0,1.9,1.5,3.4,3.4,3.4h17.1c1.9,0,3.4-1.5,3.4-3.4V31.9
				c0-1.9-1.5-3.4-3.4-3.4H36.3z"/>
		</g>
		<g>
			<path class="st17" d="M48.4,30.8h-7.3c-1.1,0-2-0.9-2-2V28h11.3v0.8C50.5,29.9,49.6,30.8,48.4,30.8z"/>
			<path class="st16" d="M48.4,31.3h-7.3c-1.4,0-2.5-1.1-2.5-2.5V28c0-0.3,0.2-0.5,0.5-0.5h11.3c0.3,0,0.5,0.2,0.5,0.5v0.8
				C51,30.2,49.8,31.3,48.4,31.3z M39.7,28.5v0.3c0,0.8,0.7,1.5,1.5,1.5h7.3c0.8,0,1.5-0.7,1.5-1.5v-0.3H39.7z"/>
		</g>
		<g>
			<line class="st17" x1="49" y1="71.5" x2="40.6" y2="71.5"/>
			<path class="st16" d="M49,72h-8.4c-0.3,0-0.5-0.2-0.5-0.5s0.2-0.5,0.5-0.5H49c0.3,0,0.5,0.2,0.5,0.5S49.3,72,49,72z"/>
		</g>
		<g>
			<path class="st16" d="M44.5,48.7h-2c-3.2,0-5.9-2.6-5.9-5.9c0-0.3,0.2-0.5,0.5-0.5h2c3.2,0,5.9,2.6,5.9,5.9
				C45,48.4,44.8,48.7,44.5,48.7z M37.7,43.3c0.3,2.5,2.3,4.4,4.9,4.4H44c-0.3-2.5-2.3-4.4-4.9-4.4H37.7z"/>
			<path class="st16" d="M44.5,48.7c-0.3,0-0.5-0.2-0.5-0.5v-2.7c0-4.4,3.6-8,8-8c0.3,0,0.5,0.2,0.5,0.5v2.7
				C52.5,45.1,48.9,48.7,44.5,48.7z M51.5,38.4c-3.6,0.3-6.5,3.3-6.5,7v2.2c3.6-0.3,6.5-3.3,6.5-7V38.4z"/>
			<path class="st16" d="M44.5,55.2c-0.3,0-0.5-0.2-0.5-0.5v-6.6c0-0.3,0.2-0.5,0.5-0.5s0.5,0.2,0.5,0.5v6.6
				C45,55,44.8,55.2,44.5,55.2z"/>
			<path class="st16" d="M48.2,55.2h-7.4c-0.3,0-0.5-0.2-0.5-0.5s0.2-0.5,0.5-0.5h7.4c0.3,0,0.5,0.2,0.5,0.5S48.5,55.2,48.2,55.2z"
				/>
		</g>
	</g>
	<g>
		<path class="st17" d="M23.6,70.6l3.4,0.1l5.3-9.4c0.9-1.5,2.9-2,4.4-1c1.3,0.9,1.6,2.7,0.8,4.1l-3.4,6c-1,1.8-0.4,4.1,1.4,5.2l0,0
			c2.8,1.6,3.8,5.1,2.2,7.9L36,86.6"/>
		<path class="st16" d="M36,87.1c-0.1,0-0.2,0-0.2-0.1c-0.2-0.1-0.3-0.4-0.2-0.7l1.8-3.1c0.7-1.2,0.9-2.7,0.5-4
			c-0.4-1.4-1.3-2.5-2.5-3.2c-2.1-1.2-2.8-3.8-1.6-5.9l3.4-6c0.7-1.2,0.4-2.7-0.7-3.4c-0.6-0.4-1.3-0.6-2-0.4
			c-0.7,0.2-1.3,0.6-1.6,1.2l-5.3,9.4c-0.1,0.2-0.3,0.3-0.4,0.3l-3.4-0.1c-0.3,0-0.5-0.2-0.5-0.5c0-0.3,0.2-0.5,0.5-0.5l3.1,0.1
			l5.2-9.1c0.5-0.9,1.3-1.5,2.3-1.7c1-0.2,2,0,2.8,0.6c1.5,1,1.9,3.1,1,4.7l-3.4,6c-0.4,0.8-0.5,1.7-0.3,2.5s0.8,1.6,1.6,2
			c3,1.7,4.1,5.6,2.4,8.6l-1.8,3.1C36.3,87,36.2,87.1,36,87.1z"/>
	</g>
	<path class="st16" d="M97.6,50.9H65.7c-0.3,0-0.5-0.2-0.5-0.5v-9.3h-4.9c-0.2,0-0.4-0.1-0.5-0.3c-0.2-0.4-0.2-0.5,5.4-5.9V22.4
		c0-0.3,0.2-0.5,0.5-0.5h31.9c0.3,0,0.5,0.2,0.5,0.5v28C98.1,50.6,97.9,50.9,97.6,50.9z M66.2,49.9h30.9v-27H66.2v12.2
		c0,0.1-0.1,0.3-0.2,0.4c-2.8,2.6-4.1,4-4.7,4.6h4.4c0.3,0,0.5,0.2,0.5,0.5V49.9z M65.7,35.1L65.7,35.1L65.7,35.1z"/>
	<g>
		<g>
			<path class="st17" d="M65.4,75.5l-14-14c-1.2-1.2-3.1-1.2-4.3,0l0,0c-1.2,1.2-1.2,3.1,0,4.3l14,14"/>
			<path class="st16" d="M61.2,80.3c-0.1,0-0.3,0-0.4-0.1l-14-14c-1.4-1.4-1.4-3.6,0-5c1.4-1.4,3.6-1.4,5,0l14,14
				c0.2,0.2,0.2,0.5,0,0.7s-0.5,0.2-0.7,0l-14-14c-1-1-2.6-1-3.6,0c-1,1-1,2.6,0,3.6l14,14c0.2,0.2,0.2,0.5,0,0.7
				C61.4,80.2,61.3,80.3,61.2,80.3z"/>
		</g>
		<g>
			<path class="st17" d="M69.7,71.2l-4.2-4.2c-1.2-1.2-3.1-1.2-4.3,0l0,0c-1.2,1.2-1.2,3.1,0,4.3l4.2,4.2"/>
			<path class="st16" d="M65.4,76c-0.1,0-0.3,0-0.4-0.1l-4.2-4.2c-1.4-1.4-1.4-3.6,0-5c1.4-1.4,3.6-1.4,5,0l4.2,4.2
				c0.2,0.2,0.2,0.5,0,0.7s-0.5,0.2-0.7,0l-4.2-4.2c-1-1-2.6-1-3.6,0c-1,1-1,2.6,0,3.6l4.2,4.2c0.2,0.2,0.2,0.5,0,0.7
				C65.7,76,65.6,76,65.4,76z"/>
		</g>
		<g>
			<path class="st17" d="M74,67l-1.6-1.6c-1.2-1.2-3.1-1.2-4.3,0h0c-1.2,1.2-1.2,3.1,0,4.3l1.6,1.6"/>
			<path class="st16" d="M69.7,71.7c-0.1,0-0.3,0-0.4-0.1L67.8,70c-0.7-0.7-1-1.5-1-2.5s0.4-1.8,1-2.5c1.4-1.4,3.6-1.4,5,0l1.6,1.6
				c0.2,0.2,0.2,0.5,0,0.7s-0.5,0.2-0.7,0l-1.6-1.6c-1-1-2.6-1-3.6,0c-0.5,0.5-0.7,1.1-0.7,1.8s0.3,1.3,0.7,1.8l1.6,1.6
				c0.2,0.2,0.2,0.5,0,0.7C70,71.7,69.8,71.7,69.7,71.7z"/>
		</g>
		<g>
			<path class="st17" d="M78.2,62.7c-1.2-1.2-3.1-1.2-4.3,0l0,0c-1.2,1.2-1.2,3.1,0,4.3"/>
			<path class="st16" d="M74,67.5c-0.1,0-0.3,0-0.4-0.1c-1.4-1.4-1.4-3.6,0-5c1.3-1.3,3.6-1.3,5,0c0.2,0.2,0.2,0.5,0,0.7
				s-0.5,0.2-0.7,0c-1-1-2.6-1-3.6,0c-1,1-1,2.6,0,3.6c0.2,0.2,0.2,0.5,0,0.7C74.2,67.4,74.1,67.5,74,67.5z"/>
		</g>
		<g>
			<path class="st17" d="M78.2,62.7l9.7,9.7c2.8,2.8,3.5,7.1,2,10.5"/>
			<path class="st16" d="M89.9,83.4c-0.1,0-0.1,0-0.2,0c-0.3-0.1-0.4-0.4-0.3-0.7c1.5-3.4,0.7-7.3-1.9-10l-9.7-9.7
				c-0.2-0.2-0.2-0.5,0-0.7s0.5-0.2,0.7,0l9.7,9.7c2.9,2.9,3.8,7.3,2.1,11.1C90.3,83.3,90.1,83.4,89.9,83.4z"/>
		</g>
		<g>
			<path class="st17" d="M61.2,79.8l5.1,5.1L59.4,78c-1.2-1.2-3.1-1.2-4.3,0s-1.2,3.1,0,4.3l2.7,2.7l0.1,0.1l2.3,2.3l6.3,6.3
				c2.9,2.9,7.1,3.5,10.5,2"/>
			<path class="st16" d="M73.3,97c-2.6,0-5.1-1-7.1-3L54.8,82.6c-0.7-0.7-1-1.5-1-2.5s0.4-1.8,1-2.5c1.3-1.3,3.6-1.3,5,0l1.8,1.8
				c0,0,0,0,0,0l5.1,5.1c0.2,0.2,0.2,0.5,0,0.7s-0.5,0.2-0.7,0l-6.8-6.8c-1-1-2.6-1-3.6,0c-1,1-1,2.6,0,3.6l11.5,11.5
				c2.6,2.6,6.6,3.4,10,1.9c0.3-0.1,0.5,0,0.7,0.3c0.1,0.3,0,0.5-0.3,0.7C76,96.8,74.7,97,73.3,97z"/>
		</g>
		<g>
			<line class="st17" x1="66.2" y1="84.8" x2="66.2" y2="86.8"/>
			<path class="st16" d="M66.2,87.3c-0.3,0-0.5-0.2-0.5-0.5v-2c0-0.3,0.2-0.5,0.5-0.5s0.5,0.2,0.5,0.5v2
				C66.7,87.1,66.5,87.3,66.2,87.3z"/>
		</g>
	</g>
</g>
</svg>
