<svg enable-background="new 0 0 116 115" viewBox="0 0 116 115" xmlns="http://www.w3.org/2000/svg"><path d="m81.4 34.8h-8.2c-.3 0-.5-.2-.5-.5v-5.9c0-.2.1-.4.3-.4l4.1-2c.1-.1.3-.1.4 0l4.1 2c.2.1.3.3.3.4v5.9c0 .2-.2.5-.5.5zm-7.7-1h7.2v-5.1l-3.6-1.8-3.6 1.8z" fill="#3aaa35"/><path d="m81.4 45.2h-8.2c-.3 0-.5-.2-.5-.5v-5.9c0-.2.1-.4.3-.4l4.1-2c.1-.1.3-.1.4 0l4.1 2c.2.1.3.3.3.4v5.9c0 .2-.2.5-.5.5zm-7.7-1h7.2v-5.1l-3.6-1.8-3.6 1.8z" fill="#3aaa35"/><path d="m91.6 40h-8.2c-.3 0-.5-.2-.5-.5v-5.9c0-.2.1-.4.3-.4l4.1-2c.1-.1.3-.1.4 0l4.1 2c.2.1.3.3.3.4v5.9c0 .2-.2.5-.5.5zm-7.7-1h7.2v-5.1l-3.6-1.8-3.6 1.8z" fill="#3aaa35"/><path d="m33.4 97c-.4 0-.8 0-1.3-.1-.3 0-.5-.3-.5-.5 0-.3.3-.5.5-.5 4.3.4 8.2-1.5 10.2-4.9l12.5-22c.3-.6.4-1.3.2-1.9-.2-.7-.7-1.3-1.4-1.7-1.4-.8-3.1-.4-3.7.8-.1.2-.4.3-.7.2s-.3-.4-.2-.7l3.9-6.8c.7-1.2.1-2.8-1.3-3.6s-3.1-.4-3.7.8c-.1.2-.4.3-.7.2-.2-.1-.3-.4-.2-.7l1.5-2.6c.3-.6.4-1.3.2-1.9-.2-.7-.7-1.3-1.4-1.7-.8-.4-1.6-.6-2.3-.4s-1.3.6-1.6 1.1l-2.1 3.8c-.1.2-.4.3-.7.2-.2-.1-.3-.4-.2-.7.3-.6.4-1.3.2-1.9-.2-.7-.7-1.3-1.4-1.7-1.4-.8-3.1-.4-3.7.8l-15.7 27.7c-2 3.4-1.6 7.8 1 11.3.2.2.1.5-.1.7s-.5.1-.7-.1c-2.8-3.8-3.2-8.6-1.1-12.3l15.7-27.7c1-1.7 3.2-2.2 5.1-1.2.9.5 1.6 1.3 1.9 2.2 0 .1 0 .1.1.2l1-1.7c.5-.8 1.3-1.4 2.2-1.6 1-.2 2 0 2.9.5s1.6 1.3 1.9 2.2.2 1.9-.2 2.8l-.5.4c1-.3 2.1-.2 3.1.4 1.9 1 2.6 3.3 1.6 5l-2.7 4.7c1-.3 2.1-.2 3.1.4.9.5 1.6 1.3 1.9 2.2s.2 1.9-.2 2.8l-12.5 22c-2 3.5-5.7 5.5-9.9 5.5z" fill="#3aaa35"/><path d="m36.3 28h17.1c2.2 0 3.9 1.8 3.9 3.9v38.3c0 2.2-1.8 3.9-3.9 3.9h-17.1c-2.2 0-3.9-1.8-3.9-3.9v-38.3c-.1-2.2 1.7-3.9 3.9-3.9z" fill="#fff"/><path d="m53.4 74.6h-17.1c-2.4 0-4.4-2-4.4-4.4v-38.3c0-2.4 2-4.4 4.4-4.4h17.1c2.4 0 4.4 2 4.4 4.4v38.3c0 2.5-2 4.4-4.4 4.4zm-17.1-46.1c-1.9 0-3.4 1.5-3.4 3.4v38.3c0 1.9 1.5 3.4 3.4 3.4h17.1c1.9 0 3.4-1.5 3.4-3.4v-38.3c0-1.9-1.5-3.4-3.4-3.4z" fill="#3aaa35"/><path d="m48.4 30.8h-7.3c-1.1 0-2-.9-2-2v-.8h11.3v.8c.1 1.1-.8 2-2 2z" fill="#fff"/><path d="m48.4 31.3h-7.3c-1.4 0-2.5-1.1-2.5-2.5v-.8c0-.3.2-.5.5-.5h11.3c.3 0 .5.2.5.5v.8c.1 1.4-1.1 2.5-2.5 2.5zm-8.7-2.8v.3c0 .8.7 1.5 1.5 1.5h7.3c.8 0 1.5-.7 1.5-1.5v-.3z" fill="#3aaa35"/><path d="m49 71.5h-8.4" fill="#fff"/><g fill="#3aaa35"><path d="m49 72h-8.4c-.3 0-.5-.2-.5-.5s.2-.5.5-.5h8.4c.3 0 .5.2.5.5s-.2.5-.5.5z"/><path d="m44.5 48.7h-2c-3.2 0-5.9-2.6-5.9-5.9 0-.3.2-.5.5-.5h2c3.2 0 5.9 2.6 5.9 5.9 0 .2-.2.5-.5.5zm-6.8-5.4c.3 2.5 2.3 4.4 4.9 4.4h1.4c-.3-2.5-2.3-4.4-4.9-4.4z"/><path d="m44.5 48.7c-.3 0-.5-.2-.5-.5v-2.7c0-4.4 3.6-8 8-8 .3 0 .5.2.5.5v2.7c0 4.4-3.6 8-8 8zm7-10.3c-3.6.3-6.5 3.3-6.5 7v2.2c3.6-.3 6.5-3.3 6.5-7z"/><path d="m44.5 55.2c-.3 0-.5-.2-.5-.5v-6.6c0-.3.2-.5.5-.5s.5.2.5.5v6.6c0 .3-.2.5-.5.5z"/><path d="m48.2 55.2h-7.4c-.3 0-.5-.2-.5-.5s.2-.5.5-.5h7.4c.3 0 .5.2.5.5s-.2.5-.5.5z"/></g><path d="m23.6 70.6 3.4.1 5.3-9.4c.9-1.5 2.9-2 4.4-1 1.3.9 1.6 2.7.8 4.1l-3.4 6c-1 1.8-.4 4.1 1.4 5.2 2.8 1.6 3.8 5.1 2.2 7.9l-1.7 3.1" fill="#fff"/><path d="m36 87.1c-.1 0-.2 0-.2-.1-.2-.1-.3-.4-.2-.7l1.8-3.1c.7-1.2.9-2.7.5-4-.4-1.4-1.3-2.5-2.5-3.2-2.1-1.2-2.8-3.8-1.6-5.9l3.4-6c.7-1.2.4-2.7-.7-3.4-.6-.4-1.3-.6-2-.4s-1.3.6-1.6 1.2l-5.3 9.4c-.1.2-.3.3-.4.3l-3.4-.1c-.3 0-.5-.2-.5-.5s.2-.5.5-.5l3.1.1 5.2-9.1c.5-.9 1.3-1.5 2.3-1.7s2 0 2.8.6c1.5 1 1.9 3.1 1 4.7l-3.4 6c-.4.8-.5 1.7-.3 2.5s.8 1.6 1.6 2c3 1.7 4.1 5.6 2.4 8.6l-1.8 3.1c-.4.1-.5.2-.7.2z" fill="#3aaa35"/><path d="m97.6 50.9h-31.9c-.3 0-.5-.2-.5-.5v-9.3h-4.9c-.2 0-.4-.1-.5-.3-.2-.4-.2-.5 5.4-5.9v-12.5c0-.3.2-.5.5-.5h31.9c.3 0 .5.2.5.5v28c0 .2-.2.5-.5.5zm-31.4-1h30.9v-27h-30.9v12.2c0 .1-.1.3-.2.4-2.8 2.6-4.1 4-4.7 4.6h4.4c.3 0 .5.2.5.5z" fill="#3aaa35"/><path d="m65.4 75.5-14-14c-1.2-1.2-3.1-1.2-4.3 0-1.2 1.2-1.2 3.1 0 4.3l14 14" fill="#fff"/><path d="m61.2 80.3c-.1 0-.3 0-.4-.1l-14-14c-1.4-1.4-1.4-3.6 0-5s3.6-1.4 5 0l14 14c.2.2.2.5 0 .7s-.5.2-.7 0l-14-14c-1-1-2.6-1-3.6 0s-1 2.6 0 3.6l14 14c.2.2.2.5 0 .7-.1 0-.2.1-.3.1z" fill="#3aaa35"/><path d="m69.7 71.2-4.2-4.2c-1.2-1.2-3.1-1.2-4.3 0-1.2 1.2-1.2 3.1 0 4.3l4.2 4.2" fill="#fff"/><path d="m65.4 76c-.1 0-.3 0-.4-.1l-4.2-4.2c-1.4-1.4-1.4-3.6 0-5s3.6-1.4 5 0l4.2 4.2c.2.2.2.5 0 .7s-.5.2-.7 0l-4.2-4.2c-1-1-2.6-1-3.6 0s-1 2.6 0 3.6l4.2 4.2c.2.2.2.5 0 .7 0 .1-.1.1-.3.1z" fill="#3aaa35"/><path d="m74 67-1.6-1.6c-1.2-1.2-3.1-1.2-4.3 0-1.2 1.2-1.2 3.1 0 4.3l1.6 1.6" fill="#fff"/><path d="m69.7 71.7c-.1 0-.3 0-.4-.1l-1.5-1.6c-.7-.7-1-1.5-1-2.5s.4-1.8 1-2.5c1.4-1.4 3.6-1.4 5 0l1.6 1.6c.2.2.2.5 0 .7s-.5.2-.7 0l-1.6-1.6c-1-1-2.6-1-3.6 0-.5.5-.7 1.1-.7 1.8s.3 1.3.7 1.8l1.6 1.6c.2.2.2.5 0 .7-.1.1-.3.1-.4.1z" fill="#3aaa35"/><path d="m78.2 62.7c-1.2-1.2-3.1-1.2-4.3 0-1.2 1.2-1.2 3.1 0 4.3" fill="#fff"/><path d="m74 67.5c-.1 0-.3 0-.4-.1-1.4-1.4-1.4-3.6 0-5 1.3-1.3 3.6-1.3 5 0 .2.2.2.5 0 .7s-.5.2-.7 0c-1-1-2.6-1-3.6 0s-1 2.6 0 3.6c.2.2.2.5 0 .7-.1 0-.2.1-.3.1z" fill="#3aaa35"/><path d="m78.2 62.7 9.7 9.7c2.8 2.8 3.5 7.1 2 10.5" fill="#fff"/><path d="m89.9 83.4c-.1 0-.1 0-.2 0-.3-.1-.4-.4-.3-.7 1.5-3.4.7-7.3-1.9-10l-9.7-9.7c-.2-.2-.2-.5 0-.7s.5-.2.7 0l9.7 9.7c2.9 2.9 3.8 7.3 2.1 11.1 0 .2-.2.3-.4.3z" fill="#3aaa35"/><path d="m61.2 79.8 5.1 5.1-6.9-6.9c-1.2-1.2-3.1-1.2-4.3 0s-1.2 3.1 0 4.3l2.7 2.7.1.1 2.3 2.3 6.3 6.3c2.9 2.9 7.1 3.5 10.5 2" fill="#fff"/><path d="m73.3 97c-2.6 0-5.1-1-7.1-3l-11.4-11.4c-.7-.7-1-1.5-1-2.5s.4-1.8 1-2.5c1.3-1.3 3.6-1.3 5 0l1.8 1.8 5.1 5.1c.2.2.2.5 0 .7s-.5.2-.7 0l-6.8-6.8c-1-1-2.6-1-3.6 0s-1 2.6 0 3.6l11.5 11.5c2.6 2.6 6.6 3.4 10 1.9.3-.1.5 0 .7.3.1.3 0 .5-.3.7-1.5.4-2.8.6-4.2.6z" fill="#3aaa35"/><path d="m66.2 84.8v2" fill="#fff"/><path d="m66.2 87.3c-.3 0-.5-.2-.5-.5v-2c0-.3.2-.5.5-.5s.5.2.5.5v2c0 .3-.2.5-.5.5z" fill="#3aaa35"/></svg>