<svg enable-background="new 0 0 480 480" viewBox="0 0 480 480" xmlns="http://www.w3.org/2000/svg"><g stroke-linecap="round" stroke-linejoin="round"><g stroke-width="2"><g stroke-miterlimit="10"><ellipse cx="335.2" cy="257.6" fill="none" rx="21.6" ry="28.3" stroke="#3aaa35" transform="matrix(.6873 -.7264 .7264 .6873 -82.2997 324.0421)"/><ellipse cx="401" cy="257.6" fill="none" rx="28.3" ry="21.6" stroke="#3aaa35" transform="matrix(.7264 -.6873 .6873 .7264 -67.3408 346.0439)"/><ellipse cx="346.6" cy="248.7" fill="#fff" rx="24.8" ry="32.5" stroke="#3aaa35" transform="matrix(.8395 -.5434 .5434 .8395 -79.4834 228.2501)"/><ellipse cx="389.6" cy="248.7" fill="#fff" rx="32.5" ry="24.8" stroke="#3aaa35" transform="matrix(.5434 -.8395 .8395 .5434 -30.866 440.5618)"/><path d="m391.9 246.8c0 23-11.2 32.3-25 32.3s-25-9.3-25-32.3 11.2-41.6 25-41.6 25 18.6 25 41.6z" fill="#fff" stroke="#3aaa35"/><path d="m370.7 460.5v-28.5c0-11.8-2.2-46.5 21.4-46.8 45.1 0 71.4-14 71.4-59.1h-23.2c-39.1 0-61.6 30.4-69.6 67.1v-106.5c1.1 3.2 4.4 5.4 8.1 5 3.9-.4 6.7-3.9 6.7-7.8v-7.3h-7.6c-1.1 0-2.2.2-3.1.7-.1-1.8-.8-3.6-2.2-5l-5.4-5.4-5.4 5.4c-1.4 1.4-2.1 3.2-2.2 5.1-1-.5-2.1-.7-3.2-.7h-7.6v7.3c0 4.1 3.1 7.6 7.2 7.9 3.6.2 6.7-2.2 7.7-5.4v77.8c-7.9-36.7-22.8-54.6-61.9-54.6h-23.2c0 45.1 18.7 59.8 63.8 59.8 24.9 1.6 21.4 21.7 21.4 33.5v40" fill="#fff" stroke="#063"/><path d="m360.1 367.6-55.5-38.5" fill="none" stroke="#063"/><path d="m325.9 343.9v-21.6" fill="none" stroke="#063"/><path d="m332.4 348.3h-27.8" fill="none" stroke="#063"/><path d="m340.7 354.1v-15.5" fill="none" stroke="#063"/><path d="m384.5 377.8 55.5-38.5" fill="none" stroke="#063"/><path d="m418.7 354.1v-14.8" fill="none" stroke="#063"/><path d="m427 348.3h17.3" fill="none" stroke="#063"/><path d="m403.9 364.3v-15.5" fill="none" stroke="#063"/><path d="m399.2 367.6h26.5" fill="none" stroke="#063"/><ellipse cx="81.1" cy="238.4" fill="none" rx="19.2" ry="25.1" stroke="#3aaa35" transform="matrix(.6873 -.7264 .7264 .6873 -147.8154 133.4451)"/><ellipse cx="139.4" cy="238.4" fill="none" rx="25.1" ry="19.2" stroke="#3aaa35" transform="matrix(.7264 -.6873 .6873 .7264 -125.7098 161.0005)"/><ellipse cx="91.2" cy="230.5" fill="#fff" rx="22" ry="28.8" stroke="#3aaa35" transform="matrix(.8395 -.5434 .5434 .8395 -110.598 86.5397)"/><ellipse cx="129.3" cy="230.5" fill="#fff" rx="28.8" ry="22" stroke="#3aaa35" transform="matrix(.5434 -.8395 .8395 .5434 -134.4477 213.7393)"/><path d="m131.4 228.8c0 20.4-9.9 28.6-22.2 28.6s-22.2-8.2-22.2-28.6 9.9-36.8 22.2-36.8 22.2 16.4 22.2 36.8z" fill="#fff" stroke="#3aaa35"/><path d="m112.5 402.7v-9.7c0-10.5-2-41.2 18.9-41.4 39.9 0 63.3-12.4 63.3-52.3h-20.6c-34.7 0-54.6 27-61.6 59.5v-94.5c1 2.8 3.9 4.8 7.1 4.4 3.4-.4 5.9-3.5 5.9-6.9v-6.5h-6.7c-1 0-1.9.2-2.8.6-.1-1.6-.7-3.2-2-4.5l-4.8-4.8-4.8 4.8c-1.3 1.3-1.9 2.9-2 4.5-.9-.4-1.8-.6-2.9-.6h-6.7v6.5c0 3.6 2.8 6.8 6.4 7 3.2.2 5.9-1.9 6.8-4.8v69c-7-32.6-20.2-48.4-54.9-48.4h-20.3c0 39.9 16.6 53 56.5 53 22.1 1.4 18.9 19.2 18.9 29.7v53.7" fill="#fff" stroke="#063"/><path d="m122.9 343.9 51.4-32.8" fill="none" stroke="#063"/><path d="m139.4 333.7h20.9" fill="none" stroke="#063"/><path d="m153.1 324.6v-13.5" fill="none" stroke="#063"/><path d="m163.7 317.8h12.6" fill="none" stroke="#063"/><path d="m96.6 329.1-55.4-35.7" fill="none" stroke="#063"/><path d="m64.4 308.3v-14.9" fill="none" stroke="#063"/><path d="m81.1 318.6v-14.3" fill="none" stroke="#063"/><path d="m71.9 313.2h-18.1" fill="#fff" stroke="#063"/><path d="m86 322.3h-18.1" fill="#fff" stroke="#063"/><path d="m225.9 405.6h-11.7c-16.1.1-29.2-12.9-29.2-29h11.7c16 0 29.1 12.9 29.2 29z" fill="#fff" stroke="#3aaa35"/><path d="m255 376.4c-16.1.1-29.1 13.2-29 29.2 16.1-.1 29-13.2 29-29.2z" fill="#fff" stroke="#3aaa35"/><path d="m226 405.6v12" fill="#fff" stroke="#3aaa35"/><path d="m297.7 275c-4.4-1.3-9-1.9-13.9-1.9-11.9 0-22.8 4.1-31.4 10.9-3.2-3.3-7.6-5.3-12.5-5.3-7.3 0-13.6 4.6-16.1 11-16.9-14.3-38.7-22.9-62.5-22.9-4 0-8 .2-12 .7" fill="none" stroke="#3aaa35"/><path d="m222.7 284.9-1.6-1.2c-4.8-3.7-5.8-10.5-2.1-15.4l1.6 1.2c4.9 3.7 5.8 10.6 2.1 15.4z" fill="none" stroke="#3aaa35"/><path d="m199.3 268.3-2 .3c-6 .8-11.5-3.4-12.4-9.4l2-.3c6.1-.8 11.6 3.4 12.4 9.4z" fill="none" stroke="#3aaa35"/><path d="m253.4 276.6c0-6.1 4.9-11 11-11 0 6.1-5 11-11 11z" fill="none" stroke="#3aaa35"/><path d="m253.4 271.7v4.9h-4.9c-6.1 0-11-4.9-11-11v-4.9h4.9c6.1.1 11 5 11 11z" fill="none" stroke="#3aaa35"/><path d="m253.4 276.6-9.6-9.5" fill="none" stroke="#3aaa35"/><path d="m201.9 235.4c-.8.8-1.5 2.4-1.9 4-.4-1.6-1.1-3.1-1.9-3.9-2-2-5.2-2-7.1 0-2 2-2 5.2 0 7.1.8.8 2.4 1.5 4 1.9-1.6.4-3.1 1.1-3.9 1.9-2 2-2 5.2 0 7.1s5.2 2 7.1 0c.8-.8 1.5-2.4 1.9-4 .4 1.6 1.1 3.1 1.9 3.9 2 2 5.2 2 7.1 0 2-2 2-5.2 0-7.1-.8-.8-2.4-1.5-4-1.9 1.6-.4 3.1-1.1 3.9-1.9 2-2 2-5.2 0-7.1-1.9-2-5.1-2-7.1 0z" fill="#fff" stroke="#3aaa35"/><path d="m199.3 243.7 1.5 1.6" fill="#fff" stroke="#3aaa35"/><path d="m199.3 245.3 1.5-1.6" fill="#fff" stroke="#3aaa35"/><path d="m200.1 249.6v25.3" fill="#fff" stroke="#3aaa35"/><path d="m206.5 218.7v-79.7l77.4-31.3v165.4" fill="none" stroke="#063"/><path d="m206.5 143.7 77.4-31.4" fill="none" stroke="#063"/><path d="m238.7 76.5h13v15.8h-13z" fill="none" stroke="#3aaa35"/><path d="m231.9 92.3h26.6v6.5h-26.6z" fill="none" stroke="#063"/><path d="m235.5 71.8h19.5v4.8h-19.5z" fill="none" stroke="#063"/><path d="m238.7 120.6v-21.8h13v21.8" fill="none" stroke="#063"/></g><path d="m264.4 78 5.9-.9" fill="none" stroke="#3aaa35"/><path d="m281.4 75.3 127.5-19.7" fill="none" stroke="#3aaa35" stroke-dasharray="11.222 11.222"/><path d="m414.5 54.8 5.9-1" fill="none" stroke="#3aaa35"/><path d="m68.9 116.2 5.9-.9" fill="none" stroke="#3aaa35"/><path d="m85.9 113.6 127.6-19.7" fill="none" stroke="#3aaa35" stroke-dasharray="11.222 11.222"/><path d="m219 93 5.9-.9" fill="none" stroke="#3aaa35"/><path d="m224.9 78-5.9-.9" fill="none" stroke="#3aaa35"/><path d="m207.9 75.3-127.5-19.7" fill="none" stroke="#3aaa35" stroke-dasharray="11.222 11.222"/><path d="m74.8 54.8-5.9-1" fill="none" stroke="#3aaa35"/><path d="m420.4 116.2-5.9-.9" fill="none" stroke="#3aaa35"/><path d="m403.4 113.6-127.6-19.7" fill="none" stroke="#3aaa35" stroke-dasharray="11.222 11.222"/><path d="m270.3 93-5.9-.9" fill="none" stroke="#3aaa35"/><path d="m261.1 84.4h60" fill="none" stroke="#3aaa35" stroke-dasharray="12" stroke-miterlimit="10"/><path d="m167.6 84.8h60" fill="none" stroke="#3aaa35" stroke-dasharray="12" stroke-miterlimit="10"/><path d="m160.6 189.8-4.2 2.5-2.3 5.7" fill="none" stroke="#063" stroke-miterlimit="10"/></g><g stroke="#063" stroke-miterlimit="10"><path d="m162.7 179.3-2.1 10.5" fill="none" stroke-width="3"/><path d="m133.3 178.6-4 1.8-3.1 5" fill="none" stroke-width="2"/><circle cx="152.7" cy="168.3" fill="#063" r="11" stroke-width="2"/><circle cx="148.8" cy="174" fill="#fff" r="14.8" stroke-width="2"/><circle cx="146.9" cy="176.4" fill="#063" r="12.4" stroke-width="2"/><circle cx="144.9" cy="178.6" fill="#fff" r="9.7" stroke-width="2"/><path d="m180.8 158.8c1.7 3.7-1.4 9.1-6.6 9.3-6.7.3-10.7.4-11.4-1-1.3-2.8 1.6-7 6.6-9.3s10.1-1.8 11.4 1z" fill="#fff" stroke-width="2"/><path d="m145.1 139.3c-3.9 1.2-5.9 7-2.6 11.1 4.2 5.2 6.7 8.3 8.3 7.9 3-.9 4.2-5.9 2.6-11.1-1.6-5.3-5.3-8.8-8.3-7.9z" fill="#fff" stroke-width="2"/><circle cx="341.9" cy="157.9" fill="#063" r="18.9" stroke-width="2"/><path d="m342.4 195.7 8.2 1.2 6 3.6" fill="none" stroke-width="2"/><path d="m330.9 182.2 11.5 13.5" fill="none" stroke-width="3"/><path d="m381.6 159.3v9.9l5.7 7.6" fill="none" stroke-width="2"/><path d="m367.1 146.4 14.5 12.9" fill="none" stroke-width="3"/><circle cx="350.6" cy="166" fill="#fff" r="25.5" stroke-width="2"/><circle cx="354.8" cy="169.2" fill="#063" r="21.4" stroke-width="2"/><circle cx="359.1" cy="172" fill="#fff" r="16.7" stroke-width="2"/><path d="m296.6 150.3c-1.2 5.9 5 12.5 12.5 11.1 9.6-1.8 15.4-2.9 15.9-5.2.9-4.5-4.7-9.5-12.5-11.1-7.9-1.6-15 .7-15.9 5.2z" fill="#fff" stroke-width="2"/><path d="m340.9 112.2c6 .4 10.7 8.1 7.4 15-4.2 8.8-6.9 14.1-9.2 14-4.6-.3-7.9-7-7.4-15s4.6-14.3 9.2-14z" fill="#fff" stroke-width="2"/><path d="m199.3 159.8h7.2v6.7h-7.2z" fill="none" stroke-width="2"/><path d="m199.3 194.6h7.2v6.7h-7.2z" fill="none" stroke-width="2"/><path d="m218.5 223.1v-63.4c0-3.6 2.9-6.5 6.5-6.5h40.9c3.6 0 6.5 2.9 6.5 6.5v80.4c0 3.6-2.9 6.5-6.5 6.5h-34" fill="none" stroke-width="2"/><circle cx="264.4" cy="160.6" fill="none" r="1" stroke-width="2"/><circle cx="264.4" cy="239" fill="none" r="1" stroke-width="2"/></g></g></svg>