<svg enable-background="new 0 0 116 115" viewBox="0 0 116 115" xmlns="http://www.w3.org/2000/svg"><g fill="#3aaa35"><path d="m96.5 61.5c-.1-.2-.3-.3-.5-.3h-8.5v-35.1c0-.3-.2-.5-.5-.5h-18.3c-.3 0-.5.2-.5.5v25.8c.3.2.7.5 1 .7v-26h17.3v35.2c0 .3.2.5.5.5h7.8l-17 16.8-6.9-6.9c-.2.5-.2 1-.1 1.4l6.6 6.6c.1.1.3.1.4.1s.3 0 .4-.3l18.2-18c.1-.1.2-.3.1-.5z"/><path d="m50.9 98.6c-10.1 0-20.8-2.2-20.8-6.4v-36.9c0-.3.2-.5.5-.5s.5.2.5.5v36.9c0 2.6 8.1 5.4 19.8 5.4s19.8-2.8 19.8-5.4v-36.9c0-.3.2-.5.5-.5s.5.2.5.5v36.9c0 4.2-10.7 6.4-20.8 6.4z"/><path d="m50.9 86.3c-10.1 0-20.8-2.2-20.8-6.4 0-.3.2-.5.5-.5s.5.2.5.5c0 2.6 8.1 5.4 19.8 5.4s19.8-2.8 19.8-5.4c0-.3.2-.5.5-.5s.5.2.5.5c0 4.2-10.7 6.4-20.8 6.4z"/><path d="m50.9 74c-10.1 0-20.8-2.2-20.8-6.4 0-.3.2-.5.5-.5s.5.2.5.5c0 2.6 8.1 5.4 19.8 5.4s19.8-2.8 19.8-5.4c0-.3.2-.5.5-.5s.5.2.5.5c0 4.2-10.7 6.4-20.8 6.4z"/><path d="m50.9 61.7c-10.1 0-20.8-2.2-20.8-6.4s10.7-6.4 20.8-6.4 20.8 2.2 20.8 6.4-10.7 6.4-20.8 6.4zm0-11.8c-11.7 0-19.8 2.8-19.8 5.4s8.1 5.4 19.8 5.4 19.8-2.8 19.8-5.4c0-2.5-8.1-5.4-19.8-5.4z"/><path d="m25.5 44.7c-.3 0-.5-.1-.7-.3s-.3-.4-.3-.7.1-.5.3-.7.4-.3.7-.3.5.1.7.3.3.4.3.7-.1.5-.3.7-.4.3-.7.3z"/><path d="m35.2 44.6c-1 0-2-.2-2.9-.6s-1.7-1-2.4-1.7-1.2-1.5-1.6-2.4c-.3-.9-.5-1.9-.5-2.9s.2-2 .6-2.9.9-1.7 1.6-2.4 1.5-1.3 2.4-1.7 1.9-.6 2.9-.6c.9 0 1.7.1 2.5.4s1.5.7 2.2 1.3c.1.1.2.2.2.4s-.1.3-.2.4c-.2.1-.3.1-.5.1-.1 0-.1 0-.2 0s-.1 0-.2-.1c-.1 0-.1-.1-.2-.1-.5-.5-1.1-.8-1.7-1s-1.3-.3-2.1-.3c-.9 0-1.7.2-2.4.5-.8.3-1.4.8-2 1.4s-1 1.3-1.4 2.1c-.3.8-.5 1.6-.5 2.5s.2 1.7.5 2.5.8 1.5 1.4 2.1 1.2 1.1 2 1.4 1.6.5 2.4.5c.7 0 1.5-.1 2.1-.3.7-.2 1.3-.6 1.8-1 .1-.1.2-.1.4-.1.1 0 .3.1.4.2s.2.2.2.4v.2c0 .1-.1.1-.1.2-.6.6-1.3 1.1-2.2 1.3-.8.1-1.6.2-2.5.2z"/><path d="m47.6 44.6c-.8 0-1.5-.1-2.2-.3s-1.2-.5-1.7-1c-.5-.4-.9-.9-1.1-1.5-.1-.2-.1-.3 0-.4s.2-.2.4-.3c.1-.1.3 0 .4 0l.3.3c.2.4.5.8.9 1.1s.8.5 1.3.7 1.1.2 1.7.2c.7 0 1.3-.1 1.9-.4.5-.2.9-.6 1.2-1.1s.4-1 .4-1.7c0-.8-.3-1.5-.9-2.1s-1.5-.9-2.8-1.1c-1.4-.2-2.5-.7-3.3-1.4s-1.2-1.6-1.2-2.6c0-.7.2-1.4.6-2s.9-1 1.6-1.3 1.5-.5 2.4-.5c.7 0 1.3.1 1.8.3.6.2 1 .5 1.5.8.4.3.7.7 1 1.1.1.1.1.3.1.4 0 .2-.1.3-.3.3-.1.1-.3.1-.4 0-.1 0-.3-.1-.3-.3-.2-.3-.4-.5-.7-.8s-.6-.5-1-.6c-.4-.2-.9-.2-1.5-.2-1 0-1.9.2-2.5.7s-.9 1.1-.9 2c0 .5.1.9.4 1.2.2.4.6.7 1.2 1 .5.3 1.2.5 2 .6 1.6.3 2.8.8 3.5 1.5s1.1 1.7 1.1 2.8c0 .7-.1 1.3-.3 1.8s-.5 1-1 1.4c-.4.4-.9.7-1.5.8-.8.5-1.4.6-2.1.6z"/><path d="m59.4 44.4c-.2 0-.4-.1-.5-.4l-5.7-13.6c-.1-.3-.1-.5 0-.7s.3-.2.5-.2.4.1.6.4l5.5 13.1h-.6l5.4-13c.1-.2.1-.3.2-.4s.2-.1.4-.1.4.1.5.3.1.4 0 .6l-5.7 13.7c-.1.1-.1.2-.2.3-.2 0-.3 0-.4 0z"/></g></svg>