<svg enable-background="new 0 0 116 115" viewBox="0 0 116 115" xmlns="http://www.w3.org/2000/svg"><g fill="#3aaa35"><path d="m23.3 99c-.3 0-.5-.2-.5-.5v-66.5c0-.3.2-.5.5-.5s.5.2.5.5v66.5c0 .2-.2.5-.5.5z"/><path d="m80 90h-66.4c-.3 0-.5-.2-.5-.5s.2-.5.5-.5h66.4c.3 0 .5.2.5.5s-.2.5-.5.5z"/><path d="m23.1 65.9c-.2.2-.3.5-.2.7.2.2.5.3.7.2l5.5-2.9c-.1-.3-.2-.7-.3-1z"/><path d="m39.6 39.9-6 17.3c.3.1.6.2 1 .3l6-17.2c-.4 0-.7-.2-1-.4z"/><path d="m48.3 72.7-5.5-32.1c-.3 0-.6.1-.9 0l5.6 32c.3 0 .6 0 .8.1z"/><path d="m57.4 66.9-6.4 6.8c.3.2.5.4.7.7l6.4-6.8c-.2-.2-.5-.5-.7-.7z"/><path d="m25.3 36.6h-2c-.3 0-.5-.2-.5-.5s.2-.5.5-.5h2c.3 0 .5.2.5.5s-.2.5-.5.5z"/><path d="m33.2 35.6h-3.9c-.3 0-.5.2-.5.5s.2.5.5.5h3.9c.2 0 .5-.2.5-.5s-.2-.5-.5-.5z"/><path d="m48.9 35.6h-2.9v1h2.9c.3 0 .5-.2.5-.5s-.2-.5-.5-.5z"/><path d="m54.9 36.6h-2c-.3 0-.5-.2-.5-.5s.2-.5.5-.5h2c.3 0 .5.2.5.5s-.3.5-.5.5z"/><path d="m25.3 70.3h-2c-.3 0-.5-.2-.5-.5s.2-.5.5-.5h2c.3 0 .5.2.5.5s-.2.5-.5.5z"/><path d="m40.9 70.3h-3.9c-.3 0-.5-.2-.5-.5s.2-.5.5-.5h3.9c.3 0 .5.2.5.5s-.2.5-.5.5zm-7.8 0h-3.9c-.3 0-.5-.2-.5-.5s.2-.5.5-.5h3.9c.3 0 .5.2.5.5s-.2.5-.5.5z"/><path d="m46.8 70.3h-2c-.3 0-.5-.2-.5-.5s.2-.5.5-.5h2c.3 0 .5.2.5.5s-.2.5-.5.5z"/><path d="m52 70.3h-2c-.3 0-.5-.2-.5-.5s.2-.5.5-.5h2c.3 0 .5.2.5.5s-.2.5-.5.5z"/><path d="m60 70.3h-4c-.3 0-.5-.2-.5-.5s.2-.5.5-.5h4c.3 0 .5.2.5.5s-.2.5-.5.5z"/><path d="m32.7 66.4c-2.7 0-4.9-2.2-4.9-4.9s2.2-4.9 4.9-4.9 4.9 2.2 4.9 4.9-2.2 4.9-4.9 4.9zm0-8.8c-2.1 0-3.9 1.7-3.9 3.9 0 2.1 1.7 3.9 3.9 3.9 2.1 0 3.9-1.7 3.9-3.9-.1-2.2-1.8-3.9-3.9-3.9z"/><path d="m41.4 41c-2.7 0-4.9-2.2-4.9-4.9s2.2-4.9 4.9-4.9 4.9 2.2 4.9 4.9-2.2 4.9-4.9 4.9zm0-8.8c-2.1 0-3.9 1.7-3.9 3.9 0 2.1 1.7 3.9 3.9 3.9s3.9-1.7 3.9-3.9c0-2.1-1.7-3.9-3.9-3.9z"/><path d="m48.6 81.8c-2.7 0-4.9-2.2-4.9-4.9s2.2-4.9 4.9-4.9 4.9 2.2 4.9 4.9-2.2 4.9-4.9 4.9zm0-8.7c-2.1 0-3.9 1.7-3.9 3.9s1.7 3.9 3.9 3.9c2.1 0 3.9-1.7 3.9-3.9s-1.7-3.9-3.9-3.9z"/><path d="m78.7 77.4c-15.3 0-27.7-12.4-27.7-27.6s12.4-27.6 27.6-27.6 27.6 12.4 27.6 27.6-12.3 27.6-27.5 27.6zm0-54.3c-14.7 0-26.7 12-26.7 26.7s12 26.6 26.6 26.6 26.6-12 26.6-26.6-11.8-26.7-26.5-26.7z"/><path d="m78.7 37.2c-1.6 0-2.9-1.3-2.9-2.9s1.3-2.9 2.9-2.9 2.9 1.3 2.9 2.9-1.3 2.9-2.9 2.9zm0-4.8c-1.1 0-1.9.9-1.9 1.9 0 1.1.9 1.9 1.9 1.9 1.1 0 1.9-.9 1.9-1.9-0-1.1-.9-1.9-1.9-1.9z"/><path d="m78.7 67.3c-2.4 0-4.5-1.5-5.4-3.6-.4-.1-.8-.2-1.1-.3.9 2.8 3.5 4.7 6.5 4.7 2.9 0 5.4-1.9 6.4-4.5-.4 0-.8.1-1.1.2-.9 2.1-3 3.5-5.3 3.5z"/><path d="m90.6 64h-23.9c-1.6 0-3-1.3-3-3 0-1.4 1-2.6 2.3-2.9l1.2-11.6c.6-5.8 5.5-10.2 11.4-10.2s10.8 4.3 11.4 10.2l1.2 11.6c1.3.3 2.3 1.5 2.3 2.9.1 1.6-1.3 3-2.9 3zm-11.9-26.8c-5.4 0-9.8 4-10.4 9.4l-1.3 12c0 .2-.2.4-.5.4-1 .1-1.8.9-1.8 2s.9 2 2 2h23.9c1.1 0 2-.9 2-2 0-1-.8-1.9-1.8-2-.2 0-.4-.2-.5-.4l-1.3-12c-.5-5.4-5-9.4-10.3-9.4z"/></g><path d="m90.8 58.5h-3.1" fill="none"/><path d="m90.8 59h-3.1c-.3 0-.5-.2-.5-.5s.2-.5.5-.5h3.1c.3 0 .5.2.5.5s-.2.5-.5.5z" fill="#3aaa35"/></svg>