<svg enable-background="new 0 0 116 115" viewBox="0 0 116 115" xmlns="http://www.w3.org/2000/svg"><g fill="#3aaa35"><path d="m48.1 90.1h-1.8c-3 0-5.4-2.4-5.4-5.4 0-.3.2-.5.5-.5h1.8c3 0 5.4 2.4 5.4 5.4 0 .3-.3.5-.5.5zm-6.2-4.8c.2 2.2 2.1 3.9 4.3 3.9h1.2c-.2-2.2-2.1-3.9-4.3-3.9z"/><path d="m48.1 90.1c-.3 0-.5-.2-.5-.5v-2.5c0-4 3.3-7.3 7.3-7.3.3 0 .5.2.5.5v2.5c-.1 4.1-3.3 7.3-7.3 7.3zm6.2-9.2c-3.2.3-5.8 3-5.8 6.3v2c3.2-.3 5.8-3 5.8-6.3z"/><path d="m48.1 96.1c-.3 0-.5-.2-.5-.5v-5.9c0-.3.2-.5.5-.5s.5.2.5.5v5.9c0 .3-.3.5-.5.5z"/><path d="m51.4 96.1h-6.7c-.3 0-.5-.2-.5-.5s.2-.5.5-.5h6.7c.3 0 .5.2.5.5s-.2.5-.5.5z"/><path d="m60 96.1h-23.8c-.3 0-.5-.2-.5-.5v-17.1c0-.2.1-.4.3-.4l11.9-5.9c.1-.1.3-.1.4 0l11.9 5.8c.2.1.3.3.3.4v17.1c0 .4-.3.6-.5.6zm-23.3-1h22.8v-16.3l-11.4-5.7-11.4 5.7z"/><path d="m36.2 96.1h-24.6c-.3 0-.5-.2-.5-.5 0-7 5.7-12.8 12.8-12.8 7 0 12.8 5.7 12.8 12.8 0 .3-.3.5-.5.5zm-24.1-1h23.5c-.3-6.3-5.4-11.3-11.8-11.3s-11.4 5-11.7 11.3z"/><path d="m23.9 81.5c-3.1 0-5.6-2.5-5.6-5.6v-2.1c0-3.1 2.5-5.6 5.6-5.6s5.6 2.5 5.6 5.6v2.1c0 3.1-2.5 5.6-5.6 5.6zm0-12.4c-2.5 0-4.6 2.1-4.6 4.6v2.1c0 2.5 2.1 4.6 4.6 4.6s4.6-2.1 4.6-4.6v-2.1c0-2.5-2.1-4.6-4.6-4.6z"/><path d="m95.1 91.5h-1.4c-2.4 0-4.3-1.9-4.3-4.3 0-.3.2-.5.5-.5h1.4c2.4 0 4.3 1.9 4.3 4.3 0 .3-.3.5-.5.5zm-4.7-3.8c.2 1.6 1.6 2.8 3.3 2.8h.8c-.2-1.6-1.6-2.8-3.3-2.8z"/><path d="m95.1 91.5c-.3 0-.5-.2-.5-.5v-2c0-3.2 2.6-5.8 5.8-5.8.3 0 .5.2.5.5v1.9c0 3.3-2.6 5.9-5.8 5.9zm4.8-7.2c-2.4.3-4.3 2.3-4.3 4.8v1.4c2.4-.3 4.3-2.3 4.3-4.8z"/><path d="m95.1 96.1c-.3 0-.5-.2-.5-.5v-4.6c0-.3.2-.5.5-.5s.5.2.5.5v4.6c0 .3-.3.5-.5.5z"/><path d="m97.7 96.1h-5.2c-.3 0-.5-.2-.5-.5s.2-.5.5-.5h5.2c.3 0 .5.2.5.5s-.2.5-.5.5z"/><path d="m104.3 96.1h-18.5c-.3 0-.5-.2-.5-.5v-13.3c0-.2.1-.4.3-.4l9.3-4.6c.1-.1.3-.1.4 0l9.3 4.6c.2.1.3.3.3.4v13.3c-.1.3-.3.5-.6.5zm-18-1h17.5v-12.5l-8.8-4.4-8.7 4.4z"/><path d="m85.8 96.1h-19.1c-.3 0-.5-.2-.5-.5 0-5.6 4.5-10.1 10.1-10.1s10 4.6 10 10.1c0 .3-.2.5-.5.5zm-18.6-1h18.1c-.3-4.8-4.2-8.6-9.1-8.6s-8.8 3.8-9 8.6z"/><path d="m76.2 84.7c-2.5 0-4.5-2-4.5-4.5v-1.6c0-2.5 2-4.5 4.5-4.5s4.5 2 4.5 4.5v1.6c0 2.5-2 4.5-4.5 4.5zm0-9.6c-1.9 0-3.5 1.6-3.5 3.5v1.6c0 1.9 1.6 3.5 3.5 3.5s3.5-1.6 3.5-3.5v-1.6c0-1.9-1.5-3.5-3.5-3.5z"/><path d="m95.1 33.5h-30.2c-.1.3-.2.7-.2 1h30v27.5h-18.4c-.3 0-.5.2-.5.5v5.9l-6.3-6.3c-.1 0-.3-.1-.4-.1h-10.2v-4.4c-.3-.1-.7-.2-1-.3v5.2c0 .3.2.5.5.5h10.4l7 7c.1 0 .3.1.4.1h.2c.2-.1.3-.3.3-.5v-6.7h18.4c.3 0 .5-.2.5-.5v-28.4c0-.3-.2-.5-.5-.5z"/><path d="m69.8 43.6-4.5 2.6c.1.4.2.7.2 1l4.8-2.8c-.3-.2-.4-.5-.5-.8z"/><path d="m73.8 45c-.3.2-.7.4-1 .3l3.7 7.8c.3-.2.6-.4.9-.6z"/><path d="m79.3 52.7c.2.2.4.4.7.7l2.7-4.2c-.2-.2-.5-.5-.7-.8z"/><path d="m95.1 47.4-8.4-1.1c-.1.3-.2.6-.3.9l8.5 1.1c.3.1.6-.1.6-.4.1-.2-.1-.5-.4-.5z"/><path d="m72.2 46.2c-1.9 0-3.4-1.5-3.4-3.4s1.5-3.4 3.4-3.4 3.4 1.5 3.4 3.4-1.5 3.4-3.4 3.4zm0-5.9c-1.3 0-2.4 1.1-2.4 2.4s1.1 2.4 2.4 2.4 2.4-1.1 2.4-2.4-1-2.4-2.4-2.4z"/><path d="m78.2 58.7c-1.9 0-3.4-1.5-3.4-3.4s1.5-3.4 3.4-3.4 3.4 1.5 3.4 3.4-1.5 3.4-3.4 3.4zm0-5.8c-1.3 0-2.4 1.1-2.4 2.4s1.1 2.4 2.4 2.4 2.4-1.1 2.4-2.4-1-2.4-2.4-2.4z"/><path d="m84 50c-1.9 0-3.4-1.5-3.4-3.4s1.5-3.4 3.4-3.4 3.4 1.5 3.4 3.4-1.5 3.4-3.4 3.4zm0-5.9c-1.3 0-2.4 1.1-2.4 2.4s1.1 2.4 2.4 2.4 2.4-1.1 2.4-2.4-1.1-2.4-2.4-2.4z"/><path d="m33.2 68.1c-.1 0-.1 0-.2 0-.2-.1-.3-.3-.3-.5v-9.7h-13.9c-.3 0-.5-.2-.5-.5v-33.9c0-.3.2-.5.5-.5h46.2c.3 0 .5.2.5.5v33.9c0 .3-.2.5-.5.5h-21.4l-10 10.1c-.1.1-.3.1-.4.1zm-13.9-11.2h13.9c.3 0 .5.2.5.5v9l9.4-9.4c.1-.1.2-.1.4-.1h21.1v-32.9h-45.3z"/><path d="m34.9 37.9c-.2.3-.4.6-.6.9l5.1 3.8c.3-.3.5-.5.7-.8z"/><path d="m65.1 43.3-10.3-2.9c.1.4-.1.7-.4 1.1l10.5 2.9h.1c.2 0 .4-.2.4-.5.1-.3 0-.5-.3-.6z"/><path d="m44.5 42.2v1.3l5-1.9c-.2-.4-.6-.6-.9-1z"/><path d="m18.5 43.4c-.2.2-.3.5-.2.7.2.2.5.3.7.2l11.2-6.2c-.2-.3-.3-.7-.4-1z"/><path d="m32.6 40.2c-1.9 0-3.4-1.5-3.4-3.4s1.5-3.4 3.4-3.4 3.4 1.5 3.4 3.4-1.6 3.4-3.4 3.4zm0-5.8c-1.3 0-2.4 1.1-2.4 2.4s1.1 2.4 2.4 2.4 2.4-1.1 2.4-2.4-1.1-2.4-2.4-2.4z"/><path d="m41.9 47.3c-1.9 0-3.4-1.5-3.4-3.4s1.5-3.4 3.4-3.4 3.4 1.5 3.4 3.4-1.5 3.4-3.4 3.4zm0-5.8c-1.3 0-2.4 1.1-2.4 2.4s1.1 2.4 2.4 2.4 2.4-1.1 2.4-2.4-1.1-2.4-2.4-2.4z"/><path d="m51.6 43.6c-1.9 0-3.4-1.5-3.4-3.4s1.5-3.4 3.4-3.4 3.4 1.5 3.4 3.4-1.5 3.4-3.4 3.4zm0-5.8c-1.3 0-2.4 1.1-2.4 2.4s1.1 2.4 2.4 2.4 2.4-1.1 2.4-2.4-1-2.4-2.4-2.4z"/></g></svg>