<svg enable-background="new 0 0 480 480" viewBox="0 0 480 480" xmlns="http://www.w3.org/2000/svg"><circle cx="154.3" cy="413.5" fill="#063" r="7.7"/><path d="m154.3 225.4c1.4 0 2.6 1.1 2.6 2.5v183c0 1.4-1.1 2.5-2.6 2.5-1.4 0-2.6-1.1-2.6-2.5v-182.9c.1-1.4 1.2-2.6 2.6-2.6z" fill="#063"/><path d="m162 402.3v-197.5c0-4.2-3.4-7.6-7.6-7.6h-.1c-4.2 0-7.6 3.4-7.6 7.6v197.5c-3.6 2.4-5.9 6.6-5.9 11.2 0 7.5 6.1 13.6 13.6 13.6s13.6-6.1 13.6-13.6c-.1-4.7-2.4-8.8-6-11.2z" fill="none" stroke="#3aaa35" stroke-miterlimit="10" stroke-width="2"/><circle cx="277.3" cy="413.5" fill="#063" r="7.7"/><path d="m277.3 368.8c1.4 0 2.6 1.1 2.6 2.5v39.7c0 1.4-1.1 2.5-2.5 2.5-1.4 0-2.5-1.1-2.5-2.5v-39.6c-.1-1.5 1-2.6 2.4-2.6z" fill="#063"/><path d="m285 402.3v-197.5c0-4.2-3.4-7.6-7.6-7.6h-.1c-4.2 0-7.6 3.4-7.6 7.6v197.5c-3.6 2.4-5.9 6.6-5.9 11.2 0 7.5 6.1 13.6 13.6 13.6s13.6-6.1 13.6-13.6c-.1-4.7-2.4-8.8-6-11.2z" fill="none" stroke="#3aaa35" stroke-miterlimit="10" stroke-width="2"/><circle cx="406.3" cy="413.5" fill="#063" r="7.7"/><path d="m406.3 303c1.4 0 2.6 1.1 2.6 2.6v105.4c0 1.4-1.1 2.5-2.5 2.5-1.4 0-2.5-1.1-2.5-2.5v-105.4c-.1-1.4 1-2.6 2.4-2.6z" fill="#063"/><g stroke-miterlimit="10"><path d="m414 402.3v-197.5c0-4.2-3.4-7.6-7.6-7.6h-.1c-4.2 0-7.6 3.4-7.6 7.6v197.5c-3.6 2.4-5.9 6.6-5.9 11.2 0 7.5 6.1 13.6 13.6 13.6s13.6-6.1 13.6-13.6c-.1-4.7-2.4-8.8-6-11.2z" fill="none" stroke="#3aaa35" stroke-width="2"/><path d="m322.4 279.1 19.7 19.8" fill="none" stroke="#3aaa35" stroke-linecap="round" stroke-linejoin="round" stroke-width="2"/><path d="m364.7 282.3c-3 3-5.4 1.3-8.4-1.7s-5.5-6.2-2.5-9.2 7.9-3 10.9 0 3 7.9 0 10.9z" fill="#3aaa35" stroke="#3aaa35" stroke-linecap="round" stroke-linejoin="round"/><path d="m349.8 270c5.4-5.4 5.4-14 0-19.4l-2.9-2.9c-2.8-2.8-7.4-2.8-10.3 0-2.8 2.8-2.8 7.4 0 10.3l12 12c.3.4.8.4 1.2 0z" fill="none" stroke="#3aaa35" stroke-linecap="round" stroke-linejoin="round" stroke-width="2"/><path d="m349.7 269.4c0-7.6-6.1-13.7-13.7-13.7h-4.1c-4 0-7.3 3.3-7.3 7.3 0 4 3.3 7.3 7.3 7.3h16.9c.5 0 .9-.4.9-.9z" fill="none" stroke="#3aaa35" stroke-linecap="round" stroke-linejoin="round" stroke-width="2"/><circle cx="348.2" cy="282.5" fill="none" r="11.6" stroke="#3aaa35" stroke-linecap="round" stroke-linejoin="round" stroke-width="2"/><path d="m324.4 276.9c-1.7 1.7-3.1 3.6-4.3 5.6-8.3 13.9 10.2 28.2 21.7 16.8l5.2-5.2c10.9-10.9-1.9-29.4-15.6-22.3-2.6 1.3-4.9 3-7 5.1z" fill="#fff" stroke="#3aaa35" stroke-linecap="round" stroke-linejoin="round" stroke-width="2"/><path d="m324.4 276.9c-.7.7-1.2 1.4-1.8 2.1l19.7 19.7 4.6-4.6c1.3-1.3 2.2-2.7 2.9-4.1-6.3-6.2-13.1-12-20.4-17-1.8 1.1-3.5 2.4-5 3.9z" fill="#3aaa35" stroke="#3aaa35" stroke-linecap="round" stroke-linejoin="round"/><path d="m359.2 286.4 2.5 8.9 5.2 3.6" fill="none" stroke="#3aaa35" stroke-linecap="round" stroke-linejoin="round" stroke-width="2"/><path d="m355.7 291.7v9.4l2.1 6.9" fill="none" stroke="#3aaa35" stroke-linecap="round" stroke-linejoin="round" stroke-width="2"/><path d="m349.7 293.7-2.8 9.7-8.5 4.6-3.9 4.5" fill="none" stroke="#3aaa35" stroke-linecap="round" stroke-linejoin="round" stroke-width="2"/><path d="m364.6 271.4 3.8-4.6" fill="none" stroke="#3aaa35" stroke-linecap="round" stroke-linejoin="round" stroke-width="2"/><path d="m366.5 274 5.9-1.4" fill="none" stroke="#3aaa35" stroke-linecap="round" stroke-linejoin="round" stroke-width="2"/><path d="m196.6 340.7 17 22.1" fill="none" stroke="#3aaa35" stroke-linecap="round" stroke-linejoin="round" stroke-width="2"/><path d="m235.6 356.5c-4.2-.5-4.4-3.5-3.8-7.7.5-4.2 1.6-8.2 5.8-7.6 4.2.5 7.2 4.4 6.7 8.6-.6 4.2-4.5 7.2-8.7 6.7z" fill="#3aaa35" stroke="#3aaa35" stroke-linecap="round" stroke-linejoin="round"/><path d="m225.9 332.1c7.5 1.1 14.5-4.1 15.6-11.5l.6-4c.6-4-2.2-7.7-6.1-8.3-4-.6-7.7 2.2-8.3 6.1l-2.5 16.8c-.1.4.2.8.7.9z" fill="none" stroke="#3aaa35" stroke-linecap="round" stroke-linejoin="round" stroke-width="2"/><path d="m226.1 332.3c5.6-5.1 6.1-13.7 1-19.4l-2.7-3c-2.7-3-7.3-3.2-10.3-.5-3 2.7-3.2 7.3-.5 10.3l11.3 12.6c.3.3.8.3 1.2-0z" fill="none" stroke="#3aaa35" stroke-linecap="round" stroke-linejoin="round" stroke-width="2"/><circle cx="222.7" cy="344.3" fill="none" r="11.6" stroke="#3aaa35" stroke-linecap="round" stroke-linejoin="round" stroke-width="2"/><path d="m198.8 338.8c-1.9 1.5-3.6 3.2-5 5-10 12.8 6.5 29.3 19.4 19.4l5.8-4.5c12.2-9.4 1.9-29.4-12.6-24.1-2.7 1-5.3 2.3-7.6 4.2z" fill="#fff" stroke="#3aaa35" stroke-linecap="round" stroke-linejoin="round" stroke-width="2"/><path d="m198.8 338.8c-.7.6-1.4 1.2-2.1 1.8l17.1 22 5.1-4c1.4-1.1 2.5-2.4 3.4-3.7-5.5-7-11.5-13.6-18.1-19.5-1.9.9-3.7 2-5.4 3.4z" fill="#3aaa35" stroke="#3aaa35" stroke-linecap="round" stroke-linejoin="round"/><path d="m232.1 352.5 1.4 9.1 4.7 4.3" fill="none" stroke="#3aaa35" stroke-linecap="round" stroke-linejoin="round" stroke-width="2"/><path d="m228 354.7-1.2 9.3 1.2 7.1" fill="none" stroke="#3aaa35" stroke-linecap="round" stroke-linejoin="round" stroke-width="2"/><path d="m221.8 355.6-2 9.9-8 5.3-3.6 4.8" fill="none" stroke="#3aaa35" stroke-linecap="round" stroke-linejoin="round" stroke-width="2"/><path d="m244.1 349.7 6 .3" fill="none" stroke="#3aaa35" stroke-linecap="round" stroke-linejoin="round" stroke-width="2"/><path d="m243.2 352.8 4.7 3.9" fill="none" stroke="#3aaa35" stroke-linecap="round" stroke-linejoin="round" stroke-width="2"/><path d="m359 344.5h-2.4c0-4.9-3.9-8.8-8.8-8.8v-2.4c4.9 0 8.8-3.9 8.8-8.8h2.4c0 4.9 3.9 8.8 8.8 8.8v2.4c-4.9 0-8.8 4-8.8 8.8z" fill="#fff" stroke="#3aaa35" stroke-linecap="round" stroke-linejoin="round" stroke-width="2"/><path d="m334.3 233.6h-1.5c0-3-2.5-5.5-5.5-5.5v-1.5c3 0 5.5-2.5 5.5-5.5h1.5c0 3 2.5 5.5 5.5 5.5v1.5c-3 .1-5.5 2.5-5.5 5.5z" fill="#fff" stroke="#3aaa35" stroke-linecap="round" stroke-linejoin="round" stroke-width="2"/><path d="m363.3 237.6h6v6h-6z" fill="#fff" stroke="#3aaa35" stroke-linecap="round" stroke-linejoin="round" stroke-width="2" transform="matrix(-.7071 .7071 -.7071 -.7071 795.5204 151.7687)"/><path d="m305.4 309.6h5.8v5.8h-5.8z" fill="#fff" stroke="#3aaa35" stroke-linecap="round" stroke-linejoin="round" stroke-width="2" transform="matrix(-.7071 .7071 -.7071 -.7071 747.3341 315.4855)"/><ellipse cx="90.6" cy="425.8" fill="#fff" rx="19" ry="4" stroke="#3aaa35" stroke-linecap="round" stroke-linejoin="round" stroke-width="2"/><circle cx="60.9" cy="420.2" fill="#3aaa35" r="9" stroke="#3aaa35" stroke-linecap="round" stroke-linejoin="round"/><circle cx="70.4" cy="415.6" fill="#fff" r="13.6" stroke="#3aaa35" stroke-linecap="round" stroke-linejoin="round" stroke-width="2"/><path d="m96.2 397.8c6.8 6.8 3.6 20.1-3.2 26.9s-17.9 6.8-24.7-.1c-6.8-6.8-6.8-17.9.1-24.7 6.7-6.7 21-8.9 27.8-2.1z" fill="#3aaa35" stroke="#3aaa35" stroke-linecap="round" stroke-linejoin="round"/><path d="m96.1 397.8c5.9 5.9 4 16.4-1.1 21.5s-14.1 4.5-19.9-1.5c-5.9-5.9-6.5-14.8-1.4-19.9 5.2-5.1 16.5-6 22.4-.1z" fill="#fff" stroke="#3aaa35" stroke-linecap="round" stroke-linejoin="round" stroke-width="2"/><path d="m65.9 403.3 1-11.2 7-3.7 2.2-7.4" fill="none" stroke="#3aaa35" stroke-linecap="round" stroke-linejoin="round" stroke-width="2"/><path d="m57.4 411.7-2.9-5.7-4.2-.6" fill="none" stroke="#3aaa35" stroke-linecap="round" stroke-linejoin="round" stroke-width="2"/><path d="m59.2 407.9-1.8-8-7.6-6.5" fill="none" stroke="#3aaa35" stroke-linecap="round" stroke-linejoin="round" stroke-width="2"/><path d="m52.1 422.4-6.1-1.2" fill="none" stroke="#3aaa35" stroke-linecap="round" stroke-linejoin="round" stroke-width="2"/><path d="m55.2 427.2-4.9 1.1" fill="none" stroke="#3aaa35" stroke-linecap="round" stroke-linejoin="round" stroke-width="2"/><path d="m100 408.5 4.5-3.7 2.8-6.8" fill="none" stroke="#3aaa35" stroke-linecap="round" stroke-linejoin="round" stroke-width="2"/><path d="m91.8 325.9s3.7 8.7 0 14.8 1.7 14.5 1.7 14.5" fill="none" stroke="#3aaa35" stroke-linecap="round" stroke-linejoin="round" stroke-width="2"/><path d="m77.4 335.9s3.7 8.7 0 14.8 1.7 14.5 1.7 14.5" fill="none" stroke="#3aaa35" stroke-linecap="round" stroke-linejoin="round" stroke-width="2"/><path d="m63.1 346s3.7 8.7 0 14.8 1.7 14.5 1.7 14.5" fill="none" stroke="#3aaa35" stroke-linecap="round" stroke-linejoin="round" stroke-width="2"/><ellipse cx="69" cy="427.8" fill="#fff" rx="13.8" ry="3.6" stroke="#3aaa35" stroke-linecap="round" stroke-linejoin="round" stroke-width="2"/><path d="m398.7 287.8h-7.1" fill="none" stroke="#3aaa35" stroke-linecap="round" stroke-linejoin="round" stroke-width="2"/><path d="m398.7 340.3h-7.1" fill="none" stroke="#3aaa35" stroke-linecap="round" stroke-linejoin="round" stroke-width="2"/><path d="m146.6 287.8h-7" fill="none" stroke="#3aaa35" stroke-linecap="round" stroke-linejoin="round" stroke-width="2"/><path d="m146.6 340.3h-7" fill="none" stroke="#3aaa35" stroke-linecap="round" stroke-linejoin="round" stroke-width="2"/><path d="m269.7 287.8h-7.1" fill="none" stroke="#3aaa35" stroke-linecap="round" stroke-linejoin="round" stroke-width="2"/><path d="m269.7 340.3h-7.1" fill="none" stroke="#3aaa35" stroke-linecap="round" stroke-linejoin="round" stroke-width="2"/><path d="m236.6 333.7 1.3 3.4 5.3 1" fill="none" stroke="#3aaa35" stroke-linecap="round" stroke-linejoin="round" stroke-width="2"/><path d="m215.6 329-6.1-1.1-12.8 4.3" fill="none" stroke="#3aaa35" stroke-linecap="round" stroke-linejoin="round" stroke-width="2"/><path d="m187.5 335.5-3.3 7.1-.5 8.1" fill="none" stroke="#3aaa35" stroke-linecap="round" stroke-linejoin="round" stroke-width="2"/><path d="m187.5 365.9 2.3 5.2 5.1 1.2" fill="none" stroke="#3aaa35" stroke-linecap="round" stroke-linejoin="round" stroke-width="2"/><path d="m181.2 359.2.7 6.9 1.8 3.8" fill="none" stroke="#3aaa35" stroke-linecap="round" stroke-linejoin="round" stroke-width="2"/><path d="m222.7 299.2 4.1 3.5 5.3-3.5" fill="none" stroke="#3aaa35" stroke-linecap="round" stroke-linejoin="round" stroke-width="2"/><path d="m235.1 304h8.1l2.4 4.4" fill="none" stroke="#3aaa35" stroke-linecap="round" stroke-linejoin="round" stroke-width="2"/><circle cx="237.9" cy="70.6" fill="#fff" r="7.8" stroke="#3aaa35" stroke-linecap="round" stroke-linejoin="round" stroke-width="2"/><circle cx="237.9" cy="157.8" fill="#fff" r="20.1" stroke="#3aaa35" stroke-linecap="round" stroke-linejoin="round" stroke-width="2"/><path d="m276.8 148.3-4-38.6c-1.9-17.9-16.9-31.4-34.9-31.4-18 0-33 13.6-34.8 31.4l-4 38.6c-4.1.3-7.4 3.7-7.4 7.9 0 4.4 3.6 7.9 7.9 7.9h76.6c4.4 0 7.9-3.6 7.9-7.9 0-4.2-3.2-7.6-7.3-7.9z" fill="#fff" stroke="#3aaa35" stroke-linecap="round" stroke-linejoin="round" stroke-width="2"/><path d="m276.8 148.3-10 .1" fill="#fff" stroke="#3aaa35" stroke-linecap="round" stroke-linejoin="round" stroke-width="2"/><path d="m237.8 130.5h-7.5c-8.6 0-15.6-7-15.6-15.6h7.5c8.6 0 15.6 7 15.6 15.6z" fill="none" stroke="#3aaa35" stroke-linecap="round" stroke-linejoin="round" stroke-width="2"/><path d="m256.6 98.3-15.6 12.8v19.4l15.6-12.8z" fill="none" stroke="#3aaa35" stroke-linecap="round" stroke-linejoin="round" stroke-width="2"/><path d="m237.8 148.4v-17.9l-14.2-9.8" fill="none" stroke="#3aaa35" stroke-linecap="round" stroke-linejoin="round" stroke-width="2"/><path d="m241 130.5v17.9" fill="none" stroke="#3aaa35" stroke-linecap="round" stroke-linejoin="round" stroke-width="2"/><path d="m226.3 148.4h25.5" fill="none" stroke="#3aaa35" stroke-linecap="round" stroke-linejoin="round" stroke-width="2"/><path d="m249.7 113.1-8.4 6.8" fill="none" stroke="#3aaa35" stroke-linecap="round" stroke-linejoin="round" stroke-width="2"/><circle cx="251.3" cy="111.6" fill="none" r="1.9" stroke="#3aaa35" stroke-linecap="round" stroke-linejoin="round" stroke-width="2"/><path d="m230.4 121.3-4.7 4.7" fill="none" stroke="#3aaa35" stroke-linecap="round" stroke-linejoin="round" stroke-width="2"/><path d="m193 53.5c13.3-8.5 29.1-13.3 46-13.3 47.4 0 85.9 38.5 85.9 85.9 0 24.5-10.3 46.7-26.8 62.3" fill="none" stroke="#3aaa35" stroke-linecap="round" stroke-linejoin="round" stroke-width="2"/><path d="m256.6 210.1c-5.7 1.2-11.5 1.8-17.5 1.8-43.5 0-79.4-32.3-85.1-74.2" fill="none" stroke="#3aaa35" stroke-linecap="round" stroke-linejoin="round" stroke-width="2"/><path d="m135.3 113.8c-3.1 0-5.6-2.5-5.6-5.6v-45.3c0-3.1 2.5-5.6 5.6-5.6 3.1 0 5.6 2.5 5.6 5.6v45.3c0 3.1-2.5 5.6-5.6 5.6z" fill="none" stroke="#063" stroke-linecap="round" stroke-linejoin="round" stroke-width="2"/><circle cx="135.3" cy="126.9" fill="none" r="4.8" stroke="#063" stroke-linecap="round" stroke-linejoin="round" stroke-width="2"/><path d="m156.9 98.9c-3.1 0-5.6-2.5-5.6-5.6v-45.3c0-3.1 2.5-5.6 5.6-5.6 3.1 0 5.6 2.5 5.6 5.6v45.3c-.1 3.1-2.5 5.6-5.6 5.6z" fill="none" stroke="#063" stroke-linecap="round" stroke-linejoin="round" stroke-width="2"/><circle cx="156.9" cy="112.1" fill="none" r="4.8" stroke="#063" stroke-linecap="round" stroke-linejoin="round" stroke-width="2"/><path d="m178.5 84.1c-3.1 0-5.6-2.5-5.6-5.6v-45.4c0-3.1 2.5-5.6 5.6-5.6 3.1 0 5.6 2.5 5.6 5.6v45.3c-.1 3.2-2.6 5.7-5.6 5.7z" fill="none" stroke="#063" stroke-linecap="round" stroke-linejoin="round" stroke-width="2"/><circle cx="178.5" cy="97.2" fill="none" r="4.8" stroke="#063" stroke-linecap="round" stroke-linejoin="round" stroke-width="2"/></g></svg>