<?xml version="1.0" encoding="utf-8"?>
<!-- Generator: Adobe Illustrator 23.1.0, SVG Export Plug-In . SVG Version: 6.00 Build 0)  -->
<svg version="1.1" xmlns="http://www.w3.org/2000/svg" xmlns:xlink="http://www.w3.org/1999/xlink" x="0px" y="0px"
	 viewBox="0 0 480 480" style="enable-background:new 0 0 480 480;" xml:space="preserve">
<style type="text/css">
	.st0{fill:#006633;}
	.st1{fill:none;stroke:#3AAA35;stroke-width:2;stroke-miterlimit:10;}
	.st2{fill:none;stroke:#3AAA35;stroke-width:2;stroke-linecap:round;stroke-linejoin:round;stroke-miterlimit:10;}
	.st3{fill:#3AAA35;stroke:#3AAA35;stroke-linecap:round;stroke-linejoin:round;stroke-miterlimit:10;}
	.st4{fill:#FFFFFF;stroke:#3AAA35;stroke-width:2;stroke-linecap:round;stroke-linejoin:round;stroke-miterlimit:10;}
	.st5{fill:none;stroke:#3AAA35;stroke-linecap:round;stroke-linejoin:round;stroke-miterlimit:10;}
	.st6{fill:none;stroke:#006633;stroke-width:2;stroke-linecap:round;stroke-linejoin:round;stroke-miterlimit:10;}
	.st7{display:none;}
	.st8{display:inline;}
	.st9{fill:none;stroke:#006633;stroke-width:4;stroke-linecap:round;stroke-linejoin:round;stroke-miterlimit:10;}
	.st10{fill:#006633;stroke:#006633;stroke-width:2;stroke-linecap:round;stroke-linejoin:round;stroke-miterlimit:10;}
	.st11{fill:#FFFFFF;stroke:#006633;stroke-width:2;stroke-linecap:round;stroke-linejoin:round;stroke-miterlimit:10;}
	.st12{fill:#3AAA35;stroke:#006633;stroke-width:2;stroke-linecap:round;stroke-linejoin:round;stroke-miterlimit:10;}
	
		.st13{display:inline;fill:#FFFFFF;stroke:#3AAA35;stroke-width:2;stroke-linecap:round;stroke-linejoin:round;stroke-miterlimit:10;}
	.st14{fill:none;stroke:#006633;stroke-width:6;stroke-linecap:round;stroke-linejoin:round;stroke-miterlimit:10;}
	.st15{fill:none;stroke:#006633;stroke-width:3;stroke-linecap:round;stroke-linejoin:round;stroke-miterlimit:10;}
	.st16{display:inline;fill:none;stroke:#006633;stroke-width:2;stroke-linecap:round;stroke-linejoin:round;stroke-miterlimit:10;}
	.st17{display:inline;fill:none;stroke:#3AAA35;stroke-width:2;stroke-linecap:round;stroke-linejoin:round;stroke-miterlimit:10;}
	.st18{fill:none;stroke:#3AAA35;stroke-width:2;stroke-linecap:round;stroke-linejoin:round;}
	.st19{fill:none;stroke:#3AAA35;stroke-width:2;stroke-linecap:round;stroke-linejoin:round;stroke-dasharray:11.222,11.222;}
	
		.st20{display:inline;fill:none;stroke:#3AAA35;stroke-width:2;stroke-linecap:round;stroke-linejoin:round;stroke-miterlimit:10;stroke-dasharray:12;}
	
		.st21{display:inline;fill:none;stroke:#3AAA35;stroke-width:2;stroke-linecap:round;stroke-linejoin:round;stroke-miterlimit:10;stroke-dasharray:4,6;}
	.st22{fill:#3AAA35;}
	
		.st23{display:inline;fill:#FFFFFF;stroke:#006633;stroke-width:2;stroke-linecap:round;stroke-linejoin:round;stroke-miterlimit:10;}
	
		.st24{display:inline;fill:#006633;stroke:#006633;stroke-width:2;stroke-linecap:round;stroke-linejoin:round;stroke-miterlimit:10;}
	
		.st25{display:inline;fill:#3AAA35;stroke:#006633;stroke-width:2;stroke-linecap:round;stroke-linejoin:round;stroke-miterlimit:10;}
	.st26{fill:#FFFFFF;}
	.st27{fill:none;stroke:#3AAA35;stroke-width:2;stroke-linecap:round;stroke-linejoin:round;stroke-dasharray:12.7796,12.7796;}
	.st28{fill:none;stroke:#3AAA35;stroke-width:2;stroke-linecap:round;stroke-linejoin:round;stroke-dasharray:11.2246,11.2246;}
	.st29{fill:none;stroke:#3AAA35;stroke-width:2;stroke-linecap:round;stroke-linejoin:round;stroke-dasharray:10.3768,10.3768;}
	.st30{fill:none;stroke:#3AAA35;stroke-width:2;stroke-linecap:round;stroke-linejoin:round;stroke-dasharray:11.2094,11.2094;}
</style>
<g id="Слой_2">
	<circle class="st0" cx="154.3" cy="413.5" r="7.7"/>
	<g>
		<path class="st0" d="M154.3,225.4L154.3,225.4c1.4,0,2.6,1.1,2.6,2.5v183c0,1.4-1.1,2.5-2.6,2.5l0,0c-1.4,0-2.6-1.1-2.6-2.5V228
			C151.8,226.6,152.9,225.4,154.3,225.4z"/>
		<path class="st1" d="M162,402.3V204.8c0-4.2-3.4-7.6-7.6-7.6h-0.1c-4.2,0-7.6,3.4-7.6,7.6v197.5c-3.6,2.4-5.9,6.6-5.9,11.2
			c0,7.5,6.1,13.6,13.6,13.6s13.6-6.1,13.6-13.6C167.9,408.8,165.6,404.7,162,402.3z"/>
	</g>
	<g>
		<circle class="st0" cx="277.3" cy="413.5" r="7.7"/>
		<path class="st0" d="M277.3,368.8L277.3,368.8c1.4,0,2.6,1.1,2.6,2.5V411c0,1.4-1.1,2.5-2.5,2.5h0c-1.4,0-2.5-1.1-2.5-2.5v-39.6
			C274.8,369.9,275.9,368.8,277.3,368.8z"/>
		<path class="st1" d="M285,402.3V204.8c0-4.2-3.4-7.6-7.6-7.6h-0.1c-4.2,0-7.6,3.4-7.6,7.6v197.5c-3.6,2.4-5.9,6.6-5.9,11.2
			c0,7.5,6.1,13.6,13.6,13.6c7.5,0,13.6-6.1,13.6-13.6C290.9,408.8,288.6,404.7,285,402.3z"/>
	</g>
	<g>
		<circle class="st0" cx="406.3" cy="413.5" r="7.7"/>
		<path class="st0" d="M406.3,303L406.3,303c1.4,0,2.6,1.1,2.6,2.6V411c0,1.4-1.1,2.5-2.5,2.5h0c-1.4,0-2.5-1.1-2.5-2.5V305.6
			C403.8,304.2,404.9,303,406.3,303z"/>
		<path class="st1" d="M414,402.3V204.8c0-4.2-3.4-7.6-7.6-7.6h-0.1c-4.2,0-7.6,3.4-7.6,7.6v197.5c-3.6,2.4-5.9,6.6-5.9,11.2
			c0,7.5,6.1,13.6,13.6,13.6c7.5,0,13.6-6.1,13.6-13.6C419.9,408.8,417.6,404.7,414,402.3z"/>
	</g>
	<g>
		<line class="st2" x1="322.4" y1="279.1" x2="342.1" y2="298.9"/>
		<path class="st3" d="M364.7,282.3c-3,3-5.4,1.3-8.4-1.7c-3-3-5.5-6.2-2.5-9.2c3-3,7.9-3,10.9,0
			C367.7,274.4,367.7,279.3,364.7,282.3z"/>
		<path class="st2" d="M349.8,270L349.8,270c5.4-5.4,5.4-14,0-19.4l-2.9-2.9c-2.8-2.8-7.4-2.8-10.3,0v0c-2.8,2.8-2.8,7.4,0,10.3
			l12,12C348.9,270.4,349.4,270.4,349.8,270z"/>
		<path class="st2" d="M349.7,269.4L349.7,269.4c0-7.6-6.1-13.7-13.7-13.7h-4.1c-4,0-7.3,3.3-7.3,7.3l0,0c0,4,3.3,7.3,7.3,7.3h16.9
			C349.3,270.3,349.7,269.9,349.7,269.4z"/>
		<circle class="st2" cx="348.2" cy="282.5" r="11.6"/>
		<path class="st4" d="M324.4,276.9c-1.7,1.7-3.1,3.6-4.3,5.6c-8.3,13.9,10.2,28.2,21.7,16.8l5.2-5.2c10.9-10.9-1.9-29.4-15.6-22.3
			C328.8,273.1,326.5,274.8,324.4,276.9z"/>
		<path class="st3" d="M324.4,276.9c-0.7,0.7-1.2,1.4-1.8,2.1l19.7,19.7l4.6-4.6c1.3-1.3,2.2-2.7,2.9-4.1c-6.3-6.2-13.1-12-20.4-17
			C327.6,274.1,325.9,275.4,324.4,276.9z"/>
		<polyline class="st2" points="359.2,286.4 361.7,295.3 366.9,298.9 		"/>
		<polyline class="st2" points="355.7,291.7 355.7,301.1 357.8,308 		"/>
		<polyline class="st2" points="349.7,293.7 346.9,303.4 338.4,308 334.5,312.5 		"/>
		<line class="st2" x1="364.6" y1="271.4" x2="368.4" y2="266.8"/>
		<path class="st5" d="M366.2,280.2"/>
		<line class="st2" x1="366.5" y1="274" x2="372.4" y2="272.6"/>
	</g>
	<g>
		<line class="st2" x1="196.6" y1="340.7" x2="213.6" y2="362.8"/>
		<path class="st3" d="M235.6,356.5c-4.2-0.5-4.4-3.5-3.8-7.7c0.5-4.2,1.6-8.2,5.8-7.6c4.2,0.5,7.2,4.4,6.7,8.6
			C243.7,354,239.8,357,235.6,356.5z"/>
		<path class="st2" d="M225.9,332.1L225.9,332.1c7.5,1.1,14.5-4.1,15.6-11.5l0.6-4c0.6-4-2.2-7.7-6.1-8.3h0c-4-0.6-7.7,2.2-8.3,6.1
			l-2.5,16.8C225.1,331.6,225.4,332,225.9,332.1z"/>
		<path class="st2" d="M226.1,332.3L226.1,332.3c5.6-5.1,6.1-13.7,1-19.4l-2.7-3c-2.7-3-7.3-3.2-10.3-0.5l0,0
			c-3,2.7-3.2,7.3-0.5,10.3l11.3,12.6C225.2,332.6,225.7,332.6,226.1,332.3z"/>
		<circle class="st2" cx="222.7" cy="344.3" r="11.6"/>
		<path class="st4" d="M198.8,338.8c-1.9,1.5-3.6,3.2-5,5c-10,12.8,6.5,29.3,19.4,19.4l5.8-4.5c12.2-9.4,1.9-29.4-12.6-24.1
			C203.7,335.6,201.1,336.9,198.8,338.8z"/>
		<path class="st3" d="M198.8,338.8c-0.7,0.6-1.4,1.2-2.1,1.8l17.1,22l5.1-4c1.4-1.1,2.5-2.4,3.4-3.7c-5.5-7-11.5-13.6-18.1-19.5
			C202.3,336.3,200.5,337.4,198.8,338.8z"/>
		<polyline class="st2" points="232.1,352.5 233.5,361.6 238.2,365.9 		"/>
		<polyline class="st2" points="228,354.7 226.8,364 228,371.1 		"/>
		<polyline class="st2" points="221.8,355.6 219.8,365.5 211.8,370.8 208.2,375.6 		"/>
		<line class="st2" x1="244.1" y1="349.7" x2="250.1" y2="350"/>
		<path class="st5" d="M238.1,356.4"/>
		<line class="st2" x1="243.2" y1="352.8" x2="247.9" y2="356.7"/>
	</g>
	<path class="st4" d="M359,344.5h-2.4c0-4.9-3.9-8.8-8.8-8.8v-2.4c4.9,0,8.8-3.9,8.8-8.8h2.4c0,4.9,3.9,8.8,8.8,8.8v2.4
		C362.9,335.7,359,339.7,359,344.5z"/>
	<path class="st4" d="M334.3,233.6h-1.5c0-3-2.5-5.5-5.5-5.5v-1.5c3,0,5.5-2.5,5.5-5.5h1.5c0,3,2.5,5.5,5.5,5.5v1.5
		C336.8,228.2,334.3,230.6,334.3,233.6z"/>
	
		<rect x="363.3" y="237.6" transform="matrix(-0.7071 0.7071 -0.7071 -0.7071 795.5204 151.7687)" class="st4" width="6" height="6"/>
	
		<rect x="305.4" y="309.6" transform="matrix(-0.7071 0.7071 -0.7071 -0.7071 747.3341 315.4855)" class="st4" width="5.8" height="5.8"/>
	<ellipse class="st4" cx="90.6" cy="425.8" rx="19" ry="4"/>
	<g>
		<circle class="st3" cx="60.9" cy="420.2" r="9"/>
		<circle class="st4" cx="70.4" cy="415.6" r="13.6"/>
		<path class="st3" d="M96.2,397.8c6.8,6.8,3.6,20.1-3.2,26.9c-6.8,6.8-17.9,6.8-24.7-0.1c-6.8-6.8-6.8-17.9,0.1-24.7
			C75.1,393.2,89.4,391,96.2,397.8z"/>
		<path class="st4" d="M96.1,397.8c5.9,5.9,4,16.4-1.1,21.5c-5.1,5.1-14.1,4.5-19.9-1.5c-5.9-5.9-6.5-14.8-1.4-19.9
			C78.9,392.8,90.2,391.9,96.1,397.8z"/>
		<polyline class="st2" points="65.9,403.3 66.9,392.1 73.9,388.4 76.1,381 		"/>
		<polyline class="st2" points="57.4,411.7 54.5,406 50.3,405.4 		"/>
		<polyline class="st2" points="59.2,407.9 57.4,399.9 49.8,393.4 		"/>
		<line class="st2" x1="52.1" y1="422.4" x2="46" y2="421.2"/>
		<line class="st2" x1="55.2" y1="427.2" x2="50.3" y2="428.3"/>
		<polyline class="st2" points="100,408.5 104.5,404.8 107.3,398 		"/>
	</g>
	<path class="st2" d="M91.8,325.9c0,0,3.7,8.7,0,14.8c-3.7,6.1,1.7,14.5,1.7,14.5"/>
	<path class="st2" d="M77.4,335.9c0,0,3.7,8.7,0,14.8c-3.7,6.1,1.7,14.5,1.7,14.5"/>
	<path class="st2" d="M63.1,346c0,0,3.7,8.7,0,14.8c-3.7,6.1,1.7,14.5,1.7,14.5"/>
	<ellipse class="st4" cx="69" cy="427.8" rx="13.8" ry="3.6"/>
	<line class="st2" x1="398.7" y1="287.8" x2="391.6" y2="287.8"/>
	<line class="st2" x1="398.7" y1="340.3" x2="391.6" y2="340.3"/>
	<line class="st2" x1="146.6" y1="287.8" x2="139.6" y2="287.8"/>
	<line class="st2" x1="146.6" y1="340.3" x2="139.6" y2="340.3"/>
	<line class="st2" x1="269.7" y1="287.8" x2="262.6" y2="287.8"/>
	<line class="st2" x1="269.7" y1="340.3" x2="262.6" y2="340.3"/>
	<polyline class="st2" points="236.6,333.7 237.9,337.1 243.2,338.1 	"/>
	<polyline class="st2" points="215.6,329 209.5,327.9 196.7,332.2 	"/>
	<polyline class="st2" points="187.5,335.5 184.2,342.6 183.7,350.7 	"/>
	<polyline class="st2" points="187.5,365.9 189.8,371.1 194.9,372.3 	"/>
	<polyline class="st2" points="181.2,359.2 181.9,366.1 183.7,369.9 	"/>
	<polyline class="st2" points="222.7,299.2 226.8,302.7 232.1,299.2 	"/>
	<polyline class="st2" points="235.1,304 243.2,304 245.6,308.4 	"/>
	<g>
		<circle class="st4" cx="237.9" cy="70.6" r="7.8"/>
		<circle class="st4" cx="237.9" cy="157.8" r="20.1"/>
		<path class="st4" d="M276.8,148.3l-4-38.6c-1.9-17.9-16.9-31.4-34.9-31.4h0c-18,0-33,13.6-34.8,31.4l-4,38.6
			c-4.1,0.3-7.4,3.7-7.4,7.9c0,4.4,3.6,7.9,7.9,7.9l76.6,0c4.4,0,7.9-3.6,7.9-7.9C284.1,152,280.9,148.6,276.8,148.3z"/>
		<line class="st4" x1="276.8" y1="148.3" x2="266.8" y2="148.4"/>
	</g>
	<g>
		<path class="st2" d="M237.8,130.5h-7.5c-8.6,0-15.6-7-15.6-15.6v0h7.5C230.8,114.9,237.8,121.9,237.8,130.5L237.8,130.5z"/>
		<polygon class="st2" points="256.6,98.3 241,111.1 241,130.5 256.6,117.7 		"/>
		<polyline class="st2" points="237.8,148.4 237.8,130.5 223.6,120.7 		"/>
		<line class="st2" x1="241" y1="130.5" x2="241" y2="148.4"/>
		<line class="st2" x1="226.3" y1="148.4" x2="251.8" y2="148.4"/>
		<line class="st2" x1="249.7" y1="113.1" x2="241.3" y2="119.9"/>
		<circle class="st2" cx="251.3" cy="111.6" r="1.9"/>
		<line class="st2" x1="230.4" y1="121.3" x2="225.7" y2="126"/>
	</g>
	<path class="st2" d="M193,53.5c13.3-8.5,29.1-13.3,46-13.3c47.4,0,85.9,38.5,85.9,85.9c0,24.5-10.3,46.7-26.8,62.3"/>
	<path class="st2" d="M256.6,210.1c-5.7,1.2-11.5,1.8-17.5,1.8c-43.5,0-79.4-32.3-85.1-74.2"/>
	<g>
		<path class="st6" d="M135.3,113.8L135.3,113.8c-3.1,0-5.6-2.5-5.6-5.6V62.9c0-3.1,2.5-5.6,5.6-5.6l0,0c3.1,0,5.6,2.5,5.6,5.6v45.3
			C140.9,111.3,138.4,113.8,135.3,113.8z"/>
		<circle class="st6" cx="135.3" cy="126.9" r="4.8"/>
	</g>
	<g>
		<path class="st6" d="M156.9,98.9L156.9,98.9c-3.1,0-5.6-2.5-5.6-5.6V48c0-3.1,2.5-5.6,5.6-5.6l0,0c3.1,0,5.6,2.5,5.6,5.6v45.3
			C162.4,96.4,160,98.9,156.9,98.9z"/>
		<circle class="st6" cx="156.9" cy="112.1" r="4.8"/>
	</g>
	<g>
		<path class="st6" d="M178.5,84.1L178.5,84.1c-3.1,0-5.6-2.5-5.6-5.6V33.1c0-3.1,2.5-5.6,5.6-5.6l0,0c3.1,0,5.6,2.5,5.6,5.6v45.3
			C184,81.6,181.5,84.1,178.5,84.1z"/>
		<circle class="st6" cx="178.5" cy="97.2" r="4.8"/>
	</g>
</g>
<g id="Слой_8" class="st7">
	<g class="st8">
		
			<ellipse transform="matrix(0.7264 -0.6873 0.6873 0.7264 -98.3709 334.6752)" class="st2" cx="371.2" cy="290.9" rx="15.9" ry="12.2"/>
		<path class="st4" d="M319.4,282.2c-0.1-4.9,1.7-9.3,5.4-11.7c6.5-4.2,16.2-0.7,21.7,7.8s4.7,18.7-1.8,22.9
			c-1.1,0.7-2.2,1.2-3.4,1.5"/>
		
			<ellipse transform="matrix(0.5434 -0.8395 0.8395 0.5434 -73.423 436.7154)" class="st4" cx="364.7" cy="285.9" rx="18.3" ry="14"/>
		<path class="st4" d="M362.8,284.8c0,12.9-6.3,18.2-14.1,18.2c-7.8,0-14.1-5.3-14.1-18.2s6.3-23.4,14.1-23.4
			C356.5,261.4,362.8,271.9,362.8,284.8z"/>
		<path class="st4" d="M397,440.9l-40.4-15.1c-3.3-1.2-5.5-4.4-5.5-8v-15.3c0-7.7-1.4-30.4,14-30.6h0c29.4,0,46.7-9.2,46.7-38.6v0
			h-15.2c-25.5,0-40.3,19.9-45.4,43.9v-69.6c0.7,2.1,2.9,3.5,5.3,3.3c2.5-0.3,4.4-2.6,4.4-5.1V301h-5c-0.7,0-1.4,0.2-2,0.4
			c-0.1-1.2-0.5-2.4-1.4-3.3l-3.5-3.5l-3.5,3.5c-0.9,0.9-1.4,2.1-1.4,3.3c-0.6-0.3-1.4-0.5-2.1-0.5h-2.9"/>
	</g>
	<g class="st8">
		
			<ellipse transform="matrix(0.6873 -0.7264 0.7264 0.6873 -112.0095 253.1256)" class="st2" cx="238" cy="256.6" rx="15.2" ry="20"/>
		
			<ellipse transform="matrix(0.7264 -0.6873 0.6873 0.7264 -96.6119 270.6068)" class="st2" cx="291.6" cy="256.6" rx="20" ry="15.2"/>
		
			<ellipse transform="matrix(0.8395 -0.5434 0.5434 0.8395 -96.5437 173.867)" class="st4" cx="246" cy="250.3" rx="17.5" ry="22.9"/>
		
			<ellipse transform="matrix(0.5434 -0.8395 0.8395 0.5434 -80.6899 352.3267)" class="st4" cx="283.5" cy="250.3" rx="22.9" ry="17.5"/>
		<path class="st4" d="M281.1,249c0,16.2-7.9,22.8-17.7,22.8s-17.7-6.6-17.7-22.8s7.9-29.3,17.7-29.3S281.1,232.8,281.1,249z"/>
		<path class="st4" d="M266.3,293.4v-15.8c0.9,2.6,3.6,4.4,6.6,4.1c3.2-0.4,5.5-3.2,5.5-6.4v-6h-6.2c-0.9,0-1.8,0.2-2.5,0.5
			c-0.1-1.5-0.7-3-1.8-4.1l-4.4-4.4l-4.4,4.4c-1.2,1.2-1.8,2.7-1.8,4.2c-0.8-0.4-1.7-0.6-2.6-0.6h-6.2v4.7"/>
		<path class="st2" d="M323.9,444.5l-50.6-18.9c-4.2-1.6-6.9-5.5-6.9-10v-19.1c0-9.7-1.8-38,17.5-38.3h0c36.9,0,53.8-11.1,53.8-47.9
			v0l-14.4-0.4c-32,0-50.4,24.9-56.9,54.9v-71.4"/>
	</g>
	<g class="st8">
		
			<ellipse transform="matrix(0.6873 -0.7264 0.7264 0.6873 -120.9803 157.614)" class="st2" cx="122.6" cy="219.3" rx="18.6" ry="24.4"/>
		
			<ellipse transform="matrix(0.7264 -0.6873 0.6873 0.7264 -99.2636 189.2713)" class="st2" cx="188.1" cy="219.3" rx="24.4" ry="18.6"/>
		
			<ellipse transform="matrix(0.8395 -0.5434 0.5434 0.8395 -93.7311 105.9058)" class="st4" cx="132.4" cy="211.6" rx="21.4" ry="28"/>
		
			<ellipse transform="matrix(0.5434 -0.8395 0.8395 0.5434 -96.2347 246.2649)" class="st4" cx="178.3" cy="211.6" rx="28" ry="21.4"/>
		<path class="st4" d="M175.3,210c0,19.8-9.7,27.8-21.6,27.8c-11.9,0-21.6-8-21.6-27.8s9.7-35.8,21.6-35.8
			C165.6,174.1,175.3,190.2,175.3,210z"/>
		<path class="st4" d="M227.6,448.9l-61.9-23.1c-5.1-1.9-8.5-6.8-8.5-12.2v-23.4c0-11.8-2.2-46.5,21.4-46.8h0
			c45.1,0,71.4-14,71.4-59.1v0h-23.2c-39.1,0-61.6,30.4-69.6,67.1V245c1.1,3.2,4.4,5.4,8.1,5c3.9-0.4,6.7-3.9,6.7-7.8l0-7.3h-7.6
			c-1.1,0-2.2,0.2-3.1,0.7c-0.1-1.8-0.8-3.6-2.2-5l-5.4-5.4l-5.4,5.4c-1.4,1.4-2.1,3.2-2.2,5.1c-1-0.5-2.1-0.7-3.2-0.7h-7.6v7.3
			c0,4.1,3.1,7.6,7.2,7.9c3.6,0.2,6.7-2.2,7.7-5.4v77.8c-7.9-36.7-22.8-54.6-61.9-54.6H65v0c0,45.1,18.7,59.8,63.8,59.8h0
			c24.9,1.6,21.4,21.7,21.4,33.5v52.8c0,5.4-3.3,10.2-8.2,12.1l-57.9,23"/>
	</g>
	<g class="st8">
		<line class="st9" x1="369.6" y1="215.7" x2="370.4" y2="232.7"/>
		<line class="st9" x1="375.5" y1="225" x2="383.7" y2="241.2"/>
		<circle class="st10" cx="374.7" cy="201.4" r="12.5"/>
		<path class="st11" d="M415.1,161.7c3.1,3.9,1,16.1-9,18.9c-11.9,3.3-17.3,8.8-20.4,4.9c-3.1-3.9,0.9-12.3,9-18.9
			S412,157.8,415.1,161.7z"/>
		<path class="st11" d="M373.5,190.2c-1.9,3.3-6.2,4.7-20.4,5.7c-10.4,0.7-17.6-12.9-14.6-20.1s13.2-9.8,22.9-5.8
			C371,174,377.5,183.5,373.5,190.2z"/>
		<circle class="st10" cx="387.2" cy="203.7" r="21.2"/>
		<circle class="st11" cx="393.3" cy="208.3" r="24.4"/>
		<circle class="st10" cx="399.6" cy="212.8" r="22.5"/>
		<line class="st12" x1="363.5" y1="200.1" x2="358" y2="202.4"/>
		<polyline class="st6" points="366.8,211.1 365,218.8 363.2,220.9 363.7,225 		"/>
		<polyline class="st6" points="370.4,232.7 376.3,240.4 377.1,245.3 		"/>
		<polyline class="st6" points="383.7,241.2 400.5,249.7 405.8,256.4 		"/>
		<polyline class="st6" points="416.8,227.7 422.1,234.3 425.7,242.9 		"/>
		<circle class="st11" cx="402.9" cy="215.7" r="18.3"/>
	</g>
	<path class="st13" d="M294.4,142c-0.1,0-0.2,0-0.3,0c-11.1,0-20.1-9-20.1-20.1h-19.5c0,21.9,17.7,39.6,39.6,39.6c0,0,0.1,0,0.1,0
		C294.2,155,294.2,148.5,294.4,142z"/>
	<path class="st13" d="M333.7,121.9c0-21.9-17.7-39.6-39.6-39.6v19.5c11.1,0,20.1,9,20.1,20.1c0,0.1,0,0.3,0,0.4
		c6.5,0,13,0,19.5,0.1C333.7,122.2,333.7,122,333.7,121.9z"/>
	<path class="st13" d="M314.2,122.3c-0.2,10.8-9,19.5-19.8,19.7c-0.2,6.5-0.2,13-0.2,19.5c21.6,0,39.2-17.5,39.5-39.1
		C327.2,122.3,320.7,122.3,314.2,122.3z"/>
	<g class="st8">
		<path class="st11" d="M102,117.2c-3.1,5.4-8.1,8.5-11.1,6.6c-0.3-0.2-0.4-6.6,0-12.9c0.4-6.2,8-8.4,11.1-6.6
			C105.1,106.1,105.1,111.8,102,117.2z"/>
		<circle class="st11" cx="96.3" cy="134.4" r="12.3"/>
		<path class="st10" d="M97.4,122.2c-0.4,0-0.7-0.1-1.1-0.1c-0.5,0-1.1,0-1.6,0.1c-6,0.4-10.6,3.1-10.6,12.2
			c0,6.8,5.5,12.3,12.3,12.3c0.3,0,0.6,0,0.9,0c0-0.1,0-0.2,0-0.2C97.9,138.5,97,130.4,97.4,122.2z"/>
		<path class="st11" d="M88.9,150.9l-5.2,3.9c-6.3,4.8-15.2,3.6-20-2.7l0,0c-4.8-6.3-3.6-15.2,2.7-20l5.2-3.9
			c6.3-4.8,15.2-3.6,20,2.7l0,0C96.3,137.2,95.1,146.1,88.9,150.9z"/>
		<path class="st10" d="M115,135.6c0,3.6-2.9,6.5-6.5,6.5s-2.4-2.9-2.4-6.5c0-3.6-1.2-6.5,2.4-6.5S115,132,115,135.6z"/>
		<path class="st10" d="M91.6,130.9c-4.3-5.7-12.1-7.2-18.1-3.9c5.6,7.3,12,14.3,17.5,21.9C95.3,144,95.8,136.4,91.6,130.9z"/>
		<line class="st14" x1="66.1" y1="135.3" x2="82.3" y2="153.3"/>
		<line class="st6" x1="115" y1="133.3" x2="121.3" y2="130.8"/>
		<line class="st6" x1="114.4" y1="134.7" x2="121" y2="136.4"/>
		<polyline class="st6" points="102.7,157.5 100.9,154 103.5,148.4 102.2,145.1 		"/>
		<line class="st6" x1="94.5" y1="156.2" x2="91.9" y2="163.2"/>
		<line class="st15" x1="93.9" y1="144.9" x2="94.5" y2="156.2"/>
		<polyline class="st6" points="84.6,159.3 84.6,165.5 80.6,170 		"/>
		<line class="st15" x1="90.2" y1="149.8" x2="84.6" y2="159.3"/>
		<path class="st11" d="M93.2,113.9c1.1,7.7-1.6,14.8-6,15.1c-0.4,0-5.5-6.2-9.9-12.9c-4.3-6.5,1.6-14.5,6-15.1
			C87.6,100.4,92.1,106.2,93.2,113.9z"/>
	</g>
	<g class="st8">
		<circle class="st10" cx="223.3" cy="164.4" r="10.9"/>
		<circle class="st11" cx="226" cy="167.7" r="12.4"/>
		<circle class="st10" cx="228.1" cy="169.8" r="10.3"/>
		<circle class="st11" cx="229.8" cy="171" r="8.2"/>
		<path class="st11" d="M208.9,153.7c4.4,2.2,7,6.1,5.6,8.5c-0.1,0.2-5.2,0.6-10.2,0.5c-4.9-0.1-6.9-6-5.6-8.5
			C200,151.7,204.5,151.5,208.9,153.7z"/>
		<path class="st11" d="M219.9,146.1c-0.3,4.9,1.7,9.1,4.4,9.2c0.3,0,3.1-4.1,5.6-8.5c2.4-4.3-1.7-9-4.4-9.2
			S220.3,141.2,219.9,146.1z"/>
		<polyline class="st11" points="219.9,178.5 222.7,183.6 223.3,187 		"/>
		<polyline class="st11" points="238.4,168.8 241.1,172.5 244.1,173.4 		"/>
		<polyline class="st11" points="213.6,170.6 213.6,175.9 212.3,178.4 		"/>
		<polyline class="st11" points="236.7,161.4 239.2,162.8 242.6,162.8 		"/>
	</g>
	<circle class="st13" cx="330.3" cy="212.8" r="2.9"/>
	<circle class="st13" cx="413.8" cy="265.2" r="2"/>
	<circle class="st13" cx="394.7" cy="141.9" r="2.3"/>
	<circle class="st13" cx="266.3" cy="188.9" r="2.8"/>
	<circle class="st13" cx="110.4" cy="149" r="1.6"/>
	<circle class="st13" cx="137.8" cy="161.4" r="3.2"/>
	<circle class="st13" cx="122.6" cy="105.6" r="2"/>
	<circle class="st13" cx="185.2" cy="265.2" r="2.5"/>
	<polyline class="st16" points="146.1,52.6 176.8,52.6 152.9,104.8 	"/>
	<path class="st16" d="M191.9,71.7"/>
	<path class="st16" d="M188.4,88.3c0,9.2,7.4,16.6,16.6,16.6h0c9.2,0,16.6-7.4,16.6-16.6v0c0-9.2-7.4-16.6-16.6-16.6h-13.1V52.6
		h26.5"/>
	<line class="st16" x1="278.4" y1="52.8" x2="237" y2="104.8"/>
	<circle class="st16" cx="272.3" cy="93.1" r="12"/>
	<circle class="st16" cx="243.4" cy="64.3" r="12"/>
	<polyline class="st13" points="307.1,72.9 307.1,42.4 321.5,42.4 296.1,16.9 270.3,42.4 285.2,42.4 	"/>
</g>
<g id="Слой_7" class="st7">
	<g class="st8">
		
			<ellipse transform="matrix(0.6873 -0.7264 0.7264 0.6873 -82.2997 324.0421)" class="st2" cx="335.2" cy="257.6" rx="21.6" ry="28.3"/>
		
			<ellipse transform="matrix(0.7264 -0.6873 0.6873 0.7264 -67.3408 346.0439)" class="st2" cx="401" cy="257.6" rx="28.3" ry="21.6"/>
		
			<ellipse transform="matrix(0.8395 -0.5434 0.5434 0.8395 -79.4834 228.2501)" class="st4" cx="346.6" cy="248.7" rx="24.8" ry="32.5"/>
		
			<ellipse transform="matrix(0.5434 -0.8395 0.8395 0.5434 -30.866 440.5618)" class="st4" cx="389.6" cy="248.7" rx="32.5" ry="24.8"/>
		<path class="st4" d="M391.9,246.8c0,23-11.2,32.3-25,32.3s-25-9.3-25-32.3s11.2-41.6,25-41.6S391.9,223.8,391.9,246.8z"/>
		<path class="st11" d="M370.7,460.5V432c0-11.8-2.2-46.5,21.4-46.8h0c45.1,0,71.4-14,71.4-59.1v0h-23.2
			c-39.1,0-61.6,30.4-69.6,67.1V286.7c1.1,3.2,4.4,5.4,8.1,5c3.9-0.4,6.7-3.9,6.7-7.8v-7.3h-7.6c-1.1,0-2.2,0.2-3.1,0.7
			c-0.1-1.8-0.8-3.6-2.2-5l-5.4-5.4l-5.4,5.4c-1.4,1.4-2.1,3.2-2.2,5.1c-1-0.5-2.1-0.7-3.2-0.7h-7.6v7.3c0,4.1,3.1,7.6,7.2,7.9
			c3.6,0.2,6.7-2.2,7.7-5.4v77.8c-7.9-36.7-22.8-54.6-61.9-54.6h-23.2v0c0,45.1,18.7,59.8,63.8,59.8h0c24.9,1.6,21.4,21.7,21.4,33.5
			V443"/>
		<line class="st6" x1="360.1" y1="367.6" x2="304.6" y2="329.1"/>
		<line class="st6" x1="325.9" y1="343.9" x2="325.9" y2="322.3"/>
		<line class="st6" x1="332.4" y1="348.3" x2="304.6" y2="348.3"/>
		<line class="st6" x1="340.7" y1="354.1" x2="340.7" y2="338.6"/>
		<line class="st6" x1="384.5" y1="377.8" x2="440" y2="339.3"/>
		<line class="st6" x1="418.7" y1="354.1" x2="418.7" y2="339.3"/>
		<line class="st6" x1="427" y1="348.3" x2="444.3" y2="348.3"/>
		<line class="st6" x1="403.9" y1="364.3" x2="403.9" y2="348.8"/>
		<line class="st6" x1="399.2" y1="367.6" x2="425.7" y2="367.6"/>
	</g>
	<g class="st8">
		
			<ellipse transform="matrix(0.6873 -0.7264 0.7264 0.6873 -147.8154 133.4451)" class="st2" cx="81.1" cy="238.4" rx="19.2" ry="25.1"/>
		
			<ellipse transform="matrix(0.7264 -0.6873 0.6873 0.7264 -125.7098 161.0005)" class="st2" cx="139.4" cy="238.4" rx="25.1" ry="19.2"/>
		
			<ellipse transform="matrix(0.8395 -0.5434 0.5434 0.8395 -110.598 86.5397)" class="st4" cx="91.2" cy="230.5" rx="22" ry="28.8"/>
		
			<ellipse transform="matrix(0.5434 -0.8395 0.8395 0.5434 -134.4477 213.7393)" class="st4" cx="129.3" cy="230.5" rx="28.8" ry="22"/>
		<path class="st4" d="M131.4,228.8c0,20.4-9.9,28.6-22.2,28.6S87,249.2,87,228.8s9.9-36.8,22.2-36.8S131.4,208.4,131.4,228.8z"/>
		<path class="st11" d="M112.5,402.7v-9.7c0-10.5-2-41.2,18.9-41.4h0c39.9,0,63.3-12.4,63.3-52.3v0h-20.6c-34.7,0-54.6,27-61.6,59.5
			v-94.5c1,2.8,3.9,4.8,7.1,4.4c3.4-0.4,5.9-3.5,5.9-6.9l0-6.5h-6.7c-1,0-1.9,0.2-2.8,0.6c-0.1-1.6-0.7-3.2-2-4.5l-4.8-4.8l-4.8,4.8
			c-1.3,1.3-1.9,2.9-2,4.5c-0.9-0.4-1.8-0.6-2.9-0.6h-6.7v6.5c0,3.6,2.8,6.8,6.4,7c3.2,0.2,5.9-1.9,6.8-4.8v69
			c-7-32.6-20.2-48.4-54.9-48.4H30.8v0c0,39.9,16.6,53,56.5,53h0c22.1,1.4,18.9,19.2,18.9,29.7v53.7"/>
		<line class="st6" x1="122.9" y1="343.9" x2="174.3" y2="311.1"/>
		<line class="st6" x1="139.4" y1="333.7" x2="160.3" y2="333.7"/>
		<line class="st6" x1="153.1" y1="324.6" x2="153.1" y2="311.1"/>
		<line class="st6" x1="163.7" y1="317.8" x2="176.3" y2="317.8"/>
		<line class="st6" x1="96.6" y1="329.1" x2="41.2" y2="293.4"/>
		<line class="st6" x1="64.4" y1="308.3" x2="64.4" y2="293.4"/>
		<line class="st6" x1="81.1" y1="318.6" x2="81.1" y2="304.3"/>
		<line class="st11" x1="71.9" y1="313.2" x2="53.8" y2="313.2"/>
		<line class="st11" x1="86" y1="322.3" x2="67.9" y2="322.3"/>
	</g>
	<path class="st13" d="M225.9,405.6l-11.7,0c-16.1,0.1-29.2-12.9-29.2-29v0l11.7,0C212.7,376.6,225.8,389.5,225.9,405.6L225.9,405.6
		z"/>
	<path class="st13" d="M255,376.4L255,376.4c-16.1,0.1-29.1,13.2-29,29.2v0h0C242.1,405.5,255,392.4,255,376.4L255,376.4z"/>
	<line class="st13" x1="226" y1="405.6" x2="226" y2="417.6"/>
	<path class="st17" d="M297.7,275c-4.4-1.3-9-1.9-13.9-1.9c-11.9,0-22.8,4.1-31.4,10.9c-3.2-3.3-7.6-5.3-12.5-5.3
		c-7.3,0-13.6,4.6-16.1,11c-16.9-14.3-38.7-22.9-62.5-22.9c-4,0-8,0.2-12,0.7"/>
	<path class="st17" d="M222.7,284.9L222.7,284.9l-1.6-1.2c-4.8-3.7-5.8-10.5-2.1-15.4v0l1.6,1.2
		C225.5,273.2,226.4,280.1,222.7,284.9z"/>
	<path class="st17" d="M199.3,268.3L199.3,268.3l-2,0.3c-6,0.8-11.5-3.4-12.4-9.4l0,0l2-0.3C193,258.1,198.5,262.3,199.3,268.3z"/>
	<path class="st17" d="M253.4,276.6L253.4,276.6L253.4,276.6c0-6.1,4.9-11,11-11h0v0C264.4,271.7,259.4,276.6,253.4,276.6z"/>
	<path class="st17" d="M253.4,271.7v4.9h-4.9c-6.1,0-11-4.9-11-11v-4.9h4.9C248.5,260.8,253.4,265.7,253.4,271.7z"/>
	<line class="st17" x1="253.4" y1="276.6" x2="243.8" y2="267.1"/>
	<g class="st8">
		<path class="st4" d="M201.9,235.4c-0.8,0.8-1.5,2.4-1.9,4c-0.4-1.6-1.1-3.1-1.9-3.9c-2-2-5.2-2-7.1,0c-2,2-2,5.2,0,7.1
			c0.8,0.8,2.4,1.5,4,1.9c-1.6,0.4-3.1,1.1-3.9,1.9c-2,2-2,5.2,0,7.1s5.2,2,7.1,0c0.8-0.8,1.5-2.4,1.9-4c0.4,1.6,1.1,3.1,1.9,3.9
			c2,2,5.2,2,7.1,0c2-2,2-5.2,0-7.1c-0.8-0.8-2.4-1.5-4-1.9c1.6-0.4,3.1-1.1,3.9-1.9c2-2,2-5.2,0-7.1
			C207.1,233.4,203.9,233.4,201.9,235.4z"/>
		<line class="st4" x1="199.3" y1="243.7" x2="200.8" y2="245.3"/>
		<line class="st4" x1="199.3" y1="245.3" x2="200.8" y2="243.7"/>
	</g>
	<line class="st13" x1="200.1" y1="249.6" x2="200.1" y2="274.9"/>
	<path class="st17" d="M206.5,218.7"/>
	<polyline class="st16" points="206.5,218.7 206.5,139 283.9,107.7 283.9,273.1 	"/>
	<path class="st17" d="M283.9,273.1"/>
	<line class="st16" x1="206.5" y1="143.7" x2="283.9" y2="112.3"/>
	<rect x="238.7" y="76.5" class="st17" width="13" height="15.8"/>
	<rect x="231.9" y="92.3" class="st16" width="26.6" height="6.5"/>
	<rect x="235.5" y="71.8" class="st16" width="19.5" height="4.8"/>
	<polyline class="st16" points="238.7,120.6 238.7,98.8 251.7,98.8 251.7,120.6 	"/>
	<g class="st8">
		<g>
			<line class="st18" x1="264.4" y1="78" x2="270.3" y2="77.1"/>
			<line class="st19" x1="281.4" y1="75.3" x2="408.9" y2="55.6"/>
			<line class="st18" x1="414.5" y1="54.8" x2="420.4" y2="53.8"/>
		</g>
	</g>
	<g class="st8">
		<g>
			<line class="st18" x1="68.9" y1="116.2" x2="74.8" y2="115.3"/>
			<line class="st19" x1="85.9" y1="113.6" x2="213.5" y2="93.9"/>
			<line class="st18" x1="219" y1="93" x2="224.9" y2="92.1"/>
		</g>
	</g>
	<g class="st8">
		<g>
			<line class="st18" x1="224.9" y1="78" x2="219" y2="77.1"/>
			<line class="st19" x1="207.9" y1="75.3" x2="80.4" y2="55.6"/>
			<line class="st18" x1="74.8" y1="54.8" x2="68.9" y2="53.8"/>
		</g>
	</g>
	<g class="st8">
		<g>
			<line class="st18" x1="420.4" y1="116.2" x2="414.5" y2="115.3"/>
			<line class="st19" x1="403.4" y1="113.6" x2="275.8" y2="93.9"/>
			<line class="st18" x1="270.3" y1="93" x2="264.4" y2="92.1"/>
		</g>
	</g>
	<line class="st20" x1="261.1" y1="84.4" x2="321.1" y2="84.4"/>
	<line class="st20" x1="167.6" y1="84.8" x2="227.6" y2="84.8"/>
	<g class="st8">
		<polyline class="st6" points="160.6,189.8 156.4,192.3 154.1,198 		"/>
		<line class="st15" x1="162.7" y1="179.3" x2="160.6" y2="189.8"/>
		<polyline class="st6" points="133.3,178.6 129.3,180.4 126.2,185.4 		"/>
		<circle class="st10" cx="152.7" cy="168.3" r="11"/>
		<circle class="st11" cx="148.8" cy="174" r="14.8"/>
		<circle class="st10" cx="146.9" cy="176.4" r="12.4"/>
		<circle class="st11" cx="144.9" cy="178.6" r="9.7"/>
		<path class="st11" d="M180.8,158.8c1.7,3.7-1.4,9.1-6.6,9.3c-6.7,0.3-10.7,0.4-11.4-1c-1.3-2.8,1.6-7,6.6-9.3
			C174.4,155.5,179.5,156,180.8,158.8z"/>
		<path class="st11" d="M145.1,139.3c-3.9,1.2-5.9,7-2.6,11.1c4.2,5.2,6.7,8.3,8.3,7.9c3-0.9,4.2-5.9,2.6-11.1
			C151.8,141.9,148.1,138.4,145.1,139.3z"/>
	</g>
	<g class="st8">
		<circle class="st10" cx="341.9" cy="157.9" r="18.9"/>
		<polyline class="st6" points="342.4,195.7 350.6,196.9 356.6,200.5 		"/>
		<line class="st15" x1="330.9" y1="182.2" x2="342.4" y2="195.7"/>
		<polyline class="st6" points="381.6,159.3 381.6,169.2 387.3,176.8 		"/>
		<line class="st15" x1="367.1" y1="146.4" x2="381.6" y2="159.3"/>
		<circle class="st11" cx="350.6" cy="166" r="25.5"/>
		<circle class="st10" cx="354.8" cy="169.2" r="21.4"/>
		<circle class="st11" cx="359.1" cy="172" r="16.7"/>
		<path class="st11" d="M296.6,150.3c-1.2,5.9,5,12.5,12.5,11.1c9.6-1.8,15.4-2.9,15.9-5.2c0.9-4.5-4.7-9.5-12.5-11.1
			C304.6,143.5,297.5,145.8,296.6,150.3z"/>
		<path class="st11" d="M340.9,112.2c6,0.4,10.7,8.1,7.4,15c-4.2,8.8-6.9,14.1-9.2,14c-4.6-0.3-7.9-7-7.4-15
			S336.3,111.9,340.9,112.2z"/>
	</g>
	<rect x="199.3" y="159.8" class="st16" width="7.2" height="6.7"/>
	<rect x="199.3" y="194.6" class="st16" width="7.2" height="6.7"/>
	<path class="st16" d="M218.5,223.1v-63.4c0-3.6,2.9-6.5,6.5-6.5h40.9c3.6,0,6.5,2.9,6.5,6.5v80.4c0,3.6-2.9,6.5-6.5,6.5h-34"/>
	<circle class="st16" cx="264.4" cy="160.6" r="1"/>
	<circle class="st16" cx="264.4" cy="239" r="1"/>
	
		<rect x="224.6" y="197.2" transform="matrix(-1 -1.224647e-16 1.224647e-16 -1 449.304 399.699)" class="st16" width="0" height="5.4"/>
</g>
<g id="Слой_6" class="st7">
	<g class="st8">
		<path class="st2" d="M218.1,123.3L31.3,136c-7.4,0.5-13.1,6.6-13.1,14v138.7c0,8.8,8,15.5,16.7,13.8L221.7,267
			c6.6-1.3,11.4-7.1,11.4-13.8V137.4C233.1,129.2,226.2,122.8,218.1,123.3z"/>
		<path class="st2" d="M246.9,137.4v115.8c0,6.8,4.8,12.6,11.4,13.8l186.8,35.5c8.7,1.7,16.7-5,16.7-13.8V150
			c0-7.4-5.7-13.5-13.1-14l-186.8-12.6C253.8,122.8,246.9,129.2,246.9,137.4z"/>
	</g>
	<path class="st16" d="M268.1,90.4h-56.3c-9.2,0-16.7-7.5-16.7-16.7v-4.9c0-9.2,7.5-16.7,16.7-16.7h56.3c9.2,0,16.7,7.5,16.7,16.7
		v4.9C284.8,83,277.4,90.4,268.1,90.4z"/>
	<line class="st21" x1="295.8" y1="61.2" x2="326.6" y2="48.7"/>
	<line class="st21" x1="295.8" y1="77.5" x2="326.6" y2="86.8"/>
	<line class="st21" x1="295.8" y1="68.3" x2="326.6" y2="68.3"/>
	<line class="st21" x1="182.6" y1="61.2" x2="151.8" y2="48.7"/>
	<line class="st21" x1="182.6" y1="77.5" x2="151.8" y2="86.8"/>
	<line class="st21" x1="182.6" y1="68.3" x2="151.8" y2="68.3"/>
	<circle class="st17" cx="87.4" cy="337.4" r="25"/>
	<circle class="st17" cx="146.8" cy="393.6" r="25"/>
	<circle class="st17" cx="391.2" cy="337.4" r="25"/>
	<circle class="st17" cx="331.8" cy="393.6" r="25"/>
	<g class="st8">
		<rect x="233.1" y="312.4" class="st6" width="13.8" height="66.2"/>
		<polygon class="st6" points="302.8,329.5 240,321 177.2,329.5 177.2,316.3 240,307.8 302.8,316.3 		"/>
		<circle class="st11" cx="240" cy="314.4" r="44.3"/>
		<path class="st11" d="M288.3,266.1L288.3,266.1c-3.3,3.3-3.6,8.6-0.8,12.3c7.9,10.5,12.5,23.6,12,37.9
			c-1,31.8-27.4,57.4-59.2,57.6c-33,0.2-59.9-26.6-59.9-59.6c0-13.6,4.5-26.1,12.2-36.1c2.8-3.7,2.4-8.9-0.9-12.2l0,0
			c-4-4-10.6-3.6-14,0.9c-10.5,13.8-16.5,31.1-15.9,49.9c1.3,41.5,35.5,75,77,75.7c43.7,0.6,79.4-34.6,79.4-78.2
			c0-17.8-5.9-34.1-15.9-47.3C298.9,262.6,292.3,262.1,288.3,266.1z"/>
		<g>
			<path class="st2" d="M240,320.9h-10.6c-8.4,0-15.2-6.8-15.2-15.2v-2.2h10.6c8.4,0,15.2,6.8,15.2,15.2V320.9z"/>
			<polygon class="st2" points="261.1,284.9 243.7,299.2 243.7,320.9 261.1,306.6 			"/>
			<polyline class="st2" points="240,340.9 240,320.9 224.2,309.9 			"/>
			<line class="st2" x1="243.7" y1="320.9" x2="243.7" y2="340.9"/>
			<line class="st2" x1="227.1" y1="340.9" x2="255.7" y2="340.9"/>
			<line class="st2" x1="253.4" y1="301.4" x2="243.9" y2="309.1"/>
			<circle class="st2" cx="255.1" cy="299.8" r="2.2"/>
			<line class="st2" x1="231.8" y1="310.6" x2="226.5" y2="315.9"/>
		</g>
	</g>
	<g class="st8">
		<path class="st0" d="M207.6,80c-0.4,0-0.8-0.2-1-0.6s-0.3-0.8-0.1-1.2l6.4-15.4c0.2-0.5,0.6-0.8,1.1-0.8c0.6,0,0.9,0.3,1.1,0.8
			l6.5,15.4c0.2,0.4,0.1,0.8-0.1,1.2c-0.2,0.3-0.6,0.5-1,0.5c-0.2,0-0.4-0.1-0.7-0.2c-0.2-0.1-0.4-0.3-0.4-0.5l-5.7-14.1h0.6
			l-5.8,14.1c-0.1,0.2-0.3,0.4-0.5,0.6C208.1,80,207.9,80,207.6,80z M208.9,76.1l0.9-2h9l0.9,2H208.9z"/>
		<path class="st0" d="M231.3,80.4c-1.5,0-2.8-0.3-3.9-0.8c-1.1-0.5-2-1.3-2.6-2.3c-0.6-1-1-2.1-1-3.3V63.3c0-0.4,0.1-0.6,0.3-0.9
			c0.2-0.2,0.5-0.3,0.8-0.3c0.4,0,0.6,0.1,0.9,0.3c0.2,0.2,0.3,0.5,0.3,0.9V74c0,0.8,0.2,1.6,0.7,2.2c0.4,0.6,1,1.1,1.8,1.5
			c0.8,0.4,1.7,0.5,2.6,0.5c1,0,1.8-0.2,2.6-0.5c0.7-0.4,1.3-0.9,1.7-1.5c0.4-0.6,0.6-1.4,0.6-2.2V63.3c0-0.4,0.1-0.6,0.3-0.9
			c0.2-0.2,0.5-0.3,0.8-0.3c0.4,0,0.6,0.1,0.8,0.3c0.2,0.2,0.3,0.5,0.3,0.9V74c0,1.2-0.3,2.3-0.9,3.3c-0.6,1-1.5,1.7-2.6,2.3
			C234,80.1,232.7,80.4,231.3,80.4z"/>
		<path class="st0" d="M242.3,64.3c-0.3,0-0.6-0.1-0.8-0.3c-0.2-0.2-0.3-0.5-0.3-0.8c0-0.3,0.1-0.6,0.3-0.8c0.2-0.2,0.5-0.3,0.8-0.3
			h12.3c0.3,0,0.6,0.1,0.8,0.3c0.2,0.2,0.3,0.5,0.3,0.8c0,0.3-0.1,0.6-0.3,0.8c-0.2,0.2-0.5,0.3-0.8,0.3H242.3z M248.4,80
			c-0.3,0-0.6-0.1-0.8-0.3c-0.2-0.2-0.3-0.5-0.3-0.8V62.1h2.4v16.7c0,0.3-0.1,0.6-0.3,0.8C249.1,79.9,248.8,80,248.4,80z"/>
		<path class="st0" d="M265.4,80.3c-1.3,0-2.6-0.2-3.7-0.7c-1.1-0.5-2.1-1.1-2.9-1.9c-0.8-0.8-1.4-1.8-1.9-2.9
			c-0.4-1.1-0.7-2.4-0.7-3.7c0-1.3,0.2-2.6,0.7-3.7c0.4-1.1,1.1-2.1,1.9-2.9c0.8-0.8,1.8-1.5,2.9-1.9c1.1-0.5,2.3-0.7,3.7-0.7
			c1.3,0,2.6,0.2,3.7,0.7c1.1,0.5,2.1,1.1,2.9,1.9c0.8,0.8,1.4,1.8,1.9,2.9c0.4,1.1,0.7,2.3,0.7,3.7c0,1.3-0.2,2.6-0.7,3.7
			c-0.4,1.1-1.1,2.1-1.9,2.9c-0.8,0.8-1.8,1.5-2.9,1.9C268,80,266.8,80.3,265.4,80.3z M265.4,78.1c1,0,1.9-0.2,2.7-0.5
			c0.8-0.4,1.6-0.9,2.2-1.5c0.6-0.6,1.1-1.4,1.4-2.2c0.3-0.9,0.5-1.8,0.5-2.8c0-1-0.2-1.9-0.5-2.8c-0.3-0.9-0.8-1.6-1.4-2.2
			c-0.6-0.6-1.3-1.1-2.2-1.5c-0.8-0.4-1.7-0.5-2.7-0.5c-1,0-1.9,0.2-2.7,0.5c-0.8,0.4-1.6,0.8-2.2,1.5c-0.6,0.6-1.1,1.4-1.4,2.2
			c-0.3,0.9-0.5,1.8-0.5,2.8c0,1,0.2,1.9,0.5,2.8c0.3,0.9,0.8,1.6,1.4,2.2c0.6,0.6,1.3,1.1,2.2,1.5
			C263.5,77.9,264.4,78.1,265.4,78.1z"/>
	</g>
	<g class="st8">
		<path class="st22" d="M79.9,345.4c-0.3,0-0.6-0.1-0.8-0.3c-0.2-0.2-0.3-0.5-0.3-0.8v-15.5c0-0.4,0.1-0.6,0.3-0.9
			c0.2-0.2,0.5-0.3,0.8-0.3c0.5,0,0.8,0.2,1.1,0.6l7.2,14.4h-0.7l7-14.4c0.2-0.4,0.6-0.6,1.1-0.6c0.3,0,0.6,0.1,0.8,0.3
			c0.2,0.2,0.3,0.5,0.3,0.9v15.5c0,0.3-0.1,0.6-0.4,0.8c-0.2,0.2-0.5,0.3-0.8,0.3c-0.3,0-0.6-0.1-0.8-0.3c-0.2-0.2-0.3-0.5-0.3-0.8
			V332l0.5-0.1l-6,12.2c-0.3,0.4-0.6,0.6-1,0.6c-0.5,0-0.9-0.2-1.1-0.7l-5.9-11.9l0.5-0.1v12.2c0,0.3-0.1,0.6-0.3,0.8
			C80.5,345.3,80.2,345.4,79.9,345.4z"/>
	</g>
	<g class="st8">
		<path class="st22" d="M383.5,345.4c-0.3,0-0.6-0.1-0.8-0.3c-0.2-0.2-0.3-0.5-0.3-0.8v-15.5c0-0.4,0.1-0.6,0.3-0.9
			c0.2-0.2,0.5-0.3,0.8-0.3c0.5,0,0.8,0.2,1.1,0.6l7.2,14.4H391l7-14.4c0.2-0.4,0.6-0.6,1.1-0.6c0.3,0,0.6,0.1,0.8,0.3
			c0.2,0.2,0.3,0.5,0.3,0.9v15.5c0,0.3-0.1,0.6-0.4,0.8c-0.2,0.2-0.5,0.3-0.8,0.3c-0.3,0-0.6-0.1-0.8-0.3c-0.2-0.2-0.3-0.5-0.3-0.8
			V332l0.5-0.1l-6,12.2c-0.3,0.4-0.6,0.6-1,0.6c-0.5,0-0.9-0.2-1.1-0.7l-5.9-11.9l0.5-0.1v12.2c0,0.3-0.1,0.6-0.3,0.8
			C384.1,345.3,383.8,345.4,383.5,345.4z"/>
	</g>
	<g class="st8">
		<path class="st22" d="M138.3,391.9c-0.3,0-0.6-0.1-0.8-0.3c-0.2-0.2-0.3-0.4-0.3-0.7c0-0.3,0.1-0.5,0.3-0.7
			c0.2-0.2,0.5-0.3,0.8-0.3h5.3c0.3,0,0.6,0.1,0.8,0.3c0.2,0.2,0.3,0.4,0.3,0.7c0,0.3-0.1,0.5-0.3,0.7c-0.2,0.2-0.5,0.3-0.8,0.3
			H138.3z M143.3,402c-0.8,0-1.5-0.2-2.1-0.6c-0.6-0.4-1.1-0.9-1.4-1.6c-0.4-0.7-0.5-1.4-0.5-2.3v-10.9c0-0.3,0.1-0.6,0.3-0.8
			c0.2-0.2,0.5-0.3,0.8-0.3c0.3,0,0.6,0.1,0.8,0.3c0.2,0.2,0.3,0.5,0.3,0.8v10.9c0,0.6,0.2,1.1,0.5,1.5c0.3,0.4,0.7,0.6,1.2,0.6h0.8
			c0.3,0,0.5,0.1,0.7,0.3c0.2,0.2,0.3,0.5,0.3,0.8c0,0.3-0.1,0.6-0.4,0.8c-0.3,0.2-0.6,0.3-1,0.3H143.3z"/>
		<path class="st22" d="M151.4,393.1c-0.9,0-1.6-0.2-2.3-0.6c-0.7-0.4-1.2-0.9-1.6-1.6c-0.4-0.7-0.6-1.5-0.6-2.3
			c0-0.9,0.2-1.6,0.6-2.3c0.4-0.7,0.9-1.2,1.6-1.6c0.7-0.4,1.5-0.6,2.3-0.6c0.9,0,1.6,0.2,2.3,0.6c0.7,0.4,1.2,0.9,1.6,1.6
			c0.4,0.7,0.6,1.5,0.6,2.3c0,0.9-0.2,1.6-0.6,2.3c-0.4,0.7-0.9,1.2-1.6,1.6C153,392.9,152.3,393.1,151.4,393.1z M151.4,390.8
			c0.7,0,1.2-0.2,1.7-0.7c0.4-0.4,0.7-1,0.7-1.7c0-0.7-0.2-1.2-0.7-1.7c-0.4-0.4-1-0.7-1.6-0.7c-0.7,0-1.2,0.2-1.7,0.7
			c-0.4,0.4-0.7,1-0.7,1.7c0,0.7,0.2,1.2,0.7,1.7C150.2,390.6,150.7,390.8,151.4,390.8z"/>
	</g>
	<g class="st8">
		<path class="st22" d="M325.4,402c-0.4,0-0.8-0.2-1-0.6c-0.2-0.4-0.3-0.8-0.1-1.2l6.4-15.4c0.2-0.5,0.6-0.8,1.1-0.8
			c0.6,0,0.9,0.3,1.1,0.8l6.5,15.4c0.2,0.4,0.1,0.8-0.1,1.2c-0.2,0.3-0.6,0.5-1,0.5c-0.2,0-0.4-0.1-0.7-0.2s-0.4-0.3-0.4-0.5
			l-5.7-14.1h0.6l-5.8,14.1c-0.1,0.2-0.3,0.4-0.5,0.5C325.8,402,325.6,402,325.4,402z M326.6,398.1l0.9-2h9l0.9,2H326.6z"/>
	</g>
	<g class="st8">
		<line class="st6" x1="161.1" y1="221.2" x2="158.3" y2="226.6"/>
		<line class="st9" x1="161.1" y1="205.2" x2="161.1" y2="221.2"/>
		<circle class="st10" cx="165.3" cy="193.3" r="8.3"/>
		
			<ellipse transform="matrix(0.3982 -0.9173 0.9173 0.3982 -83.3247 251.8451)" class="st11" cx="150.3" cy="189.4" rx="16" ry="21.1"/>
		<path class="st11" d="M112.2,147.6c-4,4.1-3.2,15.7,5.8,20.1c9.5,4.5,19.1,6.4,20.3,5.2c4-4.1,1.4-13.1-5.8-20.1
			C125.3,145.8,116.2,143.5,112.2,147.6z"/>
		<circle class="st10" cx="145.6" cy="187.4" r="16"/>
		<path class="st10" d="M125.7,196l31.7-8.1c3.7,14.5-7.6,30.1-24.9,34.5s-34.7-3.9-38.4-18.4c-3.7-14.5,7.6-30.1,24.9-34.5
			c16.2-4.1,32.5,2.7,37.6,15.8L125.7,196z"/>
		
			<ellipse transform="matrix(0.9691 -0.2467 0.2467 0.9691 -44.7197 36.4279)" class="st11" cx="123" cy="196.7" rx="29.9" ry="27.3"/>
		
			<ellipse transform="matrix(0.859 -0.512 0.512 0.859 -85.4333 88.0994)" class="st10" cx="117.2" cy="199.2" rx="22.5" ry="25.2"/>
		
			<ellipse transform="matrix(0.859 -0.512 0.512 0.859 -88.6866 84.9786)" class="st11" cx="109.9" cy="203.5" rx="14.1" ry="15.7"/>
		<path class="st6" d="M150.3,227.2c0,0-10.4,6.3-10.8,6.3s-2.9,6.1-2.9,6.1"/>
		<line class="st9" x1="154.3" y1="207.2" x2="150.3" y2="227.2"/>
		<polyline class="st6" points="98.9,214.7 94.3,217.1 90.1,223.9 		"/>
		<polyline class="st6" points="165.4,204.3 166.1,214.1 168.6,216.5 		"/>
		<path class="st11" d="M179.1,155c3.7,4.4,2.2,15.9-7.1,19.7c-9.7,3.9-19.4,5.1-20.6,3.8c-3.7-4.4-0.5-13.2,7.1-19.7
			C166.1,152.3,175.3,150.6,179.1,155z"/>
		<line class="st6" x1="173.1" y1="190.4" x2="176.5" y2="188.1"/>
	</g>
	<g class="st8">
		<line class="st6" x1="290.5" y1="195.7" x2="293.6" y2="199.3"/>
		<line class="st9" x1="287.6" y1="183.5" x2="290.5" y2="195.7"/>
		<circle class="st10" cx="283.2" cy="172" r="6.5"/>
		
			<ellipse transform="matrix(0.8954 -0.4452 0.4452 0.8954 -44.8543 148.1271)" class="st11" cx="292.9" cy="169.5" rx="15.5" ry="12.5"/>
		<path class="st11" d="M315.2,135.3c3.8,2.4,5.3,11.4-0.8,16.3c-6.4,5.2-13.3,8.3-14.5,7.6c-3.8-2.4-3.4-9.7,0.8-16.3
			C304.9,136.3,311.4,132.9,315.2,135.3z"/>
		<circle class="st10" cx="295.6" cy="168.2" r="12.5"/>
		
			<ellipse transform="matrix(1.595878e-02 -0.9999 0.9999 1.595878e-02 134.2496 485.3645)" class="st10" cx="313.7" cy="174.5" rx="21.3" ry="25.5"/>
		
			<ellipse transform="matrix(1.595878e-02 -0.9999 0.9999 1.595878e-02 136.3341 487.5513)" class="st11" cx="315.9" cy="174.5" rx="21.3" ry="23.4"/>
		
			<ellipse transform="matrix(0.2995 -0.9541 0.9541 0.2995 57.3616 428.8266)" class="st10" cx="320.7" cy="175.4" rx="19.7" ry="17.6"/>
		
			<ellipse transform="matrix(0.2995 -0.9541 0.9541 0.2995 59.9004 436.2583)" class="st11" cx="327" cy="177.3" rx="12.3" ry="11"/>
		<path class="st6" d="M308.4,201.8c0,0,9.1,2.9,9.4,2.8c0.3-0.1,3.4,4.1,3.4,4.1"/>
		<line class="st9" x1="296.5" y1="189.8" x2="307.6" y2="201.2"/>
		<polyline class="st6" points="282.7,181.8 284,189.3 282.5,191.7 		"/>
		<path class="st11" d="M265.7,152.9c-2,4,1.2,12.5,8.9,13.7c8.1,1.2,15.7,0.4,16.3-0.8c2-4-2-10.1-8.9-13.7
			S267.8,148.9,265.7,152.9z"/>
		<polyline class="st6" points="333.8,167.2 345.3,171.5 348.9,176.7 		"/>
	</g>
	<circle class="st17" cx="43.9" cy="280.5" r="4.4"/>
	<circle class="st17" cx="416.2" cy="167.2" r="4.4"/>
	<circle class="st17" cx="195.2" cy="223.9" r="4.4"/>
	<circle class="st17" cx="270.9" cy="229.8" r="5.8"/>
	<circle class="st17" cx="110" cy="245.5" r="2.5"/>
	<circle class="st17" cx="440.1" cy="253.9" r="2.5"/>
	<circle class="st17" cx="97.1" cy="162" r="2.5"/>
	<circle class="st17" cx="188.5" cy="145.6" r="2.5"/>
	<circle class="st17" cx="278.3" cy="140.3" r="2.5"/>
	
		<ellipse transform="matrix(0.834 -0.5518 0.5518 0.834 -58.1303 244.4828)" class="st16" cx="377.2" cy="218.8" rx="13.2" ry="5.1"/>
	<ellipse transform="matrix(0.5 -0.866 0.866 0.5 -17.394 412.3187)" class="st16" cx="348.4" cy="221.2" rx="5.1" ry="13.2"/>
	<circle class="st23" cx="365.8" cy="240.3" r="16.2"/>
	
		<ellipse transform="matrix(0.9797 -0.2003 0.2003 0.9797 -41.2523 78.3214)" class="st24" cx="366.4" cy="243" rx="16.2" ry="13.4"/>
	
		<ellipse transform="matrix(0.9797 -0.2003 0.2003 0.9797 -42.0729 78.5775)" class="st23" cx="367.2" cy="247.2" rx="10.6" ry="9.2"/>
	<polyline class="st25" points="381,235.2 385.3,248.6 387.8,253 389.3,259.6 	"/>
	<polyline class="st25" points="349.6,238.5 349.5,252.6 348.4,257.5 349,264.3 	"/>
</g>
<g id="Слой_9" class="st7">
	<g class="st8">
		<line class="st26" x1="315" y1="213.6" x2="315" y2="366.2"/>
		<g>
			<line class="st18" x1="315" y1="213.6" x2="315" y2="219.6"/>
			<line class="st27" x1="315" y1="232.4" x2="315" y2="353.8"/>
			<line class="st18" x1="315" y1="360.2" x2="315" y2="366.2"/>
		</g>
	</g>
	<rect x="237.9" y="189.8" class="st13" width="35.7" height="120.6"/>
	<rect x="255.8" y="236.6" class="st13" width="17.9" height="40.7"/>
	<rect x="250.7" y="296.7" class="st13" width="23" height="40.7"/>
	<g class="st8">
		<line class="st26" x1="361.4" y1="255.7" x2="361.4" y2="368.7"/>
		<g>
			<line class="st18" x1="361.4" y1="255.7" x2="361.4" y2="261.7"/>
			<line class="st28" x1="361.4" y1="272.9" x2="361.4" y2="357.1"/>
			<line class="st18" x1="361.4" y1="362.7" x2="361.4" y2="368.7"/>
		</g>
	</g>
	<g class="st8">
		<line class="st26" x1="395.6" y1="304.8" x2="395.6" y2="368.7"/>
		<g>
			<line class="st18" x1="395.6" y1="304.8" x2="395.6" y2="310.8"/>
			<line class="st29" x1="395.6" y1="321.2" x2="395.6" y2="357.5"/>
			<line class="st18" x1="395.6" y1="362.7" x2="395.6" y2="368.7"/>
		</g>
	</g>
	<g class="st8">
		<line class="st26" x1="429.9" y1="211" x2="429.9" y2="368.7"/>
		<g>
			<line class="st18" x1="429.9" y1="211" x2="429.9" y2="217"/>
			<line class="st30" x1="429.9" y1="228.2" x2="429.9" y2="357.1"/>
			<line class="st18" x1="429.9" y1="362.7" x2="429.9" y2="368.7"/>
		</g>
	</g>
	<polyline class="st16" points="261.8,368.7 460.6,368.7 443.1,363.6 	"/>
	<polyline class="st16" points="273.7,381.7 273.7,124.1 268.6,141.7 	"/>
	<circle class="st13" cx="273.7" cy="227.7" r="4.5"/>
	<circle class="st13" cx="273.7" cy="326.6" r="4.5"/>
	<polyline class="st16" points="278.7,227.7 315,213.6 358,260.6 423.4,210.4 	"/>
	<path class="st16" d="M278.7,326.6l38-16.2c0,0,10.1,25.2,40.7,25.2s44.2-25.2,44.2-25.2"/>
	<circle class="st13" cx="314.8" cy="310.4" r="4.5"/>
	<path class="st13" d="M273.7,308.4"/>
	<path class="st13" d="M266.6,281.9"/>
	<g class="st8">
		<g>
			<circle class="st11" cx="320.9" cy="215.5" r="7.4"/>
			<path class="st0" d="M320.9,208.1c-4.1,0-7.4,3.3-7.4,7.4c0,4.1,3.3,7.4,7.4,7.4V208.1z"/>
			<path class="st0" d="M325.9,224l-0.6-0.2c-0.4-0.2-0.6-0.6-0.4-1l3.9-9.3c0.2-0.4,0.6-0.6,1-0.4l0.6,0.2c2.5,1.1,3.7,4,2.7,6.5
				l-0.7,1.6C331.4,223.8,328.4,225,325.9,224z"/>
			<line class="st6" x1="332.2" y1="216.8" x2="337.2" y2="216.8"/>
		</g>
		<g>
			<path class="st11" d="M297.9,225.7l-1-1.6c-2.5-4.1-1.3-9.4,2.8-12l5.9-3.7c4.1-2.5,9.4-1.3,12,2.8l1,1.6c2.5,4.1,1.3,9.4-2.8,12
				l-5.9,3.7C305.8,231.1,300.4,229.8,297.9,225.7z"/>
			<g>
				<path class="st0" d="M302.5,210.4l-2,1.2c-0.7,0.4-1.2,0.9-1.8,1.4l9.9,15.9c0.7-0.2,1.4-0.5,2.1-1l2-1.2L302.5,210.4z"/>
				<path class="st0" d="M317.2,223.4c2.6-3.1,3.1-7.7,0.8-11.3c-2.3-3.6-6.6-5.2-10.5-4.2L317.2,223.4z"/>
			</g>
		</g>
		<polyline class="st6" points="320.9,222.9 323.2,227.4 322,229.7 		"/>
		<polyline class="st6" points="317.8,222.2 317.2,230.2 315.2,233.6 		"/>
		<polyline class="st6" points="315,225.3 307.5,232.9 305.7,236.6 		"/>
		<path class="st11" d="M309,190.4c-2.8,1.4-4.1,7.4-0.5,11.6c4,4.6,8.1,7.2,9.7,6.5c2.8-1.4,3-6.6,0.5-11.6
			C316.1,191.8,311.8,189,309,190.4z"/>
		<path class="st11" d="M300.3,200.1c-1.4,2.8,1.1,8.4,6.6,9.6c6,1.3,10.8,0.9,11.6-0.6c1.4-2.8-1.5-7.1-6.6-9.6
			C306.9,197,301.7,197.2,300.3,200.1z"/>
	</g>
	<g class="st8">
		<g>
			<circle class="st11" cx="367" cy="259.1" r="7.4"/>
			<path class="st0" d="M367,251.7c-4.1,0-7.4,3.3-7.4,7.4c0,4.1,3.3,7.4,7.4,7.4V251.7z"/>
			<path class="st0" d="M372,267.6l-0.6-0.2c-0.4-0.2-0.6-0.6-0.4-1l3.9-9.3c0.2-0.4,0.6-0.6,1-0.4l0.6,0.2c2.5,1.1,3.7,4,2.7,6.5
				l-0.7,1.6C377.5,267.5,374.5,268.7,372,267.6z"/>
			<line class="st6" x1="378.3" y1="260.4" x2="383.3" y2="260.4"/>
		</g>
		<g>
			<path class="st11" d="M344,269.4l-1-1.6c-2.5-4.1-1.3-9.4,2.8-12l5.9-3.7c4.1-2.5,9.4-1.3,12,2.8l1,1.6c2.5,4.1,1.3,9.4-2.8,12
				l-5.9,3.7C351.9,274.7,346.6,273.4,344,269.4z"/>
			<g>
				<path class="st0" d="M348.6,254.1l-2,1.2c-0.7,0.4-1.2,0.9-1.8,1.4l9.9,15.9c0.7-0.2,1.4-0.5,2.1-1l2-1.2L348.6,254.1z"/>
				<path class="st0" d="M363.3,267c2.6-3.1,3.1-7.7,0.8-11.3s-6.6-5.2-10.5-4.2L363.3,267z"/>
			</g>
		</g>
		<polyline class="st6" points="367,266.5 369.3,271 368.2,273.3 		"/>
		<polyline class="st6" points="363.9,265.8 363.3,273.9 361.4,277.3 		"/>
		<polyline class="st6" points="361.1,268.9 353.6,276.6 351.8,280.2 		"/>
		<path class="st11" d="M355.1,234c-2.8,1.4-4.1,7.4-0.5,11.6c4,4.6,8.1,7.2,9.7,6.5c2.8-1.4,3-6.6,0.5-11.6S357.9,232.6,355.1,234z
			"/>
		<path class="st11" d="M346.4,243.7c-1.4,2.8,1.1,8.4,6.6,9.6c6,1.3,10.8,0.9,11.6-0.6c1.4-2.8-1.5-7.1-6.6-9.6
			C353,240.6,347.8,240.9,346.4,243.7z"/>
	</g>
	<g class="st8">
		<g>
			<circle class="st11" cx="435.6" cy="207.5" r="7.4"/>
			<path class="st0" d="M435.6,200.1c-4.1,0-7.4,3.3-7.4,7.4c0,4.1,3.3,7.4,7.4,7.4V200.1z"/>
			<path class="st0" d="M440.5,216l-0.6-0.2c-0.4-0.2-0.6-0.6-0.4-1l3.9-9.3c0.2-0.4,0.6-0.6,1-0.4l0.6,0.2c2.5,1.1,3.7,4,2.7,6.5
				l-0.7,1.6C446,215.9,443.1,217.1,440.5,216z"/>
			<line class="st6" x1="446.8" y1="208.9" x2="451.9" y2="208.9"/>
		</g>
		<g>
			<path class="st11" d="M412.6,217.8l-1-1.6c-2.5-4.1-1.3-9.4,2.8-12l5.9-3.7c4.1-2.5,9.4-1.3,12,2.8l1,1.6c2.5,4.1,1.3,9.4-2.8,12
				l-5.9,3.7C420.4,223.1,415.1,221.9,412.6,217.8z"/>
			<g>
				<path class="st0" d="M417.1,202.5l-2,1.2c-0.7,0.4-1.2,0.9-1.8,1.4l9.9,15.9c0.7-0.2,1.4-0.5,2.1-1l2-1.2L417.1,202.5z"/>
				<path class="st0" d="M431.9,215.4c2.6-3.1,3.1-7.7,0.8-11.3c-2.3-3.6-6.6-5.2-10.5-4.2L431.9,215.4z"/>
			</g>
		</g>
		<polyline class="st6" points="435.6,214.9 437.8,219.5 436.7,221.7 		"/>
		<polyline class="st6" points="432.4,214.2 431.9,222.3 429.9,225.7 		"/>
		<polyline class="st6" points="429.6,217.4 422.2,225 420.3,228.7 		"/>
		<path class="st11" d="M423.6,182.4c-2.8,1.4-4.1,7.4-0.5,11.6c4,4.6,8.1,7.2,9.7,6.5c2.8-1.4,3-6.6,0.5-11.6
			S426.4,181,423.6,182.4z"/>
		<path class="st11" d="M415,192.1c-1.4,2.8,1.1,8.4,6.6,9.6c6,1.3,10.8,0.9,11.6-0.6c1.4-2.8-1.5-7.1-6.6-9.6
			C421.6,189,416.4,189.3,415,192.1z"/>
	</g>
	<g class="st8">
		<g>
			<circle class="st11" cx="404.4" cy="309.1" r="7.4"/>
			<path class="st0" d="M404.4,301.7c-4.1,0-7.4,3.3-7.4,7.4c0,4.1,3.3,7.4,7.4,7.4V301.7z"/>
			<path class="st0" d="M409.3,317.6l-0.6-0.2c-0.4-0.2-0.6-0.6-0.4-1l3.9-9.3c0.2-0.4,0.6-0.6,1-0.4l0.6,0.2c2.5,1.1,3.7,4,2.7,6.5
				l-0.7,1.6C414.8,317.5,411.9,318.7,409.3,317.6z"/>
			<line class="st6" x1="415.6" y1="310.5" x2="420.7" y2="310.5"/>
		</g>
		<g>
			<path class="st11" d="M381.4,319.4l-1-1.6c-2.5-4.1-1.3-9.4,2.8-12l5.9-3.7c4.1-2.5,9.4-1.3,12,2.8l1,1.6c2.5,4.1,1.3,9.4-2.8,12
				l-5.9,3.7C389.2,324.7,383.9,323.5,381.4,319.4z"/>
			<g>
				<path class="st0" d="M385.9,304.1l-2,1.2c-0.7,0.4-1.2,0.9-1.8,1.4l9.9,15.9c0.7-0.2,1.4-0.5,2.1-1l2-1.2L385.9,304.1z"/>
				<path class="st0" d="M400.7,317c2.6-3.1,3.1-7.7,0.8-11.3c-2.3-3.6-6.6-5.2-10.5-4.2L400.7,317z"/>
			</g>
		</g>
		<polyline class="st6" points="404.4,316.5 406.6,321.1 405.5,323.3 		"/>
		<polyline class="st6" points="401.2,315.8 400.7,323.9 398.7,327.3 		"/>
		<polyline class="st6" points="398.4,319 391,326.6 389.1,330.3 		"/>
		<path class="st11" d="M392.4,284c-2.8,1.4-4.1,7.4-0.5,11.6c4,4.6,8.1,7.2,9.7,6.5c2.8-1.4,3-6.6,0.5-11.6
			C399.5,285.5,395.2,282.6,392.4,284z"/>
		<path class="st11" d="M383.8,293.7c-1.4,2.8,1.1,8.4,6.6,9.6c6,1.3,10.8,0.9,11.6-0.6c1.4-2.8-1.5-7.1-6.6-9.6
			C390.4,290.6,385.2,290.9,383.8,293.7z"/>
	</g>
	<line class="st13" x1="190.4" y1="288.5" x2="190.4" y2="320.1"/>
	<line class="st13" x1="134" y1="341.1" x2="145.1" y2="341.1"/>
	<g class="st8">
		<rect x="134" y="167.8" class="st4" width="64" height="73"/>
		<line class="st4" x1="142.3" y1="179.3" x2="147.3" y2="179.3"/>
		<line class="st4" x1="142.3" y1="191" x2="147.3" y2="191"/>
		<line class="st4" x1="142.3" y1="202.8" x2="147.3" y2="202.8"/>
		<line class="st4" x1="142.3" y1="214.5" x2="147.3" y2="214.5"/>
		<line class="st4" x1="142.3" y1="226.3" x2="147.3" y2="226.3"/>
		<line class="st4" x1="153.8" y1="179.3" x2="178" y2="179.3"/>
		<line class="st4" x1="153.8" y1="191" x2="178" y2="191"/>
		<line class="st4" x1="153.8" y1="202.8" x2="178" y2="202.8"/>
		<line class="st4" x1="153.8" y1="214.5" x2="178" y2="214.5"/>
		<line class="st4" x1="153.8" y1="226.3" x2="178" y2="226.3"/>
	</g>
	<polyline class="st13" points="76.8,124.1 90.5,124.1 90.5,155.8 	"/>
	<g class="st8">
		<g>
			<path class="st11" d="M38.4,116.4v12.3c0,3.3,8.6,6,19.2,6c10.6,0,19.2-2.7,19.2-6v-12.3H38.4z"/>
			<ellipse class="st11" cx="57.6" cy="116.4" rx="19.2" ry="6"/>
		</g>
		<g>
			<path class="st11" d="M53.6,98v12.3c0,3.3,8.6,6,19.2,6c10.6,0,19.2-2.7,19.2-6V98H53.6z"/>
			<ellipse class="st11" cx="72.9" cy="98" rx="19.2" ry="6"/>
		</g>
		<g>
			<path class="st11" d="M68.9,77.1v12.3c0,3.3,8.6,6,19.2,6c10.6,0,19.2-2.7,19.2-6V77.1H68.9z"/>
			<ellipse class="st11" cx="88.1" cy="77.1" rx="19.2" ry="6"/>
		</g>
	</g>
	<g class="st8">
		<rect x="29.9" y="208.9" class="st4" width="64" height="117.8"/>
		<line class="st4" x1="50.3" y1="223.6" x2="61.9" y2="223.6"/>
		<line class="st4" x1="50.3" y1="240.8" x2="68.9" y2="240.8"/>
		<line class="st4" x1="50.3" y1="257.9" x2="68.9" y2="257.9"/>
		<line class="st4" x1="50.3" y1="275.1" x2="68.9" y2="275.1"/>
		<line class="st4" x1="50.3" y1="292.2" x2="68.9" y2="292.2"/>
		<line class="st4" x1="50.3" y1="309.4" x2="68.9" y2="309.4"/>
		<circle class="st4" cx="42.5" cy="223.6" r="1.6"/>
		<circle class="st4" cx="42.5" cy="240.8" r="1.6"/>
		<circle class="st4" cx="42.5" cy="257.9" r="1.6"/>
		<circle class="st4" cx="42.5" cy="275.1" r="1.6"/>
		<circle class="st4" cx="42.5" cy="292.2" r="1.6"/>
		<circle class="st4" cx="42.5" cy="309.4" r="1.6"/>
	</g>
	<g class="st8">
		<path class="st4" d="M55.4,167v46.1c0,6.1,14.6,11.1,32.7,11.1c18,0,32.7-5,32.7-11.1V167H55.4z"/>
		<ellipse class="st4" cx="88.1" cy="167" rx="32.7" ry="11.1"/>
		<path class="st4" d="M120.8,190c0,6.1-14.6,11.1-32.7,11.1s-32.7-5-32.7-11.1"/>
	</g>
	<g class="st8">
		<rect x="145.1" y="320.1" class="st4" width="90.5" height="82.1"/>
		<rect x="153.2" y="339.1" class="st4" width="4.4" height="4.4"/>
		<rect x="153.2" y="352" class="st4" width="4.4" height="4.4"/>
		<rect x="153.2" y="364.9" class="st4" width="4.4" height="4.4"/>
		<rect x="153.2" y="377.8" class="st4" width="4.4" height="4.4"/>
		<line class="st4" x1="162.5" y1="341.3" x2="180.1" y2="341.3"/>
		<line class="st4" x1="162.5" y1="354.2" x2="180.1" y2="354.2"/>
		<line class="st4" x1="162.5" y1="367.1" x2="180.1" y2="367.1"/>
		<line class="st4" x1="162.5" y1="380" x2="180.1" y2="380"/>
		<rect x="194.4" y="339.1" class="st4" width="4.4" height="4.4"/>
		<rect x="194.4" y="352" class="st4" width="4.4" height="4.4"/>
		<rect x="194.4" y="364.9" class="st4" width="4.4" height="4.4"/>
		<rect x="194.4" y="377.8" class="st4" width="4.4" height="4.4"/>
		<line class="st4" x1="203.8" y1="341.3" x2="221.3" y2="341.3"/>
		<line class="st4" x1="203.8" y1="354.2" x2="221.3" y2="354.2"/>
		<line class="st4" x1="203.8" y1="367.1" x2="221.3" y2="367.1"/>
		<line class="st4" x1="203.8" y1="380" x2="221.3" y2="380"/>
	</g>
	<g class="st8">
		<rect x="68.9" y="232.7" class="st4" width="85.9" height="98.5"/>
		<rect x="77.8" y="247" class="st4" width="4.4" height="4.4"/>
		<rect x="77.8" y="260.1" class="st4" width="4.4" height="4.4"/>
		<line class="st4" x1="87.1" y1="249.2" x2="104.7" y2="249.2"/>
		<line class="st4" x1="87.1" y1="262.3" x2="104.7" y2="262.3"/>
		<rect x="117.1" y="247" class="st4" width="4.4" height="4.4"/>
		<rect x="117.1" y="260.1" class="st4" width="4.4" height="4.4"/>
		<line class="st4" x1="126.4" y1="249.2" x2="144" y2="249.2"/>
		<line class="st4" x1="126.4" y1="262.3" x2="144" y2="262.3"/>
		<rect x="77.8" y="273.2" class="st4" width="4.4" height="4.4"/>
		<line class="st4" x1="87.1" y1="275.4" x2="104.7" y2="275.4"/>
		<rect x="117.1" y="273.2" class="st4" width="4.4" height="4.4"/>
		<line class="st4" x1="126.4" y1="275.4" x2="144" y2="275.4"/>
		<rect x="77.8" y="286.3" class="st4" width="4.4" height="4.4"/>
		<line class="st4" x1="87.1" y1="288.5" x2="104.7" y2="288.5"/>
		<rect x="117.1" y="286.3" class="st4" width="4.4" height="4.4"/>
		<line class="st4" x1="126.4" y1="288.5" x2="144" y2="288.5"/>
	</g>
	<g class="st8">
		<path class="st11" d="M134,308.4H80.6v77.9h0c0,0,0,0.1,0,0.1c0,5.3,12,9.6,26.7,9.6c14.8,0,26.7-4.3,26.7-9.6c0,0,0-0.1,0-0.1h0
			V308.4z"/>
		<ellipse class="st11" cx="107.3" cy="308.4" rx="26.7" ry="9.6"/>
		<path class="st11" d="M134,327.5c0,5.3-12,9.6-26.7,9.6s-26.7-4.3-26.7-9.6"/>
		<path class="st11" d="M134,347.4c0,5.3-12,9.6-26.7,9.6s-26.7-4.3-26.7-9.6"/>
		<path class="st11" d="M134,367.2c0,5.3-12,9.6-26.7,9.6s-26.7-4.3-26.7-9.6"/>
	</g>
	<rect x="260.9" y="168.9" class="st16" width="7.7" height="7.7"/>
	<rect x="263.2" y="244.3" class="st16" width="6.9" height="6.9"/>
	<rect x="215" y="300.8" class="st16" width="12.5" height="12.5"/>
	<rect x="235.6" y="357.5" class="st13" width="20.2" height="18.3"/>
	<rect x="21.3" y="170.9" class="st16" width="14.4" height="14.4"/>
	<rect x="103.7" y="112.3" class="st16" width="9.5" height="9.5"/>
	<rect x="248.6" y="128" class="st13" width="4.3" height="4.3"/>
	<rect x="159.6" y="286.4" class="st16" width="7.5" height="7.5"/>
	<rect x="179.1" y="310" class="st16" width="4.3" height="4.3"/>
	<rect x="168.1" y="256.9" class="st16" width="4.3" height="4.3"/>
	<rect x="179.4" y="69.8" class="st13" width="5.7" height="5.7"/>
	<polyline class="st13" points="90.5,142.1 108.9,142.1 108.9,134.7 123.4,134.7 	"/>
	<line class="st13" x1="152.5" y1="143.6" x2="152.5" y2="167.8"/>
	<line class="st13" x1="120.8" y1="183.6" x2="134" y2="183.6"/>
	<g class="st8">
		<rect x="134" y="167.8" class="st4" width="64" height="73"/>
		<line class="st4" x1="142.3" y1="179.3" x2="147.3" y2="179.3"/>
		<line class="st4" x1="142.3" y1="191" x2="147.3" y2="191"/>
		<line class="st4" x1="142.3" y1="202.8" x2="147.3" y2="202.8"/>
		<line class="st4" x1="142.3" y1="214.5" x2="147.3" y2="214.5"/>
		<line class="st4" x1="142.3" y1="226.3" x2="147.3" y2="226.3"/>
		<line class="st4" x1="153.8" y1="179.3" x2="178" y2="179.3"/>
		<line class="st4" x1="153.8" y1="191" x2="178" y2="191"/>
		<line class="st4" x1="153.8" y1="202.8" x2="178" y2="202.8"/>
		<line class="st4" x1="153.8" y1="214.5" x2="178" y2="214.5"/>
		<line class="st4" x1="153.8" y1="226.3" x2="178" y2="226.3"/>
	</g>
	<g class="st8">
		<rect x="178.7" y="138.6" class="st11" width="64" height="149.9"/>
		<line class="st11" x1="196.6" y1="152.7" x2="229.3" y2="152.7"/>
		<line class="st11" x1="196.6" y1="169.9" x2="229.3" y2="169.9"/>
		<line class="st11" x1="196.6" y1="187" x2="229.3" y2="187"/>
		<line class="st11" x1="196.6" y1="204.2" x2="229.3" y2="204.2"/>
		<line class="st11" x1="196.6" y1="221.3" x2="229.3" y2="221.3"/>
		<line class="st11" x1="196.6" y1="238.5" x2="229.3" y2="238.5"/>
		<line class="st11" x1="196.6" y1="255.7" x2="229.3" y2="255.7"/>
		<line class="st11" x1="196.6" y1="272.8" x2="229.3" y2="272.8"/>
		<circle class="st11" cx="188.8" cy="152.7" r="1.6"/>
		<circle class="st11" cx="188.8" cy="169.9" r="1.6"/>
		<circle class="st11" cx="188.8" cy="187" r="1.6"/>
		<circle class="st11" cx="188.8" cy="204.2" r="1.6"/>
		<circle class="st11" cx="188.8" cy="221.3" r="1.6"/>
		<circle class="st11" cx="188.8" cy="238.5" r="1.6"/>
		<circle class="st11" cx="188.8" cy="255.7" r="1.6"/>
		<circle class="st11" cx="188.8" cy="272.8" r="1.6"/>
	</g>
	<g class="st8">
		<g>
			<rect x="123.4" y="79.3" class="st4" width="43.5" height="64.3"/>
			<rect x="130.5" y="90.3" class="st4" width="4.4" height="4.4"/>
			<rect x="130.5" y="103.2" class="st4" width="4.4" height="4.4"/>
			<rect x="130.5" y="116.1" class="st4" width="4.4" height="4.4"/>
			<rect x="130.5" y="129.1" class="st4" width="4.4" height="4.4"/>
			<line class="st4" x1="139.9" y1="92.5" x2="157.4" y2="92.5"/>
			<line class="st4" x1="139.9" y1="105.4" x2="157.4" y2="105.4"/>
			<line class="st4" x1="139.9" y1="118.4" x2="157.4" y2="118.4"/>
		</g>
		<line class="st4" x1="139.9" y1="131.3" x2="157.4" y2="131.3"/>
	</g>
</g>
</svg>
