<svg enable-background="new 0 0 116 115" viewBox="0 0 116 115" xmlns="http://www.w3.org/2000/svg"><path d="m52.5 85.4v-21.3c-.3 0-.7.1-1 .2v21.4c0 .2.1.3.2.4 1.7 1.5 2.7 3.7 2.7 6 0 4.4-3.6 8-8 8s-8-3.6-8-8c0-2.3 1-4.5 2.7-6 .1-.1.2-.3.2-.4v-21.7c-.3 0-.7 0-1 0v21.3c-1.9 1.7-2.9 4.1-2.9 6.6 0 5 4.1 9 9 9s9-4 9-8.9c-0-2.5-1.1-4.9-2.9-6.6z" fill="#3aaa35"/><path d="m52.5 26c0-3.4-2.7-6.1-6.1-6.1s-6.1 2.7-6.1 6.1v27h1v-27c0-2.8 2.3-5.1 5.1-5.1s5.1 2.3 5.1 5.1v27h1z" fill="#3aaa35"/><path d="m48.3 88.3v-24.3c-1.2 0-2.6 0-3.8 0v24.4c-1.5.7-2.4 2.2-2.4 3.8 0 2.4 1.9 4.3 4.3 4.3s4.3-1.9 4.3-4.4c0-1.6-.9-3.1-2.4-3.8z" fill="#3aaa35"/><path d="m76.6 56.3c-6.8 0-12.3-5.5-12.3-12.3s5.5-12.3 12.3-12.3 12.4 5.5 12.4 12.3-5.6 12.3-12.4 12.3zm0-23.6c-6.2 0-11.3 5.1-11.3 11.3s5.1 11.3 11.3 11.3 11.4-5 11.4-11.3-5.1-11.3-11.4-11.3z" fill="#3aaa35"/><path d="m76.6 46.2c-1.2 0-2.1-1-2.1-2.1 0-1.2 1-2.1 2.1-2.1 1.2 0 2.1 1 2.1 2.1.1 1.1-.9 2.1-2.1 2.1zm0-3.3c-.6 0-1.1.5-1.1 1.1s.5 1.1 1.1 1.1 1.1-.5 1.1-1.1-.4-1.1-1.1-1.1z" fill="#3aaa35"/><path d="m76.7 60c-8.8 0-16-7.2-16-16 0-7.3 4.8-13.5 11.8-15.4v-3.1c0-2 1.6-3.6 3.6-3.6h2c2 0 3.6 1.6 3.6 3.6v3.3c6.6 2.2 11 8.2 11 15.2 0 8.8-7.2 16-16 16zm-.6-37.1c-1.4 0-2.6 1.2-2.6 2.6v3.5c0 .2-.2.4-.4.5-6.7 1.6-11.4 7.6-11.4 14.5 0 8.3 6.7 15 15 15s15-6.7 15-15c0-6.6-4.4-12.4-10.6-14.3-.2-.1-.4-.3-.4-.5v-3.7c0-1.4-1.2-2.6-2.6-2.6z" fill="#3aaa35"/><path d="m88.5 44.5h-2.8c-.3 0-.5-.2-.5-.5s.2-.5.5-.5h2.8c.3 0 .5.2.5.5s-.3.5-.5.5z" fill="#3aaa35"/><path d="m76.6 56.3c-.3 0-.5-.2-.5-.5v-2.8c0-.3.2-.5.5-.5s.5.3.5.5v2.8c0 .3-.2.5-.5.5z" fill="#3aaa35"/><path d="m67.6 44.5h-2.8c-.3 0-.5-.2-.5-.5s.2-.5.5-.5h2.8c.3 0 .5.2.5.5s-.2.5-.5.5z" fill="#3aaa35"/><path d="m76.6 35.5c-.3 0-.5-.2-.5-.5v-2.8c0-.3.2-.5.5-.5s.5.2.5.5v2.8c0 .3-.2.5-.5.5z" fill="#3aaa35"/><path d="m78.2 43.6 7.8-2.3" fill="none"/><path d="m78.2 44.1c-.2 0-.4-.1-.5-.4s.1-.5.3-.6l7.8-2.2c.3-.1.5.1.6.3s-.1.5-.3.6l-7.8 2.2c0 .1 0 .1-.1.1z" fill="#3aaa35"/><path d="m76.6 42.4v-4.8" fill="none"/><path d="m76.6 42.9c-.3 0-.5-.2-.5-.5v-4.8c0-.3.2-.5.5-.5s.5.2.5.5v4.8c0 .3-.2.5-.5.5z" fill="#3aaa35"/><path d="m54 64.9h-15.2c-1.5 0-2.7-1.2-2.7-2.7v-7.4c0-1.5 1.2-2.7 2.7-2.7h15.3c1.5 0 2.7 1.2 2.7 2.7v7.4c-.1 1.5-1.3 2.7-2.8 2.7zm-15.2-11.8c-.9 0-1.7.8-1.7 1.7v7.4c0 .9.8 1.7 1.7 1.7h15.3c.9 0 1.7-.8 1.7-1.7v-7.4c0-.9-.8-1.7-1.7-1.7z" fill="#3aaa35"/><path d="m40.8 55.1v6.5" fill="none"/><path d="m40.8 62.1c-.3 0-.5-.2-.5-.5v-6.5c0-.3.2-.5.5-.5s.5.2.5.5v6.5c0 .3-.2.5-.5.5z" fill="#3aaa35"/><path d="m52 55.2v6.5" fill="none"/><path d="m52 62.2c-.3 0-.5-.2-.5-.5v-6.5c0-.3.2-.5.5-.5s.5.2.5.5v6.5c0 .3-.2.5-.5.5z" fill="#3aaa35"/><path d="m46.4 55.2v6.5" fill="none"/><g fill="#3aaa35"><path d="m46.4 62.2c-.3 0-.5-.2-.5-.5v-6.5c0-.3.2-.5.5-.5s.5.2.5.5v6.5c0 .3-.2.5-.5.5z"/><path d="m29.3 75.4c-.3 0-.5-.2-.5-.5v-29.2c0-.3.2-.5.5-.5s.5.2.5.5v29.2c0 .3-.2.5-.5.5z"/><path d="m33.4 50.3c-.1 0-.3 0-.4-.1l-3.8-3.8-3.7 3.6c-.2.2-.5.2-.7 0s-.2-.5 0-.7l4.1-4.1c.2-.2.5-.2.7 0l4.2 4.2c.2.2.2.5 0 .7-.1.1-.3.2-.4.2z"/><path d="m29.3 75.9c-.1 0-.3 0-.4-.1l-4.2-4.2c-.2-.2-.2-.5 0-.7s.5-.2.7 0l3.8 3.8 3.8-3.8c.2-.2.5-.2.7 0s.2.5 0 .7l-4.1 4.1c0 .1-.2.2-.3.2z"/><path d="m84.1 92.8c-.3 0-.5-.2-.5-.5v-11.9c0-2.6 2.1-4.7 4.7-4.7h7.4c.3 0 .5.2.5.5s-.2.5-.5.5h-7.4c-2.1 0-3.7 1.7-3.7 3.7v11.9c0 .3-.2.5-.5.5z"/><path d="m74.2 92.8c-.3 0-.5-.2-.5-.5v-11.9c0-2.1-1.7-3.7-3.7-3.7h-7.4c-.3 0-.5-.2-.5-.5s.2-.5.5-.5h7.4c2.6 0 4.7 2.1 4.7 4.7v11.9c0 .3-.2.5-.5.5z"/><path d="m79.2 92.8c-.3 0-.5-.2-.5-.5v-24.1c0-.3.2-.5.5-.5s.5.2.5.5v24.1c0 .3-.3.5-.5.5z"/><path d="m90.3 82.1c-.1 0-.3 0-.4-.1-.2-.2-.2-.5 0-.7l5-5-5-5c-.2-.2-.2-.5 0-.7s.5-.2.7 0l5.4 5.4c.2.2.2.5 0 .7l-5.4 5.4c0-.1-.1-0-.3-0z"/><path d="m67.7 82.1c-.1 0-.3 0-.4-.1l-5.4-5.4c-.2-.2-.2-.5 0-.7l5.4-5.4c.2-.2.5-.2.7 0s.2.5 0 .7l-5 5 5 5c.2.2.2.5 0 .7-.1.1-.2.2-.3.2z"/><path d="m84.5 73.1c-.1 0-.3 0-.4-.1l-5-5-5 5c-.2.2-.5.2-.7 0s-.2-.5 0-.7l5.4-5.4c.2-.2.5-.2.7 0l5.4 5.4c.2.2.2.5 0 .7-.1.1-.2.1-.4.1z"/><path d="m89.9 96.3h-21.5c-.3 0-.5-.2-.5-.5v-5.4c0-.3.2-.5.5-.5s.5.2.5.5v4.9h20.5v-4.9c0-.3.2-.5.5-.5s.5.2.5.5v5.4c0 .2-.2.5-.5.5z"/></g></svg>