<?xml version="1.0" encoding="utf-8"?>
<!-- Generator: Adobe Illustrator 23.1.0, SVG Export Plug-In . SVG Version: 6.00 Build 0)  -->
<svg version="1.1" id="Слой_1" xmlns="http://www.w3.org/2000/svg" xmlns:xlink="http://www.w3.org/1999/xlink" x="0px" y="0px"
	 viewBox="0 0 116 115" style="enable-background:new 0 0 116 115;" xml:space="preserve">
<style type="text/css">
	.st0{fill:#3AAA35;}
	.st1{fill:none;}
	.st2{display:none;}
	.st3{display:inline;fill:#3AAA35;}
	.st4{display:inline;}
	.st5{fill:#FFFFFF;}
	.st6{fill:none;stroke:#3AAA35;stroke-linecap:round;stroke-linejoin:round;stroke-miterlimit:10;}
</style>
<g>
	<g>
		<g>
			<path class="st0" d="M52.5,85.4V64.1c-0.3,0-0.7,0.1-1,0.2v21.4c0,0.2,0.1,0.3,0.2,0.4c1.7,1.5,2.7,3.7,2.7,6c0,4.4-3.6,8-8,8
				s-8-3.6-8-8c0-2.3,1-4.5,2.7-6c0.1-0.1,0.2-0.3,0.2-0.4V64c-0.3,0-0.7,0-1,0v21.3c-1.9,1.7-2.9,4.1-2.9,6.6c0,5,4.1,9,9,9
				s9-4,9-8.9C55.4,89.5,54.3,87.1,52.5,85.4z"/>
			<path class="st0" d="M52.5,26c0-3.4-2.7-6.1-6.1-6.1s-6.1,2.7-6.1,6.1v27c0.3,0,0.7,0,1,0V26c0-2.8,2.3-5.1,5.1-5.1
				s5.1,2.3,5.1,5.1v27c0.3,0,0.7,0,1,0V26z"/>
		</g>
		<path class="st0" d="M48.3,88.3V64c-1.2,0-2.6,0-3.8,0v24.4c-1.5,0.7-2.4,2.2-2.4,3.8c0,2.4,1.9,4.3,4.3,4.3s4.3-1.9,4.3-4.4
			C50.7,90.5,49.8,89,48.3,88.3z"/>
	</g>
	<g>
		<path class="st0" d="M76.6,56.3c-6.8,0-12.3-5.5-12.3-12.3s5.5-12.3,12.3-12.3S89,37.2,89,44S83.4,56.3,76.6,56.3z M76.6,32.7
			c-6.2,0-11.3,5.1-11.3,11.3s5.1,11.3,11.3,11.3S88,50.3,88,44S82.9,32.7,76.6,32.7z"/>
		<path class="st0" d="M76.6,46.2c-1.2,0-2.1-1-2.1-2.1c0-1.2,1-2.1,2.1-2.1c1.2,0,2.1,1,2.1,2.1C78.8,45.2,77.8,46.2,76.6,46.2z
			 M76.6,42.9c-0.6,0-1.1,0.5-1.1,1.1s0.5,1.1,1.1,1.1s1.1-0.5,1.1-1.1S77.3,42.9,76.6,42.9z"/>
		<path class="st0" d="M76.7,60c-8.8,0-16-7.2-16-16c0-7.3,4.8-13.5,11.8-15.4v-3.1c0-2,1.6-3.6,3.6-3.6h2c2,0,3.6,1.6,3.6,3.6v3.3
			c6.6,2.2,11,8.2,11,15.2C92.7,52.8,85.5,60,76.7,60z M76.1,22.9c-1.4,0-2.6,1.2-2.6,2.6V29c0,0.2-0.2,0.4-0.4,0.5
			c-6.7,1.6-11.4,7.6-11.4,14.5c0,8.3,6.7,15,15,15s15-6.7,15-15c0-6.6-4.4-12.4-10.6-14.3c-0.2-0.1-0.4-0.3-0.4-0.5v-3.7
			c0-1.4-1.2-2.6-2.6-2.6H76.1z"/>
		<path class="st0" d="M88.5,44.5h-2.8c-0.3,0-0.5-0.2-0.5-0.5s0.2-0.5,0.5-0.5h2.8c0.3,0,0.5,0.2,0.5,0.5S88.7,44.5,88.5,44.5z"/>
		<path class="st0" d="M76.6,56.3c-0.3,0-0.5-0.2-0.5-0.5V53c0-0.3,0.2-0.5,0.5-0.5s0.5,0.3,0.5,0.5v2.8
			C77.1,56.1,76.9,56.3,76.6,56.3z"/>
		<path class="st0" d="M67.6,44.5h-2.8c-0.3,0-0.5-0.2-0.5-0.5s0.2-0.5,0.5-0.5h2.8c0.3,0,0.5,0.2,0.5,0.5S67.9,44.5,67.6,44.5z"/>
		<path class="st0" d="M76.6,35.5c-0.3,0-0.5-0.2-0.5-0.5v-2.8c0-0.3,0.2-0.5,0.5-0.5s0.5,0.2,0.5,0.5V35
			C77.1,35.3,76.9,35.5,76.6,35.5z"/>
		<g>
			<line class="st1" x1="78.2" y1="43.6" x2="86" y2="41.3"/>
			<path class="st0" d="M78.2,44.1c-0.2,0-0.4-0.1-0.5-0.4c-0.1-0.3,0.1-0.5,0.3-0.6l7.8-2.2c0.3-0.1,0.5,0.1,0.6,0.3
				s-0.1,0.5-0.3,0.6L78.3,44C78.3,44.1,78.3,44.1,78.2,44.1z"/>
		</g>
		<g>
			<line class="st1" x1="76.6" y1="42.4" x2="76.6" y2="37.6"/>
			<path class="st0" d="M76.6,42.9c-0.3,0-0.5-0.2-0.5-0.5v-4.8c0-0.3,0.2-0.5,0.5-0.5s0.5,0.2,0.5,0.5v4.8
				C77.1,42.7,76.9,42.9,76.6,42.9z"/>
		</g>
	</g>
	<g>
		<path class="st0" d="M54,64.9H38.8c-1.5,0-2.7-1.2-2.7-2.7v-7.4c0-1.5,1.2-2.7,2.7-2.7h15.3c1.5,0,2.7,1.2,2.7,2.7v7.4
			C56.7,63.7,55.5,64.9,54,64.9z M38.8,53.1c-0.9,0-1.7,0.8-1.7,1.7v7.4c0,0.9,0.8,1.7,1.7,1.7h15.3c0.9,0,1.7-0.8,1.7-1.7v-7.4
			c0-0.9-0.8-1.7-1.7-1.7H38.8z"/>
	</g>
	<g>
		<line class="st1" x1="40.8" y1="55.1" x2="40.8" y2="61.6"/>
		<path class="st0" d="M40.8,62.1c-0.3,0-0.5-0.2-0.5-0.5v-6.5c0-0.3,0.2-0.5,0.5-0.5s0.5,0.2,0.5,0.5v6.5
			C41.3,61.9,41.1,62.1,40.8,62.1z"/>
	</g>
	<g>
		<line class="st1" x1="52" y1="55.2" x2="52" y2="61.7"/>
		<path class="st0" d="M52,62.2c-0.3,0-0.5-0.2-0.5-0.5v-6.5c0-0.3,0.2-0.5,0.5-0.5s0.5,0.2,0.5,0.5v6.5C52.5,62,52.3,62.2,52,62.2z
			"/>
	</g>
	<g>
		<line class="st1" x1="46.4" y1="55.2" x2="46.4" y2="61.7"/>
		<path class="st0" d="M46.4,62.2c-0.3,0-0.5-0.2-0.5-0.5v-6.5c0-0.3,0.2-0.5,0.5-0.5s0.5,0.2,0.5,0.5v6.5
			C46.9,62,46.7,62.2,46.4,62.2z"/>
	</g>
	<path class="st0" d="M29.3,75.4c-0.3,0-0.5-0.2-0.5-0.5V45.7c0-0.3,0.2-0.5,0.5-0.5s0.5,0.2,0.5,0.5v29.2
		C29.8,75.2,29.6,75.4,29.3,75.4z"/>
	<path class="st0" d="M33.4,50.3c-0.1,0-0.3,0-0.4-0.1l-3.8-3.8L25.5,50c-0.2,0.2-0.5,0.2-0.7,0s-0.2-0.5,0-0.7l4.1-4.1
		c0.2-0.2,0.5-0.2,0.7,0l4.2,4.2c0.2,0.2,0.2,0.5,0,0.7C33.7,50.2,33.5,50.3,33.4,50.3z"/>
	<path class="st0" d="M29.3,75.9c-0.1,0-0.3,0-0.4-0.1l-4.2-4.2c-0.2-0.2-0.2-0.5,0-0.7s0.5-0.2,0.7,0l3.8,3.8l3.8-3.8
		c0.2-0.2,0.5-0.2,0.7,0s0.2,0.5,0,0.7l-4.1,4.1C29.6,75.8,29.4,75.9,29.3,75.9z"/>
	<g>
		<path class="st0" d="M84.1,92.8c-0.3,0-0.5-0.2-0.5-0.5V80.4c0-2.6,2.1-4.7,4.7-4.7h7.4c0.3,0,0.5,0.2,0.5,0.5s-0.2,0.5-0.5,0.5
			h-7.4c-2.1,0-3.7,1.7-3.7,3.7v11.9C84.6,92.6,84.4,92.8,84.1,92.8z"/>
		<path class="st0" d="M74.2,92.8c-0.3,0-0.5-0.2-0.5-0.5V80.4c0-2.1-1.7-3.7-3.7-3.7h-7.4c-0.3,0-0.5-0.2-0.5-0.5s0.2-0.5,0.5-0.5
			H70c2.6,0,4.7,2.1,4.7,4.7v11.9C74.7,92.6,74.5,92.8,74.2,92.8z"/>
		<path class="st0" d="M79.2,92.8c-0.3,0-0.5-0.2-0.5-0.5V68.2c0-0.3,0.2-0.5,0.5-0.5s0.5,0.2,0.5,0.5v24.1
			C79.7,92.6,79.4,92.8,79.2,92.8z"/>
		<path class="st0" d="M90.3,82.1c-0.1,0-0.3,0-0.4-0.1c-0.2-0.2-0.2-0.5,0-0.7l5-5l-5-5c-0.2-0.2-0.2-0.5,0-0.7s0.5-0.2,0.7,0
			L96,76c0.2,0.2,0.2,0.5,0,0.7l-5.4,5.4C90.6,82,90.5,82.1,90.3,82.1z"/>
		<path class="st0" d="M67.7,82.1c-0.1,0-0.3,0-0.4-0.1l-5.4-5.4c-0.2-0.2-0.2-0.5,0-0.7l5.4-5.4c0.2-0.2,0.5-0.2,0.7,0
			c0.2,0.2,0.2,0.5,0,0.7l-5,5l5,5c0.2,0.2,0.2,0.5,0,0.7C67.9,82,67.8,82.1,67.7,82.1z"/>
		<path class="st0" d="M84.5,73.1c-0.1,0-0.3,0-0.4-0.1l-5-5l-5,5c-0.2,0.2-0.5,0.2-0.7,0s-0.2-0.5,0-0.7l5.4-5.4
			c0.2-0.2,0.5-0.2,0.7,0l5.4,5.4c0.2,0.2,0.2,0.5,0,0.7C84.8,73.1,84.7,73.1,84.5,73.1z"/>
		<path class="st0" d="M89.9,96.3H68.4c-0.3,0-0.5-0.2-0.5-0.5v-5.4c0-0.3,0.2-0.5,0.5-0.5s0.5,0.2,0.5,0.5v4.9h20.5v-4.9
			c0-0.3,0.2-0.5,0.5-0.5s0.5,0.2,0.5,0.5v5.4C90.4,96,90.2,96.3,89.9,96.3z"/>
	</g>
</g>
<g class="st2">
	<path class="st3" d="M77.8,80.3c-0.1,0-0.3,0-0.4-0.1l-18-18c-0.1-0.1-0.2-0.4-0.1-0.5c0.1-0.2,0.3-0.3,0.5-0.3h8.4V26.1
		c0-0.3,0.2-0.5,0.5-0.5H87c0.3,0,0.5,0.2,0.5,0.5v35.1H96c0.2,0,0.4,0.1,0.5,0.3s0,0.4-0.1,0.5L78.2,80
		C78.1,80.3,77.9,80.3,77.8,80.3z M61,62.3l16.8,16.8l17-16.8H87c-0.3,0-0.5-0.2-0.5-0.5V26.6H69.2v35.1c0,0.3-0.2,0.5-0.5,0.5H61
		V62.3z"/>
	<g class="st4">
		<g>
			<path class="st5" d="M71.2,55.3v36.9c0,3.3-9.1,5.9-20.3,5.9s-20.3-2.6-20.3-5.9V55.3"/>
			<path class="st0" d="M50.9,98.6c-10.1,0-20.8-2.2-20.8-6.4V55.3c0-0.3,0.2-0.5,0.5-0.5s0.5,0.2,0.5,0.5v36.9
				c0,2.6,8.1,5.4,19.8,5.4s19.8-2.8,19.8-5.4V55.3c0-0.3,0.2-0.5,0.5-0.5s0.5,0.2,0.5,0.5v36.9C71.7,96.4,61,98.6,50.9,98.6z"/>
		</g>
		<path class="st0" d="M50.9,86.3c-10.1,0-20.8-2.2-20.8-6.4c0-0.3,0.2-0.5,0.5-0.5s0.5,0.2,0.5,0.5c0,2.6,8.1,5.4,19.8,5.4
			s19.8-2.8,19.8-5.4c0-0.3,0.2-0.5,0.5-0.5s0.5,0.2,0.5,0.5C71.7,84.1,61,86.3,50.9,86.3z"/>
		<path class="st0" d="M50.9,74c-10.1,0-20.8-2.2-20.8-6.4c0-0.3,0.2-0.5,0.5-0.5s0.5,0.2,0.5,0.5c0,2.6,8.1,5.4,19.8,5.4
			s19.8-2.8,19.8-5.4c0-0.3,0.2-0.5,0.5-0.5s0.5,0.2,0.5,0.5C71.7,71.8,61,74,50.9,74z"/>
		<g>
			<ellipse class="st5" cx="50.9" cy="55.3" rx="20.3" ry="5.9"/>
			<path class="st0" d="M50.9,61.7c-10.1,0-20.8-2.2-20.8-6.4s10.7-6.4,20.8-6.4s20.8,2.2,20.8,6.4S61,61.7,50.9,61.7z M50.9,49.9
				c-11.7,0-19.8,2.8-19.8,5.4c0,2.6,8.1,5.4,19.8,5.4s19.8-2.8,19.8-5.4C70.7,52.8,62.6,49.9,50.9,49.9z"/>
		</g>
	</g>
	<g class="st4">
		<path class="st0" d="M30,43.8c-0.3,0-0.5-0.1-0.7-0.3S29,43.1,29,42.8s0.1-0.5,0.3-0.7c0.2-0.2,0.4-0.3,0.7-0.3
			c0.3,0,0.5,0.1,0.7,0.3s0.3,0.4,0.3,0.7s-0.1,0.5-0.3,0.7C30.5,43.7,30.3,43.8,30,43.8z"/>
		<path class="st0" d="M38.4,43.6c-1,0-1.9-0.2-2.7-0.7s-1.4-1.1-1.9-1.9c-0.5-0.8-0.7-1.7-0.7-2.8c0-1,0.2-2,0.6-2.8
			c0.4-0.8,1-1.5,1.8-1.9c0.7-0.5,1.6-0.7,2.6-0.7c0.8,0,1.6,0.2,2.3,0.5s1.3,0.8,1.8,1.4c0.1,0.1,0.1,0.3,0.1,0.4
			c0,0.1-0.1,0.3-0.3,0.3c-0.1,0.1-0.2,0.1-0.4,0.1c-0.1,0-0.3-0.1-0.4-0.2c-0.8-1-1.9-1.5-3.2-1.5c-0.8,0-1.4,0.2-2,0.6
			c-0.6,0.4-1,0.9-1.3,1.5s-0.5,1.4-0.5,2.2s0.2,1.5,0.5,2.2s0.8,1.2,1.4,1.6c0.6,0.4,1.3,0.6,2.1,0.6c0.5,0,1-0.1,1.5-0.2
			c0.5-0.2,0.9-0.4,1.2-0.7c0.1-0.1,0.2-0.2,0.4-0.2c0.1,0,0.3,0,0.4,0.1c0.1,0.1,0.2,0.2,0.2,0.4c0,0.1,0,0.3-0.2,0.4
			C41,43.1,39.8,43.6,38.4,43.6z"/>
		<path class="st0" d="M48.8,43.6c-0.7,0-1.4-0.1-2.1-0.4C46,43,45.3,42.5,44.9,42c-0.1-0.1-0.1-0.3-0.1-0.4c0-0.1,0.1-0.3,0.2-0.4
			c0.1-0.1,0.3-0.1,0.4-0.1c0.1,0,0.3,0.1,0.4,0.2c0.4,0.4,0.8,0.7,1.4,0.9s1.1,0.3,1.8,0.3c1.1,0,1.9-0.2,2.3-0.6
			c0.5-0.4,0.7-0.8,0.7-1.4c0-0.5-0.2-0.9-0.7-1.3s-1.2-0.6-2.2-0.7c-1.3-0.2-2.2-0.5-2.9-1c-0.6-0.5-0.9-1.1-0.9-1.8
			c0-0.6,0.2-1.2,0.5-1.6c0.3-0.4,0.8-0.8,1.3-1c0.6-0.2,1.2-0.3,1.9-0.3c0.9,0,1.6,0.2,2.2,0.5c0.6,0.3,1.1,0.7,1.5,1.3
			c0.1,0.1,0.1,0.3,0.1,0.4c0,0.1-0.1,0.3-0.3,0.4c-0.1,0.1-0.3,0.1-0.4,0.1c-0.1,0-0.3-0.1-0.4-0.2c-0.3-0.4-0.7-0.7-1.2-0.9
			s-1-0.3-1.6-0.3c-0.8,0-1.4,0.2-1.9,0.5s-0.7,0.8-0.7,1.3c0,0.3,0.1,0.6,0.3,0.9c0.2,0.3,0.5,0.5,0.9,0.6c0.4,0.2,1,0.3,1.7,0.4
			c1,0.1,1.7,0.3,2.3,0.7c0.6,0.3,1,0.7,1.2,1.1c0.2,0.4,0.4,0.8,0.4,1.3c0,0.6-0.2,1.1-0.6,1.6c-0.4,0.5-0.9,0.8-1.5,1
			C50.2,43.5,49.5,43.6,48.8,43.6z"/>
		<path class="st0" d="M59.2,43.5c-0.2,0-0.4-0.1-0.5-0.4l-4.4-9.5c-0.1-0.1-0.1-0.3,0-0.4c0.1-0.1,0.1-0.2,0.3-0.3
			c0.1-0.1,0.3-0.1,0.4,0c0.1,0.1,0.2,0.1,0.3,0.3l4.3,9.4h-0.7l4.3-9.4c0.1-0.1,0.2-0.2,0.3-0.3s0.3,0,0.4,0
			c0.1,0.1,0.2,0.2,0.3,0.3s0.1,0.3,0,0.4l-4.4,9.5C59.7,43.3,59.5,43.5,59.2,43.5z"/>
	</g>
</g>
<g id="Слой_3" class="st2">
	<path class="st3" d="M23.3,99c-0.3,0-0.5-0.2-0.5-0.5V32c0-0.3,0.2-0.5,0.5-0.5s0.5,0.2,0.5,0.5v66.5C23.8,98.7,23.6,99,23.3,99z"
		/>
	<path class="st3" d="M80,90H13.6c-0.3,0-0.5-0.2-0.5-0.5s0.2-0.5,0.5-0.5H80c0.3,0,0.5,0.2,0.5,0.5S80.3,90,80,90z"/>
	<path class="st3" d="M48.6,77.4L48.6,77.4c-0.3-0.1-0.4-0.2-0.4-0.4l-6.8-39l-8.2,23.6c0,0.1-0.1,0.2-0.2,0.3l-9.4,4.9
		c-0.2,0.1-0.5,0-0.7-0.2c-0.1-0.2,0-0.5,0.2-0.7l9.2-4.8L41,35.9c0.1-0.2,0.3-0.3,0.5-0.3s0.4,0.2,0.5,0.4l6.9,39.9l19.2-20.3
		c0.2-0.2,0.5-0.2,0.7,0s0.2,0.5,0,0.7L49,77.3C48.9,77.4,48.8,77.4,48.6,77.4z"/>
	<g class="st4">
		<path class="st0" d="M25.3,36.6h-2c-0.3,0-0.5-0.2-0.5-0.5s0.2-0.5,0.5-0.5h2c0.3,0,0.5,0.2,0.5,0.5S25.6,36.6,25.3,36.6z"/>
		<path class="st0" d="M48.9,36.6H45c-0.3,0-0.5-0.2-0.5-0.5s0.2-0.5,0.5-0.5h3.9c0.3,0,0.5,0.2,0.5,0.5S49.2,36.6,48.9,36.6z
			 M41.1,36.6h-3.9c-0.3,0-0.5-0.2-0.5-0.5s0.2-0.5,0.5-0.5h3.9c0.3,0,0.5,0.2,0.5,0.5S41.3,36.6,41.1,36.6z M33.2,36.6h-3.9
			c-0.3,0-0.5-0.2-0.5-0.5s0.2-0.5,0.5-0.5h3.9c0.3,0,0.5,0.2,0.5,0.5S33.4,36.6,33.2,36.6z"/>
		<path class="st0" d="M54.9,36.6h-2c-0.3,0-0.5-0.2-0.5-0.5s0.2-0.5,0.5-0.5h2c0.3,0,0.5,0.2,0.5,0.5S55.1,36.6,54.9,36.6z"/>
	</g>
	<g class="st4">
		<path class="st0" d="M25.3,70.3h-2c-0.3,0-0.5-0.2-0.5-0.5s0.2-0.5,0.5-0.5h2c0.3,0,0.5,0.2,0.5,0.5S25.6,70.3,25.3,70.3z"/>
		<path class="st0" d="M40.9,70.3H37c-0.3,0-0.5-0.2-0.5-0.5s0.2-0.5,0.5-0.5h3.9c0.3,0,0.5,0.2,0.5,0.5S41.2,70.3,40.9,70.3z
			 M33.1,70.3h-3.9c-0.3,0-0.5-0.2-0.5-0.5s0.2-0.5,0.5-0.5h3.9c0.3,0,0.5,0.2,0.5,0.5S33.4,70.3,33.1,70.3z"/>
		<path class="st0" d="M46.8,70.3h-2c-0.3,0-0.5-0.2-0.5-0.5s0.2-0.5,0.5-0.5h2c0.3,0,0.5,0.2,0.5,0.5S47.1,70.3,46.8,70.3z"/>
	</g>
	<g class="st4">
		<path class="st0" d="M52,70.3h-2c-0.3,0-0.5-0.2-0.5-0.5s0.2-0.5,0.5-0.5h2c0.3,0,0.5,0.2,0.5,0.5S52.3,70.3,52,70.3z"/>
		<path class="st0" d="M68,70.3h-4c-0.3,0-0.5-0.2-0.5-0.5s0.2-0.5,0.5-0.5h4c0.3,0,0.5,0.2,0.5,0.5S68.3,70.3,68,70.3z M60,70.3h-4
			c-0.3,0-0.5-0.2-0.5-0.5s0.2-0.5,0.5-0.5h4c0.3,0,0.5,0.2,0.5,0.5S60.3,70.3,60,70.3z"/>
		<path class="st0" d="M74,70.3h-2c-0.3,0-0.5-0.2-0.5-0.5s0.2-0.5,0.5-0.5h2c0.3,0,0.5,0.2,0.5,0.5S74.3,70.3,74,70.3z"/>
	</g>
	<g class="st4">
		<circle class="st5" cx="32.7" cy="61.5" r="4.4"/>
		<path class="st0" d="M32.7,66.4c-2.7,0-4.9-2.2-4.9-4.9s2.2-4.9,4.9-4.9s4.9,2.2,4.9,4.9C37.6,64.2,35.4,66.4,32.7,66.4z
			 M32.7,57.6c-2.1,0-3.9,1.7-3.9,3.9c0,2.1,1.7,3.9,3.9,3.9c2.1,0,3.9-1.7,3.9-3.9C36.5,59.3,34.8,57.6,32.7,57.6z"/>
	</g>
	<g class="st4">
		<circle class="st5" cx="41.4" cy="36.1" r="4.4"/>
		<path class="st0" d="M41.4,41c-2.7,0-4.9-2.2-4.9-4.9s2.2-4.9,4.9-4.9s4.9,2.2,4.9,4.9S44.1,41,41.4,41z M41.4,32.2
			c-2.1,0-3.9,1.7-3.9,3.9c0,2.1,1.7,3.9,3.9,3.9s3.9-1.7,3.9-3.9C45.3,34,43.6,32.2,41.4,32.2z"/>
	</g>
	<g class="st4">
		<circle class="st5" cx="48.6" cy="76.9" r="4.4"/>
		<path class="st0" d="M48.6,81.8c-2.7,0-4.9-2.2-4.9-4.9s2.2-4.9,4.9-4.9s4.9,2.2,4.9,4.9S51.3,81.8,48.6,81.8z M48.6,73.1
			c-2.1,0-3.9,1.7-3.9,3.9s1.7,3.9,3.9,3.9c2.1,0,3.9-1.7,3.9-3.9S50.8,73.1,48.6,73.1z"/>
	</g>
	<g class="st4">
		<circle class="st5" cx="78.7" cy="49.8" r="27.1"/>
		<path class="st0" d="M78.7,77.4C63.4,77.4,51,65,51,49.8s12.4-27.6,27.6-27.6s27.6,12.4,27.6,27.6S93.9,77.4,78.7,77.4z
			 M78.7,23.1C64,23.1,52,35.1,52,49.8s12,26.6,26.6,26.6s26.6-12,26.6-26.6S93.4,23.1,78.7,23.1z"/>
	</g>
	<g class="st4">
		<g>
			<circle class="st5" cx="78.7" cy="34.3" r="2.4"/>
			<path class="st0" d="M78.7,37.2c-1.6,0-2.9-1.3-2.9-2.9c0-1.6,1.3-2.9,2.9-2.9s2.9,1.3,2.9,2.9C81.6,35.9,80.3,37.2,78.7,37.2z
				 M78.7,32.4c-1.1,0-1.9,0.9-1.9,1.9c0,1.1,0.9,1.9,1.9,1.9c1.1,0,1.9-0.9,1.9-1.9C80.6,33.2,79.7,32.4,78.7,32.4z"/>
		</g>
		<g>
			<circle class="st5" cx="78.7" cy="61.5" r="6.3"/>
			<path class="st0" d="M78.7,68.2c-3.7,0-6.8-3-6.8-6.8s3-6.8,6.8-6.8s6.8,3,6.8,6.8S82.4,68.2,78.7,68.2z M78.7,55.7
				c-3.2,0-5.8,2.6-5.8,5.8c0,3.2,2.6,5.8,5.8,5.8s5.8-2.6,5.8-5.8S81.8,55.7,78.7,55.7z"/>
		</g>
		<g>
			<path class="st5" d="M90.8,58.5l-1.3-12c-0.6-5.6-5.3-9.8-10.9-9.8l0,0c-5.6,0-10.3,4.2-10.9,9.8l-1.3,12
				c-1.3,0.1-2.3,1.2-2.3,2.5c0,1.4,1.1,2.5,2.5,2.5h23.9c1.4,0,2.5-1.1,2.5-2.5C93.1,59.7,92.1,58.6,90.8,58.5z"/>
			<path class="st0" d="M90.6,64H66.7c-1.6,0-3-1.3-3-3c0-1.4,1-2.6,2.3-2.9l1.2-11.6c0.6-5.8,5.5-10.2,11.4-10.2S89.4,40.6,90,46.5
				l1.2,11.6c1.3,0.3,2.3,1.5,2.3,2.9C93.6,62.6,92.2,64,90.6,64z M78.7,37.2c-5.4,0-9.8,4-10.4,9.4l-1.3,12c0,0.2-0.2,0.4-0.5,0.4
				c-1,0.1-1.8,0.9-1.8,2s0.9,2,2,2h23.9c1.1,0,2-0.9,2-2c0-1-0.8-1.9-1.8-2c-0.2,0-0.4-0.2-0.5-0.4l-1.3-12
				C88.5,41.2,84,37.2,78.7,37.2z"/>
		</g>
		<g>
			<line class="st1" x1="90.8" y1="58.5" x2="87.7" y2="58.5"/>
			<path class="st0" d="M90.8,59h-3.1c-0.3,0-0.5-0.2-0.5-0.5s0.2-0.5,0.5-0.5h3.1c0.3,0,0.5,0.2,0.5,0.5S91.1,59,90.8,59z"/>
		</g>
	</g>
</g>
<g id="Слой_4" class="st2">
	<path class="st3" d="M39.6,95.9H24.3c-0.3,0-0.5-0.2-0.5-0.5s0.2-0.5,0.5-0.5H39V59.2l-14.8-7.7c-0.2-0.1-0.3-0.4-0.2-0.7
		c0.1-0.2,0.4-0.3,0.7-0.2l15,7.8c0.2,0.1,0.3,0.3,0.3,0.4v36.5C40.1,95.7,39.8,95.9,39.6,95.9z"/>
	<g class="st4">
		<path class="st0" d="M69.1,82.7H46.8c-0.3,0-0.5-0.2-0.5-0.5s0.2-0.5,0.5-0.5h22.3c0.3,0,0.5,0.2,0.5,0.5S69.3,82.7,69.1,82.7z"/>
		<path class="st0" d="M66,85.9c-0.1,0-0.3,0-0.4-0.1c-0.2-0.2-0.2-0.5,0-0.7l2.8-2.8l-2.8-2.8c-0.2-0.2-0.2-0.5,0-0.7
			s0.5-0.2,0.7,0l3.1,3.1c0.2,0.2,0.2,0.5,0,0.7l-3.2,3.2C66.2,85.8,66.1,85.9,66,85.9z"/>
	</g>
	<g class="st4">
		<path class="st0" d="M89.6,52.9c-0.3,0-0.5-0.2-0.5-0.5v-22c0-0.3,0.2-0.5,0.5-0.5s0.5,0.2,0.5,0.5v21.9
			C90.1,52.6,89.9,52.9,89.6,52.9z"/>
		<path class="st0" d="M89.7,53c-0.1,0-0.3-0.1-0.4-0.1l-5.1-5.1c-0.2-0.2-0.2-0.5,0-0.7s0.5-0.2,0.7,0l4.7,4.7l4.6-4.6
			c0.2-0.2,0.5-0.2,0.7,0s0.2,0.5,0,0.7l-5,5C89.9,52.9,89.8,53,89.7,53z"/>
	</g>
	<g class="st4">
		<path class="st0" d="M69.3,92.8H47c-0.3,0-0.5-0.2-0.5-0.5s0.2-0.5,0.5-0.5h22.3c0.3,0,0.5,0.2,0.5,0.5S69.6,92.8,69.3,92.8z"/>
		<path class="st0" d="M49.7,95.9c-0.1,0-0.3,0-0.4-0.1l-3.1-3.1c-0.2-0.2-0.2-0.5,0-0.7l3.2-3.2c0.2-0.2,0.5-0.2,0.7,0
			s0.2,0.5,0,0.7l-2.8,2.8l2.8,2.8c0.2,0.2,0.2,0.5,0,0.7C50,95.9,49.9,95.9,49.7,95.9z"/>
	</g>
	<g class="st4">
		<path class="st0" d="M82.6,83.9h-2.7c-4.3,0-7.8-3.5-7.8-7.8c0-0.3,0.2-0.5,0.5-0.5h2.7c4.3,0,7.8,3.5,7.8,7.8
			C83.1,83.6,82.9,83.9,82.6,83.9z M73.1,76.6c0.3,3.5,3.2,6.3,6.8,6.3H82c-0.3-3.5-3.2-6.3-6.8-6.3H73.1z"/>
		<path class="st0" d="M82.6,83.9c-0.3,0-0.5-0.2-0.5-0.5v-3.7c0-5.9,4.8-10.7,10.7-10.7c0.3,0,0.5,0.2,0.5,0.5v3.7
			C93.2,79.1,88.5,83.9,82.6,83.9z M92.2,70c-5.1,0.3-9.2,4.5-9.2,9.7v3.2c5.1-0.3,9.2-4.5,9.2-9.7V70z"/>
		<path class="st0" d="M82.6,92.8c-0.3,0-0.5-0.2-0.5-0.5v-8.9c0-0.3,0.2-0.5,0.5-0.5s0.5,0.2,0.5,0.5v8.9
			C83.1,92.5,82.9,92.8,82.6,92.8z"/>
		<path class="st0" d="M87.6,92.8H77.5c-0.3,0-0.5-0.2-0.5-0.5s0.2-0.5,0.5-0.5h10.1c0.3,0,0.5,0.2,0.5,0.5S87.9,92.8,87.6,92.8z"/>
	</g>
	<path class="st3" d="M34.7,43.3h-8.1c-1.5,0-2.8-1.2-2.8-2.8V25.4c0-1.5,1.2-2.8,2.8-2.8h8.1c1.5,0,2.8,1.2,2.8,2.8v15.1
		C37.5,42,36.2,43.3,34.7,43.3z M26.6,23.6c-1,0-1.8,0.8-1.8,1.8v15.1c0,1,0.8,1.8,1.8,1.8h8.1c1,0,1.8-0.8,1.8-1.8V25.4
		c0-1-0.8-1.8-1.8-1.8H26.6z"/>
	<path class="st3" d="M50.6,43.3h-8.1c-1.5,0-2.8-1.2-2.8-2.8V25.4c0-1.5,1.2-2.8,2.8-2.8h8.1c1.5,0,2.8,1.2,2.8,2.8v15.1
		C53.3,42,52.1,43.3,50.6,43.3z M42.4,23.6c-1,0-1.8,0.8-1.8,1.8v15.1c0,1,0.8,1.8,1.8,1.8h8.1c1,0,1.8-0.8,1.8-1.8V25.4
		c0-1-0.8-1.8-1.8-1.8H42.4z"/>
	<path class="st3" d="M66.4,43.3h-8.1c-1.5,0-2.8-1.2-2.8-2.8V25.4c0-1.5,1.2-2.8,2.8-2.8h8.1c1.5,0,2.8,1.2,2.8,2.8v15.1
		C69.2,42,67.9,43.3,66.4,43.3z M58.3,23.6c-1,0-1.8,0.8-1.8,1.8v15.1c0,1,0.8,1.8,1.8,1.8h8.1c1,0,1.8-0.8,1.8-1.8V25.4
		c0-1-0.8-1.8-1.8-1.8H58.3z"/>
	<path class="st3" d="M82.2,43.3h-8.1c-1.5,0-2.8-1.2-2.8-2.8V25.4c0-1.5,1.2-2.8,2.8-2.8h8.1c1.5,0,2.8,1.2,2.8,2.8v15.1
		C85,42,83.8,43.3,82.2,43.3z M74.1,23.6c-1,0-1.8,0.8-1.8,1.8v15.1c0,1,0.8,1.8,1.8,1.8h8.1c1,0,1.8-0.8,1.8-1.8V25.4
		c0-1-0.8-1.8-1.8-1.8H74.1z"/>
	<g class="st4">
		<path class="st0" d="M30.6,38.7c-0.7,0-1.4-0.2-1.9-0.7s-0.9-1.2-1.2-2c-0.3-0.9-0.4-1.9-0.4-3.2c0-1.2,0.1-2.3,0.4-3.2
			c0.3-0.9,0.7-1.6,1.2-2c0.5-0.5,1.2-0.7,1.9-0.7c0.8,0,1.4,0.2,1.9,0.7s0.9,1.2,1.2,2.1s0.4,1.9,0.4,3.2c0,1.2-0.1,2.3-0.4,3.2
			s-0.7,1.6-1.2,2C32.1,38.4,31.4,38.7,30.6,38.7z M30.6,37.5c0.5,0,1-0.2,1.3-0.6c0.4-0.4,0.6-1,0.8-1.7s0.3-1.5,0.3-2.5
			c0-0.9-0.1-1.7-0.3-2.4c-0.2-0.7-0.4-1.3-0.8-1.7c-0.4-0.4-0.8-0.6-1.3-0.6s-1,0.2-1.3,0.6s-0.6,1-0.8,1.7s-0.3,1.5-0.3,2.4
			c0,0.9,0.1,1.7,0.3,2.5s0.4,1.3,0.8,1.7C29.7,37.3,30.1,37.5,30.6,37.5z"/>
	</g>
	<g class="st4">
		<path class="st0" d="M46.5,38.7c-0.7,0-1.4-0.2-1.9-0.7s-0.9-1.2-1.2-2c-0.3-0.9-0.4-1.9-0.4-3.2c0-1.2,0.1-2.3,0.4-3.2
			c0.3-0.9,0.7-1.6,1.2-2c0.5-0.5,1.2-0.7,1.9-0.7c0.8,0,1.4,0.2,1.9,0.7s0.9,1.2,1.2,2.1s0.4,1.9,0.4,3.2c0,1.2-0.1,2.3-0.4,3.2
			s-0.7,1.6-1.2,2C47.9,38.4,47.3,38.7,46.5,38.7z M46.5,37.5c0.5,0,1-0.2,1.3-0.6c0.4-0.4,0.6-1,0.8-1.7s0.3-1.5,0.3-2.5
			c0-0.9-0.1-1.7-0.3-2.4c-0.2-0.7-0.4-1.3-0.8-1.7C47.5,28.2,47,28,46.5,28s-1,0.2-1.3,0.6s-0.6,1-0.8,1.7s-0.3,1.5-0.3,2.4
			c0,0.9,0.1,1.7,0.3,2.5s0.4,1.3,0.8,1.7C45.5,37.3,46,37.5,46.5,37.5z"/>
	</g>
	<g class="st4">
		<path class="st0" d="M62.4,38.7c-0.7,0-1.4-0.2-2-0.5s-1-0.8-1.4-1.4c-0.3-0.6-0.5-1.2-0.5-2c0-0.2,0.1-0.3,0.2-0.4
			c0.1-0.1,0.2-0.2,0.4-0.2s0.3,0.1,0.4,0.2s0.2,0.3,0.2,0.4c0,0.5,0.1,1,0.3,1.4s0.5,0.7,0.9,1c0.4,0.2,0.8,0.3,1.4,0.3
			c0.5,0,1-0.1,1.4-0.3c0.4-0.2,0.7-0.6,1-1c0.2-0.4,0.3-0.9,0.3-1.4s-0.1-1-0.3-1.4c-0.2-0.4-0.5-0.7-1-1c-0.4-0.2-0.9-0.3-1.4-0.3
			h-2.7c-0.2,0-0.3-0.1-0.4-0.2c-0.1-0.1-0.2-0.3-0.2-0.4v-4.1c0-0.2,0.1-0.3,0.2-0.4c0.1-0.1,0.3-0.2,0.4-0.2h5.3
			c0.2,0,0.3,0.1,0.4,0.2s0.2,0.3,0.2,0.4c0,0.2-0.1,0.3-0.2,0.4S65,28,64.9,28h-4.7v3h2.1c0.7,0,1.4,0.2,2,0.5
			c0.6,0.3,1,0.8,1.4,1.4c0.3,0.6,0.5,1.2,0.5,2s-0.2,1.4-0.5,2s-0.8,1-1.4,1.4C63.8,38.5,63.1,38.7,62.4,38.7z"/>
	</g>
	<g class="st4">
		<path class="st0" d="M76.4,38.7c-0.2,0-0.3-0.1-0.4-0.2c-0.1-0.1-0.2-0.3-0.2-0.4c0,0,0-0.1,0-0.2s0.1-0.1,0.1-0.2l4.5-9.7h-5.2
			c-0.2,0-0.3-0.1-0.4-0.2s-0.2-0.3-0.2-0.4c0-0.2,0.1-0.3,0.2-0.4s0.3-0.2,0.4-0.2h6.2c0.2,0,0.3,0.1,0.4,0.2s0.2,0.3,0.2,0.4
			s0,0.1,0,0.2s0,0.1-0.1,0.2l-5,10.6C76.8,38.5,76.6,38.7,76.4,38.7z"/>
	</g>
	<g class="st4">
		<path class="st0" d="M59.3,70.9c-0.1,0-0.3,0-0.4-0.1l-7.3-7.3c-0.2-0.2-0.2-0.5,0-0.7s0.5-0.2,0.7,0l7.3,7.3
			c0.2,0.2,0.2,0.5,0,0.7C59.5,70.9,59.4,70.9,59.3,70.9z"/>
		<g>
			<path class="st0" d="M68.8,63.2c0,1.6-1.1,1.8-2.6,1.8c-1.6,0-3.1-0.2-3.1-1.8s1.3-2.8,2.8-2.8S68.8,61.6,68.8,63.2z"/>
			<path class="st0" d="M66.2,65.4c-1.1,0-3.6,0-3.6-2.3c0-1.8,1.5-3.3,3.3-3.3s3.3,1.5,3.3,3.3C69.3,65.4,67.4,65.4,66.2,65.4z
				 M66,60.8c-1.3,0-2.3,1.1-2.3,2.3c0,0.8,0.4,1.3,2.6,1.3c1.7,0,2.1-0.3,2.1-1.3C68.3,61.9,67.3,60.8,66,60.8z"/>
		</g>
		<path class="st0" d="M61.9,60.4c-0.2,0-0.4-0.1-0.6-0.2l-4.4-4.4c-0.6-0.6-0.9-1.4-0.9-2.2s0.3-1.6,0.9-2.2c1.2-1.2,3.3-1.2,4.5,0
			l1.1,1.1c2.2,2.2,2.2,5.7,0,7.9C62.3,60.3,62.1,60.4,61.9,60.4z M59.1,51.3c-0.6,0-1.1,0.2-1.5,0.6s-0.6,1-0.6,1.5
			s0.2,1.1,0.6,1.5l4.3,4.3c1.6-1.8,1.6-4.6-0.1-6.3l-1.1-1.1C60.3,51.5,59.7,51.3,59.1,51.3z"/>
		<path class="st0" d="M61.7,60.4h-6.2c-1.8,0-3.2-1.4-3.2-3.2s1.4-3.2,3.2-3.2H57c3.1,0,5.6,2.5,5.6,5.6
			C62.5,60,62.2,60.4,61.7,60.4z M55.5,55c-1.2,0-2.2,1-2.2,2.2s1,2.2,2.2,2.2h6C61.4,57,59.4,55,57,55H55.5z"/>
		<g>
			<circle class="st5" cx="61.5" cy="64.4" r="4.3"/>
			<path class="st0" d="M61.5,69.2c-2.6,0-4.8-2.1-4.8-4.8s2.1-4.8,4.8-4.8c2.6,0,4.8,2.1,4.8,4.8C66.3,67.1,64.1,69.2,61.5,69.2z
				 M61.5,60.6c-2.1,0-3.8,1.7-3.8,3.8c0,2.1,1.7,3.8,3.8,3.8s3.8-1.7,3.8-3.8C65.3,62.3,63.6,60.6,61.5,60.6z"/>
		</g>
		<g>
			<path class="st5" d="M52.7,62.3c-0.6,0.6-1.2,1.3-1.6,2.1c-3,5.1,3.8,10.4,8,6.2l1.9-1.9c4-4-0.7-10.8-5.7-8.2
				C54.4,60.9,53.5,61.6,52.7,62.3z"/>
			<path class="st0" d="M55.6,72.6c-1.3,0-2.5-0.5-3.5-1.2c-1.9-1.5-3.1-4.3-1.4-7.3c0.5-0.8,1-1.5,1.7-2.1c0.8-0.8,1.7-1.5,2.7-2
				c2.8-1.5,5.5-0.2,6.8,1.7c1.4,1.9,1.8,5-0.5,7.3l-1.9,1.9C58.3,72.1,56.9,72.6,55.6,72.6z M57.6,60.4c-0.6,0-1.3,0.2-2.1,0.5
				c-0.9,0.5-1.7,1.1-2.4,1.8c-0.6,0.6-1.1,1.2-1.5,2c-1.4,2.4-0.5,4.7,1.1,6c1.6,1.2,4.1,1.6,6.1-0.4l1.9-1.9
				c1.9-1.9,1.6-4.4,0.4-6.1C60.3,61.3,59.1,60.4,57.6,60.4z"/>
		</g>
		<g>
			<path class="st0" d="M52.7,62.3c-0.2,0.2-0.5,0.5-0.7,0.8l7.3,7.3l1.7-1.7c0.5-0.5,0.8-1,1.1-1.5c-2.3-2.3-4.8-4.4-7.5-6.3
				C53.9,61.3,53.3,61.8,52.7,62.3z"/>
			<path class="st0" d="M59.3,70.9c-0.1,0-0.3-0.1-0.4-0.1l-7.3-7.3c-0.2-0.2-0.2-0.5,0-0.7c0.2-0.3,0.4-0.5,0.7-0.8l0,0l0,0l0,0
				c0.6-0.6,1.2-1.1,1.9-1.5c0.2-0.1,0.4-0.1,0.5,0c2.5,1.8,5.1,3.9,7.6,6.3c0.2,0.1,0.2,0.4,0.1,0.6c-0.3,0.6-0.7,1.2-1.2,1.7
				l-1.7,1.7C59.6,70.8,59.5,70.9,59.3,70.9z M52.7,63.1l6.6,6.6l1.3-1.3c0.3-0.3,0.6-0.7,0.8-1.1c-2.3-2.2-4.6-4.2-6.9-5.8
				c-0.5,0.4-1,0.8-1.5,1.2l0,0C53,62.8,52.8,62.9,52.7,63.1z M52.7,62.3L52.7,62.3L52.7,62.3z"/>
		</g>
		<path class="st0" d="M68.4,70.9c-0.1,0-0.2,0-0.3-0.1l-1.9-1.3c-0.1-0.1-0.2-0.2-0.2-0.3L65.1,66c-0.1-0.3,0.1-0.5,0.3-0.6
			c0.3-0.1,0.5,0.1,0.6,0.3l0.9,3.1l1.7,1.2c0.2,0.2,0.3,0.5,0.1,0.7C68.7,70.9,68.6,70.9,68.4,70.9z"/>
		<path class="st0" d="M65,74.3c-0.2,0-0.4-0.1-0.5-0.4l-0.8-2.5v-0.1v-3.5c0-0.3,0.2-0.5,0.5-0.5s0.5,0.2,0.5,0.5v3.4l0.8,2.5
			c0.1,0.3-0.1,0.5-0.3,0.6C65.1,74.3,65.1,74.3,65,74.3z"/>
		<g>
			<polyline class="st5" points="62.1,68.5 61,72.1 57.9,73.8 56.5,75.5 			"/>
			<path class="st0" d="M56.5,76c-0.1,0-0.2,0-0.3-0.1c-0.2-0.2-0.2-0.5,0-0.7l1.5-1.7l0.1-0.1l2.9-1.6l1-3.4
				c0.1-0.3,0.4-0.4,0.6-0.3c0.3,0.1,0.4,0.4,0.3,0.6l-1.1,3.6c0,0.1-0.1,0.2-0.2,0.3l-3,1.6l-1.4,1.6C56.7,75.9,56.6,76,56.5,76z"
				/>
		</g>
		<path class="st0" d="M67.6,61.8c-0.1,0-0.2,0-0.3-0.1c-0.2-0.2-0.2-0.5-0.1-0.7l1.4-1.7c0.2-0.2,0.5-0.2,0.7-0.1
			c0.2,0.2,0.2,0.5,0.1,0.7L68,61.6C67.9,61.7,67.8,61.8,67.6,61.8z"/>
		<path class="st6" d="M68.7,62.2"/>
		<path class="st0" d="M68.3,62.7c-0.2,0-0.4-0.2-0.5-0.4c-0.1-0.3,0.1-0.5,0.4-0.6l2.2-0.5c0.3-0.1,0.5,0.1,0.6,0.4
			s-0.1,0.5-0.4,0.6L68.3,62.7C68.4,62.7,68.4,62.7,68.3,62.7z"/>
	</g>
	<path class="st3" d="M40.2,38.8H37c-0.3,0-0.5-0.2-0.5-0.5v-9.5c0-0.3,0.2-0.5,0.5-0.5h3.2c0.3,0,0.5,0.2,0.5,0.5v9.5
		C40.7,38.6,40.5,38.8,40.2,38.8z M37.5,37.8h2.2v-8.5h-2.2V37.8z"/>
	<path class="st3" d="M56,38.8h-3.2c-0.3,0-0.5-0.2-0.5-0.5v-9.5c0-0.3,0.2-0.5,0.5-0.5H56c0.3,0,0.5,0.2,0.5,0.5v9.5
		C56.5,38.6,56.3,38.8,56,38.8z M53.3,37.8h2.2v-8.5h-2.2V37.8z"/>
	<path class="st3" d="M71.9,38.8h-3.2c-0.3,0-0.5-0.2-0.5-0.5v-9.5c0-0.3,0.2-0.5,0.5-0.5h3.2c0.3,0,0.5,0.2,0.5,0.5v9.5
		C72.4,38.6,72.1,38.8,71.9,38.8z M69.2,37.8h2.2v-8.5h-2.2V37.8z"/>
	<path class="st3" d="M39.6,67.2h-2.3c-1.5,0-2.8-1.2-2.8-2.8s1.2-2.8,2.8-2.8h2.3c0.3,0,0.5,0.2,0.5,0.5v4.5
		C40.1,67,39.8,67.2,39.6,67.2z M37.3,62.7c-1,0-1.8,0.8-1.8,1.8s0.8,1.8,1.8,1.8h1.8v-3.5h-1.8V62.7z"/>
	<path class="st3" d="M39.6,78.8h-2.3c-1.5,0-2.8-1.2-2.8-2.8s1.2-2.8,2.8-2.8h2.3c0.3,0,0.5,0.2,0.5,0.5v4.5
		C40.1,78.6,39.8,78.8,39.6,78.8z M37.3,74.3c-1,0-1.8,0.8-1.8,1.8s0.8,1.8,1.8,1.8h1.8v-3.5h-1.8V74.3z"/>
	<path class="st3" d="M39.6,90.5h-2.3c-1.5,0-2.8-1.2-2.8-2.8s1.2-2.8,2.8-2.8h2.3c0.3,0,0.5,0.2,0.5,0.5V90
		C40.1,90.3,39.8,90.5,39.6,90.5z M37.3,85.9c-1,0-1.8,0.8-1.8,1.8s0.8,1.8,1.8,1.8h1.8V86h-1.8V85.9z"/>
</g>
<g id="Слой_5" class="st2">
	<g class="st4">
		<path class="st0" d="M49.8,90.1H48c-3,0-5.4-2.4-5.4-5.4c0-0.3,0.2-0.5,0.5-0.5h1.8c3,0,5.4,2.4,5.4,5.4
			C50.3,89.9,50,90.1,49.8,90.1z M43.6,85.3c0.2,2.2,2.1,3.9,4.3,3.9h1.2c-0.2-2.2-2.1-3.9-4.3-3.9H43.6z"/>
		<path class="st0" d="M49.8,90.1c-0.3,0-0.5-0.2-0.5-0.5v-2.5c0-4,3.3-7.3,7.3-7.3c0.3,0,0.5,0.2,0.5,0.5v2.5
			C57,86.9,53.8,90.1,49.8,90.1z M56,80.9c-3.2,0.3-5.8,3-5.8,6.3v2c3.2-0.3,5.8-3,5.8-6.3V80.9z"/>
		<path class="st0" d="M49.8,96.1c-0.3,0-0.5-0.2-0.5-0.5v-5.9c0-0.3,0.2-0.5,0.5-0.5s0.5,0.2,0.5,0.5v5.9
			C50.3,95.9,50,96.1,49.8,96.1z"/>
		<path class="st0" d="M53.1,96.1h-6.7c-0.3,0-0.5-0.2-0.5-0.5s0.2-0.5,0.5-0.5h6.7c0.3,0,0.5,0.2,0.5,0.5S53.4,96.1,53.1,96.1z"/>
	</g>
	<path class="st3" d="M61.7,96.1H37.9c-0.3,0-0.5-0.2-0.5-0.5V78.5c0-0.2,0.1-0.4,0.3-0.4l11.9-5.9c0.1-0.1,0.3-0.1,0.4,0L61.9,78
		c0.2,0.1,0.3,0.3,0.3,0.4v17.1C62.2,95.9,61.9,96.1,61.7,96.1z M38.4,95.1h22.8V78.8l-11.4-5.7l-11.4,5.7V95.1z"/>
	<path class="st3" d="M37.9,96.1H13.3c-0.3,0-0.5-0.2-0.5-0.5c0-7,5.7-12.8,12.8-12.8c7,0,12.8,5.7,12.8,12.8
		C38.4,95.9,38.1,96.1,37.9,96.1z M13.8,95.1h23.5c-0.3-6.3-5.4-11.3-11.8-11.3S14.1,88.8,13.8,95.1z"/>
	<path class="st3" d="M25.6,81.5c-3.1,0-5.6-2.5-5.6-5.6v-2.1c0-3.1,2.5-5.6,5.6-5.6s5.6,2.5,5.6,5.6v2.1
		C31.2,79,28.7,81.5,25.6,81.5z M25.6,69.1c-2.5,0-4.6,2.1-4.6,4.6v2.1c0,2.5,2.1,4.6,4.6,4.6s4.6-2.1,4.6-4.6v-2.1
		C30.2,71.2,28.1,69.1,25.6,69.1z"/>
	<g class="st4">
		<path class="st0" d="M96.8,91.5h-1.4c-2.4,0-4.3-1.9-4.3-4.3c0-0.3,0.2-0.5,0.5-0.5H93c2.4,0,4.3,1.9,4.3,4.3
			C97.3,91.3,97,91.5,96.8,91.5z M92.1,87.7c0.2,1.6,1.6,2.8,3.3,2.8h0.8c-0.2-1.6-1.6-2.8-3.3-2.8H92.1z"/>
		<path class="st0" d="M96.8,91.5c-0.3,0-0.5-0.2-0.5-0.5v-2c0-3.2,2.6-5.8,5.8-5.8c0.3,0,0.5,0.2,0.5,0.5v1.9
			C102.6,88.9,100,91.5,96.8,91.5z M101.6,84.3c-2.4,0.3-4.3,2.3-4.3,4.8v1.4c2.4-0.3,4.3-2.3,4.3-4.8V84.3z"/>
		<path class="st0" d="M96.8,96.1c-0.3,0-0.5-0.2-0.5-0.5V91c0-0.3,0.2-0.5,0.5-0.5s0.5,0.2,0.5,0.5v4.6
			C97.3,95.9,97,96.1,96.8,96.1z"/>
		<path class="st0" d="M99.4,96.1h-5.2c-0.3,0-0.5-0.2-0.5-0.5s0.2-0.5,0.5-0.5h5.2c0.3,0,0.5,0.2,0.5,0.5S99.7,96.1,99.4,96.1z"/>
	</g>
	<path class="st3" d="M106,96.1H87.5c-0.3,0-0.5-0.2-0.5-0.5V82.3c0-0.2,0.1-0.4,0.3-0.4l9.3-4.6c0.1-0.1,0.3-0.1,0.4,0l9.3,4.6
		c0.2,0.1,0.3,0.3,0.3,0.4v13.3C106.5,95.9,106.3,96.1,106,96.1z M88,95.1h17.5V82.6l-8.8-4.4L88,82.6V95.1z"/>
	<path class="st3" d="M87.5,96.1H68.4c-0.3,0-0.5-0.2-0.5-0.5c0-5.6,4.5-10.1,10.1-10.1s10,4.6,10,10.1C88,95.9,87.8,96.1,87.5,96.1
		z M68.9,95.1H87c-0.3-4.8-4.2-8.6-9.1-8.6S69.1,90.3,68.9,95.1z"/>
	<path class="st3" d="M77.9,84.7c-2.5,0-4.5-2-4.5-4.5v-1.6c0-2.5,2-4.5,4.5-4.5s4.5,2,4.5,4.5v1.6C82.4,82.7,80.4,84.7,77.9,84.7z
		 M77.9,75.1c-1.9,0-3.5,1.6-3.5,3.5v1.6c0,1.9,1.6,3.5,3.5,3.5s3.5-1.6,3.5-3.5v-1.6C81.4,76.7,79.9,75.1,77.9,75.1z"/>
	<g class="st4">
		<g>
			<polygon class="st5" points="96.8,34 60.1,34 60.1,62.5 70.7,62.5 77.9,69.6 77.9,62.5 96.8,62.5 			"/>
			<path class="st0" d="M77.9,70.1c-0.1,0-0.3-0.1-0.4-0.1l-7-7H60.1c-0.3,0-0.5-0.2-0.5-0.5V34c0-0.3,0.2-0.5,0.5-0.5h36.7
				c0.3,0,0.5,0.2,0.5,0.5v28.4c0,0.3-0.2,0.5-0.5,0.5H78.4v6.7c0,0.2-0.1,0.4-0.3,0.5C78,70.1,77.9,70.1,77.9,70.1z M60.6,62h10.2
				c0.1,0,0.3,0.1,0.4,0.1l6.3,6.3v-5.9c0-0.3,0.2-0.5,0.5-0.5h18.4V34.5H60.6V62z"/>
		</g>
		<path class="st0" d="M79.9,55.8L79.9,55.8c-0.2,0-0.4-0.1-0.5-0.3l-5.7-12.1l-13.4,7.9c-0.2,0.1-0.5,0.1-0.7-0.2
			c-0.1-0.2-0.1-0.5,0.2-0.7l13.9-8.1c0.1-0.1,0.3-0.1,0.4,0c0.1,0,0.2,0.1,0.3,0.3L80,54.3l5.2-8.1c0.1-0.2,0.3-0.2,0.5-0.2
			l11.1,1.4c0.3,0,0.5,0.3,0.4,0.6c0,0.3-0.3,0.5-0.6,0.4L85.9,47l-5.6,8.5C80.2,55.7,80.1,55.8,79.9,55.8z"/>
		<g>
			<circle class="st5" cx="73.9" cy="42.8" r="2.9"/>
			<path class="st0" d="M73.9,46.2c-1.9,0-3.4-1.5-3.4-3.4s1.5-3.4,3.4-3.4s3.4,1.5,3.4,3.4S75.8,46.2,73.9,46.2z M73.9,40.3
				c-1.3,0-2.4,1.1-2.4,2.4s1.1,2.4,2.4,2.4s2.4-1.1,2.4-2.4S75.3,40.3,73.9,40.3z"/>
		</g>
		<g>
			<circle class="st5" cx="79.9" cy="55.3" r="2.9"/>
			<path class="st0" d="M79.9,58.7c-1.9,0-3.4-1.5-3.4-3.4s1.5-3.4,3.4-3.4s3.4,1.5,3.4,3.4S81.8,58.7,79.9,58.7z M79.9,52.9
				c-1.3,0-2.4,1.1-2.4,2.4s1.1,2.4,2.4,2.4s2.4-1.1,2.4-2.4S81.3,52.9,79.9,52.9z"/>
		</g>
		<g>
			<circle class="st5" cx="85.7" cy="46.5" r="2.9"/>
			<path class="st0" d="M85.7,50c-1.9,0-3.4-1.5-3.4-3.4s1.5-3.4,3.4-3.4s3.4,1.5,3.4,3.4S87.6,50,85.7,50z M85.7,44.1
				c-1.3,0-2.4,1.1-2.4,2.4s1.1,2.4,2.4,2.4s2.4-1.1,2.4-2.4S87,44.1,85.7,44.1z"/>
		</g>
	</g>
	<g class="st4">
		<g>
			<polygon class="st5" points="66.7,23.5 20.5,23.5 20.5,57.4 34.9,57.4 34.9,67.6 45.1,57.4 66.7,57.4 			"/>
			<path class="st0" d="M34.9,68.1c-0.1,0-0.1,0-0.2,0c-0.2-0.1-0.3-0.3-0.3-0.5v-9.7H20.5c-0.3,0-0.5-0.2-0.5-0.5V23.5
				c0-0.3,0.2-0.5,0.5-0.5h46.2c0.3,0,0.5,0.2,0.5,0.5v33.9c0,0.3-0.2,0.5-0.5,0.5H45.3L35.3,68C35.2,68.1,35,68.1,34.9,68.1z
				 M21,56.9h13.9c0.3,0,0.5,0.2,0.5,0.5v9l9.4-9.4c0.1-0.1,0.2-0.1,0.4-0.1h21.1V24H21V56.9z"/>
		</g>
		<path class="st0" d="M66.7,44.4L66.7,44.4l-13.3-3.6l-9.6,3.6c-0.2,0.1-0.3,0-0.5-0.1l-9.5-7.2l-13.1,7.2c-0.2,0.1-0.5,0-0.7-0.2
			c-0.1-0.2,0-0.5,0.2-0.7L33.6,36c0.2-0.1,0.4-0.1,0.5,0l9.5,7.2l9.5-3.6c0.1,0,0.2,0,0.3,0l13.4,3.7c0.3,0.1,0.4,0.3,0.3,0.6
			C67.1,44.2,66.9,44.4,66.7,44.4z"/>
		<g>
			<circle class="st5" cx="34.3" cy="36.8" r="2.9"/>
			<path class="st0" d="M34.3,40.2c-1.9,0-3.4-1.5-3.4-3.4s1.5-3.4,3.4-3.4s3.4,1.5,3.4,3.4S36.1,40.2,34.3,40.2z M34.3,34.4
				c-1.3,0-2.4,1.1-2.4,2.4s1.1,2.4,2.4,2.4s2.4-1.1,2.4-2.4S35.6,34.4,34.3,34.4z"/>
		</g>
		<g>
			<circle class="st5" cx="43.6" cy="43.9" r="2.9"/>
			<path class="st0" d="M43.6,47.3c-1.9,0-3.4-1.5-3.4-3.4s1.5-3.4,3.4-3.4S47,42,47,43.9S45.5,47.3,43.6,47.3z M43.6,41.5
				c-1.3,0-2.4,1.1-2.4,2.4s1.1,2.4,2.4,2.4s2.4-1.1,2.4-2.4S44.9,41.5,43.6,41.5z"/>
		</g>
		<g>
			<circle class="st5" cx="53.3" cy="40.2" r="2.9"/>
			<path class="st0" d="M53.3,43.6c-1.9,0-3.4-1.5-3.4-3.4s1.5-3.4,3.4-3.4s3.4,1.5,3.4,3.4S55.2,43.6,53.3,43.6z M53.3,37.8
				c-1.3,0-2.4,1.1-2.4,2.4s1.1,2.4,2.4,2.4s2.4-1.1,2.4-2.4S54.7,37.8,53.3,37.8z"/>
		</g>
	</g>
</g>
<g id="Слой_6" class="st2">
	<path class="st3" d="M81.4,34.8h-8.2c-0.3,0-0.5-0.2-0.5-0.5v-5.9c0-0.2,0.1-0.4,0.3-0.4l4.1-2c0.1-0.1,0.3-0.1,0.4,0l4.1,2
		c0.2,0.1,0.3,0.3,0.3,0.4v5.9C81.9,34.5,81.7,34.8,81.4,34.8z M73.7,33.8h7.2v-5.1l-3.6-1.8l-3.6,1.8V33.8z"/>
	<path class="st3" d="M81.4,45.2h-8.2c-0.3,0-0.5-0.2-0.5-0.5v-5.9c0-0.2,0.1-0.4,0.3-0.4l4.1-2c0.1-0.1,0.3-0.1,0.4,0l4.1,2
		c0.2,0.1,0.3,0.3,0.3,0.4v5.9C81.9,44.9,81.7,45.2,81.4,45.2z M73.7,44.2h7.2v-5.1l-3.6-1.8l-3.6,1.8V44.2z"/>
	<path class="st3" d="M91.6,40h-8.2c-0.3,0-0.5-0.2-0.5-0.5v-5.9c0-0.2,0.1-0.4,0.3-0.4l4.1-2c0.1-0.1,0.3-0.1,0.4,0l4.1,2
		c0.2,0.1,0.3,0.3,0.3,0.4v5.9C92.1,39.7,91.9,40,91.6,40z M83.9,39h7.2v-5.1l-3.6-1.8l-3.6,1.8V39z"/>
	<path class="st3" d="M33.4,97c-0.4,0-0.8,0-1.3-0.1c-0.3,0-0.5-0.3-0.5-0.5c0-0.3,0.3-0.5,0.5-0.5c4.3,0.4,8.2-1.5,10.2-4.9
		l12.5-22c0.3-0.6,0.4-1.3,0.2-1.9c-0.2-0.7-0.7-1.3-1.4-1.7c-1.4-0.8-3.1-0.4-3.7,0.8c-0.1,0.2-0.4,0.3-0.7,0.2S48.9,66,49,65.7
		l0,0l0,0l3.9-6.8c0.7-1.2,0.1-2.8-1.3-3.6c-1.4-0.8-3.1-0.4-3.7,0.8l0,0l0,0c-0.1,0.2-0.4,0.3-0.7,0.2c-0.2-0.1-0.3-0.4-0.2-0.7
		l1.5-2.6c0.3-0.6,0.4-1.3,0.2-1.9c-0.2-0.7-0.7-1.3-1.4-1.7C46.5,49,45.7,48.8,45,49s-1.3,0.6-1.6,1.1l-2.1,3.8l0,0
		c-0.1,0.2-0.4,0.3-0.7,0.2c-0.2-0.1-0.3-0.4-0.2-0.7l0,0c0.3-0.6,0.4-1.3,0.2-1.9c-0.2-0.7-0.7-1.3-1.4-1.7
		c-1.4-0.8-3.1-0.4-3.7,0.8L19.8,78.3c-2,3.4-1.6,7.8,1,11.3c0.2,0.2,0.1,0.5-0.1,0.7s-0.5,0.1-0.7-0.1c-2.8-3.8-3.2-8.6-1.1-12.3
		l15.7-27.7c1-1.7,3.2-2.2,5.1-1.2c0.9,0.5,1.6,1.3,1.9,2.2c0,0.1,0,0.1,0.1,0.2l1-1.7c0.5-0.8,1.3-1.4,2.2-1.6c1-0.2,2,0,2.9,0.5
		s1.6,1.3,1.9,2.2c0.3,0.9,0.2,1.9-0.2,2.8L49,54c1-0.3,2.1-0.2,3.1,0.4c1.9,1,2.6,3.3,1.6,5L51,64.1c1-0.3,2.1-0.2,3.1,0.4
		c0.9,0.5,1.6,1.3,1.9,2.2c0.3,0.9,0.2,1.9-0.2,2.8l-12.5,22C41.3,95,37.6,97,33.4,97z"/>
	<g class="st4">
		<g>
			<path class="st5" d="M36.3,28h17.1c2.2,0,3.9,1.8,3.9,3.9v38.3c0,2.2-1.8,3.9-3.9,3.9H36.3c-2.2,0-3.9-1.8-3.9-3.9V31.9
				C32.3,29.7,34.1,28,36.3,28z"/>
			<path class="st0" d="M53.4,74.6H36.3c-2.4,0-4.4-2-4.4-4.4V31.9c0-2.4,2-4.4,4.4-4.4h17.1c2.4,0,4.4,2,4.4,4.4v38.3
				C57.8,72.7,55.8,74.6,53.4,74.6z M36.3,28.5c-1.9,0-3.4,1.5-3.4,3.4v38.3c0,1.9,1.5,3.4,3.4,3.4h17.1c1.9,0,3.4-1.5,3.4-3.4V31.9
				c0-1.9-1.5-3.4-3.4-3.4H36.3z"/>
		</g>
		<g>
			<path class="st5" d="M48.4,30.8h-7.3c-1.1,0-2-0.9-2-2V28h11.3v0.8C50.5,29.9,49.6,30.8,48.4,30.8z"/>
			<path class="st0" d="M48.4,31.3h-7.3c-1.4,0-2.5-1.1-2.5-2.5V28c0-0.3,0.2-0.5,0.5-0.5h11.3c0.3,0,0.5,0.2,0.5,0.5v0.8
				C51,30.2,49.8,31.3,48.4,31.3z M39.7,28.5v0.3c0,0.8,0.7,1.5,1.5,1.5h7.3c0.8,0,1.5-0.7,1.5-1.5v-0.3H39.7z"/>
		</g>
		<g>
			<line class="st1" x1="49" y1="71.5" x2="40.6" y2="71.5"/>
			<path class="st0" d="M49,72h-8.4c-0.3,0-0.5-0.2-0.5-0.5s0.2-0.5,0.5-0.5H49c0.3,0,0.5,0.2,0.5,0.5S49.3,72,49,72z"/>
		</g>
		<g>
			<path class="st0" d="M44.5,48.7h-2c-3.2,0-5.9-2.6-5.9-5.9c0-0.3,0.2-0.5,0.5-0.5h2c3.2,0,5.9,2.6,5.9,5.9
				C45,48.4,44.8,48.7,44.5,48.7z M37.7,43.3c0.3,2.5,2.3,4.4,4.9,4.4H44c-0.3-2.5-2.3-4.4-4.9-4.4H37.7z"/>
			<path class="st0" d="M44.5,48.7c-0.3,0-0.5-0.2-0.5-0.5v-2.7c0-4.4,3.6-8,8-8c0.3,0,0.5,0.2,0.5,0.5v2.7
				C52.5,45.1,48.9,48.7,44.5,48.7z M51.5,38.4c-3.6,0.3-6.5,3.3-6.5,7v2.2c3.6-0.3,6.5-3.3,6.5-7V38.4z"/>
			<path class="st0" d="M44.5,55.2c-0.3,0-0.5-0.2-0.5-0.5v-6.6c0-0.3,0.2-0.5,0.5-0.5s0.5,0.2,0.5,0.5v6.6
				C45,55,44.8,55.2,44.5,55.2z"/>
			<path class="st0" d="M48.2,55.2h-7.4c-0.3,0-0.5-0.2-0.5-0.5s0.2-0.5,0.5-0.5h7.4c0.3,0,0.5,0.2,0.5,0.5S48.5,55.2,48.2,55.2z"/>
		</g>
	</g>
	<g class="st4">
		<path class="st5" d="M23.6,70.6l3.4,0.1l5.3-9.4c0.9-1.5,2.9-2,4.4-1c1.3,0.9,1.6,2.7,0.8,4.1l-3.4,6c-1,1.8-0.4,4.1,1.4,5.2l0,0
			c2.8,1.6,3.8,5.1,2.2,7.9L36,86.6"/>
		<path class="st0" d="M36,87.1c-0.1,0-0.2,0-0.2-0.1c-0.2-0.1-0.3-0.4-0.2-0.7l1.8-3.1c0.7-1.2,0.9-2.7,0.5-4
			c-0.4-1.4-1.3-2.5-2.5-3.2c-2.1-1.2-2.8-3.8-1.6-5.9l3.4-6c0.7-1.2,0.4-2.7-0.7-3.4c-0.6-0.4-1.3-0.6-2-0.4
			c-0.7,0.2-1.3,0.6-1.6,1.2l-5.3,9.4c-0.1,0.2-0.3,0.3-0.4,0.3l-3.4-0.1c-0.3,0-0.5-0.2-0.5-0.5s0.2-0.5,0.5-0.5l3.1,0.1l5.2-9.1
			c0.5-0.9,1.3-1.5,2.3-1.7s2,0,2.8,0.6c1.5,1,1.9,3.1,1,4.7l-3.4,6c-0.4,0.8-0.5,1.7-0.3,2.5s0.8,1.6,1.6,2c3,1.7,4.1,5.6,2.4,8.6
			l-1.8,3.1C36.3,87,36.2,87.1,36,87.1z"/>
	</g>
	<path class="st3" d="M97.6,50.9H65.7c-0.3,0-0.5-0.2-0.5-0.5v-9.3h-4.9c-0.2,0-0.4-0.1-0.5-0.3c-0.2-0.4-0.2-0.5,5.4-5.9V22.4
		c0-0.3,0.2-0.5,0.5-0.5h31.9c0.3,0,0.5,0.2,0.5,0.5v28C98.1,50.6,97.9,50.9,97.6,50.9z M66.2,49.9h30.9v-27H66.2v12.2
		c0,0.1-0.1,0.3-0.2,0.4c-2.8,2.6-4.1,4-4.7,4.6h4.4c0.3,0,0.5,0.2,0.5,0.5V49.9z M65.7,35.1L65.7,35.1L65.7,35.1z"/>
	<g class="st4">
		<g>
			<path class="st5" d="M65.4,75.5l-14-14c-1.2-1.2-3.1-1.2-4.3,0l0,0c-1.2,1.2-1.2,3.1,0,4.3l14,14"/>
			<path class="st0" d="M61.2,80.3c-0.1,0-0.3,0-0.4-0.1l-14-14c-1.4-1.4-1.4-3.6,0-5s3.6-1.4,5,0l14,14c0.2,0.2,0.2,0.5,0,0.7
				s-0.5,0.2-0.7,0l-14-14c-1-1-2.6-1-3.6,0s-1,2.6,0,3.6l14,14c0.2,0.2,0.2,0.5,0,0.7C61.4,80.2,61.3,80.3,61.2,80.3z"/>
		</g>
		<g>
			<path class="st5" d="M69.7,71.2L65.5,67c-1.2-1.2-3.1-1.2-4.3,0l0,0c-1.2,1.2-1.2,3.1,0,4.3l4.2,4.2"/>
			<path class="st0" d="M65.4,76c-0.1,0-0.3,0-0.4-0.1l-4.2-4.2c-1.4-1.4-1.4-3.6,0-5s3.6-1.4,5,0l4.2,4.2c0.2,0.2,0.2,0.5,0,0.7
				s-0.5,0.2-0.7,0l-4.2-4.2c-1-1-2.6-1-3.6,0s-1,2.6,0,3.6l4.2,4.2c0.2,0.2,0.2,0.5,0,0.7C65.7,76,65.6,76,65.4,76z"/>
		</g>
		<g>
			<path class="st5" d="M74,67l-1.6-1.6c-1.2-1.2-3.1-1.2-4.3,0l0,0c-1.2,1.2-1.2,3.1,0,4.3l1.6,1.6"/>
			<path class="st0" d="M69.7,71.7c-0.1,0-0.3,0-0.4-0.1L67.8,70c-0.7-0.7-1-1.5-1-2.5s0.4-1.8,1-2.5c1.4-1.4,3.6-1.4,5,0l1.6,1.6
				c0.2,0.2,0.2,0.5,0,0.7s-0.5,0.2-0.7,0l-1.6-1.6c-1-1-2.6-1-3.6,0c-0.5,0.5-0.7,1.1-0.7,1.8s0.3,1.3,0.7,1.8l1.6,1.6
				c0.2,0.2,0.2,0.5,0,0.7C70,71.7,69.8,71.7,69.7,71.7z"/>
		</g>
		<g>
			<path class="st5" d="M78.2,62.7c-1.2-1.2-3.1-1.2-4.3,0l0,0c-1.2,1.2-1.2,3.1,0,4.3"/>
			<path class="st0" d="M74,67.5c-0.1,0-0.3,0-0.4-0.1c-1.4-1.4-1.4-3.6,0-5c1.3-1.3,3.6-1.3,5,0c0.2,0.2,0.2,0.5,0,0.7
				s-0.5,0.2-0.7,0c-1-1-2.6-1-3.6,0c-1,1-1,2.6,0,3.6c0.2,0.2,0.2,0.5,0,0.7C74.2,67.4,74.1,67.5,74,67.5z"/>
		</g>
		<g>
			<path class="st5" d="M78.2,62.7l9.7,9.7c2.8,2.8,3.5,7.1,2,10.5"/>
			<path class="st0" d="M89.9,83.4c-0.1,0-0.1,0-0.2,0c-0.3-0.1-0.4-0.4-0.3-0.7c1.5-3.4,0.7-7.3-1.9-10L77.8,63
				c-0.2-0.2-0.2-0.5,0-0.7s0.5-0.2,0.7,0l9.7,9.7c2.9,2.9,3.8,7.3,2.1,11.1C90.3,83.3,90.1,83.4,89.9,83.4z"/>
		</g>
		<g>
			<path class="st5" d="M61.2,79.8l5.1,5.1L59.4,78c-1.2-1.2-3.1-1.2-4.3,0s-1.2,3.1,0,4.3l2.7,2.7l0.1,0.1l2.3,2.3l6.3,6.3
				c2.9,2.9,7.1,3.5,10.5,2"/>
			<path class="st0" d="M73.3,97c-2.6,0-5.1-1-7.1-3L54.8,82.6c-0.7-0.7-1-1.5-1-2.5s0.4-1.8,1-2.5c1.3-1.3,3.6-1.3,5,0l1.8,1.8l0,0
				l5.1,5.1c0.2,0.2,0.2,0.5,0,0.7s-0.5,0.2-0.7,0l-6.8-6.8c-1-1-2.6-1-3.6,0s-1,2.6,0,3.6l11.5,11.5c2.6,2.6,6.6,3.4,10,1.9
				c0.3-0.1,0.5,0,0.7,0.3c0.1,0.3,0,0.5-0.3,0.7C76,96.8,74.7,97,73.3,97z"/>
		</g>
		<g>
			<line class="st1" x1="66.2" y1="84.8" x2="66.2" y2="86.8"/>
			<path class="st0" d="M66.2,87.3c-0.3,0-0.5-0.2-0.5-0.5v-2c0-0.3,0.2-0.5,0.5-0.5s0.5,0.2,0.5,0.5v2
				C66.7,87.1,66.5,87.3,66.2,87.3z"/>
		</g>
	</g>
</g>
</svg>
