<?xml version="1.0" encoding="utf-8"?>
<!-- Generator: Adobe Illustrator 23.1.0, SVG Export Plug-In . SVG Version: 6.00 Build 0)  -->
<svg version="1.1" id="Слой_1" xmlns="http://www.w3.org/2000/svg" xmlns:xlink="http://www.w3.org/1999/xlink" x="0px" y="0px"
	 viewBox="0 0 78.7 78.7" style="enable-background:new 0 0 78.7 78.7;" xml:space="preserve">
<style type="text/css">
	.st0{display:none;}
	.st1{display:inline;fill:#3AAA35;}
	.st2{display:inline;}
	.st3{fill:#FFFFFF;}
	.st4{fill:#3AAA35;}
	.st5{fill:none;}
	.st6{fill-rule:evenodd;clip-rule:evenodd;fill:#3AAA35;}
	.st7{fill-rule:evenodd;clip-rule:evenodd;fill:#FFFFFF;}
</style>
<g class="st0">
	<path class="st1" d="M58.8,70.5h-1.6c-1.3,0-2.3-0.9-2.3-2.1v-4c0-0.6-0.6-1.1-1.3-1.1H41.4c-0.7,0-1.3,0.5-1.3,1.1v4
		c0,1.1-1,2.1-2.3,2.1h-1.6c-1.3,0-2.3-0.9-2.3-2.1V26.6c0-1.1,1-2.1,2.3-2.1h22.6c1.3,0,2.3,0.9,2.3,2.1v41.9
		C61.1,69.6,60.1,70.5,58.8,70.5z M41.4,62.3h12.2c1.3,0,2.3,0.9,2.3,2.1v4c0,0.6,0.6,1.1,1.3,1.1h1.6c0.7,0,1.3-0.5,1.3-1.1V26.6
		c0-0.6-0.6-1.1-1.3-1.1H36.2c-0.7,0-1.3,0.5-1.3,1.1v41.9c0,0.6,0.6,1.1,1.3,1.1h1.6c0.7,0,1.3-0.5,1.3-1.1v-4
		C39.1,63.3,40.1,62.3,41.4,62.3z"/>
	<path class="st1" d="M47.5,45.1c-1.1,0-1.9-0.9-1.9-1.9s0.9-1.9,1.9-1.9s1.9,0.9,1.9,1.9S48.6,45.1,47.5,45.1z M47.5,42.2
		c-0.5,0-0.9,0.4-0.9,0.9S47,44,47.5,44s0.9-0.4,0.9-0.9S48,42.2,47.5,42.2z"/>
	<g class="st2">
		<g>
			<path class="st3" d="M37.7,52.5V13.6c0-1.8-1.5-3.3-3.3-3.3s-3.3,1.5-3.3,3.3v38.9c-1,0.9-1.7,2.3-1.7,3.8c0,2.8,2.2,5,5,5
				s5-2.2,5-5C39.4,54.7,38.8,53.4,37.7,52.5z"/>
			<path class="st4" d="M34.4,61.8c-3,0-5.5-2.5-5.5-5.5c0-1.5,0.6-2.9,1.7-4V13.6c0-2.1,1.7-3.8,3.8-3.8s3.8,1.7,3.8,3.8v38.7
				c1.1,1,1.7,2.5,1.7,4C39.9,59.3,37.4,61.8,34.4,61.8z M34.4,10.8c-1.5,0-2.8,1.3-2.8,2.8v38.9c0,0.1-0.1,0.3-0.2,0.4
				c-1,0.9-1.5,2.1-1.5,3.4c0,2.5,2,4.5,4.5,4.5s4.5-2,4.5-4.5c0-1.3-0.6-2.5-1.5-3.4c-0.1-0.1-0.2-0.2-0.2-0.4V13.6
				C37.2,12,36,10.8,34.4,10.8z"/>
		</g>
		<g>
			<path class="st4" d="M35.3,54.3v-17c0-0.5-0.4-0.8-0.8-0.8s-0.8,0.4-0.8,0.8v17c-0.8,0.3-1.4,1.1-1.4,2.1c0,1.2,1,2.3,2.3,2.3
				s2.3-1,2.3-2.3C36.7,55.4,36.1,54.6,35.3,54.3z"/>
			<path class="st4" d="M34.4,59.1c-1.5,0-2.8-1.2-2.8-2.8c0-1,0.5-1.9,1.4-2.4V37.3c0-0.7,0.6-1.3,1.3-1.3s1.3,0.6,1.3,1.3V54
				c0.9,0.5,1.4,1.4,1.4,2.4C37.2,57.9,35.9,59.1,34.4,59.1z M34.4,36.9c-0.2,0-0.3,0.2-0.3,0.3v17c0,0.2-0.1,0.4-0.3,0.5
				c-0.7,0.3-1.1,0.9-1.1,1.6c0,1,0.8,1.8,1.8,1.8s1.8-0.8,1.8-1.8c0-0.7-0.4-1.4-1.1-1.6c-0.2-0.1-0.3-0.3-0.3-0.5v-17
				C34.8,37.1,34.6,36.9,34.4,36.9z"/>
		</g>
	</g>
	<g class="st2">
		<path class="st4" d="M17.6,48c-0.3,0-0.5-0.2-0.5-0.5v-1.7c0-2.4,0.9-2.9,2.3-3.5c0.7-0.3,1.4-0.6,2.3-1.2
			c1.8-1.3,2.8-3.5,2.8-5.7c-0.1-3.6-3.1-6.6-6.7-6.7c-1.9-0.1-3.7,0.6-5,2c-1.3,1.3-2.1,3.1-2.1,5c0,0.3-0.2,0.5-0.5,0.5
			S9.7,36,9.7,35.7c0-2.2,0.9-4.2,2.4-5.7s3.6-2.3,5.7-2.2c4.1,0.1,7.6,3.6,7.7,7.7c0.1,2.6-1.1,5-3.2,6.6c-1,0.7-1.9,1.1-2.6,1.4
			C18.5,44,18,44.2,18,46v1.7C18.1,47.8,17.9,48,17.6,48z"/>
		<path class="st4" d="M17.6,53.3c-0.6,0-1.1-0.5-1.1-1.1s0.5-1.1,1.1-1.1s1.1,0.5,1.1,1.1S18.2,53.3,17.6,53.3z M17.6,52.1
			c-0.1,0-0.1,0-0.1,0.1s0.2,0.1,0.2,0L17.6,52.1z"/>
	</g>
</g>
<g>
	<path class="st4" d="M43.3,69.5h-4.9c-1.8,0-3.3-1.5-3.3-3.3v-5.1c0-4.4-1.9-8.6-5.3-11.8c-3.7-3.5-5.6-8.3-5.2-13.4
		c0.7-7.8,6.8-14,14.4-14.9c4.8-0.5,9.3,1,12.9,4.1c3.4,3.1,5.4,7.5,5.4,12.2c0,4.6-2,9-5.4,12.1c-3.4,3.1-5.3,7.4-5.3,11.9v4.9
		C46.6,68.1,45.1,69.5,43.3,69.5z M40.9,22c-0.6,0-1.1,0-1.7,0.1C32,22.8,26.3,28.7,25.6,36c-0.4,4.7,1.4,9.3,4.8,12.6
		c3.6,3.4,5.7,7.9,5.7,12.6v5.1c0,1.3,1,2.3,2.3,2.3h4.9c1.3,0,2.3-1,2.3-2.3v-4.9c0-4.8,2-9.3,5.7-12.7c3.2-2.9,5-7,5-11.3
		c0-4.4-1.8-8.5-5.1-11.4C48.4,23.3,44.7,22,40.9,22z"/>
	<path class="st4" d="M46.5,57.1H35.4c-0.3,0-0.5-0.2-0.5-0.5s0.2-0.5,0.5-0.5h11.1c0.3,0,0.5,0.2,0.5,0.5S46.8,57.1,46.5,57.1z"/>
	<path class="st4" d="M46.2,61.5H35.6c-0.3,0-0.5-0.2-0.5-0.5s0.2-0.5,0.5-0.5h10.6c0.3,0,0.5,0.2,0.5,0.5S46.5,61.5,46.2,61.5z"/>
	<path class="st4" d="M46.2,65.9H35.6c-0.3,0-0.5-0.2-0.5-0.5s0.2-0.5,0.5-0.5h10.6c0.3,0,0.5,0.2,0.5,0.5S46.5,65.9,46.2,65.9z"/>
	<path class="st4" d="M40.9,15.8c-0.3,0-0.5-0.2-0.5-0.5v-7c0-0.3,0.2-0.5,0.5-0.5s0.5,0.2,0.5,0.5v7C41.4,15.6,41.2,15.8,40.9,15.8
		z"/>
	<path class="st4" d="M18,38.7h-7c-0.3,0-0.5-0.2-0.5-0.5s0.2-0.5,0.5-0.5h7c0.3,0,0.5,0.2,0.5,0.5S18.3,38.7,18,38.7z"/>
	<path class="st4" d="M24.7,22.5c-0.1,0-0.3,0-0.4-0.1l-5-4.9c-0.2-0.2-0.2-0.5,0-0.7c0.2-0.2,0.5-0.2,0.7,0l5,4.9
		c0.2,0.2,0.2,0.5,0,0.7C25,22.5,24.8,22.5,24.7,22.5z"/>
	<path class="st4" d="M57.1,22.5c-0.1,0-0.3-0.1-0.4-0.1c-0.2-0.2-0.2-0.5,0-0.7l5-4.9c0.2-0.2,0.5-0.2,0.7,0c0.2,0.2,0.2,0.5,0,0.7
		l-5,4.9C57.4,22.5,57.2,22.5,57.1,22.5z"/>
	<path class="st4" d="M70.9,38.7h-7.1c-0.3,0-0.5-0.2-0.5-0.5s0.2-0.5,0.5-0.5h7.1c0.3,0,0.5,0.2,0.5,0.5S71.2,38.7,70.9,38.7z"/>
	<g>
		<path class="st4" d="M36.6,42.6c-0.7,0-1.3-0.1-1.8-0.3c-0.5-0.3-1-0.6-1.2-1c-0.3-0.4-0.4-1-0.4-1.6v-5.1c0-0.2,0.1-0.3,0.2-0.4
			c0.1-0.2,0.3-0.2,0.4-0.2c0.2,0,0.3,0.1,0.4,0.2c0.2,0.1,0.2,0.3,0.2,0.4v5.1c0,0.3,0.1,0.7,0.3,1c0.2,0.3,0.5,0.5,0.9,0.7
			c0.3,0.2,0.8,0.3,1.2,0.3s0.9-0.1,1.2-0.3s0.6-0.4,0.8-0.7c0.2-0.3,0.3-0.6,0.3-1v-5.1c0-0.2,0.1-0.3,0.2-0.4
			c0.1-0.2,0.3-0.2,0.4-0.2s0.3,0.1,0.4,0.2c0.2,0.1,0.2,0.3,0.2,0.4v5.1c0,0.6-0.2,1.1-0.4,1.6s-0.7,0.8-1.2,1S37.2,42.6,36.6,42.6
			z"/>
		<path class="st4" d="M45,42.4c-0.3,0-0.4-0.1-0.5-0.3l-3.1-7.2c-0.1-0.3-0.1-0.4,0-0.6s0.3-0.3,0.4-0.3c0.3,0,0.4,0.1,0.5,0.3
			l2.8,6.7H45l2.9-6.7C48,34.2,48,34,48.1,34c0.1,0,0.2-0.1,0.3-0.1s0.3,0.1,0.4,0.3s0.1,0.3,0,0.5l-3.2,7.3
			c-0.1,0.1-0.1,0.2-0.2,0.3C45.3,42.3,45.2,42.4,45,42.4z"/>
	</g>
</g>
<g id="Слой_3" class="st0">
	<path class="st1" d="M67,52.5H48.5c-0.3,0-0.5-0.2-0.5-0.5s0.2-0.5,0.5-0.5h18v-5c0-0.3,0.2-0.5,0.5-0.5s0.5,0.2,0.5,0.5V52
		C67.5,52.3,67.3,52.5,67,52.5z"/>
	<path class="st1" d="M61.5,47.6c-0.3,0-0.5-0.2-0.5-0.5V33.8c0-2.9,2.4-5.2,5.2-5.2h8.3c0.3,0,0.5,0.2,0.5,0.5s-0.2,0.5-0.5,0.5
		h-8.3c-2.3,0-4.2,1.9-4.2,4.2v13.3C62,47.3,61.8,47.6,61.5,47.6z"/>
	<path class="st1" d="M50.5,47.6c-0.3,0-0.5-0.2-0.5-0.5V33.8c0-2.3-1.9-4.2-4.2-4.2h-8.3c-0.3,0-0.5-0.2-0.5-0.5s0.2-0.5,0.5-0.5
		h8.3c2.9,0,5.2,2.4,5.2,5.2v13.3C51,47.3,50.8,47.6,50.5,47.6z"/>
	<path class="st1" d="M56,47.6c-0.3,0-0.5-0.2-0.5-0.5v-27c0-0.3,0.2-0.5,0.5-0.5s0.5,0.2,0.5,0.5v27C56.5,47.3,56.3,47.6,56,47.6z"
		/>
	<path class="st1" d="M68.5,35.5c-0.1,0-0.3,0-0.4-0.1c-0.2-0.2-0.2-0.5,0-0.7l5.6-5.6l-5.6-5.6c-0.2-0.2-0.2-0.5,0-0.7
		s0.5-0.2,0.7,0l6,6c0.2,0.2,0.2,0.5,0,0.7l-6,6C68.8,35.5,68.6,35.5,68.5,35.5z"/>
	<path class="st1" d="M43.2,35.5c-0.1,0-0.3,0-0.4-0.1l-6-6c-0.2-0.2-0.2-0.5,0-0.7l6-6c0.2-0.2,0.5-0.2,0.7,0s0.2,0.5,0,0.7
		L37.9,29l5.6,5.6c0.2,0.2,0.2,0.5,0,0.7C43.4,35.5,43.3,35.5,43.2,35.5z"/>
	<path class="st1" d="M62,25.5c-0.1,0-0.3,0-0.4-0.1L56,19.7l-5.6,5.6c-0.2,0.2-0.5,0.2-0.7,0s-0.2-0.5,0-0.7l6-6
		c0.2-0.2,0.5-0.2,0.7,0l6,6c0.2,0.2,0.2,0.5,0,0.7C62.3,25.5,62.1,25.5,62,25.5z"/>
	<g class="st2">
		<path class="st4" d="M25.7,67c-4,0-7.8-1.6-10.6-4.4S10.7,56,10.7,52s1.6-7.8,4.4-10.6c5.8-5.8,15.4-5.8,21.2,0l0,0
			c5.8,5.8,5.8,15.4,0,21.2C33.4,65.4,29.7,67,25.7,67z M25.7,38c-3.6,0-7.2,1.4-9.9,4.1c-2.6,2.6-4.1,6.2-4.1,9.9
			c0,3.7,1.5,7.3,4.1,9.9c2.6,2.6,6.2,4.1,9.9,4.1s7.3-1.5,9.9-4.1c5.5-5.5,5.5-14.3,0-19.8C32.8,39.4,29.2,38,25.7,38z"/>
		<path class="st4" d="M25.7,54.5c-0.7,0-1.3-0.3-1.8-0.7c-0.5-0.5-0.7-1.1-0.7-1.8s0.3-1.3,0.7-1.8c0.9-0.9,2.6-0.9,3.5,0l0,0l0,0
			c0.5,0.5,0.7,1.1,0.7,1.8s-0.3,1.3-0.7,1.8C26.9,54.2,26.3,54.5,25.7,54.5z M25.7,50.5c-0.4,0-0.8,0.2-1.1,0.4s-0.4,0.7-0.4,1.1
			c0,0.4,0.2,0.8,0.4,1.1c0.6,0.6,1.6,0.6,2.1,0c0.3-0.3,0.4-0.7,0.4-1.1c0-0.4-0.2-0.8-0.4-1.1l0,0C26.4,50.6,26.1,50.5,25.7,50.5z
			"/>
		<path class="st4" d="M25.7,71.4c-5,0-10-1.9-13.8-5.7c-6.3-6.3-7.5-15.9-3.1-23.6l-2.7-2.7c-1.7-1.7-1.7-4.4,0-6.1l1.7-1.6
			c1.7-1.7,4.4-1.7,6.1,0l2.9,2.9c7.6-3.9,16.6-2.5,22.7,3.6c7.6,7.6,7.6,20,0,27.6C35.6,69.5,30.6,71.4,25.7,71.4z M10.8,31.4
			c-0.8,0-1.7,0.3-2.3,1l-1.7,1.7c-1.3,1.3-1.3,3.4,0,4.7l3,3C10,42,10,42.2,9.9,42.4C5.4,49.7,6.5,59,12.6,65
			c7.2,7.2,19,7.2,26.2,0c7.2-7.2,7.2-19,0-26.2C33,33,24.2,31.7,17,35.6c-0.2,0.1-0.4,0.1-0.6-0.1l-3.2-3.2
			C12.5,31.7,11.7,31.4,10.8,31.4z"/>
		<path class="st4" d="M25.7,41.4c-0.3,0-0.5-0.2-0.5-0.5v-3.4c0-0.3,0.2-0.5,0.5-0.5s0.5,0.2,0.5,0.5v3.4
			C26.2,41.2,25.9,41.4,25.7,41.4z"/>
		<path class="st4" d="M40.2,52.5h-3.4c-0.3,0-0.5-0.2-0.5-0.5s0.2-0.5,0.5-0.5h3.4c0.3,0,0.5,0.2,0.5,0.5S40.4,52.5,40.2,52.5z"/>
		<path class="st4" d="M25.7,67c-0.3,0-0.5-0.2-0.5-0.5v-3.4c0-0.3,0.2-0.5,0.5-0.5s0.5,0.2,0.5,0.5v3.4C26.2,66.8,25.9,67,25.7,67z
			"/>
		<path class="st4" d="M14.6,52.5h-3.4c-0.3,0-0.5-0.2-0.5-0.5s0.2-0.5,0.5-0.5h3.4c0.3,0,0.5,0.2,0.5,0.5S14.9,52.5,14.6,52.5z"/>
		<g>
			<line class="st5" x1="27" y1="50.5" x2="33.9" y2="43.3"/>
			<path class="st4" d="M27,51c-0.1,0-0.2,0-0.3-0.1c-0.2-0.2-0.2-0.5,0-0.7l6.8-7.2c0.2-0.2,0.5-0.2,0.7,0s0.2,0.5,0,0.7l-6.8,7.2
				C27.3,51,27.2,51,27,51z"/>
		</g>
		<g>
			<line class="st5" x1="24.2" y1="50.6" x2="20.1" y2="46.4"/>
			<path class="st4" d="M24.2,51.1c-0.1,0-0.3,0-0.4-0.1l-4.1-4.1c-0.2-0.2-0.2-0.5,0-0.7s0.5-0.2,0.7,0l4.1,4.1
				c0.2,0.2,0.2,0.5,0,0.7C24.5,51,24.4,51.1,24.2,51.1z"/>
		</g>
	</g>
</g>
<g id="Слой_4" class="st0">
	<path class="st1" d="M61.4,73.6H43.7c-0.3,0-0.5-0.2-0.5-0.5s0.2-0.5,0.5-0.5h17.2V42.8L43.6,30.1c-0.2-0.2-0.3-0.5-0.1-0.7
		s0.5-0.3,0.7-0.1l17.5,12.9c0.1,0.1,0.2,0.2,0.2,0.4v30.6C61.9,73.4,61.7,73.6,61.4,73.6z"/>
	<path class="st1" d="M37.3,73.6c-0.1,0-0.2,0-0.3-0.1l-5.4-3.9c-9.9-7.3-15.7-18.1-15.7-29.7v-6.8c0-0.1,0.1-0.3,0.2-0.4
		c0.1-0.1,0.2-0.1,0.4-0.1l11,0.4c3.5,0,7-1.3,9.5-3.6c0.2-0.2,0.5-0.2,0.7,0s0.2,0.5,0,0.7C35,32.6,31.4,34,27.5,34L17,33.6v6.3
		c0,11.3,5.6,21.9,15.2,28.9l5.4,3.9c0.2,0.2,0.3,0.5,0.1,0.7C37.6,73.5,37.4,73.6,37.3,73.6z"/>
	<g class="st2">
		<path class="st4" d="M40.2,22.9c-3,0-5.4-2.4-5.4-5.4s2.4-5.4,5.4-5.4s5.4,2.4,5.4,5.4S43.2,22.9,40.2,22.9z M40.2,13
			c-2.4,0-4.4,2-4.4,4.4s2,4.4,4.4,4.4s4.4-2,4.4-4.4S42.6,13,40.2,13z"/>
		<g>
			<path class="st4" d="M45.1,25.8c-3,0-5.4-2.4-5.4-5.4s2.4-5.4,5.4-5.4s5.4,2.4,5.4,5.4c0,0.3-0.2,0.5-0.5,0.5s-0.5-0.2-0.5-0.5
				c0-2.4-2-4.4-4.4-4.4s-4.4,2-4.4,4.4s2,4.4,4.4,4.4c0.3,0,0.5,0.2,0.5,0.5S45.4,25.8,45.1,25.8z"/>
			<path class="st4" d="M40.2,17.2c-1.4,0-2.8-0.5-3.8-1.6c-2.1-2.1-2.1-5.6,0-7.7c0.1-0.2,0.4-0.2,0.6,0c0.2,0.2,0.2,0.5,0,0.7
				c-1.7,1.7-1.7,4.5,0,6.3c1.7,1.7,4.5,1.7,6.3,0c1.7-1.7,1.7-4.5,0-6.3c-0.2-0.2-0.2-0.5,0-0.7c0.2-0.2,0.5-0.2,0.7,0
				c2.1,2.1,2.1,5.6,0,7.7C43,16.6,41.6,17.2,40.2,17.2z"/>
			<path class="st4" d="M35.2,25.8c-0.3,0-0.5-0.2-0.5-0.5s0.2-0.5,0.5-0.5c2.4,0,4.4-2,4.4-4.4s-2-4.4-4.4-4.4s-4.4,2-4.4,4.4
				c0,0.3-0.2,0.5-0.5,0.5s-0.5-0.2-0.5-0.5c0-3,2.4-5.4,5.4-5.4s5.4,2.4,5.4,5.4C40.7,23.3,38.2,25.8,35.2,25.8z"/>
		</g>
		<g>
			<circle class="st3" cx="40.2" cy="17.5" r="2.1"/>
			<path class="st4" d="M40.2,20.1c-1.4,0-2.6-1.2-2.6-2.6s1.2-2.6,2.6-2.6s2.6,1.2,2.6,2.6C42.8,18.9,41.6,20.1,40.2,20.1z
				 M40.2,15.9c-0.9,0-1.6,0.7-1.6,1.6c0,0.9,0.7,1.6,1.6,1.6c0.9,0,1.6-0.7,1.6-1.6S41.1,15.9,40.2,15.9z"/>
		</g>
	</g>
	<g class="st2">
		<path class="st6" d="M40.1,42.6L40.1,42.6c1.2,0,2.3,0.9,2.5,2.1v0.1c0.2,1-0.6,2-1.6,2h-1.9c-1.1,0-1.9-1-1.6-2v-0.1
			C37.8,43.4,38.9,42.6,40.1,42.6z"/>
		<g>
			<circle class="st6" cx="40.1" cy="55.4" r="4.5"/>
			<path class="st4" d="M40.1,60.4c-1.3,0-2.5-0.5-3.5-1.5c-0.9-0.9-1.5-2.2-1.5-3.5s0.5-2.6,1.5-3.5c0.9-0.9,2.2-1.5,3.5-1.5l0,0
				c1.3,0,2.6,0.5,3.5,1.5l0,0c1.9,1.9,1.9,5.1,0,7C42.6,59.9,41.3,60.4,40.1,60.4z M40.1,51.5c-1,0-2,0.4-2.8,1.2
				c-0.7,0.7-1.2,1.7-1.2,2.8s0.4,2.1,1.2,2.8c1.5,1.5,4.1,1.5,5.6,0s1.5-4.1,0-5.6C42.1,51.8,41.1,51.5,40.1,51.5z"/>
		</g>
		<path class="st4" d="M40.1,59.2c-3.1,0-5.7-2.6-5.7-5.7c0-3.1,2.6-5.7,5.7-5.7c3.1,0,5.7,2.6,5.7,5.7S43.2,59.2,40.1,59.2z
			 M40.1,48.8c-2.6,0-4.7,2.1-4.7,4.7s2.1,4.7,4.7,4.7s4.7-2.1,4.7-4.7S42.7,48.8,40.1,48.8z"/>
		<g>
			<ellipse class="st7" cx="40.1" cy="53.5" rx="5.2" ry="5.2"/>
			<path class="st4" d="M40.1,59.2c-3.1,0-5.7-2.6-5.7-5.7c0-3.1,2.6-5.7,5.7-5.7c3.1,0,5.7,2.6,5.7,5.7S43.2,59.2,40.1,59.2z
				 M40.1,48.8c-2.6,0-4.7,2.1-4.7,4.7s2.1,4.7,4.7,4.7s4.7-2.1,4.7-4.7S42.7,48.8,40.1,48.8z"/>
		</g>
		<path class="st4" d="M50.5,52.2c-0.1,0-0.2,0-0.2,0l-2.2-0.1c-2-0.1-3.8-1.4-4.1-3l-0.3-1.7c0-0.2,0-0.3,0.1-0.5
			c0.1-0.1,0.3-0.2,0.5-0.1l6.8,1.5c0.9,0.2,1.5,0.7,1.7,1.4c0.2,0.6,0.1,1.1-0.3,1.6C52.1,51.9,51.3,52.2,50.5,52.2z M44.8,48
			l0.2,1c0.2,1.1,1.7,2.1,3.2,2.2l2.2,0.1c0.6,0,1.2-0.1,1.4-0.5c0.2-0.2,0.2-0.4,0.1-0.7c-0.1-0.3-0.5-0.6-1-0.7L44.8,48z"/>
		<g>
			<path class="st7" d="M44,46l8.3-3.3c0.8-0.3,1.7-0.2,2.2,0.3l0,0c1.1,1.1,0.8,2.8-0.8,3.8l-2.4,1.5c-1.9,1.2-4.5,1-5.8-0.4L44,46
				z"/>
			<path class="st4" d="M48.6,49.6c-1.3,0-2.6-0.5-3.4-1.4l-1.6-1.9c-0.1-0.1-0.1-0.3-0.1-0.4s0.2-0.3,0.3-0.3l8.3-3.3
				c1-0.4,2.1-0.2,2.8,0.4c0.6,0.6,0.9,1.3,0.8,2.1c-0.1,1-0.7,1.9-1.7,2.5l-2.4,1.5C50.7,49.4,49.7,49.6,48.6,49.6z M44.9,46.2
				l1.2,1.4c1.1,1.3,3.4,1.4,5.1,0.3l2.4-1.5c0.7-0.4,1.1-1.1,1.2-1.7c0.1-0.5-0.1-0.9-0.5-1.3c-0.4-0.4-1.1-0.5-1.7-0.2L44.9,46.2z
				"/>
		</g>
		<path class="st4" d="M29.7,52.2c-0.9,0-1.6-0.3-2.1-0.9c-0.4-0.5-0.5-1-0.3-1.6c0.2-0.7,0.9-1.2,1.7-1.4l6.8-1.5
			c0.2,0,0.3,0,0.5,0.1c0.1,0.1,0.2,0.3,0.1,0.5l-0.3,1.7c-0.3,1.5-2.1,2.8-4.1,3l-2.2,0.1C29.8,52.2,29.8,52.2,29.7,52.2z M35.4,48
			l-6.1,1.4c-0.5,0.1-0.9,0.5-1,0.7c-0.1,0.3,0,0.5,0.1,0.7c0.3,0.3,0.8,0.5,1.4,0.5l2.2-0.1c1.5-0.1,3-1.1,3.2-2.2L35.4,48z"/>
		<g>
			<path class="st7" d="M36.1,46l-8.3-3.3c-0.8-0.3-1.7-0.2-2.2,0.3l0,0c-1.1,1.1-0.8,2.8,0.8,3.8l2.4,1.5c1.9,1.2,4.5,1,5.8-0.4
				L36.1,46z"/>
			<path class="st4" d="M31.5,49.6c-1,0-2.1-0.3-3-0.9l-2.4-1.5c-1-0.6-1.6-1.5-1.7-2.5c-0.1-0.8,0.2-1.6,0.8-2.1
				c0.7-0.6,1.8-0.8,2.8-0.4l8.3,3.3c0.2,0.1,0.3,0.2,0.3,0.3s0,0.3-0.1,0.4l-1.6,1.9C34.1,49.2,32.8,49.6,31.5,49.6z M26.9,43.1
				c-0.4,0-0.8,0.1-1,0.3c-0.4,0.4-0.5,0.8-0.5,1.3c0.1,0.7,0.5,1.3,1.2,1.7l2.4,1.5c1.7,1.1,4,0.9,5.1-0.3l1.2-1.4l-7.6-3
				C27.4,43.1,27.1,43.1,26.9,43.1z"/>
		</g>
		<path class="st6" d="M45.1,52c0,1.5-2.2,2.6-5,2.6s-5-1.2-5-2.6c0-1.5,2.2-4.3,5-4.3C42.8,47.7,45.1,50.5,45.1,52z"/>
		<g>
			<path class="st7" d="M40.1,51.6L40.1,51.6c-1.9,0-3.5-1.3-3.9-3.1v-0.2c-0.3-1.6,0.9-3.1,2.5-3.1h2.8c1.6,0,2.8,1.5,2.5,3.1v0.2
				C43.5,50.3,41.9,51.6,40.1,51.6z"/>
			<path class="st4" d="M40.1,52.1c-2.1,0-3.9-1.5-4.3-3.5v-0.2c-0.2-0.9,0-1.8,0.6-2.5s1.4-1.1,2.4-1.1h2.8c0.9,0,1.8,0.4,2.4,1.1
				s0.8,1.6,0.6,2.5v0.2C44,50.6,42.2,52.1,40.1,52.1z M38.7,45.7c-0.6,0-1.2,0.3-1.6,0.8c-0.4,0.5-0.5,1.1-0.4,1.7v0.2
				c0.3,1.6,1.8,2.7,3.4,2.7c1.6,0,3-1.1,3.4-2.7v-0.2c0.1-0.6,0-1.2-0.4-1.7s-1-0.8-1.6-0.8H38.7z"/>
		</g>
		<path class="st4" d="M38.6,43.6c-0.1,0-0.3,0-0.4-0.1l-1.6-1.6c-0.2-0.2-0.2-0.5,0-0.7s0.5-0.2,0.7,0l1.6,1.6
			c0.2,0.2,0.2,0.5,0,0.7C38.8,43.5,38.7,43.6,38.6,43.6z"/>
		<path class="st4" d="M36.4,47.1c-0.2,0-0.3-0.1-0.4-0.2l-1.9-3.2c0-0.1-0.1-0.2-0.1-0.3v-1.7l-1.3-1.1c-0.2-0.2-0.2-0.5-0.1-0.7
			s0.5-0.2,0.7-0.1l1.5,1.2c0.1,0.1,0.2,0.2,0.2,0.4v1.8l1.8,3c0.1,0.2,0.1,0.5-0.2,0.7C36.6,47,36.5,47.1,36.4,47.1z"/>
		<path class="st4" d="M30.8,55.8c-0.2,0-0.4-0.1-0.5-0.4c-0.1-0.3,0.1-0.5,0.3-0.6l1.1-0.3l0.9-2.4c0-0.1,0.1-0.1,0.1-0.2l3.2-3.2
			c0.2-0.2,0.5-0.2,0.7,0s0.2,0.5,0,0.7l-3.2,3.1L32.5,55c-0.1,0.2-0.2,0.3-0.3,0.3l-1.3,0.4C30.9,55.8,30.8,55.8,30.8,55.8z"/>
		<path class="st4" d="M34.5,61.6L34.5,61.6c-0.3,0-0.5-0.2-0.5-0.5v-1.9l-1-2.7c0-0.1,0-0.2,0-0.3l1.5-4.4c0.1-0.3,0.4-0.4,0.6-0.3
			c0.3,0.1,0.4,0.4,0.3,0.6l-1.5,4.2l1,2.7c0,0.1,0,0.1,0,0.2v2C35,61.4,34.8,61.6,34.5,61.6z"/>
		<path class="st4" d="M41.6,43.6c-0.1,0-0.3,0-0.4-0.1c-0.2-0.2-0.2-0.5,0-0.7l1.6-1.6c0.2-0.2,0.5-0.2,0.7,0s0.2,0.5,0,0.7
			L42,43.4C41.9,43.5,41.8,43.6,41.6,43.6z"/>
		<path class="st4" d="M43.8,47.1c-0.1,0-0.2,0-0.3-0.1c-0.2-0.1-0.3-0.4-0.2-0.7l1.8-3v-1.8c0-0.2,0.1-0.3,0.2-0.4l1.5-1.2
			c0.2-0.2,0.5-0.1,0.7,0.1s0.1,0.5-0.1,0.7l-1.3,1v1.7c0,0.1,0,0.2-0.1,0.3l-1.9,3.2C44.1,47,43.9,47.1,43.8,47.1z"/>
		<path class="st4" d="M49.4,55.8L49.4,55.8L48,55.4c-0.2,0-0.3-0.2-0.3-0.3l-0.9-2.5l-3.2-3.1c-0.2-0.2-0.2-0.5,0-0.7
			s0.5-0.2,0.7,0l3.2,3.2c0.1,0.1,0.1,0.1,0.1,0.2l0.9,2.4l1.1,0.3c0.3,0.1,0.4,0.4,0.3,0.6C49.8,55.7,49.6,55.8,49.4,55.8z"/>
		<path class="st4" d="M45.7,61.6c-0.3,0-0.5-0.2-0.5-0.5v-2c0-0.1,0-0.1,0-0.2l1-2.7L44.7,52c-0.1-0.3,0-0.5,0.3-0.6s0.5,0,0.6,0.3
			l1.5,4.4c0,0.1,0,0.2,0,0.3l-1,2.7V61C46.2,61.4,45.9,61.6,45.7,61.6L45.7,61.6z"/>
	</g>
</g>
<g id="Слой_5" class="st0">
	<path class="st1" d="M54.8,70H27.9c-0.3,0-0.5-0.2-0.5-0.5s0.2-0.5,0.5-0.5h26.4V22.4L28,12.3c-0.3-0.1-0.4-0.4-0.3-0.6
		c0.1-0.3,0.4-0.4,0.6-0.3L55,21.6c0.2,0.1,0.3,0.3,0.3,0.5v47.5C55.3,69.8,55.1,70,54.8,70z"/>
	<g class="st2">
		<path class="st6" d="M27.3,36.1L27.3,36.1c1.1,0,2.1,0.8,2.4,1.9v0.1c0.2,1-0.5,1.9-1.5,1.9h-1.7c-1,0-1.7-0.9-1.5-1.9V38
			C25.2,36.9,26.1,36.1,27.3,36.1z"/>
		<g>
			<circle class="st6" cx="27.3" cy="48" r="4.1"/>
			<path class="st4" d="M27.3,52.6c-2.5,0-4.6-2.1-4.6-4.6c0-2.5,2.1-4.6,4.6-4.6c2.5,0,4.6,2.1,4.6,4.6
				C31.9,50.6,29.8,52.6,27.3,52.6z M27.3,44.4c-2,0-3.6,1.6-3.6,3.6c0,2,1.6,3.6,3.6,3.6s3.6-1.6,3.6-3.6
				C30.9,46.1,29.3,44.4,27.3,44.4z"/>
		</g>
		<path class="st4" d="M27.3,51.5c-1.4,0-2.7-0.5-3.7-1.5c-1-1-1.6-2.3-1.6-3.7s0.6-2.7,1.6-3.7l0,0l0,0c1-1,2.3-1.6,3.7-1.6
			c1.4,0,2.7,0.6,3.7,1.6s1.6,2.3,1.6,3.7S32,49,31,50C30,51,28.6,51.5,27.3,51.5z M27.3,41.9c-1.1,0-2.2,0.4-3,1.3l0,0
			c-0.8,0.8-1.3,1.9-1.3,3s0.4,2.2,1.3,3c1.7,1.7,4.4,1.7,6.1,0c0.8-0.8,1.3-1.9,1.3-3s-0.4-2.2-1.3-3
			C29.5,42.4,28.4,41.9,27.3,41.9z M23.9,42.8L23.9,42.8L23.9,42.8z"/>
		<g>
			<ellipse class="st7" cx="27.3" cy="46.2" rx="4.8" ry="4.8"/>
			<path class="st4" d="M27.3,51.5c-1.4,0-2.7-0.5-3.7-1.5c-1-1-1.6-2.3-1.6-3.7s0.6-2.7,1.6-3.7l0,0l0,0c1-1,2.3-1.6,3.7-1.6
				c1.4,0,2.7,0.6,3.7,1.6s1.6,2.3,1.6,3.7S32,49,31,50C30,51,28.6,51.5,27.3,51.5z M27.3,41.9c-1.1,0-2.2,0.4-3,1.3l0,0
				c-0.8,0.8-1.3,1.9-1.3,3s0.4,2.2,1.3,3c1.7,1.7,4.4,1.7,6.1,0c0.8-0.8,1.3-1.9,1.3-3s-0.4-2.2-1.3-3
				C29.5,42.4,28.4,41.9,27.3,41.9z M23.9,42.8L23.9,42.8L23.9,42.8z"/>
		</g>
		<path class="st4" d="M36.7,45.1l-2-0.1c-1.9-0.1-3.6-1.4-3.9-2.8l-0.3-1.6c0-0.2,0-0.3,0.1-0.5s0.3-0.2,0.5-0.1l6.3,1.4
			c0.7,0.1,1.4,0.6,1.7,1.3c0.2,0.6,0.1,1.1-0.2,1.5C38.4,44.8,37.6,45.1,36.7,45.1z M31.6,41.2l0.2,0.9c0.2,1,1.6,1.9,2.9,2l2,0.1
			c0.6,0,1.1-0.2,1.3-0.5c0.1-0.2,0.1-0.3,0.1-0.6c-0.1-0.3-0.5-0.6-0.9-0.7L31.6,41.2z"/>
		<g>
			<path class="st7" d="M30.9,39.3l7.7-3c0.8-0.3,1.6-0.2,2.1,0.3l0,0c1,1,0.7,2.6-0.7,3.5l-2.2,1.4c-1.8,1.1-4.2,0.9-5.3-0.4
				L30.9,39.3z"/>
			<path class="st4" d="M35.2,42.8c-1.2,0-2.4-0.4-3.1-1.3l-1.6-1.8c-0.1-0.1-0.2-0.3-0.1-0.4c0-0.2,0.2-0.3,0.3-0.3l7.7-3
				c1-0.4,2-0.2,2.6,0.4c0.5,0.5,0.8,1.3,0.7,2c-0.1,0.9-0.6,1.7-1.5,2.3L38.1,42C37.2,42.5,36.2,42.8,35.2,42.8z M31.8,39.5
				l1.1,1.3c1,1.1,3.1,1.3,4.7,0.3l2.2-1.4c0.6-0.4,1-0.9,1-1.5c0-0.5-0.1-0.9-0.4-1.2c-0.4-0.4-0.9-0.4-1.6-0.2L31.8,39.5z"/>
		</g>
		<path class="st4" d="M17.8,45.1c-1,0-1.8-0.3-2.2-0.9c-0.3-0.4-0.4-0.9-0.2-1.5c0.3-0.7,0.9-1.2,1.7-1.3l6.3-1.4
			c0.2,0,0.3,0,0.5,0.1c0.1,0.1,0.2,0.3,0.1,0.5l-0.3,1.6c-0.2,1.4-2,2.7-3.9,2.8L17.8,45.1C17.8,45.1,17.8,45.1,17.8,45.1z
			 M22.9,41.2l-5.6,1.2c-0.4,0.1-0.8,0.3-0.9,0.7c-0.1,0.2,0,0.4,0.1,0.5c0.2,0.3,0.7,0.5,1.3,0.5l2-0.1c1.4-0.1,2.8-1,2.9-2
			L22.9,41.2z"/>
		<g>
			<path class="st7" d="M23.6,39.3l-7.7-3c-0.8-0.3-1.6-0.2-2.1,0.3l0,0c-1,1-0.7,2.6,0.7,3.5l2.2,1.4c1.8,1.1,4.2,0.9,5.3-0.4
				L23.6,39.3z"/>
			<path class="st4" d="M19.3,42.8c-1,0-1.9-0.3-2.8-0.8l-2.2-1.4c-0.9-0.6-1.4-1.4-1.5-2.3c-0.1-0.8,0.2-1.5,0.7-2
				c0.6-0.6,1.6-0.8,2.6-0.4l7.7,3c0.2,0.1,0.3,0.2,0.3,0.3c0,0.2,0,0.3-0.1,0.4l-1.6,1.8C21.7,42.3,20.5,42.8,19.3,42.8z M15,36.7
				c-0.3,0-0.7,0.1-0.9,0.3c-0.3,0.3-0.5,0.7-0.4,1.2c0.1,0.6,0.4,1.1,1.1,1.5l2.2,1.4c1.6,1,3.7,0.8,4.6-0.3l1.1-1.3l-7-2.7
				C15.5,36.7,15.2,36.7,15,36.7z"/>
		</g>
		<path class="st6" d="M31.9,44.8c0,1.3-2.1,2.4-4.6,2.4c-2.6,0-4.6-1.1-4.6-2.4c0-1.3,2.1-4,4.6-4C29.8,40.9,31.9,43.5,31.9,44.8z"
			/>
		<g>
			<path class="st7" d="M27.3,44.4L27.3,44.4c-1.7,0-3.2-1.2-3.6-2.9v-0.2c-0.3-1.5,0.8-2.8,2.3-2.8h2.6c1.5,0,2.6,1.4,2.3,2.8v0.2
				C30.5,43.3,29,44.4,27.3,44.4z"/>
			<path class="st4" d="M27.3,44.9c-2,0-3.6-1.4-4.1-3.3c0,0,0-0.1,0-0.1v-0.2c-0.2-0.8,0-1.6,0.6-2.3c0.5-0.7,1.3-1,2.2-1h2.6
				c0.9,0,1.7,0.4,2.2,1.1c0.5,0.7,0.7,1.5,0.6,2.3v0.1c0,0,0,0.1,0,0.1C31,43.6,29.3,44.9,27.3,44.9z M24.2,41.5
				c0.4,1.5,1.6,2.5,3.1,2.5c1.5,0,2.7-1,3.1-2.5v-0.1c0,0,0-0.1,0-0.1c0.1-0.5,0-1.1-0.4-1.5c-0.4-0.4-0.9-0.7-1.4-0.7H26
				c-0.6,0-1.1,0.2-1.4,0.7c-0.3,0.4-0.5,1-0.4,1.5L24.2,41.5z"/>
		</g>
		<path class="st4" d="M25.9,37.1c-0.1,0-0.3,0-0.4-0.1L24,35.5c-0.2-0.2-0.2-0.5,0-0.7s0.5-0.2,0.7,0l1.5,1.5
			c0.2,0.2,0.2,0.5,0,0.7C26.2,37.1,26,37.1,25.9,37.1z"/>
		<path class="st4" d="M23.9,40.3c-0.2,0-0.3-0.1-0.4-0.2l-1.7-2.9c0-0.1-0.1-0.2-0.1-0.3v-1.6l-1.2-1c-0.2-0.2-0.3-0.5-0.1-0.7
			c0.2-0.2,0.5-0.3,0.7-0.1l1.4,1.1c0.1,0.1,0.2,0.2,0.2,0.4v1.7l1.6,2.8c0.1,0.2,0.1,0.5-0.2,0.7C24.1,40.3,24,40.3,23.9,40.3z"/>
		<path class="st4" d="M18.7,48.4c-0.2,0-0.4-0.2-0.5-0.4c-0.1-0.3,0.1-0.5,0.4-0.6l0.9-0.2l0.8-2.2c0-0.1,0.1-0.1,0.1-0.2l3-3
			c0.2-0.2,0.5-0.2,0.7,0s0.2,0.5,0,0.7l-2.9,2.9l-0.9,2.3c-0.1,0.2-0.2,0.3-0.3,0.3l-1.2,0.3C18.8,48.4,18.7,48.4,18.7,48.4z"/>
		<path class="st4" d="M22.1,53.8C22.1,53.8,22.1,53.8,22.1,53.8c-0.3,0-0.5-0.3-0.5-0.5l0.1-1.7l-1-2.5c0-0.1,0-0.2,0-0.4l1.5-4.1
			c0.1-0.3,0.4-0.4,0.6-0.3c0.3,0.1,0.4,0.4,0.3,0.6l-1.4,3.9l0.9,2.4c0,0.1,0,0.1,0,0.2l-0.1,1.8C22.6,53.6,22.4,53.8,22.1,53.8z"
			/>
		<path class="st4" d="M28.7,37.1c-0.1,0-0.3,0-0.4-0.1c-0.2-0.2-0.2-0.5,0-0.7l1.5-1.5c0.2-0.2,0.5-0.2,0.7,0s0.2,0.5,0,0.7
			L29.1,37C29,37.1,28.8,37.1,28.7,37.1z"/>
		<path class="st4" d="M30.7,40.3c-0.1,0-0.2,0-0.3-0.1c-0.2-0.1-0.3-0.4-0.2-0.7l1.6-2.8v-1.7c0-0.2,0.1-0.3,0.2-0.4l1.4-1.1
			c0.2-0.2,0.5-0.1,0.7,0.1c0.2,0.2,0.1,0.5-0.1,0.7l-1.2,1v1.6c0,0.1,0,0.2-0.1,0.3l-1.7,2.9C31,40.3,30.9,40.3,30.7,40.3z"/>
		<path class="st4" d="M35.9,48.4c0,0-0.1,0-0.1,0l-1.2-0.3c-0.2,0-0.3-0.2-0.3-0.3l-0.9-2.3l-2.9-2.9c-0.2-0.2-0.2-0.5,0-0.7
			s0.5-0.2,0.7,0l3,3c0.1,0.1,0.1,0.1,0.1,0.2l0.8,2.2l0.9,0.2c0.3,0.1,0.4,0.3,0.4,0.6C36.3,48.3,36.1,48.4,35.9,48.4z"/>
		<path class="st4" d="M32.4,53.8c-0.3,0-0.5-0.2-0.5-0.5v-1.8c0-0.1,0-0.1,0-0.2l0.9-2.4L31.4,45c-0.1-0.3,0-0.5,0.3-0.6
			c0.3-0.1,0.5,0,0.6,0.3l1.5,4.1c0,0.1,0,0.2,0,0.4l-1,2.5v1.7C32.9,53.6,32.7,53.8,32.4,53.8z"/>
	</g>
	<path class="st1" d="M49.3,63.7H29c-0.3,0-0.5-0.2-0.5-0.5s0.2-0.5,0.5-0.5h19.8V25.3H28.6c-0.3,0-0.5-0.2-0.5-0.5s0.2-0.5,0.5-0.5
		h20.7c0.3,0,0.5,0.2,0.5,0.5v38.4C49.8,63.5,49.6,63.7,49.3,63.7z"/>
	<path class="st1" d="M64.5,38.2H44.2c-0.3,0-0.5-0.2-0.5-0.5s0.2-0.5,0.5-0.5h20.3c0.3,0,0.5,0.2,0.5,0.5S64.8,38.2,64.5,38.2z"/>
	<path class="st1" d="M61.3,48.2H41c-0.3,0-0.5-0.2-0.5-0.5s0.2-0.5,0.5-0.5h20.3c0.3,0,0.5,0.2,0.5,0.5S61.6,48.2,61.3,48.2z"/>
	<path class="st1" d="M61.7,41.1c-0.1,0-0.3,0-0.4-0.1c-0.2-0.2-0.2-0.5,0-0.7l2.5-2.5l-2.5-2.5c-0.2-0.2-0.2-0.5,0-0.7
		s0.5-0.2,0.7,0l2.9,2.9c0.2,0.2,0.2,0.5,0,0.7L62.1,41C62,41.1,61.8,41.1,61.7,41.1z"/>
	<path class="st1" d="M43.5,51.1c-0.1,0-0.3,0-0.4-0.1l-2.9-2.9c-0.2-0.2-0.2-0.5,0-0.7l2.9-2.9c0.2-0.2,0.5-0.2,0.7,0
		s0.2,0.5,0,0.7l-2.5,2.5l2.5,2.5c0.2,0.2,0.2,0.5,0,0.7C43.8,51.1,43.6,51.1,43.5,51.1z"/>
</g>
</svg>
