<svg enable-background="new 0 0 78.7 78.7" viewBox="0 0 78.7 78.7" xmlns="http://www.w3.org/2000/svg"><g fill="#3aaa35"><path d="m43.3 69.5h-4.9c-1.8 0-3.3-1.5-3.3-3.3v-5.1c0-4.4-1.9-8.6-5.3-11.8-3.7-3.5-5.6-8.3-5.2-13.4.7-7.8 6.8-14 14.4-14.9 4.8-.5 9.3 1 12.9 4.1 3.4 3.1 5.4 7.5 5.4 12.2 0 4.6-2 9-5.4 12.1s-5.3 7.4-5.3 11.9v4.9c0 1.9-1.5 3.3-3.3 3.3zm-2.4-47.5c-.6 0-1.1 0-1.7.1-7.2.7-12.9 6.6-13.6 13.9-.4 4.7 1.4 9.3 4.8 12.6 3.6 3.4 5.7 7.9 5.7 12.6v5.1c0 1.3 1 2.3 2.3 2.3h4.9c1.3 0 2.3-1 2.3-2.3v-4.9c0-4.8 2-9.3 5.7-12.7 3.2-2.9 5-7 5-11.3 0-4.4-1.8-8.5-5.1-11.4-2.8-2.7-6.5-4-10.3-4z"/><path d="m46.5 57.1h-11.1c-.3 0-.5-.2-.5-.5s.2-.5.5-.5h11.1c.3 0 .5.2.5.5s-.2.5-.5.5z"/><path d="m46.2 61.5h-10.6c-.3 0-.5-.2-.5-.5s.2-.5.5-.5h10.6c.3 0 .5.2.5.5s-.2.5-.5.5z"/><path d="m46.2 65.9h-10.6c-.3 0-.5-.2-.5-.5s.2-.5.5-.5h10.6c.3 0 .5.2.5.5s-.2.5-.5.5z"/><path d="m40.9 15.8c-.3 0-.5-.2-.5-.5v-7c0-.3.2-.5.5-.5s.5.2.5.5v7c0 .3-.2.5-.5.5z"/><path d="m18 38.7h-7c-.3 0-.5-.2-.5-.5s.2-.5.5-.5h7c.3 0 .5.2.5.5s-.2.5-.5.5z"/><path d="m24.7 22.5c-.1 0-.3 0-.4-.1l-5-4.9c-.2-.2-.2-.5 0-.7s.5-.2.7 0l5 4.9c.2.2.2.5 0 .7 0 .1-.2.1-.3.1z"/><path d="m57.1 22.5c-.1 0-.3-.1-.4-.1-.2-.2-.2-.5 0-.7l5-4.9c.2-.2.5-.2.7 0s.2.5 0 .7l-5 4.9c-0 .1-.2.1-.3.1z"/><path d="m70.9 38.7h-7.1c-.3 0-.5-.2-.5-.5s.2-.5.5-.5h7.1c.3 0 .5.2.5.5s-.2.5-.5.5z"/><path d="m36.6 42.6c-.7 0-1.3-.1-1.8-.3-.5-.3-1-.6-1.2-1-.3-.4-.4-1-.4-1.6v-5.1c0-.2.1-.3.2-.4.1-.2.3-.2.4-.2.2 0 .3.1.4.2.2.1.2.3.2.4v5.1c0 .3.1.7.3 1s.5.5.9.7c.3.2.8.3 1.2.3s.9-.1 1.2-.3.6-.4.8-.7.3-.6.3-1v-5.1c0-.2.1-.3.2-.4.1-.2.3-.2.4-.2s.3.1.4.2c.2.1.2.3.2.4v5.1c0 .6-.2 1.1-.4 1.6s-.7.8-1.2 1-1.5.3-2.1.3z"/><path d="m45 42.4c-.3 0-.4-.1-.5-.3l-3.1-7.2c-.1-.3-.1-.4 0-.6s.3-.3.4-.3c.3 0 .4.1.5.3l2.8 6.7h-.1l2.9-6.7c.1-.1.1-.3.2-.3s.2-.1.3-.1.3.1.4.3.1.3 0 .5l-3.2 7.3c-.1.1-.1.2-.2.3-.1 0-.2.1-.4.1z"/></g></svg>